%TF.GenerationSoftware,KiCad,Pcbnew,7.0.9*%
%TF.CreationDate,2023-12-30T17:24:47+01:00*%
%TF.ProjectId,rainguage,7261696e-6775-4616-9765-2e6b69636164,rev?*%
%TF.SameCoordinates,Original*%
%TF.FileFunction,Legend,Top*%
%TF.FilePolarity,Positive*%
%FSLAX46Y46*%
G04 Gerber Fmt 4.6, Leading zero omitted, Abs format (unit mm)*
G04 Created by KiCad (PCBNEW 7.0.9) date 2023-12-30 17:24:47*
%MOMM*%
%LPD*%
G01*
G04 APERTURE LIST*
%ADD10C,0.152400*%
%ADD11C,0.150000*%
%ADD12C,0.120000*%
%ADD13C,0.203200*%
G04 APERTURE END LIST*
D10*
X169436015Y-110204803D02*
X169436015Y-110785375D01*
X169436015Y-110785375D02*
X169397310Y-110901489D01*
X169397310Y-110901489D02*
X169319901Y-110978899D01*
X169319901Y-110978899D02*
X169203786Y-111017603D01*
X169203786Y-111017603D02*
X169126377Y-111017603D01*
X170210110Y-111017603D02*
X169823062Y-111017603D01*
X169823062Y-111017603D02*
X169823062Y-110204803D01*
X170945500Y-110940194D02*
X170906796Y-110978899D01*
X170906796Y-110978899D02*
X170790681Y-111017603D01*
X170790681Y-111017603D02*
X170713272Y-111017603D01*
X170713272Y-111017603D02*
X170597158Y-110978899D01*
X170597158Y-110978899D02*
X170519748Y-110901489D01*
X170519748Y-110901489D02*
X170481043Y-110824079D01*
X170481043Y-110824079D02*
X170442339Y-110669260D01*
X170442339Y-110669260D02*
X170442339Y-110553146D01*
X170442339Y-110553146D02*
X170481043Y-110398327D01*
X170481043Y-110398327D02*
X170519748Y-110320918D01*
X170519748Y-110320918D02*
X170597158Y-110243508D01*
X170597158Y-110243508D02*
X170713272Y-110204803D01*
X170713272Y-110204803D02*
X170790681Y-110204803D01*
X170790681Y-110204803D02*
X170906796Y-110243508D01*
X170906796Y-110243508D02*
X170945500Y-110282213D01*
X171526072Y-110204803D02*
X171526072Y-110785375D01*
X171526072Y-110785375D02*
X171487367Y-110901489D01*
X171487367Y-110901489D02*
X171409958Y-110978899D01*
X171409958Y-110978899D02*
X171293843Y-111017603D01*
X171293843Y-111017603D02*
X171216434Y-111017603D01*
X172300167Y-111017603D02*
X171913119Y-111017603D01*
X171913119Y-111017603D02*
X171913119Y-110204803D01*
X173035557Y-110940194D02*
X172996853Y-110978899D01*
X172996853Y-110978899D02*
X172880738Y-111017603D01*
X172880738Y-111017603D02*
X172803329Y-111017603D01*
X172803329Y-111017603D02*
X172687215Y-110978899D01*
X172687215Y-110978899D02*
X172609805Y-110901489D01*
X172609805Y-110901489D02*
X172571100Y-110824079D01*
X172571100Y-110824079D02*
X172532396Y-110669260D01*
X172532396Y-110669260D02*
X172532396Y-110553146D01*
X172532396Y-110553146D02*
X172571100Y-110398327D01*
X172571100Y-110398327D02*
X172609805Y-110320918D01*
X172609805Y-110320918D02*
X172687215Y-110243508D01*
X172687215Y-110243508D02*
X172803329Y-110204803D01*
X172803329Y-110204803D02*
X172880738Y-110204803D01*
X172880738Y-110204803D02*
X172996853Y-110243508D01*
X172996853Y-110243508D02*
X173035557Y-110282213D01*
X173616129Y-110204803D02*
X173616129Y-110785375D01*
X173616129Y-110785375D02*
X173577424Y-110901489D01*
X173577424Y-110901489D02*
X173500015Y-110978899D01*
X173500015Y-110978899D02*
X173383900Y-111017603D01*
X173383900Y-111017603D02*
X173306491Y-111017603D01*
X174390224Y-111017603D02*
X174003176Y-111017603D01*
X174003176Y-111017603D02*
X174003176Y-110204803D01*
X175125614Y-110940194D02*
X175086910Y-110978899D01*
X175086910Y-110978899D02*
X174970795Y-111017603D01*
X174970795Y-111017603D02*
X174893386Y-111017603D01*
X174893386Y-111017603D02*
X174777272Y-110978899D01*
X174777272Y-110978899D02*
X174699862Y-110901489D01*
X174699862Y-110901489D02*
X174661157Y-110824079D01*
X174661157Y-110824079D02*
X174622453Y-110669260D01*
X174622453Y-110669260D02*
X174622453Y-110553146D01*
X174622453Y-110553146D02*
X174661157Y-110398327D01*
X174661157Y-110398327D02*
X174699862Y-110320918D01*
X174699862Y-110320918D02*
X174777272Y-110243508D01*
X174777272Y-110243508D02*
X174893386Y-110204803D01*
X174893386Y-110204803D02*
X174970795Y-110204803D01*
X174970795Y-110204803D02*
X175086910Y-110243508D01*
X175086910Y-110243508D02*
X175125614Y-110282213D01*
X175706186Y-110204803D02*
X175706186Y-110785375D01*
X175706186Y-110785375D02*
X175667481Y-110901489D01*
X175667481Y-110901489D02*
X175590072Y-110978899D01*
X175590072Y-110978899D02*
X175473957Y-111017603D01*
X175473957Y-111017603D02*
X175396548Y-111017603D01*
X176480281Y-111017603D02*
X176093233Y-111017603D01*
X176093233Y-111017603D02*
X176093233Y-110204803D01*
X177215671Y-110940194D02*
X177176967Y-110978899D01*
X177176967Y-110978899D02*
X177060852Y-111017603D01*
X177060852Y-111017603D02*
X176983443Y-111017603D01*
X176983443Y-111017603D02*
X176867329Y-110978899D01*
X176867329Y-110978899D02*
X176789919Y-110901489D01*
X176789919Y-110901489D02*
X176751214Y-110824079D01*
X176751214Y-110824079D02*
X176712510Y-110669260D01*
X176712510Y-110669260D02*
X176712510Y-110553146D01*
X176712510Y-110553146D02*
X176751214Y-110398327D01*
X176751214Y-110398327D02*
X176789919Y-110320918D01*
X176789919Y-110320918D02*
X176867329Y-110243508D01*
X176867329Y-110243508D02*
X176983443Y-110204803D01*
X176983443Y-110204803D02*
X177060852Y-110204803D01*
X177060852Y-110204803D02*
X177176967Y-110243508D01*
X177176967Y-110243508D02*
X177215671Y-110282213D01*
X169434934Y-127495090D02*
X169938096Y-127495090D01*
X169938096Y-127495090D02*
X169667162Y-127804728D01*
X169667162Y-127804728D02*
X169783277Y-127804728D01*
X169783277Y-127804728D02*
X169860686Y-127843433D01*
X169860686Y-127843433D02*
X169899391Y-127882138D01*
X169899391Y-127882138D02*
X169938096Y-127959547D01*
X169938096Y-127959547D02*
X169938096Y-128153071D01*
X169938096Y-128153071D02*
X169899391Y-128230481D01*
X169899391Y-128230481D02*
X169860686Y-128269186D01*
X169860686Y-128269186D02*
X169783277Y-128307890D01*
X169783277Y-128307890D02*
X169551048Y-128307890D01*
X169551048Y-128307890D02*
X169473639Y-128269186D01*
X169473639Y-128269186D02*
X169434934Y-128230481D01*
X170209029Y-127495090D02*
X170712191Y-127495090D01*
X170712191Y-127495090D02*
X170441257Y-127804728D01*
X170441257Y-127804728D02*
X170557372Y-127804728D01*
X170557372Y-127804728D02*
X170634781Y-127843433D01*
X170634781Y-127843433D02*
X170673486Y-127882138D01*
X170673486Y-127882138D02*
X170712191Y-127959547D01*
X170712191Y-127959547D02*
X170712191Y-128153071D01*
X170712191Y-128153071D02*
X170673486Y-128230481D01*
X170673486Y-128230481D02*
X170634781Y-128269186D01*
X170634781Y-128269186D02*
X170557372Y-128307890D01*
X170557372Y-128307890D02*
X170325143Y-128307890D01*
X170325143Y-128307890D02*
X170247734Y-128269186D01*
X170247734Y-128269186D02*
X170209029Y-128230481D01*
X171099238Y-128269186D02*
X171099238Y-128307890D01*
X171099238Y-128307890D02*
X171060533Y-128385300D01*
X171060533Y-128385300D02*
X171021829Y-128424005D01*
X171602400Y-127495090D02*
X171679810Y-127495090D01*
X171679810Y-127495090D02*
X171757219Y-127533795D01*
X171757219Y-127533795D02*
X171795924Y-127572500D01*
X171795924Y-127572500D02*
X171834629Y-127649909D01*
X171834629Y-127649909D02*
X171873334Y-127804728D01*
X171873334Y-127804728D02*
X171873334Y-127998252D01*
X171873334Y-127998252D02*
X171834629Y-128153071D01*
X171834629Y-128153071D02*
X171795924Y-128230481D01*
X171795924Y-128230481D02*
X171757219Y-128269186D01*
X171757219Y-128269186D02*
X171679810Y-128307890D01*
X171679810Y-128307890D02*
X171602400Y-128307890D01*
X171602400Y-128307890D02*
X171524991Y-128269186D01*
X171524991Y-128269186D02*
X171486286Y-128230481D01*
X171486286Y-128230481D02*
X171447581Y-128153071D01*
X171447581Y-128153071D02*
X171408877Y-127998252D01*
X171408877Y-127998252D02*
X171408877Y-127804728D01*
X171408877Y-127804728D02*
X171447581Y-127649909D01*
X171447581Y-127649909D02*
X171486286Y-127572500D01*
X171486286Y-127572500D02*
X171524991Y-127533795D01*
X171524991Y-127533795D02*
X171602400Y-127495090D01*
X172182972Y-127572500D02*
X172221676Y-127533795D01*
X172221676Y-127533795D02*
X172299086Y-127495090D01*
X172299086Y-127495090D02*
X172492610Y-127495090D01*
X172492610Y-127495090D02*
X172570019Y-127533795D01*
X172570019Y-127533795D02*
X172608724Y-127572500D01*
X172608724Y-127572500D02*
X172647429Y-127649909D01*
X172647429Y-127649909D02*
X172647429Y-127727319D01*
X172647429Y-127727319D02*
X172608724Y-127843433D01*
X172608724Y-127843433D02*
X172144267Y-128307890D01*
X172144267Y-128307890D02*
X172647429Y-128307890D01*
X173150590Y-127495090D02*
X173228000Y-127495090D01*
X173228000Y-127495090D02*
X173305409Y-127533795D01*
X173305409Y-127533795D02*
X173344114Y-127572500D01*
X173344114Y-127572500D02*
X173382819Y-127649909D01*
X173382819Y-127649909D02*
X173421524Y-127804728D01*
X173421524Y-127804728D02*
X173421524Y-127998252D01*
X173421524Y-127998252D02*
X173382819Y-128153071D01*
X173382819Y-128153071D02*
X173344114Y-128230481D01*
X173344114Y-128230481D02*
X173305409Y-128269186D01*
X173305409Y-128269186D02*
X173228000Y-128307890D01*
X173228000Y-128307890D02*
X173150590Y-128307890D01*
X173150590Y-128307890D02*
X173073181Y-128269186D01*
X173073181Y-128269186D02*
X173034476Y-128230481D01*
X173034476Y-128230481D02*
X172995771Y-128153071D01*
X172995771Y-128153071D02*
X172957067Y-127998252D01*
X172957067Y-127998252D02*
X172957067Y-127804728D01*
X172957067Y-127804728D02*
X172995771Y-127649909D01*
X172995771Y-127649909D02*
X173034476Y-127572500D01*
X173034476Y-127572500D02*
X173073181Y-127533795D01*
X173073181Y-127533795D02*
X173150590Y-127495090D01*
X173924685Y-127495090D02*
X174002095Y-127495090D01*
X174002095Y-127495090D02*
X174079504Y-127533795D01*
X174079504Y-127533795D02*
X174118209Y-127572500D01*
X174118209Y-127572500D02*
X174156914Y-127649909D01*
X174156914Y-127649909D02*
X174195619Y-127804728D01*
X174195619Y-127804728D02*
X174195619Y-127998252D01*
X174195619Y-127998252D02*
X174156914Y-128153071D01*
X174156914Y-128153071D02*
X174118209Y-128230481D01*
X174118209Y-128230481D02*
X174079504Y-128269186D01*
X174079504Y-128269186D02*
X174002095Y-128307890D01*
X174002095Y-128307890D02*
X173924685Y-128307890D01*
X173924685Y-128307890D02*
X173847276Y-128269186D01*
X173847276Y-128269186D02*
X173808571Y-128230481D01*
X173808571Y-128230481D02*
X173769866Y-128153071D01*
X173769866Y-128153071D02*
X173731162Y-127998252D01*
X173731162Y-127998252D02*
X173731162Y-127804728D01*
X173731162Y-127804728D02*
X173769866Y-127649909D01*
X173769866Y-127649909D02*
X173808571Y-127572500D01*
X173808571Y-127572500D02*
X173847276Y-127533795D01*
X173847276Y-127533795D02*
X173924685Y-127495090D01*
X175163237Y-128307890D02*
X175163237Y-127766024D01*
X175163237Y-127843433D02*
X175201942Y-127804728D01*
X175201942Y-127804728D02*
X175279352Y-127766024D01*
X175279352Y-127766024D02*
X175395466Y-127766024D01*
X175395466Y-127766024D02*
X175472875Y-127804728D01*
X175472875Y-127804728D02*
X175511580Y-127882138D01*
X175511580Y-127882138D02*
X175511580Y-128307890D01*
X175511580Y-127882138D02*
X175550285Y-127804728D01*
X175550285Y-127804728D02*
X175627694Y-127766024D01*
X175627694Y-127766024D02*
X175743809Y-127766024D01*
X175743809Y-127766024D02*
X175821218Y-127804728D01*
X175821218Y-127804728D02*
X175859923Y-127882138D01*
X175859923Y-127882138D02*
X175859923Y-128307890D01*
X176246970Y-128307890D02*
X176246970Y-127766024D01*
X176246970Y-127843433D02*
X176285675Y-127804728D01*
X176285675Y-127804728D02*
X176363085Y-127766024D01*
X176363085Y-127766024D02*
X176479199Y-127766024D01*
X176479199Y-127766024D02*
X176556608Y-127804728D01*
X176556608Y-127804728D02*
X176595313Y-127882138D01*
X176595313Y-127882138D02*
X176595313Y-128307890D01*
X176595313Y-127882138D02*
X176634018Y-127804728D01*
X176634018Y-127804728D02*
X176711427Y-127766024D01*
X176711427Y-127766024D02*
X176827542Y-127766024D01*
X176827542Y-127766024D02*
X176904951Y-127804728D01*
X176904951Y-127804728D02*
X176943656Y-127882138D01*
X176943656Y-127882138D02*
X176943656Y-128307890D01*
X156718000Y-121658000D02*
X156718000Y-129491419D01*
X189738000Y-121658000D02*
X189738000Y-129491419D01*
X156718000Y-128904999D02*
X189738000Y-128904999D01*
X156718000Y-128904999D02*
X189738000Y-128904999D01*
X156718000Y-128904999D02*
X157844504Y-128318578D01*
X156718000Y-128904999D02*
X157844504Y-129491420D01*
X189738000Y-128904999D02*
X188611496Y-129491420D01*
X189738000Y-128904999D02*
X188611496Y-128318578D01*
X168652243Y-63099995D02*
X168381310Y-62712948D01*
X168187786Y-63099995D02*
X168187786Y-62287195D01*
X168187786Y-62287195D02*
X168497424Y-62287195D01*
X168497424Y-62287195D02*
X168574834Y-62325900D01*
X168574834Y-62325900D02*
X168613539Y-62364605D01*
X168613539Y-62364605D02*
X168652243Y-62442014D01*
X168652243Y-62442014D02*
X168652243Y-62558129D01*
X168652243Y-62558129D02*
X168613539Y-62635538D01*
X168613539Y-62635538D02*
X168574834Y-62674243D01*
X168574834Y-62674243D02*
X168497424Y-62712948D01*
X168497424Y-62712948D02*
X168187786Y-62712948D01*
X169348929Y-63099995D02*
X169348929Y-62674243D01*
X169348929Y-62674243D02*
X169310224Y-62596833D01*
X169310224Y-62596833D02*
X169232815Y-62558129D01*
X169232815Y-62558129D02*
X169077996Y-62558129D01*
X169077996Y-62558129D02*
X169000586Y-62596833D01*
X169348929Y-63061291D02*
X169271520Y-63099995D01*
X169271520Y-63099995D02*
X169077996Y-63099995D01*
X169077996Y-63099995D02*
X169000586Y-63061291D01*
X169000586Y-63061291D02*
X168961882Y-62983881D01*
X168961882Y-62983881D02*
X168961882Y-62906471D01*
X168961882Y-62906471D02*
X169000586Y-62829062D01*
X169000586Y-62829062D02*
X169077996Y-62790357D01*
X169077996Y-62790357D02*
X169271520Y-62790357D01*
X169271520Y-62790357D02*
X169348929Y-62751652D01*
X169735976Y-63099995D02*
X169735976Y-62558129D01*
X169735976Y-62287195D02*
X169697272Y-62325900D01*
X169697272Y-62325900D02*
X169735976Y-62364605D01*
X169735976Y-62364605D02*
X169774681Y-62325900D01*
X169774681Y-62325900D02*
X169735976Y-62287195D01*
X169735976Y-62287195D02*
X169735976Y-62364605D01*
X170123024Y-62558129D02*
X170123024Y-63099995D01*
X170123024Y-62635538D02*
X170161729Y-62596833D01*
X170161729Y-62596833D02*
X170239139Y-62558129D01*
X170239139Y-62558129D02*
X170355253Y-62558129D01*
X170355253Y-62558129D02*
X170432662Y-62596833D01*
X170432662Y-62596833D02*
X170471367Y-62674243D01*
X170471367Y-62674243D02*
X170471367Y-63099995D01*
X171206757Y-62558129D02*
X171206757Y-63216110D01*
X171206757Y-63216110D02*
X171168052Y-63293519D01*
X171168052Y-63293519D02*
X171129348Y-63332224D01*
X171129348Y-63332224D02*
X171051938Y-63370929D01*
X171051938Y-63370929D02*
X170935824Y-63370929D01*
X170935824Y-63370929D02*
X170858414Y-63332224D01*
X171206757Y-63061291D02*
X171129348Y-63099995D01*
X171129348Y-63099995D02*
X170974529Y-63099995D01*
X170974529Y-63099995D02*
X170897119Y-63061291D01*
X170897119Y-63061291D02*
X170858414Y-63022586D01*
X170858414Y-63022586D02*
X170819710Y-62945176D01*
X170819710Y-62945176D02*
X170819710Y-62712948D01*
X170819710Y-62712948D02*
X170858414Y-62635538D01*
X170858414Y-62635538D02*
X170897119Y-62596833D01*
X170897119Y-62596833D02*
X170974529Y-62558129D01*
X170974529Y-62558129D02*
X171129348Y-62558129D01*
X171129348Y-62558129D02*
X171206757Y-62596833D01*
X171942147Y-63099995D02*
X171942147Y-62674243D01*
X171942147Y-62674243D02*
X171903442Y-62596833D01*
X171903442Y-62596833D02*
X171826033Y-62558129D01*
X171826033Y-62558129D02*
X171671214Y-62558129D01*
X171671214Y-62558129D02*
X171593804Y-62596833D01*
X171942147Y-63061291D02*
X171864738Y-63099995D01*
X171864738Y-63099995D02*
X171671214Y-63099995D01*
X171671214Y-63099995D02*
X171593804Y-63061291D01*
X171593804Y-63061291D02*
X171555100Y-62983881D01*
X171555100Y-62983881D02*
X171555100Y-62906471D01*
X171555100Y-62906471D02*
X171593804Y-62829062D01*
X171593804Y-62829062D02*
X171671214Y-62790357D01*
X171671214Y-62790357D02*
X171864738Y-62790357D01*
X171864738Y-62790357D02*
X171942147Y-62751652D01*
X172677537Y-62558129D02*
X172677537Y-63099995D01*
X172329194Y-62558129D02*
X172329194Y-62983881D01*
X172329194Y-62983881D02*
X172367899Y-63061291D01*
X172367899Y-63061291D02*
X172445309Y-63099995D01*
X172445309Y-63099995D02*
X172561423Y-63099995D01*
X172561423Y-63099995D02*
X172638832Y-63061291D01*
X172638832Y-63061291D02*
X172677537Y-63022586D01*
X173412927Y-62558129D02*
X173412927Y-63216110D01*
X173412927Y-63216110D02*
X173374222Y-63293519D01*
X173374222Y-63293519D02*
X173335518Y-63332224D01*
X173335518Y-63332224D02*
X173258108Y-63370929D01*
X173258108Y-63370929D02*
X173141994Y-63370929D01*
X173141994Y-63370929D02*
X173064584Y-63332224D01*
X173412927Y-63061291D02*
X173335518Y-63099995D01*
X173335518Y-63099995D02*
X173180699Y-63099995D01*
X173180699Y-63099995D02*
X173103289Y-63061291D01*
X173103289Y-63061291D02*
X173064584Y-63022586D01*
X173064584Y-63022586D02*
X173025880Y-62945176D01*
X173025880Y-62945176D02*
X173025880Y-62712948D01*
X173025880Y-62712948D02*
X173064584Y-62635538D01*
X173064584Y-62635538D02*
X173103289Y-62596833D01*
X173103289Y-62596833D02*
X173180699Y-62558129D01*
X173180699Y-62558129D02*
X173335518Y-62558129D01*
X173335518Y-62558129D02*
X173412927Y-62596833D01*
X174109612Y-63061291D02*
X174032203Y-63099995D01*
X174032203Y-63099995D02*
X173877384Y-63099995D01*
X173877384Y-63099995D02*
X173799974Y-63061291D01*
X173799974Y-63061291D02*
X173761270Y-62983881D01*
X173761270Y-62983881D02*
X173761270Y-62674243D01*
X173761270Y-62674243D02*
X173799974Y-62596833D01*
X173799974Y-62596833D02*
X173877384Y-62558129D01*
X173877384Y-62558129D02*
X174032203Y-62558129D01*
X174032203Y-62558129D02*
X174109612Y-62596833D01*
X174109612Y-62596833D02*
X174148317Y-62674243D01*
X174148317Y-62674243D02*
X174148317Y-62751652D01*
X174148317Y-62751652D02*
X173761270Y-62829062D01*
X175115936Y-63099995D02*
X175115936Y-62287195D01*
X175115936Y-62287195D02*
X175386870Y-62867767D01*
X175386870Y-62867767D02*
X175657803Y-62287195D01*
X175657803Y-62287195D02*
X175657803Y-63099995D01*
X176393193Y-63099995D02*
X176393193Y-62674243D01*
X176393193Y-62674243D02*
X176354488Y-62596833D01*
X176354488Y-62596833D02*
X176277079Y-62558129D01*
X176277079Y-62558129D02*
X176122260Y-62558129D01*
X176122260Y-62558129D02*
X176044850Y-62596833D01*
X176393193Y-63061291D02*
X176315784Y-63099995D01*
X176315784Y-63099995D02*
X176122260Y-63099995D01*
X176122260Y-63099995D02*
X176044850Y-63061291D01*
X176044850Y-63061291D02*
X176006146Y-62983881D01*
X176006146Y-62983881D02*
X176006146Y-62906471D01*
X176006146Y-62906471D02*
X176044850Y-62829062D01*
X176044850Y-62829062D02*
X176122260Y-62790357D01*
X176122260Y-62790357D02*
X176315784Y-62790357D01*
X176315784Y-62790357D02*
X176393193Y-62751652D01*
X176780240Y-63099995D02*
X176780240Y-62558129D01*
X176780240Y-62712948D02*
X176818945Y-62635538D01*
X176818945Y-62635538D02*
X176857650Y-62596833D01*
X176857650Y-62596833D02*
X176935059Y-62558129D01*
X176935059Y-62558129D02*
X177012469Y-62558129D01*
X177283402Y-63099995D02*
X177283402Y-62287195D01*
X177360812Y-62790357D02*
X177593040Y-63099995D01*
X177593040Y-62558129D02*
X177283402Y-62867767D01*
X178560659Y-63099995D02*
X178560659Y-62287195D01*
X178947707Y-63099995D02*
X178947707Y-62287195D01*
X168613539Y-63634508D02*
X168536129Y-63595803D01*
X168536129Y-63595803D02*
X168420015Y-63595803D01*
X168420015Y-63595803D02*
X168303901Y-63634508D01*
X168303901Y-63634508D02*
X168226491Y-63711918D01*
X168226491Y-63711918D02*
X168187786Y-63789327D01*
X168187786Y-63789327D02*
X168149082Y-63944146D01*
X168149082Y-63944146D02*
X168149082Y-64060260D01*
X168149082Y-64060260D02*
X168187786Y-64215079D01*
X168187786Y-64215079D02*
X168226491Y-64292489D01*
X168226491Y-64292489D02*
X168303901Y-64369899D01*
X168303901Y-64369899D02*
X168420015Y-64408603D01*
X168420015Y-64408603D02*
X168497424Y-64408603D01*
X168497424Y-64408603D02*
X168613539Y-64369899D01*
X168613539Y-64369899D02*
X168652243Y-64331194D01*
X168652243Y-64331194D02*
X168652243Y-64060260D01*
X168652243Y-64060260D02*
X168497424Y-64060260D01*
X169348929Y-63866737D02*
X169348929Y-64408603D01*
X169000586Y-63866737D02*
X169000586Y-64292489D01*
X169000586Y-64292489D02*
X169039291Y-64369899D01*
X169039291Y-64369899D02*
X169116701Y-64408603D01*
X169116701Y-64408603D02*
X169232815Y-64408603D01*
X169232815Y-64408603D02*
X169310224Y-64369899D01*
X169310224Y-64369899D02*
X169348929Y-64331194D01*
X169735976Y-64408603D02*
X169735976Y-63866737D01*
X169735976Y-63595803D02*
X169697272Y-63634508D01*
X169697272Y-63634508D02*
X169735976Y-63673213D01*
X169735976Y-63673213D02*
X169774681Y-63634508D01*
X169774681Y-63634508D02*
X169735976Y-63595803D01*
X169735976Y-63595803D02*
X169735976Y-63673213D01*
X170432662Y-64369899D02*
X170355253Y-64408603D01*
X170355253Y-64408603D02*
X170200434Y-64408603D01*
X170200434Y-64408603D02*
X170123024Y-64369899D01*
X170123024Y-64369899D02*
X170084320Y-64292489D01*
X170084320Y-64292489D02*
X170084320Y-63982851D01*
X170084320Y-63982851D02*
X170123024Y-63905441D01*
X170123024Y-63905441D02*
X170200434Y-63866737D01*
X170200434Y-63866737D02*
X170355253Y-63866737D01*
X170355253Y-63866737D02*
X170432662Y-63905441D01*
X170432662Y-63905441D02*
X170471367Y-63982851D01*
X170471367Y-63982851D02*
X170471367Y-64060260D01*
X170471367Y-64060260D02*
X170084320Y-64137670D01*
X170703596Y-63866737D02*
X171013234Y-63866737D01*
X170819710Y-63595803D02*
X170819710Y-64292489D01*
X170819710Y-64292489D02*
X170858415Y-64369899D01*
X170858415Y-64369899D02*
X170935825Y-64408603D01*
X170935825Y-64408603D02*
X171013234Y-64408603D01*
X171903443Y-64098965D02*
X172522720Y-64098965D01*
X173954796Y-64408603D02*
X173490339Y-64408603D01*
X173722567Y-64408603D02*
X173722567Y-63595803D01*
X173722567Y-63595803D02*
X173645158Y-63711918D01*
X173645158Y-63711918D02*
X173567748Y-63789327D01*
X173567748Y-63789327D02*
X173490339Y-63828032D01*
X174264434Y-63673213D02*
X174303138Y-63634508D01*
X174303138Y-63634508D02*
X174380548Y-63595803D01*
X174380548Y-63595803D02*
X174574072Y-63595803D01*
X174574072Y-63595803D02*
X174651481Y-63634508D01*
X174651481Y-63634508D02*
X174690186Y-63673213D01*
X174690186Y-63673213D02*
X174728891Y-63750622D01*
X174728891Y-63750622D02*
X174728891Y-63828032D01*
X174728891Y-63828032D02*
X174690186Y-63944146D01*
X174690186Y-63944146D02*
X174225729Y-64408603D01*
X174225729Y-64408603D02*
X174728891Y-64408603D01*
X175657805Y-63557099D02*
X174961119Y-64602127D01*
X175890034Y-63673213D02*
X175928738Y-63634508D01*
X175928738Y-63634508D02*
X176006148Y-63595803D01*
X176006148Y-63595803D02*
X176199672Y-63595803D01*
X176199672Y-63595803D02*
X176277081Y-63634508D01*
X176277081Y-63634508D02*
X176315786Y-63673213D01*
X176315786Y-63673213D02*
X176354491Y-63750622D01*
X176354491Y-63750622D02*
X176354491Y-63828032D01*
X176354491Y-63828032D02*
X176315786Y-63944146D01*
X176315786Y-63944146D02*
X175851329Y-64408603D01*
X175851329Y-64408603D02*
X176354491Y-64408603D01*
X176857652Y-63595803D02*
X176935062Y-63595803D01*
X176935062Y-63595803D02*
X177012471Y-63634508D01*
X177012471Y-63634508D02*
X177051176Y-63673213D01*
X177051176Y-63673213D02*
X177089881Y-63750622D01*
X177089881Y-63750622D02*
X177128586Y-63905441D01*
X177128586Y-63905441D02*
X177128586Y-64098965D01*
X177128586Y-64098965D02*
X177089881Y-64253784D01*
X177089881Y-64253784D02*
X177051176Y-64331194D01*
X177051176Y-64331194D02*
X177012471Y-64369899D01*
X177012471Y-64369899D02*
X176935062Y-64408603D01*
X176935062Y-64408603D02*
X176857652Y-64408603D01*
X176857652Y-64408603D02*
X176780243Y-64369899D01*
X176780243Y-64369899D02*
X176741538Y-64331194D01*
X176741538Y-64331194D02*
X176702833Y-64253784D01*
X176702833Y-64253784D02*
X176664129Y-64098965D01*
X176664129Y-64098965D02*
X176664129Y-63905441D01*
X176664129Y-63905441D02*
X176702833Y-63750622D01*
X176702833Y-63750622D02*
X176741538Y-63673213D01*
X176741538Y-63673213D02*
X176780243Y-63634508D01*
X176780243Y-63634508D02*
X176857652Y-63595803D01*
X177438224Y-63673213D02*
X177476928Y-63634508D01*
X177476928Y-63634508D02*
X177554338Y-63595803D01*
X177554338Y-63595803D02*
X177747862Y-63595803D01*
X177747862Y-63595803D02*
X177825271Y-63634508D01*
X177825271Y-63634508D02*
X177863976Y-63673213D01*
X177863976Y-63673213D02*
X177902681Y-63750622D01*
X177902681Y-63750622D02*
X177902681Y-63828032D01*
X177902681Y-63828032D02*
X177863976Y-63944146D01*
X177863976Y-63944146D02*
X177399519Y-64408603D01*
X177399519Y-64408603D02*
X177902681Y-64408603D01*
X178173614Y-63595803D02*
X178676776Y-63595803D01*
X178676776Y-63595803D02*
X178405842Y-63905441D01*
X178405842Y-63905441D02*
X178521957Y-63905441D01*
X178521957Y-63905441D02*
X178599366Y-63944146D01*
X178599366Y-63944146D02*
X178638071Y-63982851D01*
X178638071Y-63982851D02*
X178676776Y-64060260D01*
X178676776Y-64060260D02*
X178676776Y-64253784D01*
X178676776Y-64253784D02*
X178638071Y-64331194D01*
X178638071Y-64331194D02*
X178599366Y-64369899D01*
X178599366Y-64369899D02*
X178521957Y-64408603D01*
X178521957Y-64408603D02*
X178289728Y-64408603D01*
X178289728Y-64408603D02*
X178212319Y-64369899D01*
X178212319Y-64369899D02*
X178173614Y-64331194D01*
X177907396Y-66333786D02*
X178720196Y-66333786D01*
X178333148Y-66333786D02*
X178333148Y-66798243D01*
X177907396Y-66798243D02*
X178720196Y-66798243D01*
X177907396Y-67533634D02*
X178333148Y-67533634D01*
X178333148Y-67533634D02*
X178410558Y-67494929D01*
X178410558Y-67494929D02*
X178449262Y-67417520D01*
X178449262Y-67417520D02*
X178449262Y-67262701D01*
X178449262Y-67262701D02*
X178410558Y-67185291D01*
X177946101Y-67533634D02*
X177907396Y-67456225D01*
X177907396Y-67456225D02*
X177907396Y-67262701D01*
X177907396Y-67262701D02*
X177946101Y-67185291D01*
X177946101Y-67185291D02*
X178023510Y-67146587D01*
X178023510Y-67146587D02*
X178100920Y-67146587D01*
X178100920Y-67146587D02*
X178178329Y-67185291D01*
X178178329Y-67185291D02*
X178217034Y-67262701D01*
X178217034Y-67262701D02*
X178217034Y-67456225D01*
X178217034Y-67456225D02*
X178255739Y-67533634D01*
X177907396Y-68036796D02*
X177946101Y-67959386D01*
X177946101Y-67959386D02*
X178023510Y-67920681D01*
X178023510Y-67920681D02*
X178720196Y-67920681D01*
X177907396Y-68462548D02*
X177946101Y-68385138D01*
X177946101Y-68385138D02*
X178023510Y-68346433D01*
X178023510Y-68346433D02*
X178720196Y-68346433D01*
X177946101Y-69701099D02*
X177907396Y-69623690D01*
X177907396Y-69623690D02*
X177907396Y-69468871D01*
X177907396Y-69468871D02*
X177946101Y-69391461D01*
X177946101Y-69391461D02*
X178023510Y-69352757D01*
X178023510Y-69352757D02*
X178333148Y-69352757D01*
X178333148Y-69352757D02*
X178410558Y-69391461D01*
X178410558Y-69391461D02*
X178449262Y-69468871D01*
X178449262Y-69468871D02*
X178449262Y-69623690D01*
X178449262Y-69623690D02*
X178410558Y-69701099D01*
X178410558Y-69701099D02*
X178333148Y-69739804D01*
X178333148Y-69739804D02*
X178255739Y-69739804D01*
X178255739Y-69739804D02*
X178178329Y-69352757D01*
X178449262Y-69972033D02*
X178449262Y-70281671D01*
X177907396Y-70088147D02*
X178604081Y-70088147D01*
X178604081Y-70088147D02*
X178681491Y-70126852D01*
X178681491Y-70126852D02*
X178720196Y-70204262D01*
X178720196Y-70204262D02*
X178720196Y-70281671D01*
X178449262Y-70436490D02*
X178449262Y-70746128D01*
X177907396Y-70552604D02*
X178604081Y-70552604D01*
X178604081Y-70552604D02*
X178681491Y-70591309D01*
X178681491Y-70591309D02*
X178720196Y-70668719D01*
X178720196Y-70668719D02*
X178720196Y-70746128D01*
X177946101Y-71326699D02*
X177907396Y-71249290D01*
X177907396Y-71249290D02*
X177907396Y-71094471D01*
X177907396Y-71094471D02*
X177946101Y-71017061D01*
X177946101Y-71017061D02*
X178023510Y-70978357D01*
X178023510Y-70978357D02*
X178333148Y-70978357D01*
X178333148Y-70978357D02*
X178410558Y-71017061D01*
X178410558Y-71017061D02*
X178449262Y-71094471D01*
X178449262Y-71094471D02*
X178449262Y-71249290D01*
X178449262Y-71249290D02*
X178410558Y-71326699D01*
X178410558Y-71326699D02*
X178333148Y-71365404D01*
X178333148Y-71365404D02*
X178255739Y-71365404D01*
X178255739Y-71365404D02*
X178178329Y-70978357D01*
X177946101Y-72062090D02*
X177907396Y-71984681D01*
X177907396Y-71984681D02*
X177907396Y-71829862D01*
X177907396Y-71829862D02*
X177946101Y-71752452D01*
X177946101Y-71752452D02*
X177984805Y-71713747D01*
X177984805Y-71713747D02*
X178062215Y-71675043D01*
X178062215Y-71675043D02*
X178294443Y-71675043D01*
X178294443Y-71675043D02*
X178371853Y-71713747D01*
X178371853Y-71713747D02*
X178410558Y-71752452D01*
X178410558Y-71752452D02*
X178449262Y-71829862D01*
X178449262Y-71829862D02*
X178449262Y-71984681D01*
X178449262Y-71984681D02*
X178410558Y-72062090D01*
X178449262Y-72294319D02*
X178449262Y-72603957D01*
X178720196Y-72410433D02*
X178023510Y-72410433D01*
X178023510Y-72410433D02*
X177946101Y-72449138D01*
X177946101Y-72449138D02*
X177907396Y-72526548D01*
X177907396Y-72526548D02*
X177907396Y-72603957D01*
X177946101Y-73455462D02*
X177907396Y-73532871D01*
X177907396Y-73532871D02*
X177907396Y-73687690D01*
X177907396Y-73687690D02*
X177946101Y-73765100D01*
X177946101Y-73765100D02*
X178023510Y-73803804D01*
X178023510Y-73803804D02*
X178062215Y-73803804D01*
X178062215Y-73803804D02*
X178139624Y-73765100D01*
X178139624Y-73765100D02*
X178178329Y-73687690D01*
X178178329Y-73687690D02*
X178178329Y-73571576D01*
X178178329Y-73571576D02*
X178217034Y-73494166D01*
X178217034Y-73494166D02*
X178294443Y-73455462D01*
X178294443Y-73455462D02*
X178333148Y-73455462D01*
X178333148Y-73455462D02*
X178410558Y-73494166D01*
X178410558Y-73494166D02*
X178449262Y-73571576D01*
X178449262Y-73571576D02*
X178449262Y-73687690D01*
X178449262Y-73687690D02*
X178410558Y-73765100D01*
X177946101Y-74461785D02*
X177907396Y-74384376D01*
X177907396Y-74384376D02*
X177907396Y-74229557D01*
X177907396Y-74229557D02*
X177946101Y-74152147D01*
X177946101Y-74152147D02*
X178023510Y-74113443D01*
X178023510Y-74113443D02*
X178333148Y-74113443D01*
X178333148Y-74113443D02*
X178410558Y-74152147D01*
X178410558Y-74152147D02*
X178449262Y-74229557D01*
X178449262Y-74229557D02*
X178449262Y-74384376D01*
X178449262Y-74384376D02*
X178410558Y-74461785D01*
X178410558Y-74461785D02*
X178333148Y-74500490D01*
X178333148Y-74500490D02*
X178255739Y-74500490D01*
X178255739Y-74500490D02*
X178178329Y-74113443D01*
X178449262Y-74848833D02*
X177907396Y-74848833D01*
X178371853Y-74848833D02*
X178410558Y-74887538D01*
X178410558Y-74887538D02*
X178449262Y-74964948D01*
X178449262Y-74964948D02*
X178449262Y-75081062D01*
X178449262Y-75081062D02*
X178410558Y-75158471D01*
X178410558Y-75158471D02*
X178333148Y-75197176D01*
X178333148Y-75197176D02*
X177907396Y-75197176D01*
X177946101Y-75545519D02*
X177907396Y-75622928D01*
X177907396Y-75622928D02*
X177907396Y-75777747D01*
X177907396Y-75777747D02*
X177946101Y-75855157D01*
X177946101Y-75855157D02*
X178023510Y-75893861D01*
X178023510Y-75893861D02*
X178062215Y-75893861D01*
X178062215Y-75893861D02*
X178139624Y-75855157D01*
X178139624Y-75855157D02*
X178178329Y-75777747D01*
X178178329Y-75777747D02*
X178178329Y-75661633D01*
X178178329Y-75661633D02*
X178217034Y-75584223D01*
X178217034Y-75584223D02*
X178294443Y-75545519D01*
X178294443Y-75545519D02*
X178333148Y-75545519D01*
X178333148Y-75545519D02*
X178410558Y-75584223D01*
X178410558Y-75584223D02*
X178449262Y-75661633D01*
X178449262Y-75661633D02*
X178449262Y-75777747D01*
X178449262Y-75777747D02*
X178410558Y-75855157D01*
X177907396Y-76358319D02*
X177946101Y-76280909D01*
X177946101Y-76280909D02*
X177984805Y-76242204D01*
X177984805Y-76242204D02*
X178062215Y-76203500D01*
X178062215Y-76203500D02*
X178294443Y-76203500D01*
X178294443Y-76203500D02*
X178371853Y-76242204D01*
X178371853Y-76242204D02*
X178410558Y-76280909D01*
X178410558Y-76280909D02*
X178449262Y-76358319D01*
X178449262Y-76358319D02*
X178449262Y-76474433D01*
X178449262Y-76474433D02*
X178410558Y-76551842D01*
X178410558Y-76551842D02*
X178371853Y-76590547D01*
X178371853Y-76590547D02*
X178294443Y-76629252D01*
X178294443Y-76629252D02*
X178062215Y-76629252D01*
X178062215Y-76629252D02*
X177984805Y-76590547D01*
X177984805Y-76590547D02*
X177946101Y-76551842D01*
X177946101Y-76551842D02*
X177907396Y-76474433D01*
X177907396Y-76474433D02*
X177907396Y-76358319D01*
X177907396Y-76977594D02*
X178449262Y-76977594D01*
X178294443Y-76977594D02*
X178371853Y-77016299D01*
X178371853Y-77016299D02*
X178410558Y-77055004D01*
X178410558Y-77055004D02*
X178449262Y-77132413D01*
X178449262Y-77132413D02*
X178449262Y-77209823D01*
X185255377Y-81629803D02*
X185797243Y-82442603D01*
X185797243Y-81629803D02*
X185255377Y-82442603D01*
X186377815Y-82016851D02*
X186493929Y-82055556D01*
X186493929Y-82055556D02*
X186532634Y-82094260D01*
X186532634Y-82094260D02*
X186571338Y-82171670D01*
X186571338Y-82171670D02*
X186571338Y-82287784D01*
X186571338Y-82287784D02*
X186532634Y-82365194D01*
X186532634Y-82365194D02*
X186493929Y-82403899D01*
X186493929Y-82403899D02*
X186416519Y-82442603D01*
X186416519Y-82442603D02*
X186106881Y-82442603D01*
X186106881Y-82442603D02*
X186106881Y-81629803D01*
X186106881Y-81629803D02*
X186377815Y-81629803D01*
X186377815Y-81629803D02*
X186455224Y-81668508D01*
X186455224Y-81668508D02*
X186493929Y-81707213D01*
X186493929Y-81707213D02*
X186532634Y-81784622D01*
X186532634Y-81784622D02*
X186532634Y-81862032D01*
X186532634Y-81862032D02*
X186493929Y-81939441D01*
X186493929Y-81939441D02*
X186455224Y-81978146D01*
X186455224Y-81978146D02*
X186377815Y-82016851D01*
X186377815Y-82016851D02*
X186106881Y-82016851D01*
X186919681Y-82016851D02*
X187190615Y-82016851D01*
X187306729Y-82442603D02*
X186919681Y-82442603D01*
X186919681Y-82442603D02*
X186919681Y-81629803D01*
X186919681Y-81629803D02*
X187306729Y-81629803D01*
X187655071Y-82016851D02*
X187926005Y-82016851D01*
X188042119Y-82442603D02*
X187655071Y-82442603D01*
X187655071Y-82442603D02*
X187655071Y-81629803D01*
X187655071Y-81629803D02*
X188042119Y-81629803D01*
D11*
X167306666Y-68669819D02*
X167306666Y-69384104D01*
X167306666Y-69384104D02*
X167259047Y-69526961D01*
X167259047Y-69526961D02*
X167163809Y-69622200D01*
X167163809Y-69622200D02*
X167020952Y-69669819D01*
X167020952Y-69669819D02*
X166925714Y-69669819D01*
X168211428Y-68669819D02*
X168020952Y-68669819D01*
X168020952Y-68669819D02*
X167925714Y-68717438D01*
X167925714Y-68717438D02*
X167878095Y-68765057D01*
X167878095Y-68765057D02*
X167782857Y-68907914D01*
X167782857Y-68907914D02*
X167735238Y-69098390D01*
X167735238Y-69098390D02*
X167735238Y-69479342D01*
X167735238Y-69479342D02*
X167782857Y-69574580D01*
X167782857Y-69574580D02*
X167830476Y-69622200D01*
X167830476Y-69622200D02*
X167925714Y-69669819D01*
X167925714Y-69669819D02*
X168116190Y-69669819D01*
X168116190Y-69669819D02*
X168211428Y-69622200D01*
X168211428Y-69622200D02*
X168259047Y-69574580D01*
X168259047Y-69574580D02*
X168306666Y-69479342D01*
X168306666Y-69479342D02*
X168306666Y-69241247D01*
X168306666Y-69241247D02*
X168259047Y-69146009D01*
X168259047Y-69146009D02*
X168211428Y-69098390D01*
X168211428Y-69098390D02*
X168116190Y-69050771D01*
X168116190Y-69050771D02*
X167925714Y-69050771D01*
X167925714Y-69050771D02*
X167830476Y-69098390D01*
X167830476Y-69098390D02*
X167782857Y-69146009D01*
X167782857Y-69146009D02*
X167735238Y-69241247D01*
X167306666Y-72479819D02*
X167306666Y-73194104D01*
X167306666Y-73194104D02*
X167259047Y-73336961D01*
X167259047Y-73336961D02*
X167163809Y-73432200D01*
X167163809Y-73432200D02*
X167020952Y-73479819D01*
X167020952Y-73479819D02*
X166925714Y-73479819D01*
X168259047Y-72479819D02*
X167782857Y-72479819D01*
X167782857Y-72479819D02*
X167735238Y-72956009D01*
X167735238Y-72956009D02*
X167782857Y-72908390D01*
X167782857Y-72908390D02*
X167878095Y-72860771D01*
X167878095Y-72860771D02*
X168116190Y-72860771D01*
X168116190Y-72860771D02*
X168211428Y-72908390D01*
X168211428Y-72908390D02*
X168259047Y-72956009D01*
X168259047Y-72956009D02*
X168306666Y-73051247D01*
X168306666Y-73051247D02*
X168306666Y-73289342D01*
X168306666Y-73289342D02*
X168259047Y-73384580D01*
X168259047Y-73384580D02*
X168211428Y-73432200D01*
X168211428Y-73432200D02*
X168116190Y-73479819D01*
X168116190Y-73479819D02*
X167878095Y-73479819D01*
X167878095Y-73479819D02*
X167782857Y-73432200D01*
X167782857Y-73432200D02*
X167735238Y-73384580D01*
X167179666Y-76035819D02*
X167179666Y-76750104D01*
X167179666Y-76750104D02*
X167132047Y-76892961D01*
X167132047Y-76892961D02*
X167036809Y-76988200D01*
X167036809Y-76988200D02*
X166893952Y-77035819D01*
X166893952Y-77035819D02*
X166798714Y-77035819D01*
X168084428Y-76369152D02*
X168084428Y-77035819D01*
X167846333Y-75988200D02*
X167608238Y-76702485D01*
X167608238Y-76702485D02*
X168227285Y-76702485D01*
X161718666Y-119850819D02*
X161718666Y-120565104D01*
X161718666Y-120565104D02*
X161671047Y-120707961D01*
X161671047Y-120707961D02*
X161575809Y-120803200D01*
X161575809Y-120803200D02*
X161432952Y-120850819D01*
X161432952Y-120850819D02*
X161337714Y-120850819D01*
X162147238Y-119946057D02*
X162194857Y-119898438D01*
X162194857Y-119898438D02*
X162290095Y-119850819D01*
X162290095Y-119850819D02*
X162528190Y-119850819D01*
X162528190Y-119850819D02*
X162623428Y-119898438D01*
X162623428Y-119898438D02*
X162671047Y-119946057D01*
X162671047Y-119946057D02*
X162718666Y-120041295D01*
X162718666Y-120041295D02*
X162718666Y-120136533D01*
X162718666Y-120136533D02*
X162671047Y-120279390D01*
X162671047Y-120279390D02*
X162099619Y-120850819D01*
X162099619Y-120850819D02*
X162718666Y-120850819D01*
X173275666Y-114770819D02*
X173275666Y-115485104D01*
X173275666Y-115485104D02*
X173228047Y-115627961D01*
X173228047Y-115627961D02*
X173132809Y-115723200D01*
X173132809Y-115723200D02*
X172989952Y-115770819D01*
X172989952Y-115770819D02*
X172894714Y-115770819D01*
X174275666Y-115770819D02*
X173704238Y-115770819D01*
X173989952Y-115770819D02*
X173989952Y-114770819D01*
X173989952Y-114770819D02*
X173894714Y-114913676D01*
X173894714Y-114913676D02*
X173799476Y-115008914D01*
X173799476Y-115008914D02*
X173704238Y-115056533D01*
X181062333Y-97482819D02*
X180729000Y-97006628D01*
X180490905Y-97482819D02*
X180490905Y-96482819D01*
X180490905Y-96482819D02*
X180871857Y-96482819D01*
X180871857Y-96482819D02*
X180967095Y-96530438D01*
X180967095Y-96530438D02*
X181014714Y-96578057D01*
X181014714Y-96578057D02*
X181062333Y-96673295D01*
X181062333Y-96673295D02*
X181062333Y-96816152D01*
X181062333Y-96816152D02*
X181014714Y-96911390D01*
X181014714Y-96911390D02*
X180967095Y-96959009D01*
X180967095Y-96959009D02*
X180871857Y-97006628D01*
X180871857Y-97006628D02*
X180490905Y-97006628D01*
X181919476Y-96482819D02*
X181729000Y-96482819D01*
X181729000Y-96482819D02*
X181633762Y-96530438D01*
X181633762Y-96530438D02*
X181586143Y-96578057D01*
X181586143Y-96578057D02*
X181490905Y-96720914D01*
X181490905Y-96720914D02*
X181443286Y-96911390D01*
X181443286Y-96911390D02*
X181443286Y-97292342D01*
X181443286Y-97292342D02*
X181490905Y-97387580D01*
X181490905Y-97387580D02*
X181538524Y-97435200D01*
X181538524Y-97435200D02*
X181633762Y-97482819D01*
X181633762Y-97482819D02*
X181824238Y-97482819D01*
X181824238Y-97482819D02*
X181919476Y-97435200D01*
X181919476Y-97435200D02*
X181967095Y-97387580D01*
X181967095Y-97387580D02*
X182014714Y-97292342D01*
X182014714Y-97292342D02*
X182014714Y-97054247D01*
X182014714Y-97054247D02*
X181967095Y-96959009D01*
X181967095Y-96959009D02*
X181919476Y-96911390D01*
X181919476Y-96911390D02*
X181824238Y-96863771D01*
X181824238Y-96863771D02*
X181633762Y-96863771D01*
X181633762Y-96863771D02*
X181538524Y-96911390D01*
X181538524Y-96911390D02*
X181490905Y-96959009D01*
X181490905Y-96959009D02*
X181443286Y-97054247D01*
X163155333Y-110944819D02*
X162822000Y-110468628D01*
X162583905Y-110944819D02*
X162583905Y-109944819D01*
X162583905Y-109944819D02*
X162964857Y-109944819D01*
X162964857Y-109944819D02*
X163060095Y-109992438D01*
X163060095Y-109992438D02*
X163107714Y-110040057D01*
X163107714Y-110040057D02*
X163155333Y-110135295D01*
X163155333Y-110135295D02*
X163155333Y-110278152D01*
X163155333Y-110278152D02*
X163107714Y-110373390D01*
X163107714Y-110373390D02*
X163060095Y-110421009D01*
X163060095Y-110421009D02*
X162964857Y-110468628D01*
X162964857Y-110468628D02*
X162583905Y-110468628D01*
X164107714Y-110944819D02*
X163536286Y-110944819D01*
X163822000Y-110944819D02*
X163822000Y-109944819D01*
X163822000Y-109944819D02*
X163726762Y-110087676D01*
X163726762Y-110087676D02*
X163631524Y-110182914D01*
X163631524Y-110182914D02*
X163536286Y-110230533D01*
X184959666Y-112230819D02*
X184959666Y-112945104D01*
X184959666Y-112945104D02*
X184912047Y-113087961D01*
X184912047Y-113087961D02*
X184816809Y-113183200D01*
X184816809Y-113183200D02*
X184673952Y-113230819D01*
X184673952Y-113230819D02*
X184578714Y-113230819D01*
X185340619Y-112230819D02*
X185959666Y-112230819D01*
X185959666Y-112230819D02*
X185626333Y-112611771D01*
X185626333Y-112611771D02*
X185769190Y-112611771D01*
X185769190Y-112611771D02*
X185864428Y-112659390D01*
X185864428Y-112659390D02*
X185912047Y-112707009D01*
X185912047Y-112707009D02*
X185959666Y-112802247D01*
X185959666Y-112802247D02*
X185959666Y-113040342D01*
X185959666Y-113040342D02*
X185912047Y-113135580D01*
X185912047Y-113135580D02*
X185864428Y-113183200D01*
X185864428Y-113183200D02*
X185769190Y-113230819D01*
X185769190Y-113230819D02*
X185483476Y-113230819D01*
X185483476Y-113230819D02*
X185388238Y-113183200D01*
X185388238Y-113183200D02*
X185340619Y-113135580D01*
X186317905Y-103832819D02*
X186317905Y-102832819D01*
X186317905Y-102832819D02*
X186556000Y-102832819D01*
X186556000Y-102832819D02*
X186698857Y-102880438D01*
X186698857Y-102880438D02*
X186794095Y-102975676D01*
X186794095Y-102975676D02*
X186841714Y-103070914D01*
X186841714Y-103070914D02*
X186889333Y-103261390D01*
X186889333Y-103261390D02*
X186889333Y-103404247D01*
X186889333Y-103404247D02*
X186841714Y-103594723D01*
X186841714Y-103594723D02*
X186794095Y-103689961D01*
X186794095Y-103689961D02*
X186698857Y-103785200D01*
X186698857Y-103785200D02*
X186556000Y-103832819D01*
X186556000Y-103832819D02*
X186317905Y-103832819D01*
X187270286Y-102928057D02*
X187317905Y-102880438D01*
X187317905Y-102880438D02*
X187413143Y-102832819D01*
X187413143Y-102832819D02*
X187651238Y-102832819D01*
X187651238Y-102832819D02*
X187746476Y-102880438D01*
X187746476Y-102880438D02*
X187794095Y-102928057D01*
X187794095Y-102928057D02*
X187841714Y-103023295D01*
X187841714Y-103023295D02*
X187841714Y-103118533D01*
X187841714Y-103118533D02*
X187794095Y-103261390D01*
X187794095Y-103261390D02*
X187222667Y-103832819D01*
X187222667Y-103832819D02*
X187841714Y-103832819D01*
X189208580Y-113704666D02*
X189256200Y-113752285D01*
X189256200Y-113752285D02*
X189303819Y-113895142D01*
X189303819Y-113895142D02*
X189303819Y-113990380D01*
X189303819Y-113990380D02*
X189256200Y-114133237D01*
X189256200Y-114133237D02*
X189160961Y-114228475D01*
X189160961Y-114228475D02*
X189065723Y-114276094D01*
X189065723Y-114276094D02*
X188875247Y-114323713D01*
X188875247Y-114323713D02*
X188732390Y-114323713D01*
X188732390Y-114323713D02*
X188541914Y-114276094D01*
X188541914Y-114276094D02*
X188446676Y-114228475D01*
X188446676Y-114228475D02*
X188351438Y-114133237D01*
X188351438Y-114133237D02*
X188303819Y-113990380D01*
X188303819Y-113990380D02*
X188303819Y-113895142D01*
X188303819Y-113895142D02*
X188351438Y-113752285D01*
X188351438Y-113752285D02*
X188399057Y-113704666D01*
X188303819Y-112799904D02*
X188303819Y-113276094D01*
X188303819Y-113276094D02*
X188780009Y-113323713D01*
X188780009Y-113323713D02*
X188732390Y-113276094D01*
X188732390Y-113276094D02*
X188684771Y-113180856D01*
X188684771Y-113180856D02*
X188684771Y-112942761D01*
X188684771Y-112942761D02*
X188732390Y-112847523D01*
X188732390Y-112847523D02*
X188780009Y-112799904D01*
X188780009Y-112799904D02*
X188875247Y-112752285D01*
X188875247Y-112752285D02*
X189113342Y-112752285D01*
X189113342Y-112752285D02*
X189208580Y-112799904D01*
X189208580Y-112799904D02*
X189256200Y-112847523D01*
X189256200Y-112847523D02*
X189303819Y-112942761D01*
X189303819Y-112942761D02*
X189303819Y-113180856D01*
X189303819Y-113180856D02*
X189256200Y-113276094D01*
X189256200Y-113276094D02*
X189208580Y-113323713D01*
X183983333Y-111357580D02*
X183935714Y-111405200D01*
X183935714Y-111405200D02*
X183792857Y-111452819D01*
X183792857Y-111452819D02*
X183697619Y-111452819D01*
X183697619Y-111452819D02*
X183554762Y-111405200D01*
X183554762Y-111405200D02*
X183459524Y-111309961D01*
X183459524Y-111309961D02*
X183411905Y-111214723D01*
X183411905Y-111214723D02*
X183364286Y-111024247D01*
X183364286Y-111024247D02*
X183364286Y-110881390D01*
X183364286Y-110881390D02*
X183411905Y-110690914D01*
X183411905Y-110690914D02*
X183459524Y-110595676D01*
X183459524Y-110595676D02*
X183554762Y-110500438D01*
X183554762Y-110500438D02*
X183697619Y-110452819D01*
X183697619Y-110452819D02*
X183792857Y-110452819D01*
X183792857Y-110452819D02*
X183935714Y-110500438D01*
X183935714Y-110500438D02*
X183983333Y-110548057D01*
X184316667Y-110452819D02*
X184935714Y-110452819D01*
X184935714Y-110452819D02*
X184602381Y-110833771D01*
X184602381Y-110833771D02*
X184745238Y-110833771D01*
X184745238Y-110833771D02*
X184840476Y-110881390D01*
X184840476Y-110881390D02*
X184888095Y-110929009D01*
X184888095Y-110929009D02*
X184935714Y-111024247D01*
X184935714Y-111024247D02*
X184935714Y-111262342D01*
X184935714Y-111262342D02*
X184888095Y-111357580D01*
X184888095Y-111357580D02*
X184840476Y-111405200D01*
X184840476Y-111405200D02*
X184745238Y-111452819D01*
X184745238Y-111452819D02*
X184459524Y-111452819D01*
X184459524Y-111452819D02*
X184364286Y-111405200D01*
X184364286Y-111405200D02*
X184316667Y-111357580D01*
X184745333Y-109420819D02*
X184269143Y-109420819D01*
X184269143Y-109420819D02*
X184269143Y-108420819D01*
X185031048Y-108516057D02*
X185078667Y-108468438D01*
X185078667Y-108468438D02*
X185173905Y-108420819D01*
X185173905Y-108420819D02*
X185412000Y-108420819D01*
X185412000Y-108420819D02*
X185507238Y-108468438D01*
X185507238Y-108468438D02*
X185554857Y-108516057D01*
X185554857Y-108516057D02*
X185602476Y-108611295D01*
X185602476Y-108611295D02*
X185602476Y-108706533D01*
X185602476Y-108706533D02*
X185554857Y-108849390D01*
X185554857Y-108849390D02*
X184983429Y-109420819D01*
X184983429Y-109420819D02*
X185602476Y-109420819D01*
X181133761Y-102277057D02*
X181038523Y-102229438D01*
X181038523Y-102229438D02*
X180943285Y-102134200D01*
X180943285Y-102134200D02*
X180800428Y-101991342D01*
X180800428Y-101991342D02*
X180705190Y-101943723D01*
X180705190Y-101943723D02*
X180609952Y-101943723D01*
X180657571Y-102181819D02*
X180562333Y-102134200D01*
X180562333Y-102134200D02*
X180467095Y-102038961D01*
X180467095Y-102038961D02*
X180419476Y-101848485D01*
X180419476Y-101848485D02*
X180419476Y-101515152D01*
X180419476Y-101515152D02*
X180467095Y-101324676D01*
X180467095Y-101324676D02*
X180562333Y-101229438D01*
X180562333Y-101229438D02*
X180657571Y-101181819D01*
X180657571Y-101181819D02*
X180848047Y-101181819D01*
X180848047Y-101181819D02*
X180943285Y-101229438D01*
X180943285Y-101229438D02*
X181038523Y-101324676D01*
X181038523Y-101324676D02*
X181086142Y-101515152D01*
X181086142Y-101515152D02*
X181086142Y-101848485D01*
X181086142Y-101848485D02*
X181038523Y-102038961D01*
X181038523Y-102038961D02*
X180943285Y-102134200D01*
X180943285Y-102134200D02*
X180848047Y-102181819D01*
X180848047Y-102181819D02*
X180657571Y-102181819D01*
X182038523Y-102181819D02*
X181467095Y-102181819D01*
X181752809Y-102181819D02*
X181752809Y-101181819D01*
X181752809Y-101181819D02*
X181657571Y-101324676D01*
X181657571Y-101324676D02*
X181562333Y-101419914D01*
X181562333Y-101419914D02*
X181467095Y-101467533D01*
X162814095Y-104737819D02*
X162814095Y-105547342D01*
X162814095Y-105547342D02*
X162861714Y-105642580D01*
X162861714Y-105642580D02*
X162909333Y-105690200D01*
X162909333Y-105690200D02*
X163004571Y-105737819D01*
X163004571Y-105737819D02*
X163195047Y-105737819D01*
X163195047Y-105737819D02*
X163290285Y-105690200D01*
X163290285Y-105690200D02*
X163337904Y-105642580D01*
X163337904Y-105642580D02*
X163385523Y-105547342D01*
X163385523Y-105547342D02*
X163385523Y-104737819D01*
X164385523Y-105737819D02*
X163814095Y-105737819D01*
X164099809Y-105737819D02*
X164099809Y-104737819D01*
X164099809Y-104737819D02*
X164004571Y-104880676D01*
X164004571Y-104880676D02*
X163909333Y-104975914D01*
X163909333Y-104975914D02*
X163814095Y-105023533D01*
X157810580Y-113770666D02*
X157858200Y-113818285D01*
X157858200Y-113818285D02*
X157905819Y-113961142D01*
X157905819Y-113961142D02*
X157905819Y-114056380D01*
X157905819Y-114056380D02*
X157858200Y-114199237D01*
X157858200Y-114199237D02*
X157762961Y-114294475D01*
X157762961Y-114294475D02*
X157667723Y-114342094D01*
X157667723Y-114342094D02*
X157477247Y-114389713D01*
X157477247Y-114389713D02*
X157334390Y-114389713D01*
X157334390Y-114389713D02*
X157143914Y-114342094D01*
X157143914Y-114342094D02*
X157048676Y-114294475D01*
X157048676Y-114294475D02*
X156953438Y-114199237D01*
X156953438Y-114199237D02*
X156905819Y-114056380D01*
X156905819Y-114056380D02*
X156905819Y-113961142D01*
X156905819Y-113961142D02*
X156953438Y-113818285D01*
X156953438Y-113818285D02*
X157001057Y-113770666D01*
X157001057Y-113389713D02*
X156953438Y-113342094D01*
X156953438Y-113342094D02*
X156905819Y-113246856D01*
X156905819Y-113246856D02*
X156905819Y-113008761D01*
X156905819Y-113008761D02*
X156953438Y-112913523D01*
X156953438Y-112913523D02*
X157001057Y-112865904D01*
X157001057Y-112865904D02*
X157096295Y-112818285D01*
X157096295Y-112818285D02*
X157191533Y-112818285D01*
X157191533Y-112818285D02*
X157334390Y-112865904D01*
X157334390Y-112865904D02*
X157905819Y-113437332D01*
X157905819Y-113437332D02*
X157905819Y-112818285D01*
X158837333Y-107261819D02*
X158504000Y-106785628D01*
X158265905Y-107261819D02*
X158265905Y-106261819D01*
X158265905Y-106261819D02*
X158646857Y-106261819D01*
X158646857Y-106261819D02*
X158742095Y-106309438D01*
X158742095Y-106309438D02*
X158789714Y-106357057D01*
X158789714Y-106357057D02*
X158837333Y-106452295D01*
X158837333Y-106452295D02*
X158837333Y-106595152D01*
X158837333Y-106595152D02*
X158789714Y-106690390D01*
X158789714Y-106690390D02*
X158742095Y-106738009D01*
X158742095Y-106738009D02*
X158646857Y-106785628D01*
X158646857Y-106785628D02*
X158265905Y-106785628D01*
X159218286Y-106357057D02*
X159265905Y-106309438D01*
X159265905Y-106309438D02*
X159361143Y-106261819D01*
X159361143Y-106261819D02*
X159599238Y-106261819D01*
X159599238Y-106261819D02*
X159694476Y-106309438D01*
X159694476Y-106309438D02*
X159742095Y-106357057D01*
X159742095Y-106357057D02*
X159789714Y-106452295D01*
X159789714Y-106452295D02*
X159789714Y-106547533D01*
X159789714Y-106547533D02*
X159742095Y-106690390D01*
X159742095Y-106690390D02*
X159170667Y-107261819D01*
X159170667Y-107261819D02*
X159789714Y-107261819D01*
X189205819Y-109737666D02*
X188729628Y-110070999D01*
X189205819Y-110309094D02*
X188205819Y-110309094D01*
X188205819Y-110309094D02*
X188205819Y-109928142D01*
X188205819Y-109928142D02*
X188253438Y-109832904D01*
X188253438Y-109832904D02*
X188301057Y-109785285D01*
X188301057Y-109785285D02*
X188396295Y-109737666D01*
X188396295Y-109737666D02*
X188539152Y-109737666D01*
X188539152Y-109737666D02*
X188634390Y-109785285D01*
X188634390Y-109785285D02*
X188682009Y-109832904D01*
X188682009Y-109832904D02*
X188729628Y-109928142D01*
X188729628Y-109928142D02*
X188729628Y-110309094D01*
X188205819Y-109404332D02*
X188205819Y-108785285D01*
X188205819Y-108785285D02*
X188586771Y-109118618D01*
X188586771Y-109118618D02*
X188586771Y-108975761D01*
X188586771Y-108975761D02*
X188634390Y-108880523D01*
X188634390Y-108880523D02*
X188682009Y-108832904D01*
X188682009Y-108832904D02*
X188777247Y-108785285D01*
X188777247Y-108785285D02*
X189015342Y-108785285D01*
X189015342Y-108785285D02*
X189110580Y-108832904D01*
X189110580Y-108832904D02*
X189158200Y-108880523D01*
X189158200Y-108880523D02*
X189205819Y-108975761D01*
X189205819Y-108975761D02*
X189205819Y-109261475D01*
X189205819Y-109261475D02*
X189158200Y-109356713D01*
X189158200Y-109356713D02*
X189110580Y-109404332D01*
X168275095Y-104356819D02*
X168275095Y-105166342D01*
X168275095Y-105166342D02*
X168322714Y-105261580D01*
X168322714Y-105261580D02*
X168370333Y-105309200D01*
X168370333Y-105309200D02*
X168465571Y-105356819D01*
X168465571Y-105356819D02*
X168656047Y-105356819D01*
X168656047Y-105356819D02*
X168751285Y-105309200D01*
X168751285Y-105309200D02*
X168798904Y-105261580D01*
X168798904Y-105261580D02*
X168846523Y-105166342D01*
X168846523Y-105166342D02*
X168846523Y-104356819D01*
X169275095Y-104452057D02*
X169322714Y-104404438D01*
X169322714Y-104404438D02*
X169417952Y-104356819D01*
X169417952Y-104356819D02*
X169656047Y-104356819D01*
X169656047Y-104356819D02*
X169751285Y-104404438D01*
X169751285Y-104404438D02*
X169798904Y-104452057D01*
X169798904Y-104452057D02*
X169846523Y-104547295D01*
X169846523Y-104547295D02*
X169846523Y-104642533D01*
X169846523Y-104642533D02*
X169798904Y-104785390D01*
X169798904Y-104785390D02*
X169227476Y-105356819D01*
X169227476Y-105356819D02*
X169846523Y-105356819D01*
X165822333Y-102020580D02*
X165774714Y-102068200D01*
X165774714Y-102068200D02*
X165631857Y-102115819D01*
X165631857Y-102115819D02*
X165536619Y-102115819D01*
X165536619Y-102115819D02*
X165393762Y-102068200D01*
X165393762Y-102068200D02*
X165298524Y-101972961D01*
X165298524Y-101972961D02*
X165250905Y-101877723D01*
X165250905Y-101877723D02*
X165203286Y-101687247D01*
X165203286Y-101687247D02*
X165203286Y-101544390D01*
X165203286Y-101544390D02*
X165250905Y-101353914D01*
X165250905Y-101353914D02*
X165298524Y-101258676D01*
X165298524Y-101258676D02*
X165393762Y-101163438D01*
X165393762Y-101163438D02*
X165536619Y-101115819D01*
X165536619Y-101115819D02*
X165631857Y-101115819D01*
X165631857Y-101115819D02*
X165774714Y-101163438D01*
X165774714Y-101163438D02*
X165822333Y-101211057D01*
X166774714Y-102115819D02*
X166203286Y-102115819D01*
X166489000Y-102115819D02*
X166489000Y-101115819D01*
X166489000Y-101115819D02*
X166393762Y-101258676D01*
X166393762Y-101258676D02*
X166298524Y-101353914D01*
X166298524Y-101353914D02*
X166203286Y-101401533D01*
X171918333Y-102816819D02*
X171585000Y-102340628D01*
X171346905Y-102816819D02*
X171346905Y-101816819D01*
X171346905Y-101816819D02*
X171727857Y-101816819D01*
X171727857Y-101816819D02*
X171823095Y-101864438D01*
X171823095Y-101864438D02*
X171870714Y-101912057D01*
X171870714Y-101912057D02*
X171918333Y-102007295D01*
X171918333Y-102007295D02*
X171918333Y-102150152D01*
X171918333Y-102150152D02*
X171870714Y-102245390D01*
X171870714Y-102245390D02*
X171823095Y-102293009D01*
X171823095Y-102293009D02*
X171727857Y-102340628D01*
X171727857Y-102340628D02*
X171346905Y-102340628D01*
X172823095Y-101816819D02*
X172346905Y-101816819D01*
X172346905Y-101816819D02*
X172299286Y-102293009D01*
X172299286Y-102293009D02*
X172346905Y-102245390D01*
X172346905Y-102245390D02*
X172442143Y-102197771D01*
X172442143Y-102197771D02*
X172680238Y-102197771D01*
X172680238Y-102197771D02*
X172775476Y-102245390D01*
X172775476Y-102245390D02*
X172823095Y-102293009D01*
X172823095Y-102293009D02*
X172870714Y-102388247D01*
X172870714Y-102388247D02*
X172870714Y-102626342D01*
X172870714Y-102626342D02*
X172823095Y-102721580D01*
X172823095Y-102721580D02*
X172775476Y-102769200D01*
X172775476Y-102769200D02*
X172680238Y-102816819D01*
X172680238Y-102816819D02*
X172442143Y-102816819D01*
X172442143Y-102816819D02*
X172346905Y-102769200D01*
X172346905Y-102769200D02*
X172299286Y-102721580D01*
X160678905Y-111714319D02*
X160678905Y-110714319D01*
X160678905Y-110714319D02*
X160917000Y-110714319D01*
X160917000Y-110714319D02*
X161059857Y-110761938D01*
X161059857Y-110761938D02*
X161155095Y-110857176D01*
X161155095Y-110857176D02*
X161202714Y-110952414D01*
X161202714Y-110952414D02*
X161250333Y-111142890D01*
X161250333Y-111142890D02*
X161250333Y-111285747D01*
X161250333Y-111285747D02*
X161202714Y-111476223D01*
X161202714Y-111476223D02*
X161155095Y-111571461D01*
X161155095Y-111571461D02*
X161059857Y-111666700D01*
X161059857Y-111666700D02*
X160917000Y-111714319D01*
X160917000Y-111714319D02*
X160678905Y-111714319D01*
X162202714Y-111714319D02*
X161631286Y-111714319D01*
X161917000Y-111714319D02*
X161917000Y-110714319D01*
X161917000Y-110714319D02*
X161821762Y-110857176D01*
X161821762Y-110857176D02*
X161726524Y-110952414D01*
X161726524Y-110952414D02*
X161631286Y-111000033D01*
X175855333Y-102816819D02*
X175522000Y-102340628D01*
X175283905Y-102816819D02*
X175283905Y-101816819D01*
X175283905Y-101816819D02*
X175664857Y-101816819D01*
X175664857Y-101816819D02*
X175760095Y-101864438D01*
X175760095Y-101864438D02*
X175807714Y-101912057D01*
X175807714Y-101912057D02*
X175855333Y-102007295D01*
X175855333Y-102007295D02*
X175855333Y-102150152D01*
X175855333Y-102150152D02*
X175807714Y-102245390D01*
X175807714Y-102245390D02*
X175760095Y-102293009D01*
X175760095Y-102293009D02*
X175664857Y-102340628D01*
X175664857Y-102340628D02*
X175283905Y-102340628D01*
X176712476Y-102150152D02*
X176712476Y-102816819D01*
X176474381Y-101769200D02*
X176236286Y-102483485D01*
X176236286Y-102483485D02*
X176855333Y-102483485D01*
D12*
%TO.C,J6*%
X169246000Y-68047000D02*
X169246000Y-66717000D01*
X171846000Y-66717000D02*
X176986000Y-66717000D01*
X171846000Y-69377000D02*
X176986000Y-69377000D01*
X171846000Y-69377000D02*
X171846000Y-66717000D01*
X169246000Y-66717000D02*
X170576000Y-66717000D01*
X176986000Y-69377000D02*
X176986000Y-66717000D01*
%TO.C,J5*%
X169246000Y-71730000D02*
X169246000Y-70400000D01*
X171846000Y-70400000D02*
X176986000Y-70400000D01*
X171846000Y-73060000D02*
X176986000Y-73060000D01*
X171846000Y-73060000D02*
X171846000Y-70400000D01*
X169246000Y-70400000D02*
X170576000Y-70400000D01*
X176986000Y-73060000D02*
X176986000Y-70400000D01*
%TO.C,J4*%
X176986000Y-76743000D02*
X176986000Y-74083000D01*
X169246000Y-74083000D02*
X170576000Y-74083000D01*
X171846000Y-76743000D02*
X171846000Y-74083000D01*
X171846000Y-76743000D02*
X176986000Y-76743000D01*
X171846000Y-74083000D02*
X176986000Y-74083000D01*
X169246000Y-75413000D02*
X169246000Y-74083000D01*
%TO.C,J2*%
X165083000Y-120345000D02*
X167583000Y-120345000D01*
X167583000Y-120345000D02*
X167583000Y-117845000D01*
X163263000Y-120045000D02*
X167283000Y-120045000D01*
X164973000Y-120045000D02*
X164973000Y-119545000D01*
X165783000Y-120045000D02*
X165783000Y-119045000D01*
X167283000Y-120045000D02*
X167283000Y-112325000D01*
X163763000Y-119545000D02*
X163763000Y-112825000D01*
X164973000Y-119545000D02*
X163763000Y-119545000D01*
X165783000Y-119045000D02*
X167283000Y-119045000D01*
X165783000Y-113325000D02*
X167283000Y-113325000D01*
X163763000Y-112825000D02*
X164973000Y-112825000D01*
X164973000Y-112825000D02*
X164973000Y-112325000D01*
X163263000Y-112325000D02*
X163263000Y-120045000D01*
X165783000Y-112325000D02*
X165783000Y-113325000D01*
X167283000Y-112325000D02*
X163263000Y-112325000D01*
%TO.C,J1*%
X168199000Y-117848003D02*
X168199000Y-120348003D01*
X168199000Y-120348003D02*
X170699000Y-120348003D01*
X168499000Y-116028003D02*
X168499000Y-120048003D01*
X168499000Y-117738003D02*
X168999000Y-117738003D01*
X168499000Y-118548003D02*
X169499000Y-118548003D01*
X168499000Y-120048003D02*
X178719000Y-120048003D01*
X168999000Y-116528003D02*
X178219000Y-116528003D01*
X168999000Y-117738003D02*
X168999000Y-116528003D01*
X169499000Y-118548003D02*
X169499000Y-120048003D01*
X177719000Y-118548003D02*
X177719000Y-120048003D01*
X178219000Y-116528003D02*
X178219000Y-117738003D01*
X178219000Y-117738003D02*
X178719000Y-117738003D01*
X178719000Y-116028003D02*
X168499000Y-116028003D01*
X178719000Y-118548003D02*
X177719000Y-118548003D01*
X178719000Y-120048003D02*
X178719000Y-116028003D01*
%TO.C,R6*%
X178789064Y-96420000D02*
X178334936Y-96420000D01*
X178789064Y-97890000D02*
X178334936Y-97890000D01*
%TO.C,R1*%
X166239564Y-111479000D02*
X165785436Y-111479000D01*
X166239564Y-110009000D02*
X165785436Y-110009000D01*
%TO.C,J3*%
X182262000Y-112152000D02*
X179762000Y-112152000D01*
X179762000Y-112152000D02*
X179762000Y-114652000D01*
X184082000Y-112452000D02*
X180062000Y-112452000D01*
X182372000Y-112452000D02*
X182372000Y-112952000D01*
X181562000Y-112452000D02*
X181562000Y-113452000D01*
X180062000Y-112452000D02*
X180062000Y-120172000D01*
X183582000Y-112952000D02*
X183582000Y-119672000D01*
X182372000Y-112952000D02*
X183582000Y-112952000D01*
X181562000Y-113452000D02*
X180062000Y-113452000D01*
X181562000Y-119172000D02*
X180062000Y-119172000D01*
X183582000Y-119672000D02*
X182372000Y-119672000D01*
X182372000Y-119672000D02*
X182372000Y-120172000D01*
X184082000Y-120172000D02*
X184082000Y-112452000D01*
X181562000Y-120172000D02*
X181562000Y-119172000D01*
X180062000Y-120172000D02*
X184082000Y-120172000D01*
%TO.C,D2*%
X186096000Y-107397500D02*
X188016000Y-107397500D01*
X188016000Y-107397500D02*
X188016000Y-104712500D01*
X186096000Y-104712500D02*
X186096000Y-107397500D01*
%TO.C,C5*%
X186336000Y-113672252D02*
X186336000Y-113149748D01*
X187806000Y-113672252D02*
X187806000Y-113149748D01*
%TO.C,C3*%
X181160748Y-110136000D02*
X181683252Y-110136000D01*
X181160748Y-111606000D02*
X181683252Y-111606000D01*
%TO.C,L2*%
X180044000Y-105034000D02*
X181184000Y-105034000D01*
X181184000Y-104804000D02*
X181184000Y-105034000D01*
X181184000Y-104804000D02*
X183904000Y-104804000D01*
X181184000Y-109524000D02*
X181184000Y-109294000D01*
X183904000Y-104804000D02*
X183904000Y-106114000D01*
X183904000Y-108214000D02*
X183904000Y-109524000D01*
X183904000Y-109524000D02*
X181184000Y-109524000D01*
D13*
%TO.C,JP1*%
X185272680Y-104244140D02*
X182773320Y-104244140D01*
X185272680Y-83743800D02*
X185272680Y-104244140D01*
X182773320Y-83743800D02*
X185272680Y-83743800D01*
X182773320Y-83743800D02*
X182773320Y-104244140D01*
X163276280Y-83743800D02*
X163276280Y-104244140D01*
X163276280Y-83743800D02*
X160776920Y-83743800D01*
X160776920Y-104244140D02*
X163276280Y-104244140D01*
X160776920Y-83743800D02*
X160776920Y-104244140D01*
D12*
%TO.C,Q1*%
X177002000Y-100281500D02*
X177002000Y-100931500D01*
X177002000Y-100281500D02*
X177002000Y-99631500D01*
X180122000Y-100281500D02*
X180122000Y-100931500D01*
X180122000Y-100281500D02*
X180122000Y-98606500D01*
%TO.C,U1*%
X164851500Y-109322000D02*
X166651500Y-109322000D01*
X164851500Y-109322000D02*
X164051500Y-109322000D01*
X164851500Y-106202000D02*
X165651500Y-106202000D01*
X164851500Y-106202000D02*
X164051500Y-106202000D01*
%TO.C,C2*%
X158396000Y-113865252D02*
X158396000Y-113342748D01*
X159866000Y-113865252D02*
X159866000Y-113342748D01*
%TO.C,R2*%
X159866000Y-108992936D02*
X159866000Y-109447064D01*
X158396000Y-108992936D02*
X158396000Y-109447064D01*
%TO.C,R3*%
X187836000Y-109343936D02*
X187836000Y-109798064D01*
X186366000Y-109343936D02*
X186366000Y-109798064D01*
%TO.C,U2*%
X178749000Y-107840000D02*
X168469000Y-107840000D01*
X168469000Y-107840000D02*
X168469000Y-113140000D01*
X178749000Y-109490000D02*
X178749000Y-107840000D01*
X178749000Y-113140000D02*
X178749000Y-111490000D01*
X168469000Y-113140000D02*
X178749000Y-113140000D01*
X178749000Y-109490000D02*
G75*
G03*
X178749000Y-111490000I0J-1000000D01*
G01*
%TO.C,C1*%
X166724000Y-104401252D02*
X166724000Y-103878748D01*
X165254000Y-104401252D02*
X165254000Y-103878748D01*
%TO.C,R5*%
X173224564Y-104748000D02*
X172770436Y-104748000D01*
X173224564Y-103278000D02*
X172770436Y-103278000D01*
%TO.C,D1*%
X162377000Y-111939000D02*
X160457000Y-111939000D01*
X160457000Y-111939000D02*
X160457000Y-114624000D01*
X162377000Y-114624000D02*
X162377000Y-111939000D01*
%TO.C,R4*%
X177138064Y-103278000D02*
X176683936Y-103278000D01*
X177138064Y-104748000D02*
X176683936Y-104748000D01*
%TD*%
M02*
