%TF.GenerationSoftware,KiCad,Pcbnew,7.0.9*%
%TF.CreationDate,2023-12-30T17:24:47+01:00*%
%TF.ProjectId,rainguage,7261696e-6775-4616-9765-2e6b69636164,rev?*%
%TF.SameCoordinates,Original*%
%TF.FileFunction,Copper,L1,Top*%
%TF.FilePolarity,Positive*%
%FSLAX46Y46*%
G04 Gerber Fmt 4.6, Leading zero omitted, Abs format (unit mm)*
G04 Created by KiCad (PCBNEW 7.0.9) date 2023-12-30 17:24:47*
%MOMM*%
%LPD*%
G01*
G04 APERTURE LIST*
G04 Aperture macros list*
%AMRoundRect*
0 Rectangle with rounded corners*
0 $1 Rounding radius*
0 $2 $3 $4 $5 $6 $7 $8 $9 X,Y pos of 4 corners*
0 Add a 4 corners polygon primitive as box body*
4,1,4,$2,$3,$4,$5,$6,$7,$8,$9,$2,$3,0*
0 Add four circle primitives for the rounded corners*
1,1,$1+$1,$2,$3*
1,1,$1+$1,$4,$5*
1,1,$1+$1,$6,$7*
1,1,$1+$1,$8,$9*
0 Add four rect primitives between the rounded corners*
20,1,$1+$1,$2,$3,$4,$5,0*
20,1,$1+$1,$4,$5,$6,$7,0*
20,1,$1+$1,$6,$7,$8,$9,0*
20,1,$1+$1,$8,$9,$2,$3,0*%
%AMFreePoly0*
4,1,9,3.862500,-0.866500,0.737500,-0.866500,0.737500,-0.450000,-0.737500,-0.450000,-0.737500,0.450000,0.737500,0.450000,0.737500,0.866500,3.862500,0.866500,3.862500,-0.866500,3.862500,-0.866500,$1*%
G04 Aperture macros list end*
%ADD10C,0.304800*%
%TA.AperFunction,NonConductor*%
%ADD11C,0.304800*%
%TD*%
%TA.AperFunction,NonConductor*%
%ADD12C,0.254000*%
%TD*%
%TA.AperFunction,ComponentPad*%
%ADD13R,1.700000X1.700000*%
%TD*%
%TA.AperFunction,ComponentPad*%
%ADD14O,1.700000X1.700000*%
%TD*%
%TA.AperFunction,ComponentPad*%
%ADD15RoundRect,0.250000X0.750000X-0.600000X0.750000X0.600000X-0.750000X0.600000X-0.750000X-0.600000X0*%
%TD*%
%TA.AperFunction,ComponentPad*%
%ADD16O,2.000000X1.700000*%
%TD*%
%TA.AperFunction,ComponentPad*%
%ADD17RoundRect,0.250000X-0.600000X-0.725000X0.600000X-0.725000X0.600000X0.725000X-0.600000X0.725000X0*%
%TD*%
%TA.AperFunction,ComponentPad*%
%ADD18O,1.700000X1.950000*%
%TD*%
%TA.AperFunction,SMDPad,CuDef*%
%ADD19RoundRect,0.250000X0.262500X0.450000X-0.262500X0.450000X-0.262500X-0.450000X0.262500X-0.450000X0*%
%TD*%
%TA.AperFunction,ComponentPad*%
%ADD20RoundRect,0.250000X-0.750000X0.600000X-0.750000X-0.600000X0.750000X-0.600000X0.750000X0.600000X0*%
%TD*%
%TA.AperFunction,SMDPad,CuDef*%
%ADD21RoundRect,0.243750X0.456250X-0.243750X0.456250X0.243750X-0.456250X0.243750X-0.456250X-0.243750X0*%
%TD*%
%TA.AperFunction,SMDPad,CuDef*%
%ADD22RoundRect,0.250000X0.475000X-0.250000X0.475000X0.250000X-0.475000X0.250000X-0.475000X-0.250000X0*%
%TD*%
%TA.AperFunction,SMDPad,CuDef*%
%ADD23RoundRect,0.250000X-0.250000X-0.475000X0.250000X-0.475000X0.250000X0.475000X-0.250000X0.475000X0*%
%TD*%
%TA.AperFunction,ComponentPad*%
%ADD24C,4.400000*%
%TD*%
%TA.AperFunction,SMDPad,CuDef*%
%ADD25R,1.300000X0.900000*%
%TD*%
%TA.AperFunction,SMDPad,CuDef*%
%ADD26FreePoly0,0.000000*%
%TD*%
%TA.AperFunction,ComponentPad*%
%ADD27C,1.524000*%
%TD*%
%TA.AperFunction,SMDPad,CuDef*%
%ADD28RoundRect,0.150000X-0.150000X0.587500X-0.150000X-0.587500X0.150000X-0.587500X0.150000X0.587500X0*%
%TD*%
%TA.AperFunction,SMDPad,CuDef*%
%ADD29RoundRect,0.150000X0.512500X0.150000X-0.512500X0.150000X-0.512500X-0.150000X0.512500X-0.150000X0*%
%TD*%
%TA.AperFunction,SMDPad,CuDef*%
%ADD30RoundRect,0.250000X-0.450000X0.262500X-0.450000X-0.262500X0.450000X-0.262500X0.450000X0.262500X0*%
%TD*%
%TA.AperFunction,ComponentPad*%
%ADD31R,1.600000X1.600000*%
%TD*%
%TA.AperFunction,ComponentPad*%
%ADD32O,1.600000X1.600000*%
%TD*%
%TA.AperFunction,SMDPad,CuDef*%
%ADD33RoundRect,0.243750X-0.456250X0.243750X-0.456250X-0.243750X0.456250X-0.243750X0.456250X0.243750X0*%
%TD*%
%TA.AperFunction,ViaPad*%
%ADD34C,1.600000*%
%TD*%
%TA.AperFunction,ViaPad*%
%ADD35C,0.600000*%
%TD*%
%TA.AperFunction,Conductor*%
%ADD36C,0.400000*%
%TD*%
%TA.AperFunction,Conductor*%
%ADD37C,0.800000*%
%TD*%
G04 APERTURE END LIST*
D10*
D11*
X202695381Y-102833715D02*
X203711381Y-102833715D01*
X202114810Y-103196572D02*
X203203381Y-103559429D01*
X203203381Y-103559429D02*
X203203381Y-102616000D01*
X203711381Y-101962857D02*
X203711381Y-101672571D01*
X203711381Y-101672571D02*
X203638810Y-101527428D01*
X203638810Y-101527428D02*
X203566238Y-101454857D01*
X203566238Y-101454857D02*
X203348524Y-101309714D01*
X203348524Y-101309714D02*
X203058238Y-101237143D01*
X203058238Y-101237143D02*
X202477667Y-101237143D01*
X202477667Y-101237143D02*
X202332524Y-101309714D01*
X202332524Y-101309714D02*
X202259952Y-101382286D01*
X202259952Y-101382286D02*
X202187381Y-101527428D01*
X202187381Y-101527428D02*
X202187381Y-101817714D01*
X202187381Y-101817714D02*
X202259952Y-101962857D01*
X202259952Y-101962857D02*
X202332524Y-102035428D01*
X202332524Y-102035428D02*
X202477667Y-102108000D01*
X202477667Y-102108000D02*
X202840524Y-102108000D01*
X202840524Y-102108000D02*
X202985667Y-102035428D01*
X202985667Y-102035428D02*
X203058238Y-101962857D01*
X203058238Y-101962857D02*
X203130810Y-101817714D01*
X203130810Y-101817714D02*
X203130810Y-101527428D01*
X203130810Y-101527428D02*
X203058238Y-101382286D01*
X203058238Y-101382286D02*
X202985667Y-101309714D01*
X202985667Y-101309714D02*
X202840524Y-101237143D01*
X203638810Y-100511428D02*
X203711381Y-100511428D01*
X203711381Y-100511428D02*
X203856524Y-100583999D01*
X203856524Y-100583999D02*
X203929095Y-100656571D01*
X202187381Y-99132571D02*
X202187381Y-99858285D01*
X202187381Y-99858285D02*
X202913095Y-99930857D01*
X202913095Y-99930857D02*
X202840524Y-99858285D01*
X202840524Y-99858285D02*
X202767952Y-99713143D01*
X202767952Y-99713143D02*
X202767952Y-99350285D01*
X202767952Y-99350285D02*
X202840524Y-99205143D01*
X202840524Y-99205143D02*
X202913095Y-99132571D01*
X202913095Y-99132571D02*
X203058238Y-99060000D01*
X203058238Y-99060000D02*
X203421095Y-99060000D01*
X203421095Y-99060000D02*
X203566238Y-99132571D01*
X203566238Y-99132571D02*
X203638810Y-99205143D01*
X203638810Y-99205143D02*
X203711381Y-99350285D01*
X203711381Y-99350285D02*
X203711381Y-99713143D01*
X203711381Y-99713143D02*
X203638810Y-99858285D01*
X203638810Y-99858285D02*
X203566238Y-99930857D01*
X202187381Y-98551999D02*
X202187381Y-97608571D01*
X202187381Y-97608571D02*
X202767952Y-98116571D01*
X202767952Y-98116571D02*
X202767952Y-97898856D01*
X202767952Y-97898856D02*
X202840524Y-97753714D01*
X202840524Y-97753714D02*
X202913095Y-97681142D01*
X202913095Y-97681142D02*
X203058238Y-97608571D01*
X203058238Y-97608571D02*
X203421095Y-97608571D01*
X203421095Y-97608571D02*
X203566238Y-97681142D01*
X203566238Y-97681142D02*
X203638810Y-97753714D01*
X203638810Y-97753714D02*
X203711381Y-97898856D01*
X203711381Y-97898856D02*
X203711381Y-98334285D01*
X203711381Y-98334285D02*
X203638810Y-98479428D01*
X203638810Y-98479428D02*
X203566238Y-98551999D01*
X202187381Y-96665142D02*
X202187381Y-96519999D01*
X202187381Y-96519999D02*
X202259952Y-96374856D01*
X202259952Y-96374856D02*
X202332524Y-96302285D01*
X202332524Y-96302285D02*
X202477667Y-96229713D01*
X202477667Y-96229713D02*
X202767952Y-96157142D01*
X202767952Y-96157142D02*
X203130810Y-96157142D01*
X203130810Y-96157142D02*
X203421095Y-96229713D01*
X203421095Y-96229713D02*
X203566238Y-96302285D01*
X203566238Y-96302285D02*
X203638810Y-96374856D01*
X203638810Y-96374856D02*
X203711381Y-96519999D01*
X203711381Y-96519999D02*
X203711381Y-96665142D01*
X203711381Y-96665142D02*
X203638810Y-96810285D01*
X203638810Y-96810285D02*
X203566238Y-96882856D01*
X203566238Y-96882856D02*
X203421095Y-96955427D01*
X203421095Y-96955427D02*
X203130810Y-97027999D01*
X203130810Y-97027999D02*
X202767952Y-97027999D01*
X202767952Y-97027999D02*
X202477667Y-96955427D01*
X202477667Y-96955427D02*
X202332524Y-96882856D01*
X202332524Y-96882856D02*
X202259952Y-96810285D01*
X202259952Y-96810285D02*
X202187381Y-96665142D01*
X202187381Y-95213713D02*
X202187381Y-95068570D01*
X202187381Y-95068570D02*
X202259952Y-94923427D01*
X202259952Y-94923427D02*
X202332524Y-94850856D01*
X202332524Y-94850856D02*
X202477667Y-94778284D01*
X202477667Y-94778284D02*
X202767952Y-94705713D01*
X202767952Y-94705713D02*
X203130810Y-94705713D01*
X203130810Y-94705713D02*
X203421095Y-94778284D01*
X203421095Y-94778284D02*
X203566238Y-94850856D01*
X203566238Y-94850856D02*
X203638810Y-94923427D01*
X203638810Y-94923427D02*
X203711381Y-95068570D01*
X203711381Y-95068570D02*
X203711381Y-95213713D01*
X203711381Y-95213713D02*
X203638810Y-95358856D01*
X203638810Y-95358856D02*
X203566238Y-95431427D01*
X203566238Y-95431427D02*
X203421095Y-95503998D01*
X203421095Y-95503998D02*
X203130810Y-95576570D01*
X203130810Y-95576570D02*
X202767952Y-95576570D01*
X202767952Y-95576570D02*
X202477667Y-95503998D01*
X202477667Y-95503998D02*
X202332524Y-95431427D01*
X202332524Y-95431427D02*
X202259952Y-95358856D01*
X202259952Y-95358856D02*
X202187381Y-95213713D01*
X203711381Y-92891426D02*
X202695381Y-92891426D01*
X202840524Y-92891426D02*
X202767952Y-92818855D01*
X202767952Y-92818855D02*
X202695381Y-92673712D01*
X202695381Y-92673712D02*
X202695381Y-92455998D01*
X202695381Y-92455998D02*
X202767952Y-92310855D01*
X202767952Y-92310855D02*
X202913095Y-92238284D01*
X202913095Y-92238284D02*
X203711381Y-92238284D01*
X202913095Y-92238284D02*
X202767952Y-92165712D01*
X202767952Y-92165712D02*
X202695381Y-92020569D01*
X202695381Y-92020569D02*
X202695381Y-91802855D01*
X202695381Y-91802855D02*
X202767952Y-91657712D01*
X202767952Y-91657712D02*
X202913095Y-91585141D01*
X202913095Y-91585141D02*
X203711381Y-91585141D01*
X203711381Y-90859426D02*
X202695381Y-90859426D01*
X202840524Y-90859426D02*
X202767952Y-90786855D01*
X202767952Y-90786855D02*
X202695381Y-90641712D01*
X202695381Y-90641712D02*
X202695381Y-90423998D01*
X202695381Y-90423998D02*
X202767952Y-90278855D01*
X202767952Y-90278855D02*
X202913095Y-90206284D01*
X202913095Y-90206284D02*
X203711381Y-90206284D01*
X202913095Y-90206284D02*
X202767952Y-90133712D01*
X202767952Y-90133712D02*
X202695381Y-89988569D01*
X202695381Y-89988569D02*
X202695381Y-89770855D01*
X202695381Y-89770855D02*
X202767952Y-89625712D01*
X202767952Y-89625712D02*
X202913095Y-89553141D01*
X202913095Y-89553141D02*
X203711381Y-89553141D01*
D12*
X190365000Y-121285000D02*
X205437420Y-121285000D01*
X190365000Y-71755000D02*
X205437420Y-71755000D01*
X204851000Y-121285000D02*
X204851000Y-71755000D01*
X204851000Y-121285000D02*
X204851000Y-71755000D01*
X204851000Y-121285000D02*
X204264579Y-120158496D01*
X204851000Y-121285000D02*
X205437421Y-120158496D01*
X204851000Y-71755000D02*
X205437421Y-72881504D01*
X204851000Y-71755000D02*
X204264579Y-72881504D01*
D13*
%TO.P,J6,1,Pin_1*%
%TO.N,+3.3v*%
X170576000Y-68047000D03*
D14*
%TO.P,J6,2,Pin_2*%
%TO.N,PB2*%
X173116000Y-68047000D03*
%TO.P,J6,3,Pin_3*%
%TO.N,GND*%
X175656000Y-68047000D03*
%TD*%
D13*
%TO.P,J5,1,Pin_1*%
%TO.N,+3.3v*%
X170576000Y-71730000D03*
D14*
%TO.P,J5,2,Pin_2*%
%TO.N,PB2*%
X173116000Y-71730000D03*
%TO.P,J5,3,Pin_3*%
%TO.N,GND*%
X175656000Y-71730000D03*
%TD*%
%TO.P,J4,3,Pin_3*%
%TO.N,GND*%
X175656000Y-75413000D03*
%TO.P,J4,2,Pin_2*%
%TO.N,PB2*%
X173116000Y-75413000D03*
D13*
%TO.P,J4,1,Pin_1*%
%TO.N,+3.3v*%
X170576000Y-75413000D03*
%TD*%
D15*
%TO.P,J2,1,Pin_1*%
%TO.N,GND*%
X164973000Y-117435000D03*
D16*
%TO.P,J2,2,Pin_2*%
%TO.N,USB 5V*%
X164973000Y-114935000D03*
%TD*%
D17*
%TO.P,J1,1,Pin_1*%
%TO.N,GND*%
X171109000Y-117738003D03*
D18*
%TO.P,J1,2,Pin_2*%
%TO.N,PB2*%
X173609000Y-117738003D03*
%TO.P,J1,3,Pin_3*%
%TO.N,+3.3v*%
X176109000Y-117738003D03*
%TD*%
D19*
%TO.P,R6,2*%
%TO.N,GND*%
X177649500Y-97155000D03*
%TO.P,R6,1*%
%TO.N,Net-(D2-A)*%
X179474500Y-97155000D03*
%TD*%
%TO.P,R1,1*%
%TO.N,GND*%
X166925000Y-110744000D03*
%TO.P,R1,2*%
%TO.N,Net-(U1-PROG)*%
X165100000Y-110744000D03*
%TD*%
D20*
%TO.P,J3,1,Pin_1*%
%TO.N,GND*%
X182372000Y-115062000D03*
D16*
%TO.P,J3,2,Pin_2*%
%TO.N,VBAT*%
X182372000Y-117562000D03*
%TD*%
D21*
%TO.P,D2,1,K*%
%TO.N,Net-(D2-K)*%
X187056000Y-106650000D03*
%TO.P,D2,2,A*%
%TO.N,Net-(D2-A)*%
X187056000Y-104775000D03*
%TD*%
D22*
%TO.P,C5,1*%
%TO.N,VBAT*%
X187071000Y-114361000D03*
%TO.P,C5,2*%
%TO.N,GND*%
X187071000Y-112461000D03*
%TD*%
D23*
%TO.P,C3,1*%
%TO.N,+3.3v*%
X180472000Y-110871000D03*
%TO.P,C3,2*%
%TO.N,GND*%
X182372000Y-110871000D03*
%TD*%
D24*
%TO.P,H2,1,1*%
%TO.N,GND*%
X186944000Y-62865000D03*
%TD*%
D25*
%TO.P,L2,1,GND*%
%TO.N,GND*%
X180594000Y-105664000D03*
D26*
%TO.P,L2,2,VIN*%
%TO.N,VBAT*%
X180681500Y-107164000D03*
D25*
%TO.P,L2,3,VOUT*%
%TO.N,+3.3v*%
X180594000Y-108664000D03*
%TD*%
D27*
%TO.P,JP1,20,DIO0*%
%TO.N,unconnected-(JP1-DIO0-Pad20)*%
X184023000Y-84993480D03*
%TO.P,JP1,19,DIO1*%
%TO.N,unconnected-(JP1-DIO1-Pad19)*%
X184023000Y-86995000D03*
%TO.P,JP1,18,DIO2*%
%TO.N,unconnected-(JP1-DIO2-Pad18)*%
X184023000Y-88993980D03*
%TO.P,JP1,17,DIO3*%
%TO.N,unconnected-(JP1-DIO3-Pad17)*%
X184023000Y-90995500D03*
%TO.P,JP1,16,RTS*%
%TO.N,unconnected-(JP1-RTS-Pad16)*%
X184023000Y-92994480D03*
%TO.P,JP1,15,DIO5*%
%TO.N,unconnected-(JP1-DIO5-Pad15)*%
X184023000Y-94993460D03*
%TO.P,JP1,14,RES*%
%TO.N,unconnected-(JP1-RES-Pad14)*%
X184023000Y-96994980D03*
%TO.P,JP1,13,DIO9*%
%TO.N,Net-(D2-A)*%
X184023000Y-98993960D03*
%TO.P,JP1,12,CTS*%
%TO.N,unconnected-(JP1-CTS-Pad12)*%
X184023000Y-100995480D03*
%TO.P,JP1,11,DIO4*%
%TO.N,unconnected-(JP1-DIO4-Pad11)*%
X184023000Y-102994460D03*
%TO.P,JP1,10,GND*%
%TO.N,GND*%
X162026600Y-102994460D03*
%TO.P,JP1,9,DTR*%
%TO.N,PB0*%
X162026600Y-100995480D03*
%TO.P,JP1,8,RES*%
%TO.N,unconnected-(JP1-RES-Pad8)*%
X162026600Y-98993960D03*
%TO.P,JP1,7,DIO11*%
%TO.N,unconnected-(JP1-DIO11-Pad7)*%
X162026600Y-96994980D03*
%TO.P,JP1,6,RSSI*%
%TO.N,unconnected-(JP1-RSSI-Pad6)*%
X162026600Y-94993460D03*
%TO.P,JP1,5,RESET*%
%TO.N,unconnected-(JP1-RESET-Pad5)*%
X162026600Y-92994480D03*
%TO.P,JP1,4,DIO12*%
%TO.N,unconnected-(JP1-DIO12-Pad4)*%
X162026600Y-90995500D03*
%TO.P,JP1,3,DIN*%
%TO.N,PB1*%
X162026600Y-88993980D03*
%TO.P,JP1,2,DOUT*%
%TO.N,unconnected-(JP1-DOUT-Pad2)*%
X162026600Y-86995000D03*
%TO.P,JP1,1,VDD*%
%TO.N,+3.3v*%
X162026600Y-84993480D03*
%TD*%
D28*
%TO.P,Q1,3,D*%
%TO.N,Net-(Q1-D)*%
X178562000Y-101219000D03*
%TO.P,Q1,2,S*%
%TO.N,GND*%
X177612000Y-99344000D03*
%TO.P,Q1,1,G*%
%TO.N,Net-(D2-A)*%
X179512000Y-99344000D03*
%TD*%
D29*
%TO.P,U1,1,STAT*%
%TO.N,Net-(U1-STAT)*%
X165989000Y-108712000D03*
%TO.P,U1,2,V_{SS}*%
%TO.N,GND*%
X165989000Y-107762000D03*
%TO.P,U1,3,V_{BAT}*%
%TO.N,VBAT*%
X165989000Y-106812000D03*
%TO.P,U1,4,V_{DD}*%
%TO.N,USB 5V*%
X163714000Y-106812000D03*
%TO.P,U1,5,PROG*%
%TO.N,Net-(U1-PROG)*%
X163714000Y-108712000D03*
%TD*%
D22*
%TO.P,C2,1*%
%TO.N,USB 5V*%
X159131000Y-114554000D03*
%TO.P,C2,2*%
%TO.N,GND*%
X159131000Y-112654000D03*
%TD*%
D30*
%TO.P,R2,1*%
%TO.N,Net-(U1-STAT)*%
X159131000Y-108307500D03*
%TO.P,R2,2*%
%TO.N,Net-(D1-K)*%
X159131000Y-110132500D03*
%TD*%
D24*
%TO.P,H3,1,1*%
%TO.N,GND*%
X159639000Y-118237000D03*
%TD*%
D30*
%TO.P,R3,1*%
%TO.N,Net-(D2-K)*%
X187101000Y-108658500D03*
%TO.P,R3,2*%
%TO.N,GND*%
X187101000Y-110483500D03*
%TD*%
D31*
%TO.P,U2,1,~{RESET}/PB5*%
%TO.N,unconnected-(U2-~{RESET}{slash}PB5-Pad1)*%
X177419000Y-106680000D03*
D32*
%TO.P,U2,2,XTAL1/PB3*%
%TO.N,Net-(U2-XTAL1{slash}PB3)*%
X174879000Y-106680000D03*
%TO.P,U2,3,XTAL2/PB4*%
%TO.N,unconnected-(U2-XTAL2{slash}PB4-Pad3)*%
X172339000Y-106680000D03*
%TO.P,U2,4,GND*%
%TO.N,GND*%
X169799000Y-106680000D03*
%TO.P,U2,5,AREF/PB0*%
%TO.N,PB0*%
X169799000Y-114300000D03*
%TO.P,U2,6,PB1*%
%TO.N,PB1*%
X172339000Y-114300000D03*
%TO.P,U2,7,PB2*%
%TO.N,PB2*%
X174879000Y-114300000D03*
%TO.P,U2,8,VCC*%
%TO.N,+3.3v*%
X177419000Y-114300000D03*
%TD*%
D22*
%TO.P,C1,2*%
%TO.N,GND*%
X165989000Y-103190000D03*
%TO.P,C1,1*%
%TO.N,VBAT*%
X165989000Y-105090000D03*
%TD*%
D24*
%TO.P,H1,1,1*%
%TO.N,GND*%
X159639000Y-62865000D03*
%TD*%
D19*
%TO.P,R5,1*%
%TO.N,Net-(U2-XTAL1{slash}PB3)*%
X173910000Y-104013000D03*
%TO.P,R5,2*%
%TO.N,VBAT*%
X172085000Y-104013000D03*
%TD*%
D33*
%TO.P,D1,1,K*%
%TO.N,Net-(D1-K)*%
X161417000Y-112686500D03*
%TO.P,D1,2,A*%
%TO.N,USB 5V*%
X161417000Y-114561500D03*
%TD*%
D24*
%TO.P,H4,1,1*%
%TO.N,GND*%
X186944000Y-118512000D03*
%TD*%
D19*
%TO.P,R4,2*%
%TO.N,Net-(U2-XTAL1{slash}PB3)*%
X175998500Y-104013000D03*
%TO.P,R4,1*%
%TO.N,Net-(Q1-D)*%
X177823500Y-104013000D03*
%TD*%
D34*
%TO.N,VBAT*%
X173228000Y-88900000D03*
D35*
%TO.N,PB2*%
X175006000Y-99060000D03*
%TO.N,Net-(U1-STAT)*%
X159131000Y-105156000D03*
X167513000Y-108839000D03*
%TD*%
D36*
%TO.N,PB2*%
X173116000Y-71730000D02*
X173116000Y-68047000D01*
X173116000Y-75413000D02*
X173116000Y-71730000D01*
X173116000Y-78344000D02*
X173116000Y-75413000D01*
X173101000Y-78359000D02*
X173116000Y-78344000D01*
D37*
%TO.N,VBAT*%
X173228000Y-102870000D02*
X172085000Y-104013000D01*
X173228000Y-88900000D02*
X173228000Y-102870000D01*
D36*
%TO.N,Net-(U2-XTAL1{slash}PB3)*%
X175998500Y-104013000D02*
X173910000Y-104013000D01*
%TO.N,Net-(Q1-D)*%
X178562000Y-101219000D02*
X178562000Y-103274500D01*
X178562000Y-103274500D02*
X177823500Y-104013000D01*
%TO.N,Net-(D2-A)*%
X179512000Y-99344000D02*
X179512000Y-97192500D01*
X179512000Y-97192500D02*
X179474500Y-97155000D01*
D37*
%TO.N,VBAT*%
X171008000Y-105090000D02*
X172085000Y-104013000D01*
X165989000Y-105090000D02*
X171008000Y-105090000D01*
X165989000Y-105090000D02*
X165989000Y-106812000D01*
D36*
%TO.N,PB2*%
X173101000Y-75555000D02*
X173116000Y-75540000D01*
X175006000Y-80264000D02*
X173101000Y-78359000D01*
X175006000Y-99060000D02*
X175006000Y-80264000D01*
D37*
%TO.N,VBAT*%
X185039000Y-114895000D02*
X185039000Y-108712000D01*
X183491000Y-107164000D02*
X180681500Y-107164000D01*
X185573000Y-114361000D02*
X185039000Y-114895000D01*
X185036500Y-108521500D02*
X184848500Y-108521500D01*
X187071000Y-114361000D02*
X185573000Y-114361000D01*
X182372000Y-117562000D02*
X185039000Y-114895000D01*
X185039000Y-108712000D02*
X184848500Y-108521500D01*
X184848500Y-108521500D02*
X183491000Y-107164000D01*
%TO.N,GND*%
X157578276Y-105311724D02*
X157578276Y-111101276D01*
X159895540Y-102994460D02*
X157578276Y-105311724D01*
X157578276Y-111101276D02*
X159131000Y-112654000D01*
X165989000Y-107762000D02*
X168717000Y-107762000D01*
X162026600Y-102994460D02*
X159895540Y-102994460D01*
X168717000Y-107762000D02*
X169799000Y-106680000D01*
%TO.N,USB 5V*%
X159131000Y-114554000D02*
X161417000Y-114554000D01*
X163714000Y-106812000D02*
X161920000Y-106812000D01*
X165100000Y-114808000D02*
X164973000Y-114935000D01*
X164592000Y-114554000D02*
X164973000Y-114935000D01*
X161290000Y-107442000D02*
X161290000Y-109602000D01*
X161417000Y-114554000D02*
X164592000Y-114554000D01*
X164973000Y-113285000D02*
X164973000Y-114935000D01*
X161290000Y-109602000D02*
X164973000Y-113285000D01*
X161920000Y-106812000D02*
X161290000Y-107442000D01*
%TO.N,+3.3v*%
X180467000Y-108791000D02*
X180594000Y-108664000D01*
X180467000Y-110871000D02*
X180467000Y-108791000D01*
X177419000Y-116428003D02*
X176109000Y-117738003D01*
X177419000Y-114300000D02*
X177419000Y-116428003D01*
X177419000Y-114300000D02*
X177419000Y-113919000D01*
X177419000Y-113919000D02*
X180467000Y-110871000D01*
D36*
%TO.N,Net-(D1-K)*%
X159131000Y-110132500D02*
X160123500Y-110132500D01*
X161417000Y-111426000D02*
X161417000Y-112679000D01*
X160123500Y-110132500D02*
X161417000Y-111426000D01*
%TO.N,Net-(D2-K)*%
X187071000Y-108658500D02*
X187071000Y-106650000D01*
%TO.N,Net-(D2-A)*%
X184023000Y-98993960D02*
X179862040Y-98993960D01*
X184023000Y-98993960D02*
X187071000Y-102041960D01*
X187071000Y-102041960D02*
X187071000Y-104775000D01*
X179451000Y-99283000D02*
X179512000Y-99344000D01*
X179862040Y-98993960D02*
X179512000Y-99344000D01*
%TO.N,Net-(U1-PROG)*%
X163714000Y-108712000D02*
X163714000Y-109358000D01*
X163714000Y-109358000D02*
X165100000Y-110744000D01*
%TO.N,Net-(U1-STAT)*%
X159131000Y-105156000D02*
X159131000Y-108307500D01*
X165989000Y-108712000D02*
X167386000Y-108712000D01*
X167386000Y-108712000D02*
X167513000Y-108839000D01*
%TO.N,Net-(U2-XTAL1{slash}PB3)*%
X173910000Y-104013000D02*
X173910000Y-105711000D01*
X173910000Y-105711000D02*
X174879000Y-106680000D01*
%TO.N,PB2*%
X174879000Y-116468003D02*
X173609000Y-117738003D01*
X174879000Y-114300000D02*
X174879000Y-116468003D01*
%TD*%
%TA.AperFunction,Conductor*%
%TO.N,GND*%
G36*
X158803894Y-118960624D02*
G01*
X158955932Y-119105592D01*
X159058222Y-119171330D01*
X157914030Y-120315521D01*
X157914030Y-120315522D01*
X158102414Y-120463112D01*
X158102423Y-120463118D01*
X158155470Y-120495186D01*
X158202658Y-120546714D01*
X158214496Y-120615574D01*
X158187227Y-120679902D01*
X158129508Y-120719276D01*
X158091320Y-120725303D01*
X157302776Y-120725303D01*
X157235737Y-120705618D01*
X157189982Y-120652814D01*
X157178776Y-120601303D01*
X157178776Y-119831127D01*
X157198461Y-119764088D01*
X157251265Y-119718333D01*
X157320423Y-119708389D01*
X157383979Y-119737414D01*
X157408895Y-119766981D01*
X157412886Y-119773585D01*
X157560477Y-119961968D01*
X158703211Y-118819235D01*
X158803894Y-118960624D01*
G37*
%TD.AperFunction*%
%TA.AperFunction,Conductor*%
G36*
X185551379Y-60343172D02*
G01*
X185597134Y-60395976D01*
X185607078Y-60465134D01*
X185578053Y-60528690D01*
X185548490Y-60553604D01*
X185407423Y-60638881D01*
X185219030Y-60786476D01*
X185219030Y-60786477D01*
X186360693Y-61928140D01*
X186346590Y-61935411D01*
X186181460Y-62065271D01*
X186043890Y-62224035D01*
X186009334Y-62283887D01*
X184865477Y-61140030D01*
X184865476Y-61140030D01*
X184717881Y-61328423D01*
X184548898Y-61607956D01*
X184548897Y-61607958D01*
X184414839Y-61905824D01*
X184414835Y-61905835D01*
X184317667Y-62217658D01*
X184258786Y-62538961D01*
X184239065Y-62865000D01*
X184258786Y-63191038D01*
X184317667Y-63512341D01*
X184414835Y-63824164D01*
X184414839Y-63824175D01*
X184548897Y-64122041D01*
X184548898Y-64122043D01*
X184717887Y-64401586D01*
X184865477Y-64589968D01*
X186008210Y-63447234D01*
X186108894Y-63588624D01*
X186260932Y-63733592D01*
X186363222Y-63799330D01*
X185219030Y-64943521D01*
X185219030Y-64943522D01*
X185407414Y-65091112D01*
X185407423Y-65091118D01*
X185686956Y-65260101D01*
X185686958Y-65260102D01*
X185984824Y-65394160D01*
X185984835Y-65394164D01*
X186296658Y-65491332D01*
X186617961Y-65550213D01*
X186944000Y-65569934D01*
X187270038Y-65550213D01*
X187591341Y-65491332D01*
X187903164Y-65394164D01*
X187903175Y-65394160D01*
X188201041Y-65260102D01*
X188201043Y-65260101D01*
X188480576Y-65091118D01*
X188480584Y-65091112D01*
X188668968Y-64943522D01*
X188668968Y-64943521D01*
X187527306Y-63801859D01*
X187541410Y-63794589D01*
X187706540Y-63664729D01*
X187844110Y-63505965D01*
X187878665Y-63446112D01*
X189022521Y-64589968D01*
X189022522Y-64589968D01*
X189068586Y-64531172D01*
X189125426Y-64490539D01*
X189195210Y-64487087D01*
X189255783Y-64521911D01*
X189287913Y-64583955D01*
X189290197Y-64607645D01*
X189290197Y-116769353D01*
X189270512Y-116836392D01*
X189217708Y-116882147D01*
X189148550Y-116892091D01*
X189084994Y-116863066D01*
X189068586Y-116845826D01*
X189022521Y-116787030D01*
X187879788Y-117929763D01*
X187779106Y-117788376D01*
X187627068Y-117643408D01*
X187524777Y-117577669D01*
X188668968Y-116433477D01*
X188668968Y-116433476D01*
X188480586Y-116285887D01*
X188201043Y-116116898D01*
X188201041Y-116116897D01*
X187903175Y-115982839D01*
X187903164Y-115982835D01*
X187591341Y-115885667D01*
X187270038Y-115826786D01*
X186944000Y-115807065D01*
X186617961Y-115826786D01*
X186296658Y-115885667D01*
X185984835Y-115982835D01*
X185984824Y-115982839D01*
X185686958Y-116116897D01*
X185686956Y-116116898D01*
X185407423Y-116285881D01*
X185219030Y-116433476D01*
X185219030Y-116433477D01*
X186360693Y-117575140D01*
X186346590Y-117582411D01*
X186181460Y-117712271D01*
X186043890Y-117871035D01*
X186009334Y-117930887D01*
X184865477Y-116787030D01*
X184865476Y-116787030D01*
X184717881Y-116975423D01*
X184548898Y-117254956D01*
X184548897Y-117254958D01*
X184414839Y-117552824D01*
X184414835Y-117552835D01*
X184317667Y-117864658D01*
X184258786Y-118185961D01*
X184239065Y-118512000D01*
X184258786Y-118838038D01*
X184317667Y-119159341D01*
X184414835Y-119471164D01*
X184414839Y-119471175D01*
X184548897Y-119769041D01*
X184548898Y-119769043D01*
X184717887Y-120048586D01*
X184865477Y-120236968D01*
X186008210Y-119094234D01*
X186108894Y-119235624D01*
X186260932Y-119380592D01*
X186363222Y-119446330D01*
X185219030Y-120590521D01*
X185219230Y-120593816D01*
X185203629Y-120661921D01*
X185153684Y-120710781D01*
X185095456Y-120725303D01*
X161186680Y-120725303D01*
X161119641Y-120705618D01*
X161073886Y-120652814D01*
X161063942Y-120583656D01*
X161092967Y-120520100D01*
X161122530Y-120495186D01*
X161175576Y-120463118D01*
X161175584Y-120463112D01*
X161363968Y-120315522D01*
X161363968Y-120315521D01*
X160222306Y-119173859D01*
X160236410Y-119166589D01*
X160401540Y-119036729D01*
X160539110Y-118877965D01*
X160573665Y-118818112D01*
X161717521Y-119961968D01*
X161717522Y-119961968D01*
X161865112Y-119773584D01*
X161865118Y-119773576D01*
X162034101Y-119494043D01*
X162034102Y-119494041D01*
X162168160Y-119196175D01*
X162168164Y-119196164D01*
X162265332Y-118884341D01*
X162324213Y-118563038D01*
X162343934Y-118237000D01*
X162324213Y-117910961D01*
X162265332Y-117589658D01*
X162168164Y-117277835D01*
X162168160Y-117277824D01*
X162034102Y-116979958D01*
X162034101Y-116979956D01*
X161865118Y-116700423D01*
X161865112Y-116700414D01*
X161717521Y-116512030D01*
X160574788Y-117654763D01*
X160474106Y-117513376D01*
X160322068Y-117368408D01*
X160219777Y-117302669D01*
X161363968Y-116158477D01*
X161363968Y-116158476D01*
X161175586Y-116010887D01*
X160896043Y-115841898D01*
X160896041Y-115841896D01*
X160749389Y-115775894D01*
X160696334Y-115730429D01*
X160676282Y-115663499D01*
X160695598Y-115596352D01*
X160748150Y-115550308D01*
X160812880Y-115539460D01*
X160911152Y-115549500D01*
X160911157Y-115549500D01*
X161922843Y-115549500D01*
X161922848Y-115549500D01*
X162024775Y-115539087D01*
X162189925Y-115484362D01*
X162208411Y-115472960D01*
X162273506Y-115454500D01*
X163496138Y-115454500D01*
X163563177Y-115474185D01*
X163608520Y-115526095D01*
X163648964Y-115612828D01*
X163648965Y-115612830D01*
X163784505Y-115806402D01*
X163932067Y-115953964D01*
X163965552Y-116015287D01*
X163960568Y-116084979D01*
X163918696Y-116140912D01*
X163909483Y-116147183D01*
X163754659Y-116242680D01*
X163754655Y-116242683D01*
X163630684Y-116366654D01*
X163538643Y-116515875D01*
X163538641Y-116515880D01*
X163483494Y-116682302D01*
X163483493Y-116682309D01*
X163473000Y-116785013D01*
X163473000Y-117185000D01*
X164539314Y-117185000D01*
X164513507Y-117225156D01*
X164473000Y-117363111D01*
X164473000Y-117506889D01*
X164513507Y-117644844D01*
X164539314Y-117685000D01*
X163473001Y-117685000D01*
X163473001Y-118084986D01*
X163483494Y-118187697D01*
X163538641Y-118354119D01*
X163538643Y-118354124D01*
X163630684Y-118503345D01*
X163754654Y-118627315D01*
X163903875Y-118719356D01*
X163903880Y-118719358D01*
X164070302Y-118774505D01*
X164070309Y-118774506D01*
X164173019Y-118784999D01*
X164722999Y-118784999D01*
X164723000Y-118784998D01*
X164723000Y-117870501D01*
X164830685Y-117919680D01*
X164937237Y-117935000D01*
X165008763Y-117935000D01*
X165115315Y-117919680D01*
X165223000Y-117870501D01*
X165223000Y-118784999D01*
X165772972Y-118784999D01*
X165772986Y-118784998D01*
X165875697Y-118774505D01*
X166042119Y-118719358D01*
X166042124Y-118719356D01*
X166191345Y-118627315D01*
X166315315Y-118503345D01*
X166407356Y-118354124D01*
X166407358Y-118354119D01*
X166462505Y-118187697D01*
X166462506Y-118187690D01*
X166472999Y-118084986D01*
X166473000Y-118084973D01*
X166473000Y-117685000D01*
X165406686Y-117685000D01*
X165432493Y-117644844D01*
X165473000Y-117506889D01*
X165473000Y-117363111D01*
X165432493Y-117225156D01*
X165406686Y-117185000D01*
X166472999Y-117185000D01*
X166472999Y-116785028D01*
X166472998Y-116785013D01*
X166462505Y-116682302D01*
X166407358Y-116515880D01*
X166407356Y-116515875D01*
X166315315Y-116366654D01*
X166191344Y-116242683D01*
X166191340Y-116242680D01*
X166036516Y-116147183D01*
X165989791Y-116095235D01*
X165978570Y-116026273D01*
X166006413Y-115962191D01*
X166013932Y-115953964D01*
X166082229Y-115885667D01*
X166161495Y-115806401D01*
X166297035Y-115612830D01*
X166396903Y-115398663D01*
X166458063Y-115170408D01*
X166478659Y-114935000D01*
X166458063Y-114699592D01*
X166396903Y-114471337D01*
X166297035Y-114257171D01*
X166294809Y-114253991D01*
X166161494Y-114063597D01*
X165994404Y-113896507D01*
X165926375Y-113848872D01*
X165882751Y-113794294D01*
X165873500Y-113747298D01*
X165873500Y-113365626D01*
X165875027Y-113346225D01*
X165877219Y-113332388D01*
X165873584Y-113263040D01*
X165873500Y-113259797D01*
X165873500Y-113237809D01*
X165873499Y-113237800D01*
X165871956Y-113223124D01*
X165871200Y-113215935D01*
X165870947Y-113212720D01*
X165867313Y-113143355D01*
X165863685Y-113129814D01*
X165860139Y-113110688D01*
X165858674Y-113096744D01*
X165837213Y-113030697D01*
X165836297Y-113027604D01*
X165818320Y-112960513D01*
X165811953Y-112948018D01*
X165804511Y-112930051D01*
X165800179Y-112916716D01*
X165765458Y-112856577D01*
X165763912Y-112853729D01*
X165732386Y-112791855D01*
X165732383Y-112791850D01*
X165723560Y-112780955D01*
X165712539Y-112764919D01*
X165705534Y-112752786D01*
X165705533Y-112752784D01*
X165685821Y-112730892D01*
X165659075Y-112701187D01*
X165656967Y-112698719D01*
X165643125Y-112681626D01*
X165643116Y-112681616D01*
X165627567Y-112666067D01*
X165625332Y-112663712D01*
X165578875Y-112612116D01*
X165578869Y-112612110D01*
X165567529Y-112603871D01*
X165552736Y-112591236D01*
X165117680Y-112156180D01*
X165084195Y-112094857D01*
X165089179Y-112025165D01*
X165131051Y-111969232D01*
X165196515Y-111944815D01*
X165205361Y-111944499D01*
X165412502Y-111944499D01*
X165412508Y-111944499D01*
X165515297Y-111933999D01*
X165681834Y-111878814D01*
X165831156Y-111786712D01*
X165925175Y-111692692D01*
X165986494Y-111659210D01*
X166056186Y-111664194D01*
X166100534Y-111692695D01*
X166194154Y-111786315D01*
X166343375Y-111878356D01*
X166343380Y-111878358D01*
X166509802Y-111933505D01*
X166509809Y-111933506D01*
X166612519Y-111943999D01*
X166674999Y-111943998D01*
X166675000Y-111943998D01*
X166675000Y-110994000D01*
X167175000Y-110994000D01*
X167175000Y-111943999D01*
X167237472Y-111943999D01*
X167237486Y-111943998D01*
X167340197Y-111933505D01*
X167506619Y-111878358D01*
X167506624Y-111878356D01*
X167655845Y-111786315D01*
X167779815Y-111662345D01*
X167871856Y-111513124D01*
X167871858Y-111513119D01*
X167927005Y-111346697D01*
X167927006Y-111346690D01*
X167937499Y-111243986D01*
X167937500Y-111243973D01*
X167937500Y-110994000D01*
X167175000Y-110994000D01*
X166675000Y-110994000D01*
X166675000Y-110618000D01*
X166694685Y-110550961D01*
X166747489Y-110505206D01*
X166799000Y-110494000D01*
X167937499Y-110494000D01*
X167937499Y-110244028D01*
X167937498Y-110244013D01*
X167927005Y-110141302D01*
X167871858Y-109974880D01*
X167871856Y-109974875D01*
X167779815Y-109825654D01*
X167747552Y-109793391D01*
X167714067Y-109732068D01*
X167719051Y-109662376D01*
X167760923Y-109606443D01*
X167794277Y-109588668D01*
X167862522Y-109564789D01*
X168015262Y-109468816D01*
X168142816Y-109341262D01*
X168238789Y-109188522D01*
X168298368Y-109018255D01*
X168298369Y-109018249D01*
X168318565Y-108839003D01*
X168318565Y-108838996D01*
X168298369Y-108659750D01*
X168298368Y-108659745D01*
X168241178Y-108496306D01*
X168238789Y-108489478D01*
X168142816Y-108336738D01*
X168015262Y-108209184D01*
X167946750Y-108166135D01*
X167862521Y-108113210D01*
X167692249Y-108053630D01*
X167628491Y-108046447D01*
X167603395Y-108039568D01*
X167603094Y-108040537D01*
X167595929Y-108038304D01*
X167585946Y-108036474D01*
X167564343Y-108030451D01*
X167554874Y-108026860D01*
X167554870Y-108026859D01*
X167493313Y-108019384D01*
X167489612Y-108018821D01*
X167428608Y-108007642D01*
X167428603Y-108007642D01*
X167366697Y-108011387D01*
X167362952Y-108011500D01*
X166882469Y-108011500D01*
X166819348Y-107994232D01*
X166796128Y-107980500D01*
X166761898Y-107960256D01*
X166761897Y-107960255D01*
X166761896Y-107960255D01*
X166761893Y-107960254D01*
X166604073Y-107914402D01*
X166604067Y-107914401D01*
X166567196Y-107911500D01*
X166567194Y-107911500D01*
X166316821Y-107911500D01*
X166249782Y-107891815D01*
X166204027Y-107839011D01*
X166194083Y-107769853D01*
X166223108Y-107706297D01*
X166266385Y-107674221D01*
X166380931Y-107623221D01*
X166431367Y-107612500D01*
X166567196Y-107612500D01*
X166585631Y-107611049D01*
X166604069Y-107609598D01*
X166604071Y-107609597D01*
X166604073Y-107609597D01*
X166645691Y-107597505D01*
X166761898Y-107563744D01*
X166820194Y-107529268D01*
X166883315Y-107512000D01*
X167148795Y-107512000D01*
X167148795Y-107511998D01*
X167148600Y-107509511D01*
X167148599Y-107509505D01*
X167102783Y-107351806D01*
X167102781Y-107351801D01*
X167102078Y-107350612D01*
X167101810Y-107349558D01*
X167099684Y-107344644D01*
X167100476Y-107344300D01*
X167084895Y-107282888D01*
X167100509Y-107229714D01*
X167100146Y-107229557D01*
X167101420Y-107226612D01*
X167102079Y-107224369D01*
X167103242Y-107222401D01*
X167103244Y-107222398D01*
X167146441Y-107073716D01*
X167149097Y-107064573D01*
X167149098Y-107064567D01*
X167152000Y-107027696D01*
X167152000Y-106596304D01*
X167149098Y-106559432D01*
X167149097Y-106559426D01*
X167103245Y-106401606D01*
X167103244Y-106401603D01*
X167103244Y-106401602D01*
X167019581Y-106260135D01*
X167019579Y-106260133D01*
X167019576Y-106260129D01*
X166961628Y-106202181D01*
X166928143Y-106140858D01*
X166933127Y-106071166D01*
X166974999Y-106015233D01*
X167040463Y-105990816D01*
X167049309Y-105990500D01*
X168491486Y-105990500D01*
X168558525Y-106010185D01*
X168604280Y-106062989D01*
X168614224Y-106132147D01*
X168603868Y-106166904D01*
X168572735Y-106233668D01*
X168572730Y-106233682D01*
X168520127Y-106429999D01*
X168520128Y-106430000D01*
X169483314Y-106430000D01*
X169471359Y-106441955D01*
X169413835Y-106554852D01*
X169394014Y-106680000D01*
X169413835Y-106805148D01*
X169471359Y-106918045D01*
X169483314Y-106930000D01*
X168520128Y-106930000D01*
X168572730Y-107126317D01*
X168572734Y-107126326D01*
X168668865Y-107332482D01*
X168799342Y-107518820D01*
X168960179Y-107679657D01*
X169146517Y-107810134D01*
X169352673Y-107906265D01*
X169352682Y-107906269D01*
X169548999Y-107958872D01*
X169549000Y-107958871D01*
X169549000Y-106995686D01*
X169560955Y-107007641D01*
X169673852Y-107065165D01*
X169767519Y-107080000D01*
X169830481Y-107080000D01*
X169924148Y-107065165D01*
X170037045Y-107007641D01*
X170049000Y-106995686D01*
X170049000Y-107958872D01*
X170245317Y-107906269D01*
X170245326Y-107906265D01*
X170451482Y-107810134D01*
X170637820Y-107679657D01*
X170798657Y-107518820D01*
X170929132Y-107332484D01*
X170956341Y-107274134D01*
X171002513Y-107221695D01*
X171069707Y-107202542D01*
X171136588Y-107222757D01*
X171181106Y-107274133D01*
X171208431Y-107332732D01*
X171208432Y-107332734D01*
X171338954Y-107519141D01*
X171499858Y-107680045D01*
X171546209Y-107712500D01*
X171686266Y-107810568D01*
X171892504Y-107906739D01*
X171892509Y-107906740D01*
X171892511Y-107906741D01*
X171910272Y-107911500D01*
X172112308Y-107965635D01*
X172274230Y-107979801D01*
X172338998Y-107985468D01*
X172339000Y-107985468D01*
X172339002Y-107985468D01*
X172395807Y-107980498D01*
X172565692Y-107965635D01*
X172785496Y-107906739D01*
X172991734Y-107810568D01*
X173178139Y-107680047D01*
X173339047Y-107519139D01*
X173469568Y-107332734D01*
X173496618Y-107274724D01*
X173542790Y-107222285D01*
X173609983Y-107203133D01*
X173676865Y-107223348D01*
X173721382Y-107274725D01*
X173748429Y-107332728D01*
X173748432Y-107332734D01*
X173878954Y-107519141D01*
X174039858Y-107680045D01*
X174086209Y-107712500D01*
X174226266Y-107810568D01*
X174432504Y-107906739D01*
X174432509Y-107906740D01*
X174432511Y-107906741D01*
X174450272Y-107911500D01*
X174652308Y-107965635D01*
X174814230Y-107979801D01*
X174878998Y-107985468D01*
X174879000Y-107985468D01*
X174879002Y-107985468D01*
X174935807Y-107980498D01*
X175105692Y-107965635D01*
X175325496Y-107906739D01*
X175531734Y-107810568D01*
X175718139Y-107680047D01*
X175879047Y-107519139D01*
X175896272Y-107494539D01*
X175950848Y-107450913D01*
X176020346Y-107443718D01*
X176082701Y-107475239D01*
X176118116Y-107535468D01*
X176121138Y-107552406D01*
X176124908Y-107587483D01*
X176175202Y-107722328D01*
X176175206Y-107722335D01*
X176261452Y-107837544D01*
X176261455Y-107837547D01*
X176376664Y-107923793D01*
X176376671Y-107923797D01*
X176511517Y-107974091D01*
X176511516Y-107974091D01*
X176518444Y-107974835D01*
X176571127Y-107980500D01*
X178266872Y-107980499D01*
X178326483Y-107974091D01*
X178461331Y-107923796D01*
X178576546Y-107837546D01*
X178662796Y-107722331D01*
X178713091Y-107587483D01*
X178719500Y-107527873D01*
X178719499Y-105832128D01*
X178713091Y-105772517D01*
X178678567Y-105679954D01*
X178662797Y-105637671D01*
X178662793Y-105637664D01*
X178576547Y-105522455D01*
X178576544Y-105522452D01*
X178461335Y-105436206D01*
X178461328Y-105436202D01*
X178401801Y-105414000D01*
X179444000Y-105414000D01*
X180344000Y-105414000D01*
X180344000Y-104714000D01*
X180844000Y-104714000D01*
X180844000Y-105414000D01*
X181744000Y-105414000D01*
X181744000Y-105166172D01*
X181743999Y-105166155D01*
X181737598Y-105106627D01*
X181737596Y-105106620D01*
X181687354Y-104971913D01*
X181687350Y-104971906D01*
X181601190Y-104856812D01*
X181601187Y-104856809D01*
X181486093Y-104770649D01*
X181486086Y-104770645D01*
X181351379Y-104720403D01*
X181351372Y-104720401D01*
X181291844Y-104714000D01*
X180844000Y-104714000D01*
X180344000Y-104714000D01*
X179896155Y-104714000D01*
X179836627Y-104720401D01*
X179836620Y-104720403D01*
X179701913Y-104770645D01*
X179701906Y-104770649D01*
X179586812Y-104856809D01*
X179586809Y-104856812D01*
X179500649Y-104971906D01*
X179500645Y-104971913D01*
X179450403Y-105106620D01*
X179450401Y-105106627D01*
X179444000Y-105166155D01*
X179444000Y-105414000D01*
X178401801Y-105414000D01*
X178355569Y-105396757D01*
X178299635Y-105354886D01*
X178275218Y-105289422D01*
X178290070Y-105221149D01*
X178339475Y-105171743D01*
X178359892Y-105162871D01*
X178405334Y-105147814D01*
X178554656Y-105055712D01*
X178678712Y-104931656D01*
X178770814Y-104782334D01*
X178825999Y-104615797D01*
X178836500Y-104513009D01*
X178836499Y-104042017D01*
X178856183Y-103974979D01*
X178872813Y-103954342D01*
X179041056Y-103786099D01*
X179043748Y-103783565D01*
X179090183Y-103742429D01*
X179125417Y-103691383D01*
X179127620Y-103688387D01*
X179165878Y-103639556D01*
X179170037Y-103630313D01*
X179181061Y-103610768D01*
X179186818Y-103602430D01*
X179208810Y-103544439D01*
X179210232Y-103541003D01*
X179235695Y-103484431D01*
X179237522Y-103474459D01*
X179243546Y-103452847D01*
X179247140Y-103443372D01*
X179254613Y-103381824D01*
X179255177Y-103378119D01*
X179260694Y-103348013D01*
X179266358Y-103317106D01*
X179262613Y-103255196D01*
X179262500Y-103251451D01*
X179262500Y-102187469D01*
X179279768Y-102124348D01*
X179313744Y-102066898D01*
X179347505Y-101950691D01*
X179359597Y-101909073D01*
X179359598Y-101909067D01*
X179362500Y-101872196D01*
X179362500Y-100706000D01*
X179382185Y-100638961D01*
X179434989Y-100593206D01*
X179486500Y-100582000D01*
X179727696Y-100582000D01*
X179746131Y-100580549D01*
X179764569Y-100579098D01*
X179764571Y-100579097D01*
X179764573Y-100579097D01*
X179823324Y-100562028D01*
X179922398Y-100533244D01*
X180063865Y-100449581D01*
X180180081Y-100333365D01*
X180263744Y-100191898D01*
X180309598Y-100034069D01*
X180312500Y-99997194D01*
X180312500Y-99818460D01*
X180332185Y-99751421D01*
X180384989Y-99705666D01*
X180436500Y-99694460D01*
X182907716Y-99694460D01*
X182974755Y-99714145D01*
X183009290Y-99747336D01*
X183052174Y-99808580D01*
X183150632Y-99907038D01*
X183184117Y-99968361D01*
X183179133Y-100038053D01*
X183150633Y-100082400D01*
X183052172Y-100180861D01*
X182925466Y-100361818D01*
X182925465Y-100361820D01*
X182832107Y-100562028D01*
X182832104Y-100562034D01*
X182774930Y-100775409D01*
X182774929Y-100775417D01*
X182755677Y-100995477D01*
X182755677Y-100995482D01*
X182774929Y-101215542D01*
X182774930Y-101215550D01*
X182832104Y-101428925D01*
X182832105Y-101428927D01*
X182832106Y-101428930D01*
X182923565Y-101625066D01*
X182925466Y-101629142D01*
X182925468Y-101629146D01*
X183052170Y-101810095D01*
X183052175Y-101810101D01*
X183149362Y-101907288D01*
X183182847Y-101968611D01*
X183177863Y-102038303D01*
X183149363Y-102082650D01*
X183052172Y-102179841D01*
X182925466Y-102360798D01*
X182925465Y-102360800D01*
X182832107Y-102561008D01*
X182832104Y-102561014D01*
X182774930Y-102774389D01*
X182774929Y-102774397D01*
X182755677Y-102994457D01*
X182755677Y-102994462D01*
X182774929Y-103214522D01*
X182774930Y-103214530D01*
X182832104Y-103427905D01*
X182832105Y-103427907D01*
X182832106Y-103427910D01*
X182886446Y-103544442D01*
X182925466Y-103628122D01*
X182925468Y-103628126D01*
X183052170Y-103809075D01*
X183052175Y-103809081D01*
X183208378Y-103965284D01*
X183208384Y-103965289D01*
X183389333Y-104091991D01*
X183389335Y-104091992D01*
X183389338Y-104091994D01*
X183589550Y-104185354D01*
X183802932Y-104242530D01*
X183960123Y-104256282D01*
X184022998Y-104261783D01*
X184023000Y-104261783D01*
X184023002Y-104261783D01*
X184078017Y-104256969D01*
X184243068Y-104242530D01*
X184456450Y-104185354D01*
X184656662Y-104091994D01*
X184837620Y-103965286D01*
X184993826Y-103809080D01*
X185120534Y-103628122D01*
X185213894Y-103427910D01*
X185271070Y-103214528D01*
X185290323Y-102994460D01*
X185288208Y-102970289D01*
X185280151Y-102878187D01*
X185271070Y-102774392D01*
X185213894Y-102561010D01*
X185120534Y-102360799D01*
X184993826Y-102179840D01*
X184993824Y-102179837D01*
X184896637Y-102082650D01*
X184863152Y-102021327D01*
X184868136Y-101951635D01*
X184896633Y-101907292D01*
X184993826Y-101810100D01*
X185120534Y-101629142D01*
X185213894Y-101428930D01*
X185213899Y-101428908D01*
X185214942Y-101426047D01*
X185215750Y-101424949D01*
X185216182Y-101424023D01*
X185216368Y-101424109D01*
X185256363Y-101369780D01*
X185321629Y-101344838D01*
X185390019Y-101359141D01*
X185419149Y-101380766D01*
X186334181Y-102295798D01*
X186367666Y-102357121D01*
X186370500Y-102383479D01*
X186370500Y-103733627D01*
X186350815Y-103800666D01*
X186298011Y-103846421D01*
X186285507Y-103851332D01*
X186283075Y-103852137D01*
X186283071Y-103852139D01*
X186135000Y-103943471D01*
X186134996Y-103943474D01*
X186011974Y-104066496D01*
X186011971Y-104066500D01*
X185920642Y-104214566D01*
X185920637Y-104214577D01*
X185865913Y-104379723D01*
X185855500Y-104481644D01*
X185855500Y-105068355D01*
X185865913Y-105170276D01*
X185920637Y-105335422D01*
X185920642Y-105335433D01*
X186011971Y-105483499D01*
X186011974Y-105483503D01*
X186134996Y-105606525D01*
X186135000Y-105606528D01*
X186135703Y-105606962D01*
X186136083Y-105607385D01*
X186140664Y-105611007D01*
X186140045Y-105611789D01*
X186182428Y-105658910D01*
X186193649Y-105727872D01*
X186165806Y-105791954D01*
X186140544Y-105813842D01*
X186140664Y-105813993D01*
X186137315Y-105816640D01*
X186135703Y-105818038D01*
X186135000Y-105818471D01*
X186134996Y-105818474D01*
X186011974Y-105941496D01*
X186011971Y-105941500D01*
X185920642Y-106089566D01*
X185920637Y-106089577D01*
X185865913Y-106254723D01*
X185855500Y-106356644D01*
X185855500Y-106943355D01*
X185865913Y-107045276D01*
X185920637Y-107210422D01*
X185920642Y-107210433D01*
X186011971Y-107358499D01*
X186011974Y-107358503D01*
X186134996Y-107481525D01*
X186135000Y-107481528D01*
X186248394Y-107551471D01*
X186295119Y-107603419D01*
X186306340Y-107672381D01*
X186278497Y-107736463D01*
X186248394Y-107762547D01*
X186182347Y-107803285D01*
X186182343Y-107803288D01*
X186058288Y-107927343D01*
X186058285Y-107927347D01*
X185999114Y-108023278D01*
X185947166Y-108070003D01*
X185878203Y-108081224D01*
X185814121Y-108053381D01*
X185793258Y-108031066D01*
X185709388Y-107915629D01*
X185682940Y-107891815D01*
X185568716Y-107788967D01*
X185404784Y-107694321D01*
X185404780Y-107694319D01*
X185270204Y-107650592D01*
X185220842Y-107620342D01*
X185085966Y-107485466D01*
X185052481Y-107424143D01*
X185049647Y-107397785D01*
X185049647Y-106297500D01*
X185044500Y-106225539D01*
X185044499Y-106225534D01*
X185003954Y-106087449D01*
X185003953Y-106087447D01*
X184926143Y-105966372D01*
X184817373Y-105872123D01*
X184748920Y-105840861D01*
X184686456Y-105812334D01*
X184579792Y-105796999D01*
X184544000Y-105791853D01*
X181419000Y-105791853D01*
X181347039Y-105796999D01*
X181347034Y-105797000D01*
X181208949Y-105837545D01*
X181208944Y-105837547D01*
X181120613Y-105894315D01*
X181053574Y-105914000D01*
X179444000Y-105914000D01*
X179444000Y-106161844D01*
X179450401Y-106221372D01*
X179450403Y-106221379D01*
X179500647Y-106356091D01*
X179501713Y-106358043D01*
X179502185Y-106360214D01*
X179503746Y-106364399D01*
X179503144Y-106364623D01*
X179516564Y-106426317D01*
X179505674Y-106468979D01*
X179458835Y-106571541D01*
X179458835Y-106571542D01*
X179438353Y-106714001D01*
X179438353Y-107614000D01*
X179443499Y-107685960D01*
X179443500Y-107685965D01*
X179484045Y-107824049D01*
X179484046Y-107824051D01*
X179484047Y-107824053D01*
X179492717Y-107837544D01*
X179496585Y-107843563D01*
X179516268Y-107910603D01*
X179502846Y-107963189D01*
X179503303Y-107963360D01*
X179501720Y-107967603D01*
X179501103Y-107970022D01*
X179500204Y-107971667D01*
X179449908Y-108106517D01*
X179443501Y-108166116D01*
X179443500Y-108166135D01*
X179443500Y-109161870D01*
X179443501Y-109161876D01*
X179449908Y-109221483D01*
X179500202Y-109356327D01*
X179500204Y-109356331D01*
X179541766Y-109411850D01*
X179566184Y-109477314D01*
X179566500Y-109486161D01*
X179566500Y-109993974D01*
X179548039Y-110059070D01*
X179537189Y-110076659D01*
X179537185Y-110076668D01*
X179515768Y-110141302D01*
X179482001Y-110243203D01*
X179482001Y-110243204D01*
X179482000Y-110243204D01*
X179471500Y-110345983D01*
X179471500Y-110541638D01*
X179451815Y-110608677D01*
X179435181Y-110629319D01*
X177021398Y-113043101D01*
X176976129Y-113071941D01*
X176972506Y-113073259D01*
X176766267Y-113169431D01*
X176766265Y-113169432D01*
X176579858Y-113299954D01*
X176418954Y-113460858D01*
X176288432Y-113647265D01*
X176288431Y-113647267D01*
X176261382Y-113705275D01*
X176215209Y-113757714D01*
X176148016Y-113776866D01*
X176081135Y-113756650D01*
X176036618Y-113705275D01*
X176012475Y-113653500D01*
X176009568Y-113647266D01*
X175879047Y-113460861D01*
X175879045Y-113460858D01*
X175718141Y-113299954D01*
X175531734Y-113169432D01*
X175531732Y-113169431D01*
X175325497Y-113073261D01*
X175325488Y-113073258D01*
X175105697Y-113014366D01*
X175105693Y-113014365D01*
X175105692Y-113014365D01*
X175105691Y-113014364D01*
X175105686Y-113014364D01*
X174879002Y-112994532D01*
X174878998Y-112994532D01*
X174652313Y-113014364D01*
X174652302Y-113014366D01*
X174432511Y-113073258D01*
X174432502Y-113073261D01*
X174226267Y-113169431D01*
X174226265Y-113169432D01*
X174039858Y-113299954D01*
X173878954Y-113460858D01*
X173748432Y-113647265D01*
X173748431Y-113647267D01*
X173721382Y-113705275D01*
X173675209Y-113757714D01*
X173608016Y-113776866D01*
X173541135Y-113756650D01*
X173496618Y-113705275D01*
X173472475Y-113653500D01*
X173469568Y-113647266D01*
X173339047Y-113460861D01*
X173339045Y-113460858D01*
X173178141Y-113299954D01*
X172991734Y-113169432D01*
X172991732Y-113169431D01*
X172785497Y-113073261D01*
X172785488Y-113073258D01*
X172565697Y-113014366D01*
X172565693Y-113014365D01*
X172565692Y-113014365D01*
X172565691Y-113014364D01*
X172565686Y-113014364D01*
X172339002Y-112994532D01*
X172338998Y-112994532D01*
X172112313Y-113014364D01*
X172112302Y-113014366D01*
X171892511Y-113073258D01*
X171892502Y-113073261D01*
X171686267Y-113169431D01*
X171686265Y-113169432D01*
X171499858Y-113299954D01*
X171338954Y-113460858D01*
X171208432Y-113647265D01*
X171208431Y-113647267D01*
X171181382Y-113705275D01*
X171135209Y-113757714D01*
X171068016Y-113776866D01*
X171001135Y-113756650D01*
X170956618Y-113705275D01*
X170932475Y-113653500D01*
X170929568Y-113647266D01*
X170799047Y-113460861D01*
X170799045Y-113460858D01*
X170638141Y-113299954D01*
X170451734Y-113169432D01*
X170451732Y-113169431D01*
X170245497Y-113073261D01*
X170245488Y-113073258D01*
X170025697Y-113014366D01*
X170025693Y-113014365D01*
X170025692Y-113014365D01*
X170025691Y-113014364D01*
X170025686Y-113014364D01*
X169799002Y-112994532D01*
X169798998Y-112994532D01*
X169572313Y-113014364D01*
X169572302Y-113014366D01*
X169352511Y-113073258D01*
X169352502Y-113073261D01*
X169146267Y-113169431D01*
X169146265Y-113169432D01*
X168959858Y-113299954D01*
X168798954Y-113460858D01*
X168668432Y-113647265D01*
X168668431Y-113647267D01*
X168572261Y-113853502D01*
X168572258Y-113853511D01*
X168513366Y-114073302D01*
X168513364Y-114073313D01*
X168493532Y-114299998D01*
X168493532Y-114300001D01*
X168513364Y-114526686D01*
X168513366Y-114526697D01*
X168572258Y-114746488D01*
X168572261Y-114746497D01*
X168668431Y-114952732D01*
X168668432Y-114952734D01*
X168798954Y-115139141D01*
X168959858Y-115300045D01*
X168959861Y-115300047D01*
X169146266Y-115430568D01*
X169352504Y-115526739D01*
X169572308Y-115585635D01*
X169734230Y-115599801D01*
X169798998Y-115605468D01*
X169799000Y-115605468D01*
X169799002Y-115605468D01*
X169855673Y-115600509D01*
X170025692Y-115585635D01*
X170245496Y-115526739D01*
X170451734Y-115430568D01*
X170638139Y-115300047D01*
X170799047Y-115139139D01*
X170929568Y-114952734D01*
X170956618Y-114894724D01*
X171002790Y-114842285D01*
X171069983Y-114823133D01*
X171136865Y-114843348D01*
X171181382Y-114894725D01*
X171208429Y-114952728D01*
X171208432Y-114952734D01*
X171338954Y-115139141D01*
X171499858Y-115300045D01*
X171499861Y-115300047D01*
X171686266Y-115430568D01*
X171892504Y-115526739D01*
X172112308Y-115585635D01*
X172274230Y-115599801D01*
X172338998Y-115605468D01*
X172339000Y-115605468D01*
X172339002Y-115605468D01*
X172395673Y-115600509D01*
X172565692Y-115585635D01*
X172785496Y-115526739D01*
X172991734Y-115430568D01*
X173178139Y-115300047D01*
X173339047Y-115139139D01*
X173469568Y-114952734D01*
X173496618Y-114894724D01*
X173542790Y-114842285D01*
X173609983Y-114823133D01*
X173676865Y-114843348D01*
X173721382Y-114894725D01*
X173748429Y-114952728D01*
X173748432Y-114952734D01*
X173878954Y-115139141D01*
X174039857Y-115300044D01*
X174039860Y-115300046D01*
X174039861Y-115300047D01*
X174125623Y-115360097D01*
X174169248Y-115414673D01*
X174178500Y-115461672D01*
X174178500Y-116126482D01*
X174158815Y-116193521D01*
X174142181Y-116214163D01*
X174079578Y-116276766D01*
X174018255Y-116310251D01*
X173959804Y-116308860D01*
X173844413Y-116277941D01*
X173844403Y-116277939D01*
X173609001Y-116257344D01*
X173608999Y-116257344D01*
X173373596Y-116277939D01*
X173373586Y-116277941D01*
X173145344Y-116339097D01*
X173145335Y-116339101D01*
X172931171Y-116438967D01*
X172931169Y-116438968D01*
X172737597Y-116574508D01*
X172590035Y-116722071D01*
X172528712Y-116755556D01*
X172459020Y-116750572D01*
X172403087Y-116708700D01*
X172396815Y-116699487D01*
X172301315Y-116544657D01*
X172177345Y-116420687D01*
X172028124Y-116328646D01*
X172028119Y-116328644D01*
X171861697Y-116273497D01*
X171861690Y-116273496D01*
X171758986Y-116263003D01*
X171359000Y-116263003D01*
X171359000Y-117329984D01*
X171244199Y-117277557D01*
X171142975Y-117263003D01*
X171075025Y-117263003D01*
X170973801Y-117277557D01*
X170859000Y-117329984D01*
X170859000Y-116263003D01*
X170459028Y-116263003D01*
X170459012Y-116263004D01*
X170356302Y-116273497D01*
X170189880Y-116328644D01*
X170189875Y-116328646D01*
X170040654Y-116420687D01*
X169916684Y-116544657D01*
X169824643Y-116693878D01*
X169824641Y-116693883D01*
X169769494Y-116860305D01*
X169769493Y-116860312D01*
X169759000Y-116963016D01*
X169759000Y-117488003D01*
X170705031Y-117488003D01*
X170672481Y-117538652D01*
X170634000Y-117669708D01*
X170634000Y-117806298D01*
X170672481Y-117937354D01*
X170705031Y-117988003D01*
X169759001Y-117988003D01*
X169759001Y-118512989D01*
X169769494Y-118615700D01*
X169824641Y-118782122D01*
X169824643Y-118782127D01*
X169916684Y-118931348D01*
X170040654Y-119055318D01*
X170189875Y-119147359D01*
X170189880Y-119147361D01*
X170356302Y-119202508D01*
X170356309Y-119202509D01*
X170459019Y-119213002D01*
X170858999Y-119213002D01*
X170859000Y-119213001D01*
X170859000Y-118146021D01*
X170973801Y-118198449D01*
X171075025Y-118213003D01*
X171142975Y-118213003D01*
X171244199Y-118198449D01*
X171359000Y-118146021D01*
X171359000Y-119213002D01*
X171758972Y-119213002D01*
X171758986Y-119213001D01*
X171861697Y-119202508D01*
X172028119Y-119147361D01*
X172028124Y-119147359D01*
X172177345Y-119055318D01*
X172301315Y-118931348D01*
X172396815Y-118776519D01*
X172448763Y-118729795D01*
X172517726Y-118718572D01*
X172581808Y-118746416D01*
X172590035Y-118753934D01*
X172737599Y-118901498D01*
X172737602Y-118901500D01*
X172737603Y-118901501D01*
X172931165Y-119037035D01*
X172931167Y-119037036D01*
X172931170Y-119037038D01*
X173145337Y-119136906D01*
X173145343Y-119136907D01*
X173145344Y-119136908D01*
X173184356Y-119147361D01*
X173373592Y-119198066D01*
X173561918Y-119214542D01*
X173608999Y-119218662D01*
X173609000Y-119218662D01*
X173609001Y-119218662D01*
X173648234Y-119215229D01*
X173844408Y-119198066D01*
X174072663Y-119136906D01*
X174286829Y-119037038D01*
X174480401Y-118901498D01*
X174647495Y-118734404D01*
X174757426Y-118577404D01*
X174812001Y-118533781D01*
X174881500Y-118526587D01*
X174943855Y-118558109D01*
X174960571Y-118577401D01*
X175031144Y-118678190D01*
X175070506Y-118734406D01*
X175172002Y-118835901D01*
X175237599Y-118901498D01*
X175322040Y-118960624D01*
X175431165Y-119037035D01*
X175431167Y-119037036D01*
X175431170Y-119037038D01*
X175645337Y-119136906D01*
X175645343Y-119136907D01*
X175645344Y-119136908D01*
X175684356Y-119147361D01*
X175873592Y-119198066D01*
X176061918Y-119214542D01*
X176108999Y-119218662D01*
X176109000Y-119218662D01*
X176109001Y-119218662D01*
X176148234Y-119215229D01*
X176344408Y-119198066D01*
X176572663Y-119136906D01*
X176786829Y-119037038D01*
X176980401Y-118901498D01*
X177147495Y-118734404D01*
X177283035Y-118540832D01*
X177382903Y-118326666D01*
X177444063Y-118098411D01*
X177459500Y-117921969D01*
X177459500Y-117712364D01*
X177479185Y-117645325D01*
X177495819Y-117624683D01*
X177742907Y-117377595D01*
X177998742Y-117121759D01*
X178013525Y-117109133D01*
X178024871Y-117100891D01*
X178071339Y-117049281D01*
X178073540Y-117046961D01*
X178089120Y-117031383D01*
X178102975Y-117014271D01*
X178105054Y-117011837D01*
X178151533Y-116960219D01*
X178158537Y-116948086D01*
X178169563Y-116932044D01*
X178178382Y-116921153D01*
X178193190Y-116892091D01*
X178209919Y-116859255D01*
X178211442Y-116856450D01*
X178246179Y-116796287D01*
X178250509Y-116782959D01*
X178257960Y-116764972D01*
X178262758Y-116755556D01*
X178264320Y-116752491D01*
X178282296Y-116685400D01*
X178283214Y-116682304D01*
X178283215Y-116682302D01*
X178304674Y-116616259D01*
X178306139Y-116602320D01*
X178309687Y-116583178D01*
X178313313Y-116569648D01*
X178316947Y-116500284D01*
X178317201Y-116497067D01*
X178319499Y-116475202D01*
X178319500Y-116475194D01*
X178319500Y-116453204D01*
X178319585Y-116449959D01*
X178320161Y-116438967D01*
X178323219Y-116380615D01*
X178321027Y-116366775D01*
X178319500Y-116347376D01*
X178319500Y-115290048D01*
X178339185Y-115223009D01*
X178355814Y-115202371D01*
X178419047Y-115139139D01*
X178549568Y-114952734D01*
X178645739Y-114746496D01*
X178704635Y-114526692D01*
X178724468Y-114300000D01*
X178704635Y-114073308D01*
X178687990Y-114011187D01*
X178689653Y-113941337D01*
X178720082Y-113891415D01*
X180478680Y-112132818D01*
X180540003Y-112099333D01*
X180566361Y-112096499D01*
X180772002Y-112096499D01*
X180772008Y-112096499D01*
X180874797Y-112085999D01*
X181041334Y-112030814D01*
X181190656Y-111938712D01*
X181314712Y-111814656D01*
X181316752Y-111811347D01*
X181318745Y-111809555D01*
X181319193Y-111808989D01*
X181319289Y-111809065D01*
X181368694Y-111764623D01*
X181437656Y-111753395D01*
X181501740Y-111781234D01*
X181527829Y-111811339D01*
X181529681Y-111814341D01*
X181529683Y-111814344D01*
X181653654Y-111938315D01*
X181802875Y-112030356D01*
X181802880Y-112030358D01*
X181969302Y-112085505D01*
X181969309Y-112085506D01*
X182072019Y-112095999D01*
X182121999Y-112095998D01*
X182122000Y-112095998D01*
X182122000Y-111121000D01*
X182622000Y-111121000D01*
X182622000Y-112095999D01*
X182671972Y-112095999D01*
X182671986Y-112095998D01*
X182774697Y-112085505D01*
X182941119Y-112030358D01*
X182941124Y-112030356D01*
X183090345Y-111938315D01*
X183214315Y-111814345D01*
X183306356Y-111665124D01*
X183306358Y-111665119D01*
X183361505Y-111498697D01*
X183361506Y-111498690D01*
X183371999Y-111395986D01*
X183372000Y-111395973D01*
X183372000Y-111121000D01*
X182622000Y-111121000D01*
X182122000Y-111121000D01*
X182122000Y-109646000D01*
X182622000Y-109646000D01*
X182622000Y-110621000D01*
X183371999Y-110621000D01*
X183371999Y-110346028D01*
X183371998Y-110346013D01*
X183361505Y-110243302D01*
X183306358Y-110076880D01*
X183306356Y-110076875D01*
X183214315Y-109927654D01*
X183090345Y-109803684D01*
X182941124Y-109711643D01*
X182941119Y-109711641D01*
X182774697Y-109656494D01*
X182774690Y-109656493D01*
X182671986Y-109646000D01*
X182622000Y-109646000D01*
X182122000Y-109646000D01*
X182121999Y-109645999D01*
X182072029Y-109646000D01*
X182072011Y-109646001D01*
X181969302Y-109656494D01*
X181802880Y-109711641D01*
X181802875Y-109711643D01*
X181653654Y-109803684D01*
X181579181Y-109878158D01*
X181517858Y-109911643D01*
X181448166Y-109906659D01*
X181392233Y-109864787D01*
X181367816Y-109799323D01*
X181367500Y-109790477D01*
X181367500Y-109688212D01*
X181387185Y-109621173D01*
X181439989Y-109575418D01*
X181448147Y-109572037D01*
X181486331Y-109557796D01*
X181601546Y-109471546D01*
X181687796Y-109356331D01*
X181738091Y-109221483D01*
X181744500Y-109161873D01*
X181744499Y-108660146D01*
X181764183Y-108593108D01*
X181816987Y-108547353D01*
X181868499Y-108536147D01*
X183538285Y-108536147D01*
X183605324Y-108555832D01*
X183625966Y-108572466D01*
X184102181Y-109048680D01*
X184135666Y-109110003D01*
X184138500Y-109136361D01*
X184138500Y-114470637D01*
X184118815Y-114537676D01*
X184102181Y-114558318D01*
X184083680Y-114576819D01*
X184022357Y-114610304D01*
X183952665Y-114605320D01*
X183896732Y-114563448D01*
X183872315Y-114497984D01*
X183871999Y-114489138D01*
X183871999Y-114412028D01*
X183871998Y-114412013D01*
X183861505Y-114309302D01*
X183806358Y-114142880D01*
X183806356Y-114142875D01*
X183714315Y-113993654D01*
X183590345Y-113869684D01*
X183441124Y-113777643D01*
X183441119Y-113777641D01*
X183274697Y-113722494D01*
X183274690Y-113722493D01*
X183171986Y-113712000D01*
X182622000Y-113712000D01*
X182622000Y-114626498D01*
X182514315Y-114577320D01*
X182407763Y-114562000D01*
X182336237Y-114562000D01*
X182229685Y-114577320D01*
X182122000Y-114626498D01*
X182122000Y-113712000D01*
X181572028Y-113712000D01*
X181572012Y-113712001D01*
X181469302Y-113722494D01*
X181302880Y-113777641D01*
X181302875Y-113777643D01*
X181153654Y-113869684D01*
X181029684Y-113993654D01*
X180937643Y-114142875D01*
X180937641Y-114142880D01*
X180882494Y-114309302D01*
X180882493Y-114309309D01*
X180872000Y-114412013D01*
X180872000Y-114812000D01*
X181938314Y-114812000D01*
X181912507Y-114852156D01*
X181872000Y-114990111D01*
X181872000Y-115133889D01*
X181912507Y-115271844D01*
X181938314Y-115312000D01*
X180872001Y-115312000D01*
X180872001Y-115711986D01*
X180882494Y-115814697D01*
X180937641Y-115981119D01*
X180937643Y-115981124D01*
X181029684Y-116130345D01*
X181153654Y-116254315D01*
X181308484Y-116349815D01*
X181355208Y-116401763D01*
X181366431Y-116470726D01*
X181338587Y-116534808D01*
X181331069Y-116543035D01*
X181183501Y-116690603D01*
X181183501Y-116690604D01*
X181047967Y-116884165D01*
X181047965Y-116884169D01*
X180948098Y-117098335D01*
X180948094Y-117098344D01*
X180886938Y-117326586D01*
X180886936Y-117326596D01*
X180866341Y-117561999D01*
X180866341Y-117562000D01*
X180886936Y-117797403D01*
X180886938Y-117797413D01*
X180948094Y-118025655D01*
X180948096Y-118025659D01*
X180948097Y-118025663D01*
X180973315Y-118079742D01*
X181047964Y-118239828D01*
X181047965Y-118239830D01*
X181183505Y-118433402D01*
X181350597Y-118600494D01*
X181544169Y-118736034D01*
X181544171Y-118736035D01*
X181758337Y-118835903D01*
X181986592Y-118897063D01*
X182163034Y-118912500D01*
X182580966Y-118912500D01*
X182757408Y-118897063D01*
X182985663Y-118835903D01*
X183199829Y-118736035D01*
X183393401Y-118600495D01*
X183560495Y-118433401D01*
X183696035Y-118239830D01*
X183795903Y-118025663D01*
X183857063Y-117797408D01*
X183877659Y-117562000D01*
X183864020Y-117406117D01*
X183877786Y-117337620D01*
X183899864Y-117307634D01*
X185618742Y-115588756D01*
X185633525Y-115576130D01*
X185644871Y-115567888D01*
X185691339Y-115516278D01*
X185693561Y-115513938D01*
X185709120Y-115498380D01*
X185709124Y-115498374D01*
X185909681Y-115297816D01*
X185971004Y-115264334D01*
X185997361Y-115261500D01*
X186185868Y-115261500D01*
X186250963Y-115279960D01*
X186276666Y-115295814D01*
X186443203Y-115350999D01*
X186545991Y-115361500D01*
X187596008Y-115361499D01*
X187596016Y-115361498D01*
X187596019Y-115361498D01*
X187652302Y-115355748D01*
X187698797Y-115350999D01*
X187865334Y-115295814D01*
X188014656Y-115203712D01*
X188138712Y-115079656D01*
X188230814Y-114930334D01*
X188285999Y-114763797D01*
X188296500Y-114661009D01*
X188296499Y-114060992D01*
X188291796Y-114014957D01*
X188285999Y-113958203D01*
X188285998Y-113958200D01*
X188263867Y-113891413D01*
X188230814Y-113791666D01*
X188138712Y-113642344D01*
X188014656Y-113518288D01*
X188011342Y-113516243D01*
X188009546Y-113514248D01*
X188008989Y-113513807D01*
X188009064Y-113513711D01*
X187964618Y-113464297D01*
X187953397Y-113395334D01*
X187981240Y-113331252D01*
X188011348Y-113305165D01*
X188014342Y-113303318D01*
X188138315Y-113179345D01*
X188230356Y-113030124D01*
X188230358Y-113030119D01*
X188285505Y-112863697D01*
X188285506Y-112863690D01*
X188295999Y-112760986D01*
X188296000Y-112760973D01*
X188296000Y-112711000D01*
X186945000Y-112711000D01*
X186877961Y-112691315D01*
X186832206Y-112638511D01*
X186821000Y-112587000D01*
X186821000Y-112211000D01*
X187321000Y-112211000D01*
X188295999Y-112211000D01*
X188295999Y-112161028D01*
X188295998Y-112161013D01*
X188285505Y-112058302D01*
X188230358Y-111891880D01*
X188230356Y-111891875D01*
X188138315Y-111742654D01*
X188014345Y-111618684D01*
X187960676Y-111585581D01*
X187913952Y-111533633D01*
X187902729Y-111464671D01*
X187930573Y-111400588D01*
X187960676Y-111374503D01*
X188019345Y-111338315D01*
X188143315Y-111214345D01*
X188235356Y-111065124D01*
X188235358Y-111065119D01*
X188290505Y-110898697D01*
X188290506Y-110898690D01*
X188300999Y-110795986D01*
X188301000Y-110795973D01*
X188301000Y-110733500D01*
X187351000Y-110733500D01*
X187351000Y-111454638D01*
X187331315Y-111521677D01*
X187321000Y-111534477D01*
X187321000Y-112211000D01*
X186821000Y-112211000D01*
X186821000Y-111502362D01*
X186840685Y-111435323D01*
X186851000Y-111422522D01*
X186851000Y-110357500D01*
X186870685Y-110290461D01*
X186923489Y-110244706D01*
X186975000Y-110233500D01*
X188300999Y-110233500D01*
X188300999Y-110171028D01*
X188300998Y-110171013D01*
X188290505Y-110068302D01*
X188235358Y-109901880D01*
X188235356Y-109901875D01*
X188143315Y-109752654D01*
X188049695Y-109659034D01*
X188016210Y-109597711D01*
X188021194Y-109528019D01*
X188049691Y-109483676D01*
X188143712Y-109389656D01*
X188235814Y-109240334D01*
X188290999Y-109073797D01*
X188301500Y-108971009D01*
X188301499Y-108345992D01*
X188290999Y-108243203D01*
X188235814Y-108076666D01*
X188143712Y-107927344D01*
X188019656Y-107803288D01*
X188019655Y-107803287D01*
X187931344Y-107748817D01*
X187908604Y-107734791D01*
X187861880Y-107682844D01*
X187850657Y-107613882D01*
X187878500Y-107549800D01*
X187908602Y-107523715D01*
X187977003Y-107481526D01*
X188100026Y-107358503D01*
X188191362Y-107210425D01*
X188246087Y-107045275D01*
X188256500Y-106943348D01*
X188256500Y-106356652D01*
X188246087Y-106254725D01*
X188191362Y-106089575D01*
X188191358Y-106089569D01*
X188191357Y-106089566D01*
X188100028Y-105941500D01*
X188100025Y-105941496D01*
X187977004Y-105818475D01*
X187977003Y-105818474D01*
X187976301Y-105818041D01*
X187975921Y-105817618D01*
X187971336Y-105813993D01*
X187971955Y-105813209D01*
X187929575Y-105766098D01*
X187918349Y-105697136D01*
X187946188Y-105633052D01*
X187971455Y-105611157D01*
X187971336Y-105611007D01*
X187974687Y-105608356D01*
X187976299Y-105606959D01*
X187977003Y-105606526D01*
X188100026Y-105483503D01*
X188191362Y-105335425D01*
X188246087Y-105170275D01*
X188256500Y-105068348D01*
X188256500Y-104481652D01*
X188246087Y-104379725D01*
X188191362Y-104214575D01*
X188191358Y-104214569D01*
X188191357Y-104214566D01*
X188100028Y-104066500D01*
X188100025Y-104066496D01*
X187977003Y-103943474D01*
X187976999Y-103943471D01*
X187830403Y-103853049D01*
X187783678Y-103801101D01*
X187771500Y-103747511D01*
X187771500Y-102065007D01*
X187771613Y-102061262D01*
X187775358Y-101999354D01*
X187764175Y-101938331D01*
X187763613Y-101934634D01*
X187760509Y-101909073D01*
X187756140Y-101873088D01*
X187752548Y-101863616D01*
X187746521Y-101841994D01*
X187744695Y-101832031D01*
X187744695Y-101832029D01*
X187719223Y-101775434D01*
X187717812Y-101772025D01*
X187695818Y-101714030D01*
X187690063Y-101705693D01*
X187679036Y-101686142D01*
X187674879Y-101676906D01*
X187674878Y-101676903D01*
X187657287Y-101654450D01*
X187636630Y-101628082D01*
X187634410Y-101625066D01*
X187599182Y-101574030D01*
X187594148Y-101569570D01*
X187552750Y-101532895D01*
X187550056Y-101530359D01*
X185308951Y-99289254D01*
X185275466Y-99227931D01*
X185273104Y-99190772D01*
X185290323Y-98993960D01*
X185271070Y-98773892D01*
X185213894Y-98560510D01*
X185120534Y-98360299D01*
X185022976Y-98220971D01*
X184993824Y-98179337D01*
X184896637Y-98082150D01*
X184863152Y-98020827D01*
X184868136Y-97951135D01*
X184896633Y-97906792D01*
X184993826Y-97809600D01*
X185120534Y-97628642D01*
X185213894Y-97428430D01*
X185271070Y-97215048D01*
X185290323Y-96994980D01*
X185271070Y-96774912D01*
X185213894Y-96561530D01*
X185120534Y-96361319D01*
X184993826Y-96180360D01*
X184993824Y-96180357D01*
X184895367Y-96081900D01*
X184861882Y-96020577D01*
X184866866Y-95950885D01*
X184895363Y-95906542D01*
X184993826Y-95808080D01*
X185120534Y-95627122D01*
X185213894Y-95426910D01*
X185271070Y-95213528D01*
X185290323Y-94993460D01*
X185271070Y-94773392D01*
X185213894Y-94560010D01*
X185120534Y-94359799D01*
X184993826Y-94178840D01*
X184993824Y-94178837D01*
X184896637Y-94081650D01*
X184863152Y-94020327D01*
X184868136Y-93950635D01*
X184896633Y-93906292D01*
X184993826Y-93809100D01*
X185120534Y-93628142D01*
X185213894Y-93427930D01*
X185271070Y-93214548D01*
X185290323Y-92994480D01*
X185271070Y-92774412D01*
X185213894Y-92561030D01*
X185120534Y-92360819D01*
X184993826Y-92179860D01*
X184993824Y-92179857D01*
X184896637Y-92082670D01*
X184863152Y-92021347D01*
X184868136Y-91951655D01*
X184896633Y-91907312D01*
X184993826Y-91810120D01*
X185120534Y-91629162D01*
X185213894Y-91428950D01*
X185271070Y-91215568D01*
X185290323Y-90995500D01*
X185271070Y-90775432D01*
X185213894Y-90562050D01*
X185120534Y-90361839D01*
X184993826Y-90180880D01*
X184993824Y-90180877D01*
X184895367Y-90082420D01*
X184861882Y-90021097D01*
X184866866Y-89951405D01*
X184895363Y-89907062D01*
X184993826Y-89808600D01*
X185120534Y-89627642D01*
X185213894Y-89427430D01*
X185271070Y-89214048D01*
X185290323Y-88993980D01*
X185271070Y-88773912D01*
X185213894Y-88560530D01*
X185120534Y-88360319D01*
X184993826Y-88179360D01*
X184993824Y-88179357D01*
X184896637Y-88082170D01*
X184863152Y-88020847D01*
X184868136Y-87951155D01*
X184896633Y-87906812D01*
X184993826Y-87809620D01*
X185120534Y-87628662D01*
X185213894Y-87428450D01*
X185271070Y-87215068D01*
X185290323Y-86995000D01*
X185271070Y-86774932D01*
X185213894Y-86561550D01*
X185120534Y-86361339D01*
X184993826Y-86180380D01*
X184993824Y-86180377D01*
X184895367Y-86081920D01*
X184861882Y-86020597D01*
X184866866Y-85950905D01*
X184895363Y-85906562D01*
X184993826Y-85808100D01*
X185120534Y-85627142D01*
X185213894Y-85426930D01*
X185271070Y-85213548D01*
X185290323Y-84993480D01*
X185271070Y-84773412D01*
X185213894Y-84560030D01*
X185120534Y-84359819D01*
X184993826Y-84178860D01*
X184837620Y-84022654D01*
X184837616Y-84022651D01*
X184837615Y-84022650D01*
X184656666Y-83895948D01*
X184656662Y-83895946D01*
X184656660Y-83895945D01*
X184456450Y-83802586D01*
X184456447Y-83802585D01*
X184456445Y-83802584D01*
X184243070Y-83745410D01*
X184243062Y-83745409D01*
X184023002Y-83726157D01*
X184022998Y-83726157D01*
X183802937Y-83745409D01*
X183802929Y-83745410D01*
X183589554Y-83802584D01*
X183589548Y-83802587D01*
X183389340Y-83895945D01*
X183389338Y-83895946D01*
X183208377Y-84022655D01*
X183052175Y-84178857D01*
X182925466Y-84359818D01*
X182925465Y-84359820D01*
X182832107Y-84560028D01*
X182832104Y-84560034D01*
X182774930Y-84773409D01*
X182774929Y-84773417D01*
X182755677Y-84993477D01*
X182755677Y-84993482D01*
X182774929Y-85213542D01*
X182774930Y-85213550D01*
X182832104Y-85426925D01*
X182832105Y-85426927D01*
X182832106Y-85426930D01*
X182925466Y-85627142D01*
X182925468Y-85627146D01*
X183052170Y-85808095D01*
X183052175Y-85808101D01*
X183150632Y-85906558D01*
X183184117Y-85967881D01*
X183179133Y-86037573D01*
X183150633Y-86081920D01*
X183052172Y-86180381D01*
X182925466Y-86361338D01*
X182925465Y-86361340D01*
X182832107Y-86561548D01*
X182832104Y-86561554D01*
X182774930Y-86774929D01*
X182774929Y-86774937D01*
X182755677Y-86994997D01*
X182755677Y-86995002D01*
X182774929Y-87215062D01*
X182774930Y-87215070D01*
X182832104Y-87428445D01*
X182832105Y-87428447D01*
X182832106Y-87428450D01*
X182909551Y-87594532D01*
X182925466Y-87628662D01*
X182925468Y-87628666D01*
X183052170Y-87809615D01*
X183052175Y-87809621D01*
X183149362Y-87906808D01*
X183182847Y-87968131D01*
X183177863Y-88037823D01*
X183149363Y-88082170D01*
X183052172Y-88179361D01*
X182925466Y-88360318D01*
X182925465Y-88360320D01*
X182832107Y-88560528D01*
X182832104Y-88560534D01*
X182774930Y-88773909D01*
X182774929Y-88773917D01*
X182755677Y-88993977D01*
X182755677Y-88993982D01*
X182774929Y-89214042D01*
X182774930Y-89214050D01*
X182832104Y-89427425D01*
X182832105Y-89427427D01*
X182832106Y-89427430D01*
X182890535Y-89552732D01*
X182925466Y-89627642D01*
X182925468Y-89627646D01*
X183052170Y-89808595D01*
X183052175Y-89808601D01*
X183150632Y-89907058D01*
X183184117Y-89968381D01*
X183179133Y-90038073D01*
X183150633Y-90082420D01*
X183052172Y-90180881D01*
X182925466Y-90361838D01*
X182925465Y-90361840D01*
X182832107Y-90562048D01*
X182832104Y-90562054D01*
X182774930Y-90775429D01*
X182774929Y-90775437D01*
X182755677Y-90995497D01*
X182755677Y-90995502D01*
X182774929Y-91215562D01*
X182774930Y-91215570D01*
X182832104Y-91428945D01*
X182832105Y-91428947D01*
X182832106Y-91428950D01*
X182925466Y-91629162D01*
X182925468Y-91629166D01*
X183052170Y-91810115D01*
X183052175Y-91810121D01*
X183149362Y-91907308D01*
X183182847Y-91968631D01*
X183177863Y-92038323D01*
X183149363Y-92082670D01*
X183052172Y-92179861D01*
X182925466Y-92360818D01*
X182925465Y-92360820D01*
X182832107Y-92561028D01*
X182832104Y-92561034D01*
X182774930Y-92774409D01*
X182774929Y-92774417D01*
X182755677Y-92994477D01*
X182755677Y-92994482D01*
X182774929Y-93214542D01*
X182774930Y-93214550D01*
X182832104Y-93427925D01*
X182832105Y-93427927D01*
X182832106Y-93427930D01*
X182925466Y-93628142D01*
X182925468Y-93628146D01*
X183052170Y-93809095D01*
X183052175Y-93809101D01*
X183149362Y-93906288D01*
X183182847Y-93967611D01*
X183177863Y-94037303D01*
X183149363Y-94081650D01*
X183052172Y-94178841D01*
X182925466Y-94359798D01*
X182925465Y-94359800D01*
X182832107Y-94560008D01*
X182832104Y-94560014D01*
X182774930Y-94773389D01*
X182774929Y-94773397D01*
X182755677Y-94993457D01*
X182755677Y-94993462D01*
X182774929Y-95213522D01*
X182774930Y-95213530D01*
X182832104Y-95426905D01*
X182832105Y-95426907D01*
X182832106Y-95426910D01*
X182925466Y-95627122D01*
X182925468Y-95627126D01*
X183052170Y-95808075D01*
X183052175Y-95808081D01*
X183150632Y-95906538D01*
X183184117Y-95967861D01*
X183179133Y-96037553D01*
X183150633Y-96081900D01*
X183052172Y-96180361D01*
X182925466Y-96361318D01*
X182925465Y-96361320D01*
X182832107Y-96561528D01*
X182832104Y-96561534D01*
X182774930Y-96774909D01*
X182774929Y-96774917D01*
X182755677Y-96994977D01*
X182755677Y-96994982D01*
X182774929Y-97215042D01*
X182774930Y-97215050D01*
X182832104Y-97428425D01*
X182832105Y-97428427D01*
X182832106Y-97428430D01*
X182925466Y-97628642D01*
X182925468Y-97628646D01*
X183052170Y-97809595D01*
X183052175Y-97809601D01*
X183149362Y-97906788D01*
X183182847Y-97968111D01*
X183177863Y-98037803D01*
X183149363Y-98082150D01*
X183052172Y-98179341D01*
X183009291Y-98240583D01*
X182954714Y-98284208D01*
X182907716Y-98293460D01*
X180409270Y-98293460D01*
X180342231Y-98273775D01*
X180296476Y-98220971D01*
X180286532Y-98151813D01*
X180315557Y-98088257D01*
X180321589Y-98081779D01*
X180329712Y-98073656D01*
X180421814Y-97924334D01*
X180476999Y-97757797D01*
X180487500Y-97655009D01*
X180487499Y-96654992D01*
X180476999Y-96552203D01*
X180421814Y-96385666D01*
X180329712Y-96236344D01*
X180205656Y-96112288D01*
X180084491Y-96037553D01*
X180056336Y-96020187D01*
X180056331Y-96020185D01*
X180054862Y-96019698D01*
X179889797Y-95965001D01*
X179889795Y-95965000D01*
X179787010Y-95954500D01*
X179161998Y-95954500D01*
X179161980Y-95954501D01*
X179059203Y-95965000D01*
X179059200Y-95965001D01*
X178892668Y-96020185D01*
X178892663Y-96020187D01*
X178743345Y-96112287D01*
X178649327Y-96206305D01*
X178588003Y-96239789D01*
X178518312Y-96234805D01*
X178473965Y-96206304D01*
X178380345Y-96112684D01*
X178231124Y-96020643D01*
X178231119Y-96020641D01*
X178064697Y-95965494D01*
X178064690Y-95965493D01*
X177961986Y-95955000D01*
X177899500Y-95955000D01*
X177899500Y-98306138D01*
X177879815Y-98373177D01*
X177863181Y-98393819D01*
X177862000Y-98395000D01*
X177862000Y-99094000D01*
X178412000Y-99094000D01*
X178412000Y-98690856D01*
X178409100Y-98654010D01*
X178409099Y-98654004D01*
X178363283Y-98496306D01*
X178363282Y-98496303D01*
X178300240Y-98389704D01*
X178283057Y-98321980D01*
X178305217Y-98255718D01*
X178341876Y-98221044D01*
X178380341Y-98197318D01*
X178473964Y-98103695D01*
X178535287Y-98070210D01*
X178604979Y-98075194D01*
X178649327Y-98103695D01*
X178743344Y-98197712D01*
X178752591Y-98203416D01*
X178799318Y-98255360D01*
X178811500Y-98308957D01*
X178811500Y-98375530D01*
X178794232Y-98438650D01*
X178760257Y-98496099D01*
X178760254Y-98496106D01*
X178714402Y-98653926D01*
X178714401Y-98653932D01*
X178711500Y-98690804D01*
X178711500Y-99857000D01*
X178691815Y-99924039D01*
X178639011Y-99969794D01*
X178587500Y-99981000D01*
X178536000Y-99981000D01*
X178468961Y-99961315D01*
X178423206Y-99908511D01*
X178412000Y-99857000D01*
X178412000Y-99594000D01*
X177862000Y-99594000D01*
X177862000Y-100249684D01*
X177844733Y-100312804D01*
X177810254Y-100371105D01*
X177810254Y-100371106D01*
X177764402Y-100528926D01*
X177764401Y-100528932D01*
X177761500Y-100565804D01*
X177761500Y-101872196D01*
X177764401Y-101909067D01*
X177764402Y-101909073D01*
X177810254Y-102066893D01*
X177810255Y-102066896D01*
X177810256Y-102066898D01*
X177825700Y-102093013D01*
X177844232Y-102124348D01*
X177861500Y-102187469D01*
X177861500Y-102688500D01*
X177841815Y-102755539D01*
X177789011Y-102801294D01*
X177737501Y-102812500D01*
X177510999Y-102812500D01*
X177510980Y-102812501D01*
X177408203Y-102823000D01*
X177408200Y-102823001D01*
X177241668Y-102878185D01*
X177241663Y-102878187D01*
X177092342Y-102970289D01*
X176998681Y-103063951D01*
X176937358Y-103097436D01*
X176867666Y-103092452D01*
X176823319Y-103063951D01*
X176729657Y-102970289D01*
X176729656Y-102970288D01*
X176580334Y-102878186D01*
X176413797Y-102823001D01*
X176413795Y-102823000D01*
X176311010Y-102812500D01*
X175685998Y-102812500D01*
X175685980Y-102812501D01*
X175583203Y-102823000D01*
X175583200Y-102823001D01*
X175416668Y-102878185D01*
X175416663Y-102878187D01*
X175267342Y-102970289D01*
X175143289Y-103094342D01*
X175143288Y-103094344D01*
X175069158Y-103214530D01*
X175059789Y-103229719D01*
X175007841Y-103276443D01*
X174938879Y-103287666D01*
X174874796Y-103259822D01*
X174848711Y-103229719D01*
X174765212Y-103094344D01*
X174641156Y-102970288D01*
X174491834Y-102878186D01*
X174325297Y-102823001D01*
X174325294Y-102823000D01*
X174239897Y-102814276D01*
X174175205Y-102787880D01*
X174135054Y-102730699D01*
X174128500Y-102690918D01*
X174128500Y-99598488D01*
X174148185Y-99531449D01*
X174200989Y-99485694D01*
X174270147Y-99475750D01*
X174333703Y-99504775D01*
X174357494Y-99532517D01*
X174376181Y-99562259D01*
X174376184Y-99562262D01*
X174503738Y-99689816D01*
X174656478Y-99785789D01*
X174826745Y-99845368D01*
X174826750Y-99845369D01*
X175005996Y-99865565D01*
X175006000Y-99865565D01*
X175006004Y-99865565D01*
X175185249Y-99845369D01*
X175185252Y-99845368D01*
X175185255Y-99845368D01*
X175355522Y-99785789D01*
X175508262Y-99689816D01*
X175604078Y-99594000D01*
X176812000Y-99594000D01*
X176812000Y-99997144D01*
X176814899Y-100033989D01*
X176814900Y-100033995D01*
X176860716Y-100191693D01*
X176860717Y-100191696D01*
X176944314Y-100333052D01*
X176944321Y-100333061D01*
X177060438Y-100449178D01*
X177060447Y-100449185D01*
X177201801Y-100532781D01*
X177359514Y-100578600D01*
X177359511Y-100578600D01*
X177361998Y-100578795D01*
X177362000Y-100578795D01*
X177362000Y-99594000D01*
X176812000Y-99594000D01*
X175604078Y-99594000D01*
X175635816Y-99562262D01*
X175731789Y-99409522D01*
X175791368Y-99239255D01*
X175794210Y-99214030D01*
X175811565Y-99060003D01*
X175811565Y-99059996D01*
X175791369Y-98880750D01*
X175791366Y-98880737D01*
X175731790Y-98710479D01*
X175725506Y-98700478D01*
X175706500Y-98634507D01*
X175706500Y-97405000D01*
X176637001Y-97405000D01*
X176637001Y-97654986D01*
X176647494Y-97757697D01*
X176702641Y-97924119D01*
X176702643Y-97924124D01*
X176794684Y-98073345D01*
X176923763Y-98202424D01*
X176921874Y-98204312D01*
X176955087Y-98251222D01*
X176958223Y-98321022D01*
X176944530Y-98354583D01*
X176860717Y-98496303D01*
X176860716Y-98496306D01*
X176814900Y-98654004D01*
X176814899Y-98654010D01*
X176812000Y-98690856D01*
X176812000Y-99094000D01*
X177362000Y-99094000D01*
X177362000Y-98155362D01*
X177381685Y-98088323D01*
X177398319Y-98067681D01*
X177399500Y-98066500D01*
X177399500Y-97405000D01*
X176637001Y-97405000D01*
X175706500Y-97405000D01*
X175706500Y-96905000D01*
X176637000Y-96905000D01*
X177399500Y-96905000D01*
X177399500Y-95955000D01*
X177399499Y-95954999D01*
X177337028Y-95955000D01*
X177337011Y-95955001D01*
X177234302Y-95965494D01*
X177067880Y-96020641D01*
X177067875Y-96020643D01*
X176918654Y-96112684D01*
X176794684Y-96236654D01*
X176702643Y-96385875D01*
X176702641Y-96385880D01*
X176647494Y-96552302D01*
X176647493Y-96552309D01*
X176637000Y-96655013D01*
X176637000Y-96905000D01*
X175706500Y-96905000D01*
X175706500Y-80287047D01*
X175706613Y-80283302D01*
X175710358Y-80221394D01*
X175699175Y-80160371D01*
X175698613Y-80156674D01*
X175696618Y-80140251D01*
X175691140Y-80095128D01*
X175687548Y-80085656D01*
X175681521Y-80064034D01*
X175679695Y-80054071D01*
X175679695Y-80054069D01*
X175654224Y-79997476D01*
X175652817Y-79994079D01*
X175630818Y-79936070D01*
X175630816Y-79936068D01*
X175630816Y-79936066D01*
X175625062Y-79927731D01*
X175614034Y-79908177D01*
X175609880Y-79898947D01*
X175609878Y-79898944D01*
X175571621Y-79850112D01*
X175569427Y-79847130D01*
X175534183Y-79796071D01*
X175487750Y-79754935D01*
X175485056Y-79752399D01*
X173852819Y-78120162D01*
X173819334Y-78058839D01*
X173816500Y-78032481D01*
X173816500Y-76635711D01*
X173836185Y-76568672D01*
X173869377Y-76534136D01*
X173910519Y-76505328D01*
X173987401Y-76451495D01*
X174154495Y-76284401D01*
X174284730Y-76098405D01*
X174339307Y-76054781D01*
X174408805Y-76047587D01*
X174471160Y-76079110D01*
X174487879Y-76098405D01*
X174617890Y-76284078D01*
X174784917Y-76451105D01*
X174978421Y-76586600D01*
X175192507Y-76686429D01*
X175192516Y-76686433D01*
X175406000Y-76743634D01*
X175406000Y-75848501D01*
X175513685Y-75897680D01*
X175620237Y-75913000D01*
X175691763Y-75913000D01*
X175798315Y-75897680D01*
X175906000Y-75848501D01*
X175906000Y-76743633D01*
X176119483Y-76686433D01*
X176119492Y-76686429D01*
X176333578Y-76586600D01*
X176527082Y-76451105D01*
X176694105Y-76284082D01*
X176829600Y-76090578D01*
X176929429Y-75876492D01*
X176929432Y-75876486D01*
X176986636Y-75663000D01*
X176089686Y-75663000D01*
X176115493Y-75622844D01*
X176156000Y-75484889D01*
X176156000Y-75341111D01*
X176115493Y-75203156D01*
X176089686Y-75163000D01*
X176986636Y-75163000D01*
X176986635Y-75162999D01*
X176929432Y-74949513D01*
X176929429Y-74949507D01*
X176829600Y-74735422D01*
X176829599Y-74735420D01*
X176694113Y-74541926D01*
X176694108Y-74541920D01*
X176527082Y-74374894D01*
X176333578Y-74239399D01*
X176119492Y-74139570D01*
X176119486Y-74139567D01*
X175906000Y-74082364D01*
X175906000Y-74977498D01*
X175798315Y-74928320D01*
X175691763Y-74913000D01*
X175620237Y-74913000D01*
X175513685Y-74928320D01*
X175406000Y-74977498D01*
X175406000Y-74082364D01*
X175405999Y-74082364D01*
X175192513Y-74139567D01*
X175192507Y-74139570D01*
X174978422Y-74239399D01*
X174978420Y-74239400D01*
X174784926Y-74374886D01*
X174784920Y-74374891D01*
X174617891Y-74541920D01*
X174617890Y-74541922D01*
X174487880Y-74727595D01*
X174433303Y-74771219D01*
X174363804Y-74778412D01*
X174301450Y-74746890D01*
X174284730Y-74727594D01*
X174154494Y-74541597D01*
X173987404Y-74374508D01*
X173987401Y-74374505D01*
X173987396Y-74374501D01*
X173987393Y-74374499D01*
X173869376Y-74291861D01*
X173825751Y-74237284D01*
X173816500Y-74190287D01*
X173816500Y-72952711D01*
X173836185Y-72885672D01*
X173869377Y-72851136D01*
X173910519Y-72822328D01*
X173987401Y-72768495D01*
X174154495Y-72601401D01*
X174284730Y-72415405D01*
X174339307Y-72371781D01*
X174408805Y-72364587D01*
X174471160Y-72396110D01*
X174487879Y-72415405D01*
X174617890Y-72601078D01*
X174784917Y-72768105D01*
X174978421Y-72903600D01*
X175192507Y-73003429D01*
X175192516Y-73003433D01*
X175406000Y-73060634D01*
X175406000Y-72165501D01*
X175513685Y-72214680D01*
X175620237Y-72230000D01*
X175691763Y-72230000D01*
X175798315Y-72214680D01*
X175906000Y-72165501D01*
X175906000Y-73060633D01*
X176119483Y-73003433D01*
X176119492Y-73003429D01*
X176333578Y-72903600D01*
X176527082Y-72768105D01*
X176694105Y-72601082D01*
X176829600Y-72407578D01*
X176929429Y-72193492D01*
X176929432Y-72193486D01*
X176986636Y-71980000D01*
X176089686Y-71980000D01*
X176115493Y-71939844D01*
X176156000Y-71801889D01*
X176156000Y-71658111D01*
X176115493Y-71520156D01*
X176089686Y-71480000D01*
X176986636Y-71480000D01*
X176986635Y-71479999D01*
X176929432Y-71266513D01*
X176929429Y-71266507D01*
X176829600Y-71052422D01*
X176829599Y-71052420D01*
X176694113Y-70858926D01*
X176694108Y-70858920D01*
X176527082Y-70691894D01*
X176333578Y-70556399D01*
X176119492Y-70456570D01*
X176119486Y-70456567D01*
X175906000Y-70399364D01*
X175906000Y-71294498D01*
X175798315Y-71245320D01*
X175691763Y-71230000D01*
X175620237Y-71230000D01*
X175513685Y-71245320D01*
X175406000Y-71294498D01*
X175406000Y-70399364D01*
X175405999Y-70399364D01*
X175192513Y-70456567D01*
X175192507Y-70456570D01*
X174978422Y-70556399D01*
X174978420Y-70556400D01*
X174784926Y-70691886D01*
X174784920Y-70691891D01*
X174617891Y-70858920D01*
X174617890Y-70858922D01*
X174487880Y-71044595D01*
X174433303Y-71088219D01*
X174363804Y-71095412D01*
X174301450Y-71063890D01*
X174284730Y-71044594D01*
X174154494Y-70858597D01*
X173987404Y-70691508D01*
X173987401Y-70691505D01*
X173987396Y-70691501D01*
X173987393Y-70691499D01*
X173869376Y-70608861D01*
X173825751Y-70554284D01*
X173816500Y-70507287D01*
X173816500Y-69269711D01*
X173836185Y-69202672D01*
X173869377Y-69168136D01*
X173910519Y-69139328D01*
X173987401Y-69085495D01*
X174154495Y-68918401D01*
X174284730Y-68732405D01*
X174339307Y-68688781D01*
X174408805Y-68681587D01*
X174471160Y-68713110D01*
X174487879Y-68732405D01*
X174617890Y-68918078D01*
X174784917Y-69085105D01*
X174978421Y-69220600D01*
X175192507Y-69320429D01*
X175192516Y-69320433D01*
X175406000Y-69377634D01*
X175406000Y-68482501D01*
X175513685Y-68531680D01*
X175620237Y-68547000D01*
X175691763Y-68547000D01*
X175798315Y-68531680D01*
X175906000Y-68482501D01*
X175906000Y-69377633D01*
X176119483Y-69320433D01*
X176119492Y-69320429D01*
X176333578Y-69220600D01*
X176527082Y-69085105D01*
X176694105Y-68918082D01*
X176829600Y-68724578D01*
X176929429Y-68510492D01*
X176929432Y-68510486D01*
X176986636Y-68297000D01*
X176089686Y-68297000D01*
X176115493Y-68256844D01*
X176156000Y-68118889D01*
X176156000Y-67975111D01*
X176115493Y-67837156D01*
X176089686Y-67797000D01*
X176986636Y-67797000D01*
X176986635Y-67796999D01*
X176929432Y-67583513D01*
X176929429Y-67583507D01*
X176829600Y-67369422D01*
X176829599Y-67369420D01*
X176694113Y-67175926D01*
X176694108Y-67175920D01*
X176527082Y-67008894D01*
X176333578Y-66873399D01*
X176119492Y-66773570D01*
X176119486Y-66773567D01*
X175906000Y-66716364D01*
X175906000Y-67611498D01*
X175798315Y-67562320D01*
X175691763Y-67547000D01*
X175620237Y-67547000D01*
X175513685Y-67562320D01*
X175406000Y-67611498D01*
X175406000Y-66716364D01*
X175405999Y-66716364D01*
X175192513Y-66773567D01*
X175192507Y-66773570D01*
X174978422Y-66873399D01*
X174978420Y-66873400D01*
X174784926Y-67008886D01*
X174784920Y-67008891D01*
X174617891Y-67175920D01*
X174617890Y-67175922D01*
X174487880Y-67361595D01*
X174433303Y-67405219D01*
X174363804Y-67412412D01*
X174301450Y-67380890D01*
X174284730Y-67361594D01*
X174154494Y-67175597D01*
X173987402Y-67008506D01*
X173987395Y-67008501D01*
X173793834Y-66872967D01*
X173793830Y-66872965D01*
X173793828Y-66872964D01*
X173579663Y-66773097D01*
X173579659Y-66773096D01*
X173579655Y-66773094D01*
X173351413Y-66711938D01*
X173351403Y-66711936D01*
X173116001Y-66691341D01*
X173115999Y-66691341D01*
X172880596Y-66711936D01*
X172880586Y-66711938D01*
X172652344Y-66773094D01*
X172652335Y-66773098D01*
X172438171Y-66872964D01*
X172438169Y-66872965D01*
X172244600Y-67008503D01*
X172122673Y-67130430D01*
X172061350Y-67163914D01*
X171991658Y-67158930D01*
X171935725Y-67117058D01*
X171918810Y-67086081D01*
X171869797Y-66954671D01*
X171869793Y-66954664D01*
X171783547Y-66839455D01*
X171783544Y-66839452D01*
X171668335Y-66753206D01*
X171668328Y-66753202D01*
X171533482Y-66702908D01*
X171533483Y-66702908D01*
X171473883Y-66696501D01*
X171473881Y-66696500D01*
X171473873Y-66696500D01*
X171473864Y-66696500D01*
X169678129Y-66696500D01*
X169678123Y-66696501D01*
X169618516Y-66702908D01*
X169483671Y-66753202D01*
X169483664Y-66753206D01*
X169368455Y-66839452D01*
X169368452Y-66839455D01*
X169282206Y-66954664D01*
X169282202Y-66954671D01*
X169231908Y-67089517D01*
X169225501Y-67149116D01*
X169225500Y-67149135D01*
X169225500Y-68944870D01*
X169225501Y-68944876D01*
X169231908Y-69004483D01*
X169282202Y-69139328D01*
X169282206Y-69139335D01*
X169368452Y-69254544D01*
X169368455Y-69254547D01*
X169483664Y-69340793D01*
X169483671Y-69340797D01*
X169618517Y-69391091D01*
X169618516Y-69391091D01*
X169625444Y-69391835D01*
X169678127Y-69397500D01*
X171473872Y-69397499D01*
X171533483Y-69391091D01*
X171668331Y-69340796D01*
X171783546Y-69254546D01*
X171869796Y-69139331D01*
X171918810Y-69007916D01*
X171960681Y-68951984D01*
X172026145Y-68927566D01*
X172094418Y-68942417D01*
X172122670Y-68963566D01*
X172244209Y-69085105D01*
X172244600Y-69085496D01*
X172362623Y-69168136D01*
X172406248Y-69222713D01*
X172415500Y-69269711D01*
X172415500Y-70507288D01*
X172395815Y-70574327D01*
X172362624Y-70608863D01*
X172244597Y-70691505D01*
X172122673Y-70813430D01*
X172061350Y-70846914D01*
X171991658Y-70841930D01*
X171935725Y-70800058D01*
X171918810Y-70769081D01*
X171869797Y-70637671D01*
X171869793Y-70637664D01*
X171783547Y-70522455D01*
X171783544Y-70522452D01*
X171668335Y-70436206D01*
X171668328Y-70436202D01*
X171533482Y-70385908D01*
X171533483Y-70385908D01*
X171473883Y-70379501D01*
X171473881Y-70379500D01*
X171473873Y-70379500D01*
X171473864Y-70379500D01*
X169678129Y-70379500D01*
X169678123Y-70379501D01*
X169618516Y-70385908D01*
X169483671Y-70436202D01*
X169483664Y-70436206D01*
X169368455Y-70522452D01*
X169368452Y-70522455D01*
X169282206Y-70637664D01*
X169282202Y-70637671D01*
X169231908Y-70772517D01*
X169225501Y-70832116D01*
X169225500Y-70832135D01*
X169225500Y-72627870D01*
X169225501Y-72627876D01*
X169231908Y-72687483D01*
X169282202Y-72822328D01*
X169282206Y-72822335D01*
X169368452Y-72937544D01*
X169368455Y-72937547D01*
X169483664Y-73023793D01*
X169483671Y-73023797D01*
X169618517Y-73074091D01*
X169618516Y-73074091D01*
X169625444Y-73074835D01*
X169678127Y-73080500D01*
X171473872Y-73080499D01*
X171533483Y-73074091D01*
X171668331Y-73023796D01*
X171783546Y-72937546D01*
X171869796Y-72822331D01*
X171918810Y-72690916D01*
X171960681Y-72634984D01*
X172026145Y-72610566D01*
X172094418Y-72625417D01*
X172122670Y-72646566D01*
X172214254Y-72738150D01*
X172244600Y-72768496D01*
X172362623Y-72851136D01*
X172406248Y-72905713D01*
X172415500Y-72952711D01*
X172415500Y-74190288D01*
X172395815Y-74257327D01*
X172362624Y-74291863D01*
X172244597Y-74374505D01*
X172122673Y-74496430D01*
X172061350Y-74529914D01*
X171991658Y-74524930D01*
X171935725Y-74483058D01*
X171918810Y-74452081D01*
X171869797Y-74320671D01*
X171869793Y-74320664D01*
X171783547Y-74205455D01*
X171783544Y-74205452D01*
X171668335Y-74119206D01*
X171668328Y-74119202D01*
X171533482Y-74068908D01*
X171533483Y-74068908D01*
X171473883Y-74062501D01*
X171473881Y-74062500D01*
X171473873Y-74062500D01*
X171473864Y-74062500D01*
X169678129Y-74062500D01*
X169678123Y-74062501D01*
X169618516Y-74068908D01*
X169483671Y-74119202D01*
X169483664Y-74119206D01*
X169368455Y-74205452D01*
X169368452Y-74205455D01*
X169282206Y-74320664D01*
X169282202Y-74320671D01*
X169231908Y-74455517D01*
X169225501Y-74515116D01*
X169225500Y-74515135D01*
X169225500Y-76310870D01*
X169225501Y-76310876D01*
X169231908Y-76370483D01*
X169282202Y-76505328D01*
X169282206Y-76505335D01*
X169368452Y-76620544D01*
X169368455Y-76620547D01*
X169483664Y-76706793D01*
X169483671Y-76706797D01*
X169618517Y-76757091D01*
X169618516Y-76757091D01*
X169625444Y-76757835D01*
X169678127Y-76763500D01*
X171473872Y-76763499D01*
X171533483Y-76757091D01*
X171668331Y-76706796D01*
X171783546Y-76620546D01*
X171869796Y-76505331D01*
X171918810Y-76373916D01*
X171960681Y-76317984D01*
X172026145Y-76293566D01*
X172094418Y-76308417D01*
X172122670Y-76329566D01*
X172244209Y-76451105D01*
X172244600Y-76451496D01*
X172362623Y-76534136D01*
X172406248Y-76588713D01*
X172415500Y-76635711D01*
X172415500Y-78185377D01*
X172409886Y-78222265D01*
X172406914Y-78231800D01*
X172406913Y-78231804D01*
X172404562Y-78270659D01*
X172403659Y-78278095D01*
X172396642Y-78316387D01*
X172396642Y-78316394D01*
X172398992Y-78355253D01*
X172398992Y-78362747D01*
X172396641Y-78401603D01*
X172396642Y-78401612D01*
X172403659Y-78439904D01*
X172404562Y-78447340D01*
X172406913Y-78486192D01*
X172406914Y-78486196D01*
X172418491Y-78523350D01*
X172420284Y-78530625D01*
X172427304Y-78568931D01*
X172443282Y-78604430D01*
X172445939Y-78611437D01*
X172457522Y-78648606D01*
X172477663Y-78681924D01*
X172481141Y-78688551D01*
X172497119Y-78724052D01*
X172497123Y-78724059D01*
X172521131Y-78754703D01*
X172525387Y-78760868D01*
X172545530Y-78794188D01*
X172560620Y-78809277D01*
X172575710Y-78824367D01*
X173503726Y-79752383D01*
X174269181Y-80517838D01*
X174302666Y-80579161D01*
X174305500Y-80605519D01*
X174305500Y-87838951D01*
X174285815Y-87905990D01*
X174233011Y-87951745D01*
X174163853Y-87961689D01*
X174100297Y-87932664D01*
X174093819Y-87926632D01*
X174067141Y-87899954D01*
X173880734Y-87769432D01*
X173880732Y-87769431D01*
X173674497Y-87673261D01*
X173674488Y-87673258D01*
X173454697Y-87614366D01*
X173454693Y-87614365D01*
X173454692Y-87614365D01*
X173454691Y-87614364D01*
X173454686Y-87614364D01*
X173228002Y-87594532D01*
X173227998Y-87594532D01*
X173001313Y-87614364D01*
X173001302Y-87614366D01*
X172781511Y-87673258D01*
X172781502Y-87673261D01*
X172575267Y-87769431D01*
X172575265Y-87769432D01*
X172388858Y-87899954D01*
X172227954Y-88060858D01*
X172097432Y-88247265D01*
X172097431Y-88247267D01*
X172001261Y-88453502D01*
X172001258Y-88453511D01*
X171942366Y-88673302D01*
X171942364Y-88673313D01*
X171922532Y-88899998D01*
X171922532Y-88900001D01*
X171942364Y-89126686D01*
X171942366Y-89126697D01*
X172001258Y-89346488D01*
X172001261Y-89346497D01*
X172097431Y-89552732D01*
X172097432Y-89552734D01*
X172227951Y-89739137D01*
X172227952Y-89739138D01*
X172227953Y-89739139D01*
X172291182Y-89802368D01*
X172324666Y-89863689D01*
X172327500Y-89890048D01*
X172327500Y-102445638D01*
X172307815Y-102512677D01*
X172291181Y-102533319D01*
X172048318Y-102776181D01*
X171986995Y-102809666D01*
X171960638Y-102812500D01*
X171772499Y-102812500D01*
X171772480Y-102812501D01*
X171669703Y-102823000D01*
X171669700Y-102823001D01*
X171503168Y-102878185D01*
X171503163Y-102878187D01*
X171353842Y-102970289D01*
X171229789Y-103094342D01*
X171137687Y-103243663D01*
X171137686Y-103243666D01*
X171082501Y-103410203D01*
X171082501Y-103410204D01*
X171082500Y-103410204D01*
X171072000Y-103512983D01*
X171072000Y-103701138D01*
X171052315Y-103768177D01*
X171035681Y-103788819D01*
X170671320Y-104153181D01*
X170609997Y-104186666D01*
X170583639Y-104189500D01*
X167074523Y-104189500D01*
X167007484Y-104169815D01*
X166961729Y-104117011D01*
X166951785Y-104047853D01*
X166980810Y-103984297D01*
X166986842Y-103977819D01*
X167056315Y-103908345D01*
X167148356Y-103759124D01*
X167148358Y-103759119D01*
X167203505Y-103592697D01*
X167203506Y-103592690D01*
X167213999Y-103489986D01*
X167214000Y-103489973D01*
X167214000Y-103440000D01*
X164764001Y-103440000D01*
X164764001Y-103489986D01*
X164774494Y-103592697D01*
X164829641Y-103759119D01*
X164829643Y-103759124D01*
X164921684Y-103908345D01*
X165045655Y-104032316D01*
X165045659Y-104032319D01*
X165048656Y-104034168D01*
X165050279Y-104035972D01*
X165051323Y-104036798D01*
X165051181Y-104036976D01*
X165095381Y-104086116D01*
X165106602Y-104155079D01*
X165078759Y-104219161D01*
X165048661Y-104245241D01*
X165045349Y-104247283D01*
X165045343Y-104247288D01*
X164921289Y-104371342D01*
X164829187Y-104520663D01*
X164829185Y-104520668D01*
X164801349Y-104604670D01*
X164774001Y-104687203D01*
X164774001Y-104687204D01*
X164774000Y-104687204D01*
X164763500Y-104789983D01*
X164763500Y-105390001D01*
X164763501Y-105390019D01*
X164774000Y-105492796D01*
X164774001Y-105492799D01*
X164829185Y-105659331D01*
X164829187Y-105659336D01*
X164852502Y-105697136D01*
X164920634Y-105807596D01*
X164921289Y-105808657D01*
X165050451Y-105937819D01*
X165048559Y-105939710D01*
X165081774Y-105986583D01*
X165088500Y-106026867D01*
X165088500Y-106078691D01*
X165068815Y-106145730D01*
X165052181Y-106166372D01*
X164958423Y-106260129D01*
X164958414Y-106260140D01*
X164958229Y-106260455D01*
X164958019Y-106260650D01*
X164953639Y-106266298D01*
X164952727Y-106265591D01*
X164907157Y-106308136D01*
X164838415Y-106320637D01*
X164773827Y-106293988D01*
X164749643Y-106266078D01*
X164749361Y-106266298D01*
X164745323Y-106261092D01*
X164744771Y-106260455D01*
X164744585Y-106260140D01*
X164744576Y-106260129D01*
X164628370Y-106143923D01*
X164628362Y-106143917D01*
X164486896Y-106060255D01*
X164486893Y-106060254D01*
X164329073Y-106014402D01*
X164329067Y-106014401D01*
X164292196Y-106011500D01*
X164292194Y-106011500D01*
X164161718Y-106011500D01*
X164099720Y-105994887D01*
X164082284Y-105984821D01*
X164082280Y-105984819D01*
X164082279Y-105984819D01*
X164082277Y-105984818D01*
X163902259Y-105926327D01*
X163902256Y-105926326D01*
X163761192Y-105911500D01*
X163761188Y-105911500D01*
X162000627Y-105911500D01*
X161981228Y-105909973D01*
X161967388Y-105907781D01*
X161898041Y-105911415D01*
X161894798Y-105911500D01*
X161872808Y-105911500D01*
X161866559Y-105912156D01*
X161850941Y-105913797D01*
X161847710Y-105914051D01*
X161778358Y-105917686D01*
X161778353Y-105917687D01*
X161764803Y-105921317D01*
X161745691Y-105924859D01*
X161731749Y-105926325D01*
X161731737Y-105926327D01*
X161679485Y-105943305D01*
X161665684Y-105947789D01*
X161662603Y-105948702D01*
X161622942Y-105959330D01*
X161595512Y-105966680D01*
X161583017Y-105973046D01*
X161565056Y-105980485D01*
X161551715Y-105984820D01*
X161551713Y-105984821D01*
X161491583Y-106019536D01*
X161488732Y-106021085D01*
X161426855Y-106052612D01*
X161426850Y-106052616D01*
X161415946Y-106061445D01*
X161399927Y-106072454D01*
X161387788Y-106079463D01*
X161387785Y-106079465D01*
X161336189Y-106125922D01*
X161333725Y-106128027D01*
X161316628Y-106141873D01*
X161316612Y-106141887D01*
X161301055Y-106157444D01*
X161298703Y-106159675D01*
X161247113Y-106206127D01*
X161247109Y-106206131D01*
X161238874Y-106217467D01*
X161226238Y-106232261D01*
X160710263Y-106748236D01*
X160695474Y-106760869D01*
X160684126Y-106769114D01*
X160637666Y-106820713D01*
X160635435Y-106823065D01*
X160619890Y-106838610D01*
X160619875Y-106838627D01*
X160606039Y-106855710D01*
X160603936Y-106858172D01*
X160557469Y-106909781D01*
X160557466Y-106909785D01*
X160550458Y-106921923D01*
X160539444Y-106937948D01*
X160530626Y-106948837D01*
X160530616Y-106948853D01*
X160499082Y-107010740D01*
X160497533Y-107013592D01*
X160462821Y-107073713D01*
X160458487Y-107087053D01*
X160451045Y-107105020D01*
X160444680Y-107117512D01*
X160426706Y-107184584D01*
X160425785Y-107187692D01*
X160404326Y-107253742D01*
X160404325Y-107253745D01*
X160402860Y-107267686D01*
X160399315Y-107286812D01*
X160395686Y-107300352D01*
X160392051Y-107369710D01*
X160391797Y-107372941D01*
X160389500Y-107394810D01*
X160389500Y-107416797D01*
X160389415Y-107420042D01*
X160385466Y-107495395D01*
X160362300Y-107561313D01*
X160307174Y-107604242D01*
X160237590Y-107610552D01*
X160175640Y-107578241D01*
X160173955Y-107576587D01*
X160049657Y-107452289D01*
X160049656Y-107452288D01*
X159900334Y-107360186D01*
X159900332Y-107360185D01*
X159894187Y-107356395D01*
X159895290Y-107354605D01*
X159850649Y-107315290D01*
X159831500Y-107249091D01*
X159831500Y-105581493D01*
X159850508Y-105515519D01*
X159856787Y-105505525D01*
X159856786Y-105505525D01*
X159856789Y-105505522D01*
X159916368Y-105335255D01*
X159916402Y-105334954D01*
X159936565Y-105156003D01*
X159936565Y-105155996D01*
X159916369Y-104976750D01*
X159916368Y-104976745D01*
X159899509Y-104928564D01*
X159856789Y-104806478D01*
X159846424Y-104789983D01*
X159760815Y-104653737D01*
X159633262Y-104526184D01*
X159480523Y-104430211D01*
X159310254Y-104370631D01*
X159310249Y-104370630D01*
X159131004Y-104350435D01*
X159130996Y-104350435D01*
X158951750Y-104370630D01*
X158951745Y-104370631D01*
X158781476Y-104430211D01*
X158628737Y-104526184D01*
X158501184Y-104653737D01*
X158405211Y-104806476D01*
X158345631Y-104976745D01*
X158345630Y-104976750D01*
X158325435Y-105155996D01*
X158325435Y-105156003D01*
X158345630Y-105335249D01*
X158345631Y-105335254D01*
X158405212Y-105505525D01*
X158411492Y-105515519D01*
X158430500Y-105581493D01*
X158430500Y-107249091D01*
X158410815Y-107316130D01*
X158366731Y-107354641D01*
X158367813Y-107356395D01*
X158361667Y-107360185D01*
X158361666Y-107360186D01*
X158300708Y-107397785D01*
X158212342Y-107452289D01*
X158088289Y-107576342D01*
X157996187Y-107725663D01*
X157996185Y-107725668D01*
X157983965Y-107762547D01*
X157941001Y-107892203D01*
X157941001Y-107892204D01*
X157941000Y-107892204D01*
X157930500Y-107994983D01*
X157930500Y-108620001D01*
X157930501Y-108620019D01*
X157941000Y-108722796D01*
X157941001Y-108722799D01*
X157979507Y-108839000D01*
X157996186Y-108889334D01*
X158068175Y-109006048D01*
X158088289Y-109038657D01*
X158181951Y-109132319D01*
X158215436Y-109193642D01*
X158210452Y-109263334D01*
X158181951Y-109307681D01*
X158088289Y-109401342D01*
X157996187Y-109550663D01*
X157996185Y-109550668D01*
X157971723Y-109624490D01*
X157941001Y-109717203D01*
X157941001Y-109717204D01*
X157941000Y-109717204D01*
X157930500Y-109819983D01*
X157930500Y-110445001D01*
X157930501Y-110445019D01*
X157941000Y-110547796D01*
X157941001Y-110547799D01*
X157996185Y-110714331D01*
X157996187Y-110714336D01*
X158016125Y-110746661D01*
X158088288Y-110863656D01*
X158212344Y-110987712D01*
X158361666Y-111079814D01*
X158528203Y-111134999D01*
X158630991Y-111145500D01*
X159631008Y-111145499D01*
X159631016Y-111145498D01*
X159631019Y-111145498D01*
X159687302Y-111139748D01*
X159733797Y-111134999D01*
X159900334Y-111079814D01*
X159928106Y-111062683D01*
X159995497Y-111044243D01*
X160062161Y-111065165D01*
X160080884Y-111080541D01*
X160607345Y-111607002D01*
X160640830Y-111668325D01*
X160635846Y-111738017D01*
X160593974Y-111793950D01*
X160584763Y-111800220D01*
X160496000Y-111854971D01*
X160391992Y-111958979D01*
X160330669Y-111992463D01*
X160260977Y-111987479D01*
X160205044Y-111945607D01*
X160198774Y-111936397D01*
X160198316Y-111935655D01*
X160074345Y-111811684D01*
X159925124Y-111719643D01*
X159925119Y-111719641D01*
X159758697Y-111664494D01*
X159758690Y-111664493D01*
X159655986Y-111654000D01*
X159381000Y-111654000D01*
X159381000Y-112780000D01*
X159361315Y-112847039D01*
X159308511Y-112892794D01*
X159257000Y-112904000D01*
X157906001Y-112904000D01*
X157906001Y-112953986D01*
X157916494Y-113056697D01*
X157971641Y-113223119D01*
X157971643Y-113223124D01*
X158063684Y-113372345D01*
X158187655Y-113496316D01*
X158187659Y-113496319D01*
X158190656Y-113498168D01*
X158192279Y-113499972D01*
X158193323Y-113500798D01*
X158193181Y-113500976D01*
X158237381Y-113550116D01*
X158248602Y-113619079D01*
X158220759Y-113683161D01*
X158190661Y-113709241D01*
X158187349Y-113711283D01*
X158187343Y-113711288D01*
X158063289Y-113835342D01*
X157971187Y-113984663D01*
X157971185Y-113984668D01*
X157945898Y-114060980D01*
X157916001Y-114151203D01*
X157916001Y-114151204D01*
X157916000Y-114151204D01*
X157905500Y-114253983D01*
X157905500Y-114854001D01*
X157905501Y-114854019D01*
X157916000Y-114956796D01*
X157916001Y-114956799D01*
X157971185Y-115123331D01*
X157971187Y-115123336D01*
X157980936Y-115139141D01*
X158063288Y-115272656D01*
X158187344Y-115396712D01*
X158336666Y-115488814D01*
X158503203Y-115543999D01*
X158503204Y-115543999D01*
X158509629Y-115546128D01*
X158508941Y-115548202D01*
X158561296Y-115576566D01*
X158594983Y-115637779D01*
X158590228Y-115707487D01*
X158548541Y-115763558D01*
X158524795Y-115777612D01*
X158381958Y-115841897D01*
X158381956Y-115841898D01*
X158102423Y-116010881D01*
X157914030Y-116158476D01*
X157914030Y-116158477D01*
X159055693Y-117300140D01*
X159041590Y-117307411D01*
X158876460Y-117437271D01*
X158738890Y-117596035D01*
X158704334Y-117655887D01*
X157560477Y-116512030D01*
X157560476Y-116512030D01*
X157412881Y-116700422D01*
X157408892Y-116707022D01*
X157357363Y-116754209D01*
X157288503Y-116766046D01*
X157224175Y-116738776D01*
X157184802Y-116681056D01*
X157178776Y-116642870D01*
X157178776Y-112404000D01*
X157906000Y-112404000D01*
X158881000Y-112404000D01*
X158881000Y-111654000D01*
X158606029Y-111654000D01*
X158606012Y-111654001D01*
X158503302Y-111664494D01*
X158336880Y-111719641D01*
X158336875Y-111719643D01*
X158187654Y-111811684D01*
X158063684Y-111935654D01*
X157971643Y-112084875D01*
X157971641Y-112084880D01*
X157916494Y-112251302D01*
X157916493Y-112251309D01*
X157906000Y-112354013D01*
X157906000Y-112404000D01*
X157178776Y-112404000D01*
X157178776Y-100995482D01*
X160759277Y-100995482D01*
X160778529Y-101215542D01*
X160778530Y-101215550D01*
X160835704Y-101428925D01*
X160835705Y-101428927D01*
X160835706Y-101428930D01*
X160927165Y-101625066D01*
X160929066Y-101629142D01*
X160929068Y-101629146D01*
X161055770Y-101810095D01*
X161055775Y-101810101D01*
X161211978Y-101966304D01*
X161211984Y-101966309D01*
X161355640Y-102066898D01*
X161392938Y-102093014D01*
X161533837Y-102158716D01*
X161569107Y-102183413D01*
X161983266Y-102597572D01*
X161901834Y-102610470D01*
X161789281Y-102667819D01*
X161699959Y-102757141D01*
X161642610Y-102869694D01*
X161629712Y-102951125D01*
X160974858Y-102296271D01*
X160974857Y-102296272D01*
X160929503Y-102361046D01*
X160836179Y-102561180D01*
X160836175Y-102561189D01*
X160779026Y-102774473D01*
X160779024Y-102774483D01*
X160759779Y-102994459D01*
X160759779Y-102994460D01*
X160779024Y-103214436D01*
X160779026Y-103214446D01*
X160836175Y-103427730D01*
X160836180Y-103427744D01*
X160929499Y-103627867D01*
X160929500Y-103627869D01*
X160974858Y-103692647D01*
X161629712Y-103037793D01*
X161642610Y-103119226D01*
X161699959Y-103231779D01*
X161789281Y-103321101D01*
X161901834Y-103378450D01*
X161983265Y-103391347D01*
X161328411Y-104046201D01*
X161393182Y-104091554D01*
X161393192Y-104091560D01*
X161593315Y-104184879D01*
X161593329Y-104184884D01*
X161806613Y-104242033D01*
X161806623Y-104242035D01*
X162026599Y-104261281D01*
X162026601Y-104261281D01*
X162246576Y-104242035D01*
X162246586Y-104242033D01*
X162459870Y-104184884D01*
X162459884Y-104184879D01*
X162660008Y-104091560D01*
X162660020Y-104091553D01*
X162724786Y-104046202D01*
X162724787Y-104046200D01*
X162069935Y-103391347D01*
X162151366Y-103378450D01*
X162263919Y-103321101D01*
X162353241Y-103231779D01*
X162410590Y-103119226D01*
X162423487Y-103037794D01*
X163078340Y-103692647D01*
X163078342Y-103692646D01*
X163123693Y-103627880D01*
X163123700Y-103627868D01*
X163217019Y-103427744D01*
X163217024Y-103427730D01*
X163274173Y-103214446D01*
X163274175Y-103214436D01*
X163293421Y-102994460D01*
X163293421Y-102994459D01*
X163288656Y-102940000D01*
X164764000Y-102940000D01*
X165739000Y-102940000D01*
X165739000Y-102190000D01*
X166239000Y-102190000D01*
X166239000Y-102940000D01*
X167213999Y-102940000D01*
X167213999Y-102890028D01*
X167213998Y-102890013D01*
X167203505Y-102787302D01*
X167148358Y-102620880D01*
X167148356Y-102620875D01*
X167056315Y-102471654D01*
X166932345Y-102347684D01*
X166783124Y-102255643D01*
X166783119Y-102255641D01*
X166616697Y-102200494D01*
X166616690Y-102200493D01*
X166513986Y-102190000D01*
X166239000Y-102190000D01*
X165739000Y-102190000D01*
X165464029Y-102190000D01*
X165464012Y-102190001D01*
X165361302Y-102200494D01*
X165194880Y-102255641D01*
X165194875Y-102255643D01*
X165045654Y-102347684D01*
X164921684Y-102471654D01*
X164829643Y-102620875D01*
X164829641Y-102620880D01*
X164774494Y-102787302D01*
X164774493Y-102787309D01*
X164764000Y-102890013D01*
X164764000Y-102940000D01*
X163288656Y-102940000D01*
X163274175Y-102774483D01*
X163274173Y-102774473D01*
X163217024Y-102561189D01*
X163217020Y-102561180D01*
X163123698Y-102361050D01*
X163078340Y-102296271D01*
X162423487Y-102951124D01*
X162410590Y-102869694D01*
X162353241Y-102757141D01*
X162263919Y-102667819D01*
X162151366Y-102610470D01*
X162069931Y-102597572D01*
X162484088Y-102183415D01*
X162519363Y-102158715D01*
X162660262Y-102093014D01*
X162841220Y-101966306D01*
X162997426Y-101810100D01*
X163124134Y-101629142D01*
X163217494Y-101428930D01*
X163274670Y-101215548D01*
X163293923Y-100995480D01*
X163274670Y-100775412D01*
X163217494Y-100562030D01*
X163124134Y-100361819D01*
X163005155Y-100191898D01*
X162997424Y-100180857D01*
X162898967Y-100082400D01*
X162865482Y-100021077D01*
X162870466Y-99951385D01*
X162898963Y-99907042D01*
X162997426Y-99808580D01*
X163124134Y-99627622D01*
X163217494Y-99427410D01*
X163274670Y-99214028D01*
X163293923Y-98993960D01*
X163274670Y-98773892D01*
X163217494Y-98560510D01*
X163124134Y-98360299D01*
X163026576Y-98220971D01*
X162997424Y-98179337D01*
X162900237Y-98082150D01*
X162866752Y-98020827D01*
X162871736Y-97951135D01*
X162900233Y-97906792D01*
X162997426Y-97809600D01*
X163124134Y-97628642D01*
X163217494Y-97428430D01*
X163274670Y-97215048D01*
X163293923Y-96994980D01*
X163274670Y-96774912D01*
X163217494Y-96561530D01*
X163124134Y-96361319D01*
X162997426Y-96180360D01*
X162997424Y-96180357D01*
X162898967Y-96081900D01*
X162865482Y-96020577D01*
X162870466Y-95950885D01*
X162898963Y-95906542D01*
X162997426Y-95808080D01*
X163124134Y-95627122D01*
X163217494Y-95426910D01*
X163274670Y-95213528D01*
X163293923Y-94993460D01*
X163274670Y-94773392D01*
X163217494Y-94560010D01*
X163124134Y-94359799D01*
X162997426Y-94178840D01*
X162997424Y-94178837D01*
X162900237Y-94081650D01*
X162866752Y-94020327D01*
X162871736Y-93950635D01*
X162900233Y-93906292D01*
X162997426Y-93809100D01*
X163124134Y-93628142D01*
X163217494Y-93427930D01*
X163274670Y-93214548D01*
X163293923Y-92994480D01*
X163274670Y-92774412D01*
X163217494Y-92561030D01*
X163124134Y-92360819D01*
X162997426Y-92179860D01*
X162997424Y-92179857D01*
X162900237Y-92082670D01*
X162866752Y-92021347D01*
X162871736Y-91951655D01*
X162900233Y-91907312D01*
X162997426Y-91810120D01*
X163124134Y-91629162D01*
X163217494Y-91428950D01*
X163274670Y-91215568D01*
X163293923Y-90995500D01*
X163274670Y-90775432D01*
X163217494Y-90562050D01*
X163124134Y-90361839D01*
X162997426Y-90180880D01*
X162997424Y-90180877D01*
X162898967Y-90082420D01*
X162865482Y-90021097D01*
X162870466Y-89951405D01*
X162898963Y-89907062D01*
X162997426Y-89808600D01*
X163124134Y-89627642D01*
X163217494Y-89427430D01*
X163274670Y-89214048D01*
X163293923Y-88993980D01*
X163274670Y-88773912D01*
X163217494Y-88560530D01*
X163124134Y-88360319D01*
X162997426Y-88179360D01*
X162997424Y-88179357D01*
X162900237Y-88082170D01*
X162866752Y-88020847D01*
X162871736Y-87951155D01*
X162900233Y-87906812D01*
X162997426Y-87809620D01*
X163124134Y-87628662D01*
X163217494Y-87428450D01*
X163274670Y-87215068D01*
X163293923Y-86995000D01*
X163274670Y-86774932D01*
X163217494Y-86561550D01*
X163124134Y-86361339D01*
X162997426Y-86180380D01*
X162997424Y-86180377D01*
X162898967Y-86081920D01*
X162865482Y-86020597D01*
X162870466Y-85950905D01*
X162898963Y-85906562D01*
X162997426Y-85808100D01*
X163124134Y-85627142D01*
X163217494Y-85426930D01*
X163274670Y-85213548D01*
X163293923Y-84993480D01*
X163274670Y-84773412D01*
X163217494Y-84560030D01*
X163124134Y-84359819D01*
X162997426Y-84178860D01*
X162841220Y-84022654D01*
X162841216Y-84022651D01*
X162841215Y-84022650D01*
X162660266Y-83895948D01*
X162660262Y-83895946D01*
X162660260Y-83895945D01*
X162460050Y-83802586D01*
X162460047Y-83802585D01*
X162460045Y-83802584D01*
X162246670Y-83745410D01*
X162246662Y-83745409D01*
X162026602Y-83726157D01*
X162026598Y-83726157D01*
X161806537Y-83745409D01*
X161806529Y-83745410D01*
X161593154Y-83802584D01*
X161593148Y-83802587D01*
X161392940Y-83895945D01*
X161392938Y-83895946D01*
X161211977Y-84022655D01*
X161055775Y-84178857D01*
X160929066Y-84359818D01*
X160929065Y-84359820D01*
X160835707Y-84560028D01*
X160835704Y-84560034D01*
X160778530Y-84773409D01*
X160778529Y-84773417D01*
X160759277Y-84993477D01*
X160759277Y-84993482D01*
X160778529Y-85213542D01*
X160778530Y-85213550D01*
X160835704Y-85426925D01*
X160835705Y-85426927D01*
X160835706Y-85426930D01*
X160929066Y-85627142D01*
X160929068Y-85627146D01*
X161055770Y-85808095D01*
X161055775Y-85808101D01*
X161154232Y-85906558D01*
X161187717Y-85967881D01*
X161182733Y-86037573D01*
X161154233Y-86081920D01*
X161055772Y-86180381D01*
X160929066Y-86361338D01*
X160929065Y-86361340D01*
X160835707Y-86561548D01*
X160835704Y-86561554D01*
X160778530Y-86774929D01*
X160778529Y-86774937D01*
X160759277Y-86994997D01*
X160759277Y-86995002D01*
X160778529Y-87215062D01*
X160778530Y-87215070D01*
X160835704Y-87428445D01*
X160835705Y-87428447D01*
X160835706Y-87428450D01*
X160913151Y-87594532D01*
X160929066Y-87628662D01*
X160929068Y-87628666D01*
X161055770Y-87809615D01*
X161055775Y-87809621D01*
X161152962Y-87906808D01*
X161186447Y-87968131D01*
X161181463Y-88037823D01*
X161152963Y-88082170D01*
X161055772Y-88179361D01*
X160929066Y-88360318D01*
X160929065Y-88360320D01*
X160835707Y-88560528D01*
X160835704Y-88560534D01*
X160778530Y-88773909D01*
X160778529Y-88773917D01*
X160759277Y-88993977D01*
X160759277Y-88993982D01*
X160778529Y-89214042D01*
X160778530Y-89214050D01*
X160835704Y-89427425D01*
X160835705Y-89427427D01*
X160835706Y-89427430D01*
X160894135Y-89552732D01*
X160929066Y-89627642D01*
X160929068Y-89627646D01*
X161055770Y-89808595D01*
X161055775Y-89808601D01*
X161154232Y-89907058D01*
X161187717Y-89968381D01*
X161182733Y-90038073D01*
X161154233Y-90082420D01*
X161055772Y-90180881D01*
X160929066Y-90361838D01*
X160929065Y-90361840D01*
X160835707Y-90562048D01*
X160835704Y-90562054D01*
X160778530Y-90775429D01*
X160778529Y-90775437D01*
X160759277Y-90995497D01*
X160759277Y-90995502D01*
X160778529Y-91215562D01*
X160778530Y-91215570D01*
X160835704Y-91428945D01*
X160835705Y-91428947D01*
X160835706Y-91428950D01*
X160929066Y-91629162D01*
X160929068Y-91629166D01*
X161055770Y-91810115D01*
X161055775Y-91810121D01*
X161152962Y-91907308D01*
X161186447Y-91968631D01*
X161181463Y-92038323D01*
X161152963Y-92082670D01*
X161055772Y-92179861D01*
X160929066Y-92360818D01*
X160929065Y-92360820D01*
X160835707Y-92561028D01*
X160835704Y-92561034D01*
X160778530Y-92774409D01*
X160778529Y-92774417D01*
X160759277Y-92994477D01*
X160759277Y-92994482D01*
X160778529Y-93214542D01*
X160778530Y-93214550D01*
X160835704Y-93427925D01*
X160835705Y-93427927D01*
X160835706Y-93427930D01*
X160929066Y-93628142D01*
X160929068Y-93628146D01*
X161055770Y-93809095D01*
X161055775Y-93809101D01*
X161152962Y-93906288D01*
X161186447Y-93967611D01*
X161181463Y-94037303D01*
X161152963Y-94081650D01*
X161055772Y-94178841D01*
X160929066Y-94359798D01*
X160929065Y-94359800D01*
X160835707Y-94560008D01*
X160835704Y-94560014D01*
X160778530Y-94773389D01*
X160778529Y-94773397D01*
X160759277Y-94993457D01*
X160759277Y-94993462D01*
X160778529Y-95213522D01*
X160778530Y-95213530D01*
X160835704Y-95426905D01*
X160835705Y-95426907D01*
X160835706Y-95426910D01*
X160929066Y-95627122D01*
X160929068Y-95627126D01*
X161055770Y-95808075D01*
X161055775Y-95808081D01*
X161154232Y-95906538D01*
X161187717Y-95967861D01*
X161182733Y-96037553D01*
X161154233Y-96081900D01*
X161055772Y-96180361D01*
X160929066Y-96361318D01*
X160929065Y-96361320D01*
X160835707Y-96561528D01*
X160835704Y-96561534D01*
X160778530Y-96774909D01*
X160778529Y-96774917D01*
X160759277Y-96994977D01*
X160759277Y-96994982D01*
X160778529Y-97215042D01*
X160778530Y-97215050D01*
X160835704Y-97428425D01*
X160835705Y-97428427D01*
X160835706Y-97428430D01*
X160929066Y-97628642D01*
X160929068Y-97628646D01*
X161055770Y-97809595D01*
X161055775Y-97809601D01*
X161152962Y-97906788D01*
X161186447Y-97968111D01*
X161181463Y-98037803D01*
X161152963Y-98082150D01*
X161055772Y-98179341D01*
X160929066Y-98360298D01*
X160929065Y-98360300D01*
X160835707Y-98560508D01*
X160835704Y-98560514D01*
X160778530Y-98773889D01*
X160778529Y-98773897D01*
X160759277Y-98993957D01*
X160759277Y-98993962D01*
X160778529Y-99214022D01*
X160778530Y-99214030D01*
X160835704Y-99427405D01*
X160835705Y-99427407D01*
X160835706Y-99427410D01*
X160871782Y-99504775D01*
X160929066Y-99627622D01*
X160929068Y-99627626D01*
X161055770Y-99808575D01*
X161055775Y-99808581D01*
X161154232Y-99907038D01*
X161187717Y-99968361D01*
X161182733Y-100038053D01*
X161154233Y-100082400D01*
X161055772Y-100180861D01*
X160929066Y-100361818D01*
X160929065Y-100361820D01*
X160835707Y-100562028D01*
X160835704Y-100562034D01*
X160778530Y-100775409D01*
X160778529Y-100775417D01*
X160759277Y-100995477D01*
X160759277Y-100995482D01*
X157178776Y-100995482D01*
X157178776Y-64459127D01*
X157198461Y-64392088D01*
X157251265Y-64346333D01*
X157320423Y-64336389D01*
X157383979Y-64365414D01*
X157408895Y-64394981D01*
X157412886Y-64401585D01*
X157560477Y-64589968D01*
X158703211Y-63447235D01*
X158803894Y-63588624D01*
X158955932Y-63733592D01*
X159058222Y-63799330D01*
X157914030Y-64943521D01*
X157914030Y-64943522D01*
X158102414Y-65091112D01*
X158102423Y-65091118D01*
X158381956Y-65260101D01*
X158381958Y-65260102D01*
X158679824Y-65394160D01*
X158679835Y-65394164D01*
X158991658Y-65491332D01*
X159312961Y-65550213D01*
X159639000Y-65569934D01*
X159965038Y-65550213D01*
X160286341Y-65491332D01*
X160598164Y-65394164D01*
X160598175Y-65394160D01*
X160896041Y-65260102D01*
X160896043Y-65260101D01*
X161175576Y-65091118D01*
X161175584Y-65091112D01*
X161363968Y-64943522D01*
X161363968Y-64943521D01*
X160222306Y-63801859D01*
X160236410Y-63794589D01*
X160401540Y-63664729D01*
X160539110Y-63505965D01*
X160573665Y-63446112D01*
X161717521Y-64589968D01*
X161717522Y-64589968D01*
X161865112Y-64401584D01*
X161865118Y-64401576D01*
X162034101Y-64122043D01*
X162034102Y-64122041D01*
X162168160Y-63824175D01*
X162168164Y-63824164D01*
X162265332Y-63512341D01*
X162324213Y-63191038D01*
X162343934Y-62865000D01*
X162324213Y-62538961D01*
X162265332Y-62217658D01*
X162168164Y-61905835D01*
X162168160Y-61905824D01*
X162034102Y-61607958D01*
X162034101Y-61607956D01*
X161865118Y-61328423D01*
X161865112Y-61328414D01*
X161717521Y-61140030D01*
X160574788Y-62282763D01*
X160474106Y-62141376D01*
X160322068Y-61996408D01*
X160219777Y-61930669D01*
X161363968Y-60786477D01*
X161363968Y-60786476D01*
X161175586Y-60638887D01*
X161034510Y-60553604D01*
X160987322Y-60502076D01*
X160975484Y-60433217D01*
X161002753Y-60368888D01*
X161060472Y-60329514D01*
X161098660Y-60323487D01*
X185484340Y-60323487D01*
X185551379Y-60343172D01*
G37*
%TD.AperFunction*%
%TA.AperFunction,Conductor*%
G36*
X189022521Y-120236968D02*
G01*
X189022522Y-120236968D01*
X189068586Y-120178172D01*
X189125426Y-120137539D01*
X189195210Y-120134087D01*
X189255783Y-120168911D01*
X189287913Y-120230955D01*
X189290197Y-120254645D01*
X189290197Y-120601303D01*
X189270512Y-120668342D01*
X189217708Y-120714097D01*
X189166197Y-120725303D01*
X188792543Y-120725303D01*
X188725504Y-120705618D01*
X188679749Y-120652814D01*
X188668769Y-120593816D01*
X188668968Y-120590521D01*
X187527306Y-119448859D01*
X187541410Y-119441589D01*
X187706540Y-119311729D01*
X187844110Y-119152965D01*
X187878665Y-119093112D01*
X189022521Y-120236968D01*
G37*
%TD.AperFunction*%
%TA.AperFunction,Conductor*%
G36*
X164757201Y-107453735D02*
G01*
X164804941Y-107485752D01*
X164829204Y-107512000D01*
X165094685Y-107512000D01*
X165157806Y-107529268D01*
X165216102Y-107563744D01*
X165247486Y-107572862D01*
X165373926Y-107609597D01*
X165373929Y-107609597D01*
X165373931Y-107609598D01*
X165386053Y-107610552D01*
X165410804Y-107612500D01*
X165410806Y-107612500D01*
X165546633Y-107612500D01*
X165597069Y-107623221D01*
X165711615Y-107674221D01*
X165764852Y-107719471D01*
X165785173Y-107786320D01*
X165766128Y-107853544D01*
X165713761Y-107899799D01*
X165661179Y-107911500D01*
X165410804Y-107911500D01*
X165373932Y-107914401D01*
X165373926Y-107914402D01*
X165216106Y-107960254D01*
X165216103Y-107960255D01*
X165157806Y-107994732D01*
X165094685Y-108012000D01*
X164829204Y-108012000D01*
X164804940Y-108038248D01*
X164744979Y-108074114D01*
X164675145Y-108071869D01*
X164635487Y-108047468D01*
X164634531Y-108048702D01*
X164628362Y-108043917D01*
X164545194Y-107994732D01*
X164486898Y-107960256D01*
X164486897Y-107960255D01*
X164486896Y-107960255D01*
X164486893Y-107960254D01*
X164329073Y-107914402D01*
X164329067Y-107914401D01*
X164292196Y-107911500D01*
X164292194Y-107911500D01*
X164027072Y-107911500D01*
X163960033Y-107891815D01*
X163914278Y-107839011D01*
X163904334Y-107769853D01*
X163933359Y-107706297D01*
X163988754Y-107669569D01*
X164082278Y-107639181D01*
X164082278Y-107639180D01*
X164082284Y-107639179D01*
X164099720Y-107629112D01*
X164161718Y-107612500D01*
X164292196Y-107612500D01*
X164310631Y-107611049D01*
X164329069Y-107609598D01*
X164329071Y-107609597D01*
X164329073Y-107609597D01*
X164370691Y-107597505D01*
X164486898Y-107563744D01*
X164628365Y-107480081D01*
X164628370Y-107480075D01*
X164634531Y-107475298D01*
X164635839Y-107476984D01*
X164687509Y-107448761D01*
X164757201Y-107453735D01*
G37*
%TD.AperFunction*%
%TA.AperFunction,Conductor*%
G36*
X158246379Y-60343172D02*
G01*
X158292134Y-60395976D01*
X158302078Y-60465134D01*
X158273053Y-60528690D01*
X158243490Y-60553604D01*
X158102423Y-60638881D01*
X157914030Y-60786476D01*
X157914030Y-60786477D01*
X159055693Y-61928140D01*
X159041590Y-61935411D01*
X158876460Y-62065271D01*
X158738890Y-62224035D01*
X158704334Y-62283887D01*
X157560477Y-61140030D01*
X157560476Y-61140030D01*
X157412881Y-61328422D01*
X157408892Y-61335022D01*
X157357363Y-61382209D01*
X157288503Y-61394046D01*
X157224175Y-61366776D01*
X157184802Y-61309056D01*
X157178776Y-61270870D01*
X157178776Y-60447487D01*
X157198461Y-60380448D01*
X157251265Y-60334693D01*
X157302776Y-60323487D01*
X158179340Y-60323487D01*
X158246379Y-60343172D01*
G37*
%TD.AperFunction*%
%TA.AperFunction,Conductor*%
G36*
X189233236Y-60343172D02*
G01*
X189278991Y-60395976D01*
X189290197Y-60447487D01*
X189290197Y-61122353D01*
X189270512Y-61189392D01*
X189217708Y-61235147D01*
X189148550Y-61245091D01*
X189084994Y-61216066D01*
X189068586Y-61198826D01*
X189022521Y-61140030D01*
X187879788Y-62282763D01*
X187779106Y-62141376D01*
X187627068Y-61996408D01*
X187524777Y-61930669D01*
X188668968Y-60786477D01*
X188668968Y-60786476D01*
X188480586Y-60638887D01*
X188339510Y-60553604D01*
X188292322Y-60502076D01*
X188280484Y-60433217D01*
X188307753Y-60368888D01*
X188365472Y-60329514D01*
X188403660Y-60323487D01*
X189166197Y-60323487D01*
X189233236Y-60343172D01*
G37*
%TD.AperFunction*%
%TD*%
M02*
