%TF.GenerationSoftware,KiCad,Pcbnew,7.0.9*%
%TF.CreationDate,2023-12-30T17:24:47+01:00*%
%TF.ProjectId,rainguage,7261696e-6775-4616-9765-2e6b69636164,rev?*%
%TF.SameCoordinates,Original*%
%TF.FileFunction,Soldermask,Top*%
%TF.FilePolarity,Negative*%
%FSLAX46Y46*%
G04 Gerber Fmt 4.6, Leading zero omitted, Abs format (unit mm)*
G04 Created by KiCad (PCBNEW 7.0.9) date 2023-12-30 17:24:47*
%MOMM*%
%LPD*%
G01*
G04 APERTURE LIST*
G04 APERTURE END LIST*
G36*
X187231158Y-116330821D02*
G01*
X187513402Y-116386963D01*
X187785904Y-116479465D01*
X188044000Y-116606744D01*
X188283275Y-116766623D01*
X188499635Y-116956365D01*
X188689377Y-117172725D01*
X188849256Y-117412000D01*
X188976535Y-117670096D01*
X189069037Y-117942598D01*
X189125179Y-118224842D01*
X189144000Y-118512000D01*
X189125179Y-118799158D01*
X189069037Y-119081402D01*
X188976535Y-119353904D01*
X188849256Y-119612000D01*
X188689377Y-119851275D01*
X188499635Y-120067635D01*
X188283275Y-120257377D01*
X188044000Y-120417256D01*
X187785904Y-120544535D01*
X187513402Y-120637037D01*
X187231158Y-120693179D01*
X186944000Y-120712000D01*
X186656842Y-120693179D01*
X186374598Y-120637037D01*
X186102096Y-120544535D01*
X185844000Y-120417256D01*
X185604725Y-120257377D01*
X185388365Y-120067635D01*
X185198623Y-119851275D01*
X185038744Y-119612000D01*
X184911465Y-119353904D01*
X184818963Y-119081402D01*
X184762821Y-118799158D01*
X184744000Y-118512000D01*
X184762821Y-118224842D01*
X184818963Y-117942598D01*
X184911465Y-117670096D01*
X185038744Y-117412000D01*
X185198623Y-117172725D01*
X185388365Y-116956365D01*
X185604725Y-116766623D01*
X185844000Y-116606744D01*
X186102096Y-116479465D01*
X186374598Y-116386963D01*
X186656842Y-116330821D01*
X186944000Y-116312000D01*
X187231158Y-116330821D01*
G37*
G36*
X159926158Y-116055821D02*
G01*
X160208402Y-116111963D01*
X160480904Y-116204465D01*
X160739000Y-116331744D01*
X160978275Y-116491623D01*
X161194635Y-116681365D01*
X161384377Y-116897725D01*
X161544256Y-117137000D01*
X161671535Y-117395096D01*
X161764037Y-117667598D01*
X161820179Y-117949842D01*
X161839000Y-118237000D01*
X161820179Y-118524158D01*
X161764037Y-118806402D01*
X161671535Y-119078904D01*
X161544256Y-119337000D01*
X161384377Y-119576275D01*
X161194635Y-119792635D01*
X160978275Y-119982377D01*
X160739000Y-120142256D01*
X160480904Y-120269535D01*
X160208402Y-120362037D01*
X159926158Y-120418179D01*
X159639000Y-120437000D01*
X159351842Y-120418179D01*
X159069598Y-120362037D01*
X158797096Y-120269535D01*
X158539000Y-120142256D01*
X158299725Y-119982377D01*
X158083365Y-119792635D01*
X157893623Y-119576275D01*
X157733744Y-119337000D01*
X157606465Y-119078904D01*
X157513963Y-118806402D01*
X157457821Y-118524158D01*
X157439000Y-118237000D01*
X157457821Y-117949842D01*
X157513963Y-117667598D01*
X157606465Y-117395096D01*
X157733744Y-117137000D01*
X157893623Y-116897725D01*
X158083365Y-116681365D01*
X158299725Y-116491623D01*
X158539000Y-116331744D01*
X158797096Y-116204465D01*
X159069598Y-116111963D01*
X159351842Y-116055821D01*
X159639000Y-116037000D01*
X159926158Y-116055821D01*
G37*
G36*
X171713850Y-116763967D02*
G01*
X171764040Y-116769790D01*
X171781189Y-116777362D01*
X171804671Y-116782033D01*
X171829810Y-116798830D01*
X171849696Y-116807611D01*
X171863277Y-116821192D01*
X171885777Y-116836226D01*
X171900810Y-116858725D01*
X171914391Y-116872306D01*
X171923170Y-116892189D01*
X171939970Y-116917332D01*
X171944641Y-116940815D01*
X171952212Y-116957962D01*
X171958033Y-117008142D01*
X171959000Y-117013003D01*
X171959000Y-118463003D01*
X171958032Y-118467866D01*
X171952212Y-118518043D01*
X171944641Y-118535188D01*
X171939970Y-118558674D01*
X171923169Y-118583818D01*
X171914391Y-118603699D01*
X171900812Y-118617277D01*
X171885777Y-118639780D01*
X171863274Y-118654815D01*
X171849696Y-118668394D01*
X171829815Y-118677172D01*
X171804671Y-118693973D01*
X171781185Y-118698644D01*
X171764040Y-118706215D01*
X171713861Y-118712035D01*
X171709000Y-118713003D01*
X170509000Y-118713003D01*
X170504138Y-118712035D01*
X170453959Y-118706215D01*
X170436812Y-118698644D01*
X170413329Y-118693973D01*
X170388186Y-118677173D01*
X170368303Y-118668394D01*
X170354722Y-118654813D01*
X170332223Y-118639780D01*
X170317189Y-118617280D01*
X170303608Y-118603699D01*
X170294827Y-118583813D01*
X170278030Y-118558674D01*
X170273359Y-118535192D01*
X170265787Y-118518043D01*
X170259964Y-118467852D01*
X170259000Y-118463003D01*
X170259000Y-117013003D01*
X170259964Y-117008153D01*
X170265787Y-116957962D01*
X170273359Y-116940811D01*
X170278030Y-116917332D01*
X170294826Y-116892194D01*
X170303608Y-116872306D01*
X170317191Y-116858722D01*
X170332223Y-116836226D01*
X170354719Y-116821194D01*
X170368303Y-116807611D01*
X170388191Y-116798829D01*
X170413329Y-116782033D01*
X170436808Y-116777362D01*
X170453959Y-116769790D01*
X170504151Y-116763967D01*
X170509000Y-116763003D01*
X171709000Y-116763003D01*
X171713850Y-116763967D01*
G37*
G36*
X173677819Y-116767988D02*
G01*
X173697814Y-116767988D01*
X173765244Y-116782320D01*
X173836399Y-116793986D01*
X173855008Y-116801400D01*
X173871561Y-116804919D01*
X173937313Y-116834193D01*
X174007147Y-116862018D01*
X174021184Y-116871535D01*
X174033835Y-116877168D01*
X174094516Y-116921255D01*
X174159278Y-116965165D01*
X174168826Y-116975245D01*
X174177540Y-116981576D01*
X174229765Y-117039577D01*
X174285679Y-117098605D01*
X174291247Y-117107860D01*
X174296397Y-117113579D01*
X174336930Y-117183784D01*
X174380439Y-117256097D01*
X174382905Y-117263416D01*
X174385212Y-117267412D01*
X174411183Y-117347344D01*
X174439127Y-117430278D01*
X174439628Y-117434888D01*
X174440102Y-117436346D01*
X174449168Y-117522608D01*
X174459000Y-117613003D01*
X174459000Y-117863003D01*
X174454017Y-117954904D01*
X174444434Y-117998436D01*
X174440102Y-118039659D01*
X174425403Y-118084895D01*
X174414505Y-118134409D01*
X174397073Y-118172086D01*
X174385212Y-118208593D01*
X174359904Y-118252426D01*
X174337329Y-118301224D01*
X174314057Y-118331837D01*
X174296397Y-118362426D01*
X174260486Y-118402308D01*
X174226096Y-118447548D01*
X174199121Y-118470460D01*
X174177538Y-118494431D01*
X174131654Y-118527767D01*
X174086009Y-118566539D01*
X174057451Y-118581679D01*
X174033837Y-118598836D01*
X173979235Y-118623146D01*
X173923617Y-118652633D01*
X173895427Y-118660459D01*
X173871561Y-118671086D01*
X173810117Y-118684146D01*
X173746515Y-118701806D01*
X173720370Y-118703223D01*
X173697814Y-118708018D01*
X173631931Y-118708018D01*
X173562982Y-118711756D01*
X173540181Y-118708018D01*
X173520186Y-118708018D01*
X173452761Y-118693686D01*
X173381601Y-118682020D01*
X173362987Y-118674603D01*
X173346438Y-118671086D01*
X173280698Y-118641816D01*
X173210853Y-118613988D01*
X173196813Y-118604468D01*
X173184164Y-118598837D01*
X173123489Y-118554754D01*
X173058722Y-118510841D01*
X173049172Y-118500759D01*
X173040459Y-118494429D01*
X172988232Y-118436426D01*
X172932321Y-118377401D01*
X172926752Y-118368146D01*
X172921602Y-118362426D01*
X172881059Y-118292203D01*
X172837561Y-118219909D01*
X172835095Y-118212591D01*
X172832787Y-118208593D01*
X172806797Y-118128604D01*
X172778873Y-118045728D01*
X172778371Y-118041120D01*
X172777897Y-118039659D01*
X172768818Y-117953283D01*
X172759000Y-117863003D01*
X172759000Y-117613003D01*
X172763983Y-117521102D01*
X172773563Y-117477576D01*
X172777897Y-117436346D01*
X172792599Y-117391097D01*
X172803495Y-117341597D01*
X172820921Y-117303928D01*
X172832787Y-117267412D01*
X172858101Y-117223565D01*
X172880671Y-117174782D01*
X172903936Y-117144177D01*
X172921602Y-117113579D01*
X172957523Y-117073684D01*
X172991904Y-117028458D01*
X173018870Y-117005552D01*
X173040461Y-116981574D01*
X173086359Y-116948226D01*
X173131991Y-116909467D01*
X173160539Y-116894331D01*
X173184162Y-116877169D01*
X173238781Y-116852850D01*
X173294383Y-116823373D01*
X173322563Y-116815548D01*
X173346438Y-116804919D01*
X173407894Y-116791856D01*
X173471485Y-116774200D01*
X173497628Y-116772782D01*
X173520186Y-116767988D01*
X173586069Y-116767988D01*
X173655018Y-116764250D01*
X173677819Y-116767988D01*
G37*
G36*
X176177819Y-116767988D02*
G01*
X176197814Y-116767988D01*
X176265244Y-116782320D01*
X176336399Y-116793986D01*
X176355008Y-116801400D01*
X176371561Y-116804919D01*
X176437313Y-116834193D01*
X176507147Y-116862018D01*
X176521184Y-116871535D01*
X176533835Y-116877168D01*
X176594516Y-116921255D01*
X176659278Y-116965165D01*
X176668826Y-116975245D01*
X176677540Y-116981576D01*
X176729765Y-117039577D01*
X176785679Y-117098605D01*
X176791247Y-117107860D01*
X176796397Y-117113579D01*
X176836930Y-117183784D01*
X176880439Y-117256097D01*
X176882905Y-117263416D01*
X176885212Y-117267412D01*
X176911183Y-117347344D01*
X176939127Y-117430278D01*
X176939628Y-117434888D01*
X176940102Y-117436346D01*
X176949168Y-117522608D01*
X176959000Y-117613003D01*
X176959000Y-117863003D01*
X176954017Y-117954904D01*
X176944434Y-117998436D01*
X176940102Y-118039659D01*
X176925403Y-118084895D01*
X176914505Y-118134409D01*
X176897073Y-118172086D01*
X176885212Y-118208593D01*
X176859904Y-118252426D01*
X176837329Y-118301224D01*
X176814057Y-118331837D01*
X176796397Y-118362426D01*
X176760486Y-118402308D01*
X176726096Y-118447548D01*
X176699121Y-118470460D01*
X176677538Y-118494431D01*
X176631654Y-118527767D01*
X176586009Y-118566539D01*
X176557451Y-118581679D01*
X176533837Y-118598836D01*
X176479235Y-118623146D01*
X176423617Y-118652633D01*
X176395427Y-118660459D01*
X176371561Y-118671086D01*
X176310117Y-118684146D01*
X176246515Y-118701806D01*
X176220370Y-118703223D01*
X176197814Y-118708018D01*
X176131931Y-118708018D01*
X176062982Y-118711756D01*
X176040181Y-118708018D01*
X176020186Y-118708018D01*
X175952761Y-118693686D01*
X175881601Y-118682020D01*
X175862987Y-118674603D01*
X175846438Y-118671086D01*
X175780698Y-118641816D01*
X175710853Y-118613988D01*
X175696813Y-118604468D01*
X175684164Y-118598837D01*
X175623489Y-118554754D01*
X175558722Y-118510841D01*
X175549172Y-118500759D01*
X175540459Y-118494429D01*
X175488232Y-118436426D01*
X175432321Y-118377401D01*
X175426752Y-118368146D01*
X175421602Y-118362426D01*
X175381059Y-118292203D01*
X175337561Y-118219909D01*
X175335095Y-118212591D01*
X175332787Y-118208593D01*
X175306797Y-118128604D01*
X175278873Y-118045728D01*
X175278371Y-118041120D01*
X175277897Y-118039659D01*
X175268818Y-117953283D01*
X175259000Y-117863003D01*
X175259000Y-117613003D01*
X175263983Y-117521102D01*
X175273563Y-117477576D01*
X175277897Y-117436346D01*
X175292599Y-117391097D01*
X175303495Y-117341597D01*
X175320921Y-117303928D01*
X175332787Y-117267412D01*
X175358101Y-117223565D01*
X175380671Y-117174782D01*
X175403936Y-117144177D01*
X175421602Y-117113579D01*
X175457523Y-117073684D01*
X175491904Y-117028458D01*
X175518870Y-117005552D01*
X175540461Y-116981574D01*
X175586359Y-116948226D01*
X175631991Y-116909467D01*
X175660539Y-116894331D01*
X175684162Y-116877169D01*
X175738781Y-116852850D01*
X175794383Y-116823373D01*
X175822563Y-116815548D01*
X175846438Y-116804919D01*
X175907894Y-116791856D01*
X175971485Y-116774200D01*
X175997628Y-116772782D01*
X176020186Y-116767988D01*
X176086069Y-116767988D01*
X176155018Y-116764250D01*
X176177819Y-116767988D01*
G37*
G36*
X182613901Y-116716983D02*
G01*
X182657426Y-116726563D01*
X182698656Y-116730897D01*
X182743902Y-116745598D01*
X182793406Y-116756495D01*
X182831076Y-116773923D01*
X182867590Y-116785787D01*
X182911432Y-116811099D01*
X182960221Y-116833671D01*
X182990828Y-116856938D01*
X183021423Y-116874602D01*
X183061312Y-116910519D01*
X183106545Y-116944904D01*
X183129453Y-116971874D01*
X183153428Y-116993461D01*
X183186769Y-117039351D01*
X183225536Y-117084991D01*
X183240674Y-117113545D01*
X183257833Y-117137162D01*
X183282145Y-117191769D01*
X183311630Y-117247383D01*
X183319456Y-117275569D01*
X183330083Y-117299438D01*
X183343144Y-117360884D01*
X183360803Y-117424485D01*
X183362220Y-117450629D01*
X183367015Y-117473186D01*
X183367015Y-117539068D01*
X183370753Y-117608018D01*
X183367015Y-117630818D01*
X183367015Y-117650813D01*
X183352683Y-117718233D01*
X183341017Y-117789399D01*
X183333600Y-117808013D01*
X183330083Y-117824561D01*
X183300817Y-117890292D01*
X183272985Y-117960147D01*
X183263464Y-117974188D01*
X183257834Y-117986835D01*
X183213761Y-118047495D01*
X183169838Y-118112278D01*
X183159754Y-118121829D01*
X183153426Y-118130540D01*
X183095444Y-118182746D01*
X183036398Y-118238679D01*
X183027139Y-118244249D01*
X183021423Y-118249397D01*
X182951241Y-118289915D01*
X182878906Y-118333439D01*
X182871584Y-118335906D01*
X182867590Y-118338212D01*
X182787685Y-118364174D01*
X182704725Y-118392127D01*
X182700112Y-118392628D01*
X182698656Y-118393102D01*
X182612423Y-118402165D01*
X182522000Y-118412000D01*
X182518858Y-118412000D01*
X182225142Y-118412000D01*
X182222000Y-118412000D01*
X182130099Y-118407017D01*
X182086567Y-118397434D01*
X182045343Y-118393102D01*
X182000104Y-118378402D01*
X181950594Y-118367505D01*
X181912918Y-118350074D01*
X181876409Y-118338212D01*
X181832571Y-118312902D01*
X181783779Y-118290329D01*
X181753168Y-118267059D01*
X181722576Y-118249397D01*
X181682688Y-118213481D01*
X181637455Y-118179096D01*
X181614545Y-118152125D01*
X181590571Y-118130538D01*
X181557228Y-118084646D01*
X181518464Y-118039009D01*
X181503326Y-118010456D01*
X181486166Y-117986837D01*
X181461850Y-117932224D01*
X181432370Y-117876617D01*
X181424544Y-117848433D01*
X181413916Y-117824561D01*
X181400853Y-117763108D01*
X181383197Y-117699515D01*
X181381779Y-117673369D01*
X181376985Y-117650813D01*
X181376985Y-117584931D01*
X181373247Y-117515982D01*
X181376985Y-117493181D01*
X181376985Y-117473186D01*
X181391318Y-117405753D01*
X181402983Y-117334601D01*
X181410397Y-117315992D01*
X181413916Y-117299438D01*
X181443194Y-117233677D01*
X181471015Y-117163853D01*
X181480531Y-117149817D01*
X181486165Y-117137164D01*
X181530262Y-117076468D01*
X181574162Y-117011722D01*
X181584239Y-117002175D01*
X181590573Y-116993459D01*
X181648595Y-116941214D01*
X181707602Y-116885321D01*
X181716853Y-116879754D01*
X181722576Y-116874602D01*
X181792822Y-116834045D01*
X181865094Y-116790561D01*
X181872409Y-116788096D01*
X181876409Y-116785787D01*
X181956425Y-116759788D01*
X182039275Y-116731873D01*
X182043880Y-116731372D01*
X182045343Y-116730897D01*
X182131733Y-116721817D01*
X182222000Y-116712000D01*
X182522000Y-116712000D01*
X182613901Y-116716983D01*
G37*
G36*
X165727850Y-116585964D02*
G01*
X165778040Y-116591787D01*
X165795189Y-116599359D01*
X165818671Y-116604030D01*
X165843810Y-116620827D01*
X165863696Y-116629608D01*
X165877277Y-116643189D01*
X165899777Y-116658223D01*
X165914810Y-116680722D01*
X165928391Y-116694303D01*
X165937170Y-116714186D01*
X165953970Y-116739329D01*
X165958641Y-116762812D01*
X165966212Y-116779959D01*
X165972033Y-116830139D01*
X165973000Y-116835000D01*
X165973000Y-118035000D01*
X165972032Y-118039863D01*
X165966212Y-118090040D01*
X165958641Y-118107185D01*
X165953970Y-118130671D01*
X165937169Y-118155815D01*
X165928391Y-118175696D01*
X165914812Y-118189274D01*
X165899777Y-118211777D01*
X165877274Y-118226812D01*
X165863696Y-118240391D01*
X165843815Y-118249169D01*
X165818671Y-118265970D01*
X165795185Y-118270641D01*
X165778040Y-118278212D01*
X165727861Y-118284032D01*
X165723000Y-118285000D01*
X164223000Y-118285000D01*
X164218138Y-118284032D01*
X164167959Y-118278212D01*
X164150812Y-118270641D01*
X164127329Y-118265970D01*
X164102186Y-118249170D01*
X164082303Y-118240391D01*
X164068722Y-118226810D01*
X164046223Y-118211777D01*
X164031189Y-118189277D01*
X164017608Y-118175696D01*
X164008827Y-118155810D01*
X163992030Y-118130671D01*
X163987359Y-118107189D01*
X163979787Y-118090040D01*
X163973964Y-118039849D01*
X163973000Y-118035000D01*
X163973000Y-116835000D01*
X163973964Y-116830150D01*
X163979787Y-116779959D01*
X163987359Y-116762808D01*
X163992030Y-116739329D01*
X164008826Y-116714191D01*
X164017608Y-116694303D01*
X164031191Y-116680719D01*
X164046223Y-116658223D01*
X164068719Y-116643191D01*
X164082303Y-116629608D01*
X164102191Y-116620826D01*
X164127329Y-116604030D01*
X164150808Y-116599359D01*
X164167959Y-116591787D01*
X164218151Y-116585964D01*
X164223000Y-116585000D01*
X165723000Y-116585000D01*
X165727850Y-116585964D01*
G37*
G36*
X183126850Y-114212964D02*
G01*
X183177040Y-114218787D01*
X183194189Y-114226359D01*
X183217671Y-114231030D01*
X183242810Y-114247827D01*
X183262696Y-114256608D01*
X183276277Y-114270189D01*
X183298777Y-114285223D01*
X183313810Y-114307722D01*
X183327391Y-114321303D01*
X183336170Y-114341186D01*
X183352970Y-114366329D01*
X183357641Y-114389812D01*
X183365212Y-114406959D01*
X183371033Y-114457139D01*
X183372000Y-114462000D01*
X183372000Y-115662000D01*
X183371032Y-115666863D01*
X183365212Y-115717040D01*
X183357641Y-115734185D01*
X183352970Y-115757671D01*
X183336169Y-115782815D01*
X183327391Y-115802696D01*
X183313812Y-115816274D01*
X183298777Y-115838777D01*
X183276274Y-115853812D01*
X183262696Y-115867391D01*
X183242815Y-115876169D01*
X183217671Y-115892970D01*
X183194185Y-115897641D01*
X183177040Y-115905212D01*
X183126861Y-115911032D01*
X183122000Y-115912000D01*
X181622000Y-115912000D01*
X181617138Y-115911032D01*
X181566959Y-115905212D01*
X181549812Y-115897641D01*
X181526329Y-115892970D01*
X181501186Y-115876170D01*
X181481303Y-115867391D01*
X181467722Y-115853810D01*
X181445223Y-115838777D01*
X181430189Y-115816277D01*
X181416608Y-115802696D01*
X181407827Y-115782810D01*
X181391030Y-115757671D01*
X181386359Y-115734189D01*
X181378787Y-115717040D01*
X181372964Y-115666849D01*
X181372000Y-115662000D01*
X181372000Y-114462000D01*
X181372964Y-114457150D01*
X181378787Y-114406959D01*
X181386359Y-114389808D01*
X181391030Y-114366329D01*
X181407826Y-114341191D01*
X181416608Y-114321303D01*
X181430191Y-114307719D01*
X181445223Y-114285223D01*
X181467719Y-114270191D01*
X181481303Y-114256608D01*
X181501191Y-114247826D01*
X181526329Y-114231030D01*
X181549808Y-114226359D01*
X181566959Y-114218787D01*
X181617151Y-114212964D01*
X181622000Y-114212000D01*
X183122000Y-114212000D01*
X183126850Y-114212964D01*
G37*
G36*
X165214901Y-114089983D02*
G01*
X165258426Y-114099563D01*
X165299656Y-114103897D01*
X165344902Y-114118598D01*
X165394406Y-114129495D01*
X165432076Y-114146923D01*
X165468590Y-114158787D01*
X165512432Y-114184099D01*
X165561221Y-114206671D01*
X165591828Y-114229938D01*
X165622423Y-114247602D01*
X165662312Y-114283519D01*
X165707545Y-114317904D01*
X165730453Y-114344874D01*
X165754428Y-114366461D01*
X165787769Y-114412351D01*
X165826536Y-114457991D01*
X165841674Y-114486545D01*
X165858833Y-114510162D01*
X165883145Y-114564769D01*
X165912630Y-114620383D01*
X165920456Y-114648569D01*
X165931083Y-114672438D01*
X165944144Y-114733884D01*
X165961803Y-114797485D01*
X165963220Y-114823629D01*
X165968015Y-114846186D01*
X165968015Y-114912068D01*
X165971753Y-114981018D01*
X165968015Y-115003818D01*
X165968015Y-115023813D01*
X165953683Y-115091233D01*
X165942017Y-115162399D01*
X165934600Y-115181013D01*
X165931083Y-115197561D01*
X165901817Y-115263292D01*
X165873985Y-115333147D01*
X165864464Y-115347188D01*
X165858834Y-115359835D01*
X165814761Y-115420495D01*
X165770838Y-115485278D01*
X165760754Y-115494829D01*
X165754426Y-115503540D01*
X165696444Y-115555746D01*
X165637398Y-115611679D01*
X165628139Y-115617249D01*
X165622423Y-115622397D01*
X165552241Y-115662915D01*
X165479906Y-115706439D01*
X165472584Y-115708906D01*
X165468590Y-115711212D01*
X165388685Y-115737174D01*
X165305725Y-115765127D01*
X165301112Y-115765628D01*
X165299656Y-115766102D01*
X165213423Y-115775165D01*
X165123000Y-115785000D01*
X165119858Y-115785000D01*
X164826142Y-115785000D01*
X164823000Y-115785000D01*
X164731099Y-115780017D01*
X164687567Y-115770434D01*
X164646343Y-115766102D01*
X164601104Y-115751402D01*
X164551594Y-115740505D01*
X164513918Y-115723074D01*
X164477409Y-115711212D01*
X164433571Y-115685902D01*
X164384779Y-115663329D01*
X164354168Y-115640059D01*
X164323576Y-115622397D01*
X164283688Y-115586481D01*
X164238455Y-115552096D01*
X164215545Y-115525125D01*
X164191571Y-115503538D01*
X164158228Y-115457646D01*
X164119464Y-115412009D01*
X164104326Y-115383456D01*
X164087166Y-115359837D01*
X164062850Y-115305224D01*
X164033370Y-115249617D01*
X164025544Y-115221433D01*
X164014916Y-115197561D01*
X164001853Y-115136108D01*
X163984197Y-115072515D01*
X163982779Y-115046369D01*
X163977985Y-115023813D01*
X163977985Y-114957931D01*
X163974247Y-114888982D01*
X163977985Y-114866181D01*
X163977985Y-114846186D01*
X163992318Y-114778753D01*
X164003983Y-114707601D01*
X164011397Y-114688992D01*
X164014916Y-114672438D01*
X164044194Y-114606677D01*
X164072015Y-114536853D01*
X164081531Y-114522817D01*
X164087165Y-114510164D01*
X164131262Y-114449468D01*
X164175162Y-114384722D01*
X164185239Y-114375175D01*
X164191573Y-114366459D01*
X164249595Y-114314214D01*
X164308602Y-114258321D01*
X164317853Y-114252754D01*
X164323576Y-114247602D01*
X164393822Y-114207045D01*
X164466094Y-114163561D01*
X164473409Y-114161096D01*
X164477409Y-114158787D01*
X164557425Y-114132788D01*
X164640275Y-114104873D01*
X164644880Y-114104372D01*
X164646343Y-114103897D01*
X164732733Y-114094817D01*
X164823000Y-114085000D01*
X165123000Y-114085000D01*
X165214901Y-114089983D01*
G37*
G36*
X169840811Y-113504711D02*
G01*
X169882588Y-113504711D01*
X169929718Y-113514728D01*
X169977017Y-113520058D01*
X170011408Y-113532092D01*
X170046110Y-113539468D01*
X170096117Y-113561733D01*
X170146107Y-113579225D01*
X170172128Y-113595575D01*
X170198835Y-113607466D01*
X170248633Y-113643646D01*
X170297792Y-113674535D01*
X170315444Y-113692187D01*
X170334084Y-113705730D01*
X170380165Y-113756908D01*
X170424465Y-113801208D01*
X170434654Y-113817424D01*
X170445946Y-113829965D01*
X170484573Y-113896870D01*
X170519775Y-113952893D01*
X170524170Y-113965453D01*
X170529535Y-113974746D01*
X170557010Y-114059305D01*
X170578942Y-114121983D01*
X170579773Y-114129363D01*
X170581195Y-114133738D01*
X170594076Y-114256306D01*
X170599000Y-114300000D01*
X170594076Y-114343697D01*
X170581195Y-114466261D01*
X170579773Y-114470635D01*
X170578942Y-114478017D01*
X170557005Y-114540707D01*
X170529535Y-114625253D01*
X170524171Y-114634543D01*
X170519775Y-114647107D01*
X170484566Y-114703140D01*
X170445946Y-114770034D01*
X170434656Y-114782572D01*
X170424465Y-114798792D01*
X170380155Y-114843101D01*
X170334084Y-114894269D01*
X170315448Y-114907808D01*
X170297792Y-114925465D01*
X170248623Y-114956359D01*
X170198835Y-114992533D01*
X170172134Y-115004421D01*
X170146107Y-115020775D01*
X170096107Y-115038270D01*
X170046110Y-115060531D01*
X170011414Y-115067905D01*
X169977017Y-115079942D01*
X169929715Y-115085271D01*
X169882588Y-115095289D01*
X169840811Y-115095289D01*
X169799000Y-115100000D01*
X169757189Y-115095289D01*
X169715412Y-115095289D01*
X169668284Y-115085271D01*
X169620983Y-115079942D01*
X169586586Y-115067906D01*
X169551889Y-115060531D01*
X169501887Y-115038268D01*
X169451893Y-115020775D01*
X169425868Y-115004422D01*
X169399164Y-114992533D01*
X169349369Y-114956355D01*
X169300208Y-114925465D01*
X169282554Y-114907811D01*
X169263915Y-114894269D01*
X169217833Y-114843090D01*
X169173535Y-114798792D01*
X169163345Y-114782575D01*
X169152053Y-114770034D01*
X169113420Y-114703120D01*
X169078225Y-114647107D01*
X169073830Y-114634547D01*
X169068464Y-114625253D01*
X169040980Y-114540667D01*
X169019058Y-114478017D01*
X169018226Y-114470639D01*
X169016804Y-114466261D01*
X169003908Y-114343565D01*
X168999000Y-114300000D01*
X169003908Y-114256438D01*
X169016804Y-114133738D01*
X169018226Y-114129358D01*
X169019058Y-114121983D01*
X169040975Y-114059345D01*
X169068464Y-113974746D01*
X169073831Y-113965449D01*
X169078225Y-113952893D01*
X169113413Y-113896890D01*
X169152053Y-113829965D01*
X169163347Y-113817421D01*
X169173535Y-113801208D01*
X169217826Y-113756916D01*
X169263917Y-113705728D01*
X169282559Y-113692183D01*
X169300208Y-113674535D01*
X169349354Y-113643654D01*
X169399162Y-113607467D01*
X169425873Y-113595574D01*
X169451893Y-113579225D01*
X169501877Y-113561734D01*
X169551889Y-113539468D01*
X169586592Y-113532091D01*
X169620983Y-113520058D01*
X169668281Y-113514728D01*
X169715412Y-113504711D01*
X169757189Y-113504711D01*
X169799000Y-113500000D01*
X169840811Y-113504711D01*
G37*
G36*
X172380811Y-113504711D02*
G01*
X172422588Y-113504711D01*
X172469718Y-113514728D01*
X172517017Y-113520058D01*
X172551408Y-113532092D01*
X172586110Y-113539468D01*
X172636117Y-113561733D01*
X172686107Y-113579225D01*
X172712128Y-113595575D01*
X172738835Y-113607466D01*
X172788633Y-113643646D01*
X172837792Y-113674535D01*
X172855444Y-113692187D01*
X172874084Y-113705730D01*
X172920165Y-113756908D01*
X172964465Y-113801208D01*
X172974654Y-113817424D01*
X172985946Y-113829965D01*
X173024573Y-113896870D01*
X173059775Y-113952893D01*
X173064170Y-113965453D01*
X173069535Y-113974746D01*
X173097010Y-114059305D01*
X173118942Y-114121983D01*
X173119773Y-114129363D01*
X173121195Y-114133738D01*
X173134076Y-114256306D01*
X173139000Y-114300000D01*
X173134076Y-114343697D01*
X173121195Y-114466261D01*
X173119773Y-114470635D01*
X173118942Y-114478017D01*
X173097005Y-114540707D01*
X173069535Y-114625253D01*
X173064171Y-114634543D01*
X173059775Y-114647107D01*
X173024566Y-114703140D01*
X172985946Y-114770034D01*
X172974656Y-114782572D01*
X172964465Y-114798792D01*
X172920155Y-114843101D01*
X172874084Y-114894269D01*
X172855448Y-114907808D01*
X172837792Y-114925465D01*
X172788623Y-114956359D01*
X172738835Y-114992533D01*
X172712134Y-115004421D01*
X172686107Y-115020775D01*
X172636107Y-115038270D01*
X172586110Y-115060531D01*
X172551414Y-115067905D01*
X172517017Y-115079942D01*
X172469715Y-115085271D01*
X172422588Y-115095289D01*
X172380811Y-115095289D01*
X172339000Y-115100000D01*
X172297189Y-115095289D01*
X172255412Y-115095289D01*
X172208284Y-115085271D01*
X172160983Y-115079942D01*
X172126586Y-115067906D01*
X172091889Y-115060531D01*
X172041887Y-115038268D01*
X171991893Y-115020775D01*
X171965868Y-115004422D01*
X171939164Y-114992533D01*
X171889369Y-114956355D01*
X171840208Y-114925465D01*
X171822554Y-114907811D01*
X171803915Y-114894269D01*
X171757833Y-114843090D01*
X171713535Y-114798792D01*
X171703345Y-114782575D01*
X171692053Y-114770034D01*
X171653420Y-114703120D01*
X171618225Y-114647107D01*
X171613830Y-114634547D01*
X171608464Y-114625253D01*
X171580980Y-114540667D01*
X171559058Y-114478017D01*
X171558226Y-114470639D01*
X171556804Y-114466261D01*
X171543908Y-114343565D01*
X171539000Y-114300000D01*
X171543908Y-114256438D01*
X171556804Y-114133738D01*
X171558226Y-114129358D01*
X171559058Y-114121983D01*
X171580975Y-114059345D01*
X171608464Y-113974746D01*
X171613831Y-113965449D01*
X171618225Y-113952893D01*
X171653413Y-113896890D01*
X171692053Y-113829965D01*
X171703347Y-113817421D01*
X171713535Y-113801208D01*
X171757826Y-113756916D01*
X171803917Y-113705728D01*
X171822559Y-113692183D01*
X171840208Y-113674535D01*
X171889354Y-113643654D01*
X171939162Y-113607467D01*
X171965873Y-113595574D01*
X171991893Y-113579225D01*
X172041877Y-113561734D01*
X172091889Y-113539468D01*
X172126592Y-113532091D01*
X172160983Y-113520058D01*
X172208281Y-113514728D01*
X172255412Y-113504711D01*
X172297189Y-113504711D01*
X172339000Y-113500000D01*
X172380811Y-113504711D01*
G37*
G36*
X174920811Y-113504711D02*
G01*
X174962588Y-113504711D01*
X175009718Y-113514728D01*
X175057017Y-113520058D01*
X175091408Y-113532092D01*
X175126110Y-113539468D01*
X175176117Y-113561733D01*
X175226107Y-113579225D01*
X175252128Y-113595575D01*
X175278835Y-113607466D01*
X175328633Y-113643646D01*
X175377792Y-113674535D01*
X175395444Y-113692187D01*
X175414084Y-113705730D01*
X175460165Y-113756908D01*
X175504465Y-113801208D01*
X175514654Y-113817424D01*
X175525946Y-113829965D01*
X175564573Y-113896870D01*
X175599775Y-113952893D01*
X175604170Y-113965453D01*
X175609535Y-113974746D01*
X175637010Y-114059305D01*
X175658942Y-114121983D01*
X175659773Y-114129363D01*
X175661195Y-114133738D01*
X175674076Y-114256306D01*
X175679000Y-114300000D01*
X175674076Y-114343697D01*
X175661195Y-114466261D01*
X175659773Y-114470635D01*
X175658942Y-114478017D01*
X175637005Y-114540707D01*
X175609535Y-114625253D01*
X175604171Y-114634543D01*
X175599775Y-114647107D01*
X175564566Y-114703140D01*
X175525946Y-114770034D01*
X175514656Y-114782572D01*
X175504465Y-114798792D01*
X175460155Y-114843101D01*
X175414084Y-114894269D01*
X175395448Y-114907808D01*
X175377792Y-114925465D01*
X175328623Y-114956359D01*
X175278835Y-114992533D01*
X175252134Y-115004421D01*
X175226107Y-115020775D01*
X175176107Y-115038270D01*
X175126110Y-115060531D01*
X175091414Y-115067905D01*
X175057017Y-115079942D01*
X175009715Y-115085271D01*
X174962588Y-115095289D01*
X174920811Y-115095289D01*
X174879000Y-115100000D01*
X174837189Y-115095289D01*
X174795412Y-115095289D01*
X174748284Y-115085271D01*
X174700983Y-115079942D01*
X174666586Y-115067906D01*
X174631889Y-115060531D01*
X174581887Y-115038268D01*
X174531893Y-115020775D01*
X174505868Y-115004422D01*
X174479164Y-114992533D01*
X174429369Y-114956355D01*
X174380208Y-114925465D01*
X174362554Y-114907811D01*
X174343915Y-114894269D01*
X174297833Y-114843090D01*
X174253535Y-114798792D01*
X174243345Y-114782575D01*
X174232053Y-114770034D01*
X174193420Y-114703120D01*
X174158225Y-114647107D01*
X174153830Y-114634547D01*
X174148464Y-114625253D01*
X174120980Y-114540667D01*
X174099058Y-114478017D01*
X174098226Y-114470639D01*
X174096804Y-114466261D01*
X174083908Y-114343565D01*
X174079000Y-114300000D01*
X174083908Y-114256438D01*
X174096804Y-114133738D01*
X174098226Y-114129358D01*
X174099058Y-114121983D01*
X174120975Y-114059345D01*
X174148464Y-113974746D01*
X174153831Y-113965449D01*
X174158225Y-113952893D01*
X174193413Y-113896890D01*
X174232053Y-113829965D01*
X174243347Y-113817421D01*
X174253535Y-113801208D01*
X174297826Y-113756916D01*
X174343917Y-113705728D01*
X174362559Y-113692183D01*
X174380208Y-113674535D01*
X174429354Y-113643654D01*
X174479162Y-113607467D01*
X174505873Y-113595574D01*
X174531893Y-113579225D01*
X174581877Y-113561734D01*
X174631889Y-113539468D01*
X174666592Y-113532091D01*
X174700983Y-113520058D01*
X174748281Y-113514728D01*
X174795412Y-113504711D01*
X174837189Y-113504711D01*
X174879000Y-113500000D01*
X174920811Y-113504711D01*
G37*
G36*
X177460811Y-113504711D02*
G01*
X177502588Y-113504711D01*
X177549718Y-113514728D01*
X177597017Y-113520058D01*
X177631408Y-113532092D01*
X177666110Y-113539468D01*
X177716117Y-113561733D01*
X177766107Y-113579225D01*
X177792128Y-113595575D01*
X177818835Y-113607466D01*
X177868633Y-113643646D01*
X177917792Y-113674535D01*
X177935444Y-113692187D01*
X177954084Y-113705730D01*
X178000165Y-113756908D01*
X178044465Y-113801208D01*
X178054654Y-113817424D01*
X178065946Y-113829965D01*
X178104573Y-113896870D01*
X178139775Y-113952893D01*
X178144170Y-113965453D01*
X178149535Y-113974746D01*
X178177010Y-114059305D01*
X178198942Y-114121983D01*
X178199773Y-114129363D01*
X178201195Y-114133738D01*
X178214076Y-114256306D01*
X178219000Y-114300000D01*
X178214076Y-114343697D01*
X178201195Y-114466261D01*
X178199773Y-114470635D01*
X178198942Y-114478017D01*
X178177005Y-114540707D01*
X178149535Y-114625253D01*
X178144171Y-114634543D01*
X178139775Y-114647107D01*
X178104566Y-114703140D01*
X178065946Y-114770034D01*
X178054656Y-114782572D01*
X178044465Y-114798792D01*
X178000155Y-114843101D01*
X177954084Y-114894269D01*
X177935448Y-114907808D01*
X177917792Y-114925465D01*
X177868623Y-114956359D01*
X177818835Y-114992533D01*
X177792134Y-115004421D01*
X177766107Y-115020775D01*
X177716107Y-115038270D01*
X177666110Y-115060531D01*
X177631414Y-115067905D01*
X177597017Y-115079942D01*
X177549715Y-115085271D01*
X177502588Y-115095289D01*
X177460811Y-115095289D01*
X177419000Y-115100000D01*
X177377189Y-115095289D01*
X177335412Y-115095289D01*
X177288284Y-115085271D01*
X177240983Y-115079942D01*
X177206586Y-115067906D01*
X177171889Y-115060531D01*
X177121887Y-115038268D01*
X177071893Y-115020775D01*
X177045868Y-115004422D01*
X177019164Y-114992533D01*
X176969369Y-114956355D01*
X176920208Y-114925465D01*
X176902554Y-114907811D01*
X176883915Y-114894269D01*
X176837833Y-114843090D01*
X176793535Y-114798792D01*
X176783345Y-114782575D01*
X176772053Y-114770034D01*
X176733420Y-114703120D01*
X176698225Y-114647107D01*
X176693830Y-114634547D01*
X176688464Y-114625253D01*
X176660980Y-114540667D01*
X176639058Y-114478017D01*
X176638226Y-114470639D01*
X176636804Y-114466261D01*
X176623908Y-114343565D01*
X176619000Y-114300000D01*
X176623908Y-114256438D01*
X176636804Y-114133738D01*
X176638226Y-114129358D01*
X176639058Y-114121983D01*
X176660975Y-114059345D01*
X176688464Y-113974746D01*
X176693831Y-113965449D01*
X176698225Y-113952893D01*
X176733413Y-113896890D01*
X176772053Y-113829965D01*
X176783347Y-113817421D01*
X176793535Y-113801208D01*
X176837826Y-113756916D01*
X176883917Y-113705728D01*
X176902559Y-113692183D01*
X176920208Y-113674535D01*
X176969354Y-113643654D01*
X177019162Y-113607467D01*
X177045873Y-113595574D01*
X177071893Y-113579225D01*
X177121877Y-113561734D01*
X177171889Y-113539468D01*
X177206592Y-113532091D01*
X177240983Y-113520058D01*
X177288281Y-113514728D01*
X177335412Y-113504711D01*
X177377189Y-113504711D01*
X177419000Y-113500000D01*
X177460811Y-113504711D01*
G37*
G36*
X159610850Y-114054964D02*
G01*
X159661040Y-114060787D01*
X159678189Y-114068359D01*
X159701671Y-114073030D01*
X159726810Y-114089827D01*
X159746696Y-114098608D01*
X159760277Y-114112189D01*
X159782777Y-114127223D01*
X159797810Y-114149722D01*
X159811391Y-114163303D01*
X159820170Y-114183186D01*
X159836970Y-114208329D01*
X159841641Y-114231812D01*
X159849212Y-114248959D01*
X159855033Y-114299139D01*
X159856000Y-114304000D01*
X159856000Y-114804000D01*
X159855032Y-114808863D01*
X159849212Y-114859040D01*
X159841641Y-114876185D01*
X159836970Y-114899671D01*
X159820169Y-114924815D01*
X159811391Y-114944696D01*
X159797812Y-114958274D01*
X159782777Y-114980777D01*
X159760274Y-114995812D01*
X159746696Y-115009391D01*
X159726815Y-115018169D01*
X159701671Y-115034970D01*
X159678185Y-115039641D01*
X159661040Y-115047212D01*
X159610861Y-115053032D01*
X159606000Y-115054000D01*
X158656000Y-115054000D01*
X158651138Y-115053032D01*
X158600959Y-115047212D01*
X158583812Y-115039641D01*
X158560329Y-115034970D01*
X158535186Y-115018170D01*
X158515303Y-115009391D01*
X158501722Y-114995810D01*
X158479223Y-114980777D01*
X158464189Y-114958277D01*
X158450608Y-114944696D01*
X158441827Y-114924810D01*
X158425030Y-114899671D01*
X158420359Y-114876189D01*
X158412787Y-114859040D01*
X158406964Y-114808849D01*
X158406000Y-114804000D01*
X158406000Y-114304000D01*
X158406964Y-114299150D01*
X158412787Y-114248959D01*
X158420359Y-114231808D01*
X158425030Y-114208329D01*
X158441826Y-114183191D01*
X158450608Y-114163303D01*
X158464191Y-114149719D01*
X158479223Y-114127223D01*
X158501719Y-114112191D01*
X158515303Y-114098608D01*
X158535191Y-114089826D01*
X158560329Y-114073030D01*
X158583808Y-114068359D01*
X158600959Y-114060787D01*
X158651151Y-114054964D01*
X158656000Y-114054000D01*
X159606000Y-114054000D01*
X159610850Y-114054964D01*
G37*
G36*
X161878100Y-114074964D02*
G01*
X161926860Y-114080621D01*
X161943520Y-114087977D01*
X161966529Y-114092554D01*
X161991161Y-114109013D01*
X162010414Y-114117514D01*
X162023564Y-114130664D01*
X162045607Y-114145393D01*
X162060335Y-114167435D01*
X162073485Y-114180585D01*
X162081985Y-114199836D01*
X162098446Y-114224471D01*
X162103023Y-114247481D01*
X162110378Y-114264139D01*
X162116033Y-114312889D01*
X162117000Y-114317750D01*
X162117000Y-114805250D01*
X162116032Y-114810112D01*
X162110378Y-114858860D01*
X162103023Y-114875516D01*
X162098446Y-114898529D01*
X162081983Y-114923165D01*
X162073485Y-114942414D01*
X162060337Y-114955561D01*
X162045607Y-114977607D01*
X162023561Y-114992337D01*
X162010414Y-115005485D01*
X161991165Y-115013983D01*
X161966529Y-115030446D01*
X161943516Y-115035023D01*
X161926860Y-115042378D01*
X161878111Y-115048032D01*
X161873250Y-115049000D01*
X160960750Y-115049000D01*
X160955888Y-115048032D01*
X160907139Y-115042378D01*
X160890481Y-115035023D01*
X160867471Y-115030446D01*
X160842836Y-115013985D01*
X160823585Y-115005485D01*
X160810435Y-114992335D01*
X160788393Y-114977607D01*
X160773664Y-114955564D01*
X160760514Y-114942414D01*
X160752013Y-114923161D01*
X160735554Y-114898529D01*
X160730977Y-114875520D01*
X160723621Y-114858860D01*
X160717964Y-114810099D01*
X160717000Y-114805250D01*
X160717000Y-114317750D01*
X160717964Y-114312900D01*
X160723621Y-114264139D01*
X160730977Y-114247477D01*
X160735554Y-114224471D01*
X160752011Y-114199840D01*
X160760514Y-114180585D01*
X160773666Y-114167432D01*
X160788393Y-114145393D01*
X160810432Y-114130666D01*
X160823585Y-114117514D01*
X160842840Y-114109011D01*
X160867471Y-114092554D01*
X160890477Y-114087977D01*
X160907139Y-114080621D01*
X160955901Y-114074964D01*
X160960750Y-114074000D01*
X161873250Y-114074000D01*
X161878100Y-114074964D01*
G37*
G36*
X187550850Y-113861964D02*
G01*
X187601040Y-113867787D01*
X187618189Y-113875359D01*
X187641671Y-113880030D01*
X187666810Y-113896827D01*
X187686696Y-113905608D01*
X187700277Y-113919189D01*
X187722777Y-113934223D01*
X187737810Y-113956722D01*
X187751391Y-113970303D01*
X187760170Y-113990186D01*
X187776970Y-114015329D01*
X187781641Y-114038812D01*
X187789212Y-114055959D01*
X187795033Y-114106139D01*
X187796000Y-114111000D01*
X187796000Y-114611000D01*
X187795032Y-114615863D01*
X187789212Y-114666040D01*
X187781641Y-114683185D01*
X187776970Y-114706671D01*
X187760169Y-114731815D01*
X187751391Y-114751696D01*
X187737812Y-114765274D01*
X187722777Y-114787777D01*
X187700274Y-114802812D01*
X187686696Y-114816391D01*
X187666815Y-114825169D01*
X187641671Y-114841970D01*
X187618185Y-114846641D01*
X187601040Y-114854212D01*
X187550861Y-114860032D01*
X187546000Y-114861000D01*
X186596000Y-114861000D01*
X186591138Y-114860032D01*
X186540959Y-114854212D01*
X186523812Y-114846641D01*
X186500329Y-114841970D01*
X186475186Y-114825170D01*
X186455303Y-114816391D01*
X186441722Y-114802810D01*
X186419223Y-114787777D01*
X186404189Y-114765277D01*
X186390608Y-114751696D01*
X186381827Y-114731810D01*
X186365030Y-114706671D01*
X186360359Y-114683189D01*
X186352787Y-114666040D01*
X186346964Y-114615849D01*
X186346000Y-114611000D01*
X186346000Y-114111000D01*
X186346964Y-114106150D01*
X186352787Y-114055959D01*
X186360359Y-114038808D01*
X186365030Y-114015329D01*
X186381826Y-113990191D01*
X186390608Y-113970303D01*
X186404191Y-113956719D01*
X186419223Y-113934223D01*
X186441719Y-113919191D01*
X186455303Y-113905608D01*
X186475191Y-113896826D01*
X186500329Y-113880030D01*
X186523808Y-113875359D01*
X186540959Y-113867787D01*
X186591151Y-113861964D01*
X186596000Y-113861000D01*
X187546000Y-113861000D01*
X187550850Y-113861964D01*
G37*
G36*
X161878100Y-112199964D02*
G01*
X161926860Y-112205621D01*
X161943520Y-112212977D01*
X161966529Y-112217554D01*
X161991161Y-112234013D01*
X162010414Y-112242514D01*
X162023564Y-112255664D01*
X162045607Y-112270393D01*
X162060335Y-112292435D01*
X162073485Y-112305585D01*
X162081985Y-112324836D01*
X162098446Y-112349471D01*
X162103023Y-112372481D01*
X162110378Y-112389139D01*
X162116033Y-112437889D01*
X162117000Y-112442750D01*
X162117000Y-112930250D01*
X162116032Y-112935112D01*
X162110378Y-112983860D01*
X162103023Y-113000516D01*
X162098446Y-113023529D01*
X162081983Y-113048165D01*
X162073485Y-113067414D01*
X162060337Y-113080561D01*
X162045607Y-113102607D01*
X162023561Y-113117337D01*
X162010414Y-113130485D01*
X161991165Y-113138983D01*
X161966529Y-113155446D01*
X161943516Y-113160023D01*
X161926860Y-113167378D01*
X161878111Y-113173032D01*
X161873250Y-113174000D01*
X160960750Y-113174000D01*
X160955888Y-113173032D01*
X160907139Y-113167378D01*
X160890481Y-113160023D01*
X160867471Y-113155446D01*
X160842836Y-113138985D01*
X160823585Y-113130485D01*
X160810435Y-113117335D01*
X160788393Y-113102607D01*
X160773664Y-113080564D01*
X160760514Y-113067414D01*
X160752013Y-113048161D01*
X160735554Y-113023529D01*
X160730977Y-113000520D01*
X160723621Y-112983860D01*
X160717964Y-112935099D01*
X160717000Y-112930250D01*
X160717000Y-112442750D01*
X160717964Y-112437900D01*
X160723621Y-112389139D01*
X160730977Y-112372477D01*
X160735554Y-112349471D01*
X160752011Y-112324840D01*
X160760514Y-112305585D01*
X160773666Y-112292432D01*
X160788393Y-112270393D01*
X160810432Y-112255666D01*
X160823585Y-112242514D01*
X160842840Y-112234011D01*
X160867471Y-112217554D01*
X160890477Y-112212977D01*
X160907139Y-112205621D01*
X160955901Y-112199964D01*
X160960750Y-112199000D01*
X161873250Y-112199000D01*
X161878100Y-112199964D01*
G37*
G36*
X159610850Y-112154964D02*
G01*
X159661040Y-112160787D01*
X159678189Y-112168359D01*
X159701671Y-112173030D01*
X159726810Y-112189827D01*
X159746696Y-112198608D01*
X159760277Y-112212189D01*
X159782777Y-112227223D01*
X159797810Y-112249722D01*
X159811391Y-112263303D01*
X159820170Y-112283186D01*
X159836970Y-112308329D01*
X159841641Y-112331812D01*
X159849212Y-112348959D01*
X159855033Y-112399139D01*
X159856000Y-112404000D01*
X159856000Y-112904000D01*
X159855032Y-112908863D01*
X159849212Y-112959040D01*
X159841641Y-112976185D01*
X159836970Y-112999671D01*
X159820169Y-113024815D01*
X159811391Y-113044696D01*
X159797812Y-113058274D01*
X159782777Y-113080777D01*
X159760274Y-113095812D01*
X159746696Y-113109391D01*
X159726815Y-113118169D01*
X159701671Y-113134970D01*
X159678185Y-113139641D01*
X159661040Y-113147212D01*
X159610861Y-113153032D01*
X159606000Y-113154000D01*
X158656000Y-113154000D01*
X158651138Y-113153032D01*
X158600959Y-113147212D01*
X158583812Y-113139641D01*
X158560329Y-113134970D01*
X158535186Y-113118170D01*
X158515303Y-113109391D01*
X158501722Y-113095810D01*
X158479223Y-113080777D01*
X158464189Y-113058277D01*
X158450608Y-113044696D01*
X158441827Y-113024810D01*
X158425030Y-112999671D01*
X158420359Y-112976189D01*
X158412787Y-112959040D01*
X158406964Y-112908849D01*
X158406000Y-112904000D01*
X158406000Y-112404000D01*
X158406964Y-112399150D01*
X158412787Y-112348959D01*
X158420359Y-112331808D01*
X158425030Y-112308329D01*
X158441826Y-112283191D01*
X158450608Y-112263303D01*
X158464191Y-112249719D01*
X158479223Y-112227223D01*
X158501719Y-112212191D01*
X158515303Y-112198608D01*
X158535191Y-112189826D01*
X158560329Y-112173030D01*
X158583808Y-112168359D01*
X158600959Y-112160787D01*
X158651151Y-112154964D01*
X158656000Y-112154000D01*
X159606000Y-112154000D01*
X159610850Y-112154964D01*
G37*
G36*
X187550850Y-111961964D02*
G01*
X187601040Y-111967787D01*
X187618189Y-111975359D01*
X187641671Y-111980030D01*
X187666810Y-111996827D01*
X187686696Y-112005608D01*
X187700277Y-112019189D01*
X187722777Y-112034223D01*
X187737810Y-112056722D01*
X187751391Y-112070303D01*
X187760170Y-112090186D01*
X187776970Y-112115329D01*
X187781641Y-112138812D01*
X187789212Y-112155959D01*
X187795033Y-112206139D01*
X187796000Y-112211000D01*
X187796000Y-112711000D01*
X187795032Y-112715863D01*
X187789212Y-112766040D01*
X187781641Y-112783185D01*
X187776970Y-112806671D01*
X187760169Y-112831815D01*
X187751391Y-112851696D01*
X187737812Y-112865274D01*
X187722777Y-112887777D01*
X187700274Y-112902812D01*
X187686696Y-112916391D01*
X187666815Y-112925169D01*
X187641671Y-112941970D01*
X187618185Y-112946641D01*
X187601040Y-112954212D01*
X187550861Y-112960032D01*
X187546000Y-112961000D01*
X186596000Y-112961000D01*
X186591138Y-112960032D01*
X186540959Y-112954212D01*
X186523812Y-112946641D01*
X186500329Y-112941970D01*
X186475186Y-112925170D01*
X186455303Y-112916391D01*
X186441722Y-112902810D01*
X186419223Y-112887777D01*
X186404189Y-112865277D01*
X186390608Y-112851696D01*
X186381827Y-112831810D01*
X186365030Y-112806671D01*
X186360359Y-112783189D01*
X186352787Y-112766040D01*
X186346964Y-112715849D01*
X186346000Y-112711000D01*
X186346000Y-112211000D01*
X186346964Y-112206150D01*
X186352787Y-112155959D01*
X186360359Y-112138808D01*
X186365030Y-112115329D01*
X186381826Y-112090191D01*
X186390608Y-112070303D01*
X186404191Y-112056719D01*
X186419223Y-112034223D01*
X186441719Y-112019191D01*
X186455303Y-112005608D01*
X186475191Y-111996826D01*
X186500329Y-111980030D01*
X186523808Y-111975359D01*
X186540959Y-111967787D01*
X186591151Y-111961964D01*
X186596000Y-111961000D01*
X187546000Y-111961000D01*
X187550850Y-111961964D01*
G37*
G36*
X180726850Y-110146964D02*
G01*
X180777040Y-110152787D01*
X180794189Y-110160359D01*
X180817671Y-110165030D01*
X180842810Y-110181827D01*
X180862696Y-110190608D01*
X180876277Y-110204189D01*
X180898777Y-110219223D01*
X180913810Y-110241722D01*
X180927391Y-110255303D01*
X180936170Y-110275186D01*
X180952970Y-110300329D01*
X180957641Y-110323812D01*
X180965212Y-110340959D01*
X180971033Y-110391139D01*
X180972000Y-110396000D01*
X180972000Y-111346000D01*
X180971032Y-111350863D01*
X180965212Y-111401040D01*
X180957641Y-111418185D01*
X180952970Y-111441671D01*
X180936169Y-111466815D01*
X180927391Y-111486696D01*
X180913812Y-111500274D01*
X180898777Y-111522777D01*
X180876274Y-111537812D01*
X180862696Y-111551391D01*
X180842815Y-111560169D01*
X180817671Y-111576970D01*
X180794185Y-111581641D01*
X180777040Y-111589212D01*
X180726861Y-111595032D01*
X180722000Y-111596000D01*
X180222000Y-111596000D01*
X180217138Y-111595032D01*
X180166959Y-111589212D01*
X180149812Y-111581641D01*
X180126329Y-111576970D01*
X180101186Y-111560170D01*
X180081303Y-111551391D01*
X180067722Y-111537810D01*
X180045223Y-111522777D01*
X180030189Y-111500277D01*
X180016608Y-111486696D01*
X180007827Y-111466810D01*
X179991030Y-111441671D01*
X179986359Y-111418189D01*
X179978787Y-111401040D01*
X179972964Y-111350849D01*
X179972000Y-111346000D01*
X179972000Y-110396000D01*
X179972964Y-110391150D01*
X179978787Y-110340959D01*
X179986359Y-110323808D01*
X179991030Y-110300329D01*
X180007826Y-110275191D01*
X180016608Y-110255303D01*
X180030191Y-110241719D01*
X180045223Y-110219223D01*
X180067719Y-110204191D01*
X180081303Y-110190608D01*
X180101191Y-110181826D01*
X180126329Y-110165030D01*
X180149808Y-110160359D01*
X180166959Y-110152787D01*
X180217151Y-110146964D01*
X180222000Y-110146000D01*
X180722000Y-110146000D01*
X180726850Y-110146964D01*
G37*
G36*
X182626850Y-110146964D02*
G01*
X182677040Y-110152787D01*
X182694189Y-110160359D01*
X182717671Y-110165030D01*
X182742810Y-110181827D01*
X182762696Y-110190608D01*
X182776277Y-110204189D01*
X182798777Y-110219223D01*
X182813810Y-110241722D01*
X182827391Y-110255303D01*
X182836170Y-110275186D01*
X182852970Y-110300329D01*
X182857641Y-110323812D01*
X182865212Y-110340959D01*
X182871033Y-110391139D01*
X182872000Y-110396000D01*
X182872000Y-111346000D01*
X182871032Y-111350863D01*
X182865212Y-111401040D01*
X182857641Y-111418185D01*
X182852970Y-111441671D01*
X182836169Y-111466815D01*
X182827391Y-111486696D01*
X182813812Y-111500274D01*
X182798777Y-111522777D01*
X182776274Y-111537812D01*
X182762696Y-111551391D01*
X182742815Y-111560169D01*
X182717671Y-111576970D01*
X182694185Y-111581641D01*
X182677040Y-111589212D01*
X182626861Y-111595032D01*
X182622000Y-111596000D01*
X182122000Y-111596000D01*
X182117138Y-111595032D01*
X182066959Y-111589212D01*
X182049812Y-111581641D01*
X182026329Y-111576970D01*
X182001186Y-111560170D01*
X181981303Y-111551391D01*
X181967722Y-111537810D01*
X181945223Y-111522777D01*
X181930189Y-111500277D01*
X181916608Y-111486696D01*
X181907827Y-111466810D01*
X181891030Y-111441671D01*
X181886359Y-111418189D01*
X181878787Y-111401040D01*
X181872964Y-111350849D01*
X181872000Y-111346000D01*
X181872000Y-110396000D01*
X181872964Y-110391150D01*
X181878787Y-110340959D01*
X181886359Y-110323808D01*
X181891030Y-110300329D01*
X181907826Y-110275191D01*
X181916608Y-110255303D01*
X181930191Y-110241719D01*
X181945223Y-110219223D01*
X181967719Y-110204191D01*
X181981303Y-110190608D01*
X182001191Y-110181826D01*
X182026329Y-110165030D01*
X182049808Y-110160359D01*
X182066959Y-110152787D01*
X182117151Y-110146964D01*
X182122000Y-110146000D01*
X182622000Y-110146000D01*
X182626850Y-110146964D01*
G37*
G36*
X165367350Y-110044964D02*
G01*
X165417540Y-110050787D01*
X165434689Y-110058359D01*
X165458171Y-110063030D01*
X165483310Y-110079827D01*
X165503196Y-110088608D01*
X165516777Y-110102189D01*
X165539277Y-110117223D01*
X165554310Y-110139722D01*
X165567891Y-110153303D01*
X165576670Y-110173186D01*
X165593470Y-110198329D01*
X165598141Y-110221812D01*
X165605712Y-110238959D01*
X165611533Y-110289139D01*
X165612500Y-110294000D01*
X165612500Y-111194000D01*
X165611532Y-111198863D01*
X165605712Y-111249040D01*
X165598141Y-111266185D01*
X165593470Y-111289671D01*
X165576669Y-111314815D01*
X165567891Y-111334696D01*
X165554312Y-111348274D01*
X165539277Y-111370777D01*
X165516774Y-111385812D01*
X165503196Y-111399391D01*
X165483315Y-111408169D01*
X165458171Y-111424970D01*
X165434685Y-111429641D01*
X165417540Y-111437212D01*
X165367361Y-111443032D01*
X165362500Y-111444000D01*
X164837500Y-111444000D01*
X164832638Y-111443032D01*
X164782459Y-111437212D01*
X164765312Y-111429641D01*
X164741829Y-111424970D01*
X164716686Y-111408170D01*
X164696803Y-111399391D01*
X164683222Y-111385810D01*
X164660723Y-111370777D01*
X164645689Y-111348277D01*
X164632108Y-111334696D01*
X164623327Y-111314810D01*
X164606530Y-111289671D01*
X164601859Y-111266189D01*
X164594287Y-111249040D01*
X164588464Y-111198849D01*
X164587500Y-111194000D01*
X164587500Y-110294000D01*
X164588464Y-110289150D01*
X164594287Y-110238959D01*
X164601859Y-110221808D01*
X164606530Y-110198329D01*
X164623326Y-110173191D01*
X164632108Y-110153303D01*
X164645691Y-110139719D01*
X164660723Y-110117223D01*
X164683219Y-110102191D01*
X164696803Y-110088608D01*
X164716691Y-110079826D01*
X164741829Y-110063030D01*
X164765308Y-110058359D01*
X164782459Y-110050787D01*
X164832651Y-110044964D01*
X164837500Y-110044000D01*
X165362500Y-110044000D01*
X165367350Y-110044964D01*
G37*
G36*
X167192350Y-110044964D02*
G01*
X167242540Y-110050787D01*
X167259689Y-110058359D01*
X167283171Y-110063030D01*
X167308310Y-110079827D01*
X167328196Y-110088608D01*
X167341777Y-110102189D01*
X167364277Y-110117223D01*
X167379310Y-110139722D01*
X167392891Y-110153303D01*
X167401670Y-110173186D01*
X167418470Y-110198329D01*
X167423141Y-110221812D01*
X167430712Y-110238959D01*
X167436533Y-110289139D01*
X167437500Y-110294000D01*
X167437500Y-111194000D01*
X167436532Y-111198863D01*
X167430712Y-111249040D01*
X167423141Y-111266185D01*
X167418470Y-111289671D01*
X167401669Y-111314815D01*
X167392891Y-111334696D01*
X167379312Y-111348274D01*
X167364277Y-111370777D01*
X167341774Y-111385812D01*
X167328196Y-111399391D01*
X167308315Y-111408169D01*
X167283171Y-111424970D01*
X167259685Y-111429641D01*
X167242540Y-111437212D01*
X167192361Y-111443032D01*
X167187500Y-111444000D01*
X166662500Y-111444000D01*
X166657638Y-111443032D01*
X166607459Y-111437212D01*
X166590312Y-111429641D01*
X166566829Y-111424970D01*
X166541686Y-111408170D01*
X166521803Y-111399391D01*
X166508222Y-111385810D01*
X166485723Y-111370777D01*
X166470689Y-111348277D01*
X166457108Y-111334696D01*
X166448327Y-111314810D01*
X166431530Y-111289671D01*
X166426859Y-111266189D01*
X166419287Y-111249040D01*
X166413464Y-111198849D01*
X166412500Y-111194000D01*
X166412500Y-110294000D01*
X166413464Y-110289150D01*
X166419287Y-110238959D01*
X166426859Y-110221808D01*
X166431530Y-110198329D01*
X166448326Y-110173191D01*
X166457108Y-110153303D01*
X166470691Y-110139719D01*
X166485723Y-110117223D01*
X166508219Y-110102191D01*
X166521803Y-110088608D01*
X166541691Y-110079826D01*
X166566829Y-110063030D01*
X166590308Y-110058359D01*
X166607459Y-110050787D01*
X166657651Y-110044964D01*
X166662500Y-110044000D01*
X167187500Y-110044000D01*
X167192350Y-110044964D01*
G37*
G36*
X187555850Y-109971964D02*
G01*
X187606040Y-109977787D01*
X187623189Y-109985359D01*
X187646671Y-109990030D01*
X187671810Y-110006827D01*
X187691696Y-110015608D01*
X187705277Y-110029189D01*
X187727777Y-110044223D01*
X187742810Y-110066722D01*
X187756391Y-110080303D01*
X187765170Y-110100186D01*
X187781970Y-110125329D01*
X187786641Y-110148812D01*
X187794212Y-110165959D01*
X187800033Y-110216139D01*
X187801000Y-110221000D01*
X187801000Y-110746000D01*
X187800032Y-110750863D01*
X187794212Y-110801040D01*
X187786641Y-110818185D01*
X187781970Y-110841671D01*
X187765169Y-110866815D01*
X187756391Y-110886696D01*
X187742812Y-110900274D01*
X187727777Y-110922777D01*
X187705274Y-110937812D01*
X187691696Y-110951391D01*
X187671815Y-110960169D01*
X187646671Y-110976970D01*
X187623185Y-110981641D01*
X187606040Y-110989212D01*
X187555861Y-110995032D01*
X187551000Y-110996000D01*
X186651000Y-110996000D01*
X186646138Y-110995032D01*
X186595959Y-110989212D01*
X186578812Y-110981641D01*
X186555329Y-110976970D01*
X186530186Y-110960170D01*
X186510303Y-110951391D01*
X186496722Y-110937810D01*
X186474223Y-110922777D01*
X186459189Y-110900277D01*
X186445608Y-110886696D01*
X186436827Y-110866810D01*
X186420030Y-110841671D01*
X186415359Y-110818189D01*
X186407787Y-110801040D01*
X186401964Y-110750849D01*
X186401000Y-110746000D01*
X186401000Y-110221000D01*
X186401964Y-110216150D01*
X186407787Y-110165959D01*
X186415359Y-110148808D01*
X186420030Y-110125329D01*
X186436826Y-110100191D01*
X186445608Y-110080303D01*
X186459191Y-110066719D01*
X186474223Y-110044223D01*
X186496719Y-110029191D01*
X186510303Y-110015608D01*
X186530191Y-110006826D01*
X186555329Y-109990030D01*
X186578808Y-109985359D01*
X186595959Y-109977787D01*
X186646151Y-109971964D01*
X186651000Y-109971000D01*
X187551000Y-109971000D01*
X187555850Y-109971964D01*
G37*
G36*
X159585850Y-109620964D02*
G01*
X159636040Y-109626787D01*
X159653189Y-109634359D01*
X159676671Y-109639030D01*
X159701810Y-109655827D01*
X159721696Y-109664608D01*
X159735277Y-109678189D01*
X159757777Y-109693223D01*
X159772810Y-109715722D01*
X159786391Y-109729303D01*
X159795170Y-109749186D01*
X159811970Y-109774329D01*
X159816641Y-109797812D01*
X159824212Y-109814959D01*
X159830033Y-109865139D01*
X159831000Y-109870000D01*
X159831000Y-110395000D01*
X159830032Y-110399863D01*
X159824212Y-110450040D01*
X159816641Y-110467185D01*
X159811970Y-110490671D01*
X159795169Y-110515815D01*
X159786391Y-110535696D01*
X159772812Y-110549274D01*
X159757777Y-110571777D01*
X159735274Y-110586812D01*
X159721696Y-110600391D01*
X159701815Y-110609169D01*
X159676671Y-110625970D01*
X159653185Y-110630641D01*
X159636040Y-110638212D01*
X159585861Y-110644032D01*
X159581000Y-110645000D01*
X158681000Y-110645000D01*
X158676138Y-110644032D01*
X158625959Y-110638212D01*
X158608812Y-110630641D01*
X158585329Y-110625970D01*
X158560186Y-110609170D01*
X158540303Y-110600391D01*
X158526722Y-110586810D01*
X158504223Y-110571777D01*
X158489189Y-110549277D01*
X158475608Y-110535696D01*
X158466827Y-110515810D01*
X158450030Y-110490671D01*
X158445359Y-110467189D01*
X158437787Y-110450040D01*
X158431964Y-110399849D01*
X158431000Y-110395000D01*
X158431000Y-109870000D01*
X158431964Y-109865150D01*
X158437787Y-109814959D01*
X158445359Y-109797808D01*
X158450030Y-109774329D01*
X158466826Y-109749191D01*
X158475608Y-109729303D01*
X158489191Y-109715719D01*
X158504223Y-109693223D01*
X158526719Y-109678191D01*
X158540303Y-109664608D01*
X158560191Y-109655826D01*
X158585329Y-109639030D01*
X158608808Y-109634359D01*
X158625959Y-109626787D01*
X158676151Y-109620964D01*
X158681000Y-109620000D01*
X159581000Y-109620000D01*
X159585850Y-109620964D01*
G37*
G36*
X187555850Y-108146964D02*
G01*
X187606040Y-108152787D01*
X187623189Y-108160359D01*
X187646671Y-108165030D01*
X187671810Y-108181827D01*
X187691696Y-108190608D01*
X187705277Y-108204189D01*
X187727777Y-108219223D01*
X187742810Y-108241722D01*
X187756391Y-108255303D01*
X187765170Y-108275186D01*
X187781970Y-108300329D01*
X187786641Y-108323812D01*
X187794212Y-108340959D01*
X187800033Y-108391139D01*
X187801000Y-108396000D01*
X187801000Y-108921000D01*
X187800032Y-108925863D01*
X187794212Y-108976040D01*
X187786641Y-108993185D01*
X187781970Y-109016671D01*
X187765169Y-109041815D01*
X187756391Y-109061696D01*
X187742812Y-109075274D01*
X187727777Y-109097777D01*
X187705274Y-109112812D01*
X187691696Y-109126391D01*
X187671815Y-109135169D01*
X187646671Y-109151970D01*
X187623185Y-109156641D01*
X187606040Y-109164212D01*
X187555861Y-109170032D01*
X187551000Y-109171000D01*
X186651000Y-109171000D01*
X186646138Y-109170032D01*
X186595959Y-109164212D01*
X186578812Y-109156641D01*
X186555329Y-109151970D01*
X186530186Y-109135170D01*
X186510303Y-109126391D01*
X186496722Y-109112810D01*
X186474223Y-109097777D01*
X186459189Y-109075277D01*
X186445608Y-109061696D01*
X186436827Y-109041810D01*
X186420030Y-109016671D01*
X186415359Y-108993189D01*
X186407787Y-108976040D01*
X186401964Y-108925849D01*
X186401000Y-108921000D01*
X186401000Y-108396000D01*
X186401964Y-108391150D01*
X186407787Y-108340959D01*
X186415359Y-108323808D01*
X186420030Y-108300329D01*
X186436826Y-108275191D01*
X186445608Y-108255303D01*
X186459191Y-108241719D01*
X186474223Y-108219223D01*
X186496719Y-108204191D01*
X186510303Y-108190608D01*
X186530191Y-108181826D01*
X186555329Y-108165030D01*
X186578808Y-108160359D01*
X186595959Y-108152787D01*
X186646151Y-108146964D01*
X186651000Y-108146000D01*
X187551000Y-108146000D01*
X187555850Y-108146964D01*
G37*
G36*
X181244000Y-109114000D02*
G01*
X179944000Y-109114000D01*
X179944000Y-108214000D01*
X181244000Y-108214000D01*
X181244000Y-109114000D01*
G37*
G36*
X164283903Y-108423418D02*
G01*
X164332566Y-108455934D01*
X164365082Y-108504597D01*
X164376500Y-108562000D01*
X164376500Y-108862000D01*
X164365082Y-108919403D01*
X164332566Y-108968066D01*
X164283903Y-109000582D01*
X164226500Y-109012000D01*
X163201500Y-109012000D01*
X163144097Y-109000582D01*
X163095434Y-108968066D01*
X163062918Y-108919403D01*
X163051500Y-108862000D01*
X163051500Y-108562000D01*
X163062918Y-108504597D01*
X163095434Y-108455934D01*
X163144097Y-108423418D01*
X163201500Y-108412000D01*
X164226500Y-108412000D01*
X164283903Y-108423418D01*
G37*
G36*
X166558903Y-108423418D02*
G01*
X166607566Y-108455934D01*
X166640082Y-108504597D01*
X166651500Y-108562000D01*
X166651500Y-108862000D01*
X166640082Y-108919403D01*
X166607566Y-108968066D01*
X166558903Y-109000582D01*
X166501500Y-109012000D01*
X165476500Y-109012000D01*
X165419097Y-109000582D01*
X165370434Y-108968066D01*
X165337918Y-108919403D01*
X165326500Y-108862000D01*
X165326500Y-108562000D01*
X165337918Y-108504597D01*
X165370434Y-108455934D01*
X165419097Y-108423418D01*
X165476500Y-108412000D01*
X166501500Y-108412000D01*
X166558903Y-108423418D01*
G37*
G36*
X159585850Y-107795964D02*
G01*
X159636040Y-107801787D01*
X159653189Y-107809359D01*
X159676671Y-107814030D01*
X159701810Y-107830827D01*
X159721696Y-107839608D01*
X159735277Y-107853189D01*
X159757777Y-107868223D01*
X159772810Y-107890722D01*
X159786391Y-107904303D01*
X159795170Y-107924186D01*
X159811970Y-107949329D01*
X159816641Y-107972812D01*
X159824212Y-107989959D01*
X159830033Y-108040139D01*
X159831000Y-108045000D01*
X159831000Y-108570000D01*
X159830032Y-108574863D01*
X159824212Y-108625040D01*
X159816641Y-108642185D01*
X159811970Y-108665671D01*
X159795169Y-108690815D01*
X159786391Y-108710696D01*
X159772812Y-108724274D01*
X159757777Y-108746777D01*
X159735274Y-108761812D01*
X159721696Y-108775391D01*
X159701815Y-108784169D01*
X159676671Y-108800970D01*
X159653185Y-108805641D01*
X159636040Y-108813212D01*
X159585861Y-108819032D01*
X159581000Y-108820000D01*
X158681000Y-108820000D01*
X158676138Y-108819032D01*
X158625959Y-108813212D01*
X158608812Y-108805641D01*
X158585329Y-108800970D01*
X158560186Y-108784170D01*
X158540303Y-108775391D01*
X158526722Y-108761810D01*
X158504223Y-108746777D01*
X158489189Y-108724277D01*
X158475608Y-108710696D01*
X158466827Y-108690810D01*
X158450030Y-108665671D01*
X158445359Y-108642189D01*
X158437787Y-108625040D01*
X158431964Y-108574849D01*
X158431000Y-108570000D01*
X158431000Y-108045000D01*
X158431964Y-108040150D01*
X158437787Y-107989959D01*
X158445359Y-107972808D01*
X158450030Y-107949329D01*
X158466826Y-107924191D01*
X158475608Y-107904303D01*
X158489191Y-107890719D01*
X158504223Y-107868223D01*
X158526719Y-107853191D01*
X158540303Y-107839608D01*
X158560191Y-107830826D01*
X158585329Y-107814030D01*
X158608808Y-107809359D01*
X158625959Y-107801787D01*
X158676151Y-107795964D01*
X158681000Y-107795000D01*
X159581000Y-107795000D01*
X159585850Y-107795964D01*
G37*
G36*
X166558903Y-107473418D02*
G01*
X166607566Y-107505934D01*
X166640082Y-107554597D01*
X166651500Y-107612000D01*
X166651500Y-107912000D01*
X166640082Y-107969403D01*
X166607566Y-108018066D01*
X166558903Y-108050582D01*
X166501500Y-108062000D01*
X165476500Y-108062000D01*
X165419097Y-108050582D01*
X165370434Y-108018066D01*
X165337918Y-107969403D01*
X165326500Y-107912000D01*
X165326500Y-107612000D01*
X165337918Y-107554597D01*
X165370434Y-107505934D01*
X165419097Y-107473418D01*
X165476500Y-107462000D01*
X166501500Y-107462000D01*
X166558903Y-107473418D01*
G37*
G36*
X184544000Y-108030500D02*
G01*
X184538092Y-108030500D01*
X181424908Y-108030500D01*
X181419000Y-108030500D01*
X181419000Y-107649147D01*
X181383853Y-107614000D01*
X179944000Y-107614000D01*
X179944000Y-106714000D01*
X181383853Y-106714000D01*
X181419000Y-106678853D01*
X181419000Y-106303408D01*
X181419000Y-106297500D01*
X184544000Y-106297500D01*
X184544000Y-108030500D01*
G37*
G36*
X169840811Y-105884711D02*
G01*
X169882588Y-105884711D01*
X169929718Y-105894728D01*
X169977017Y-105900058D01*
X170011408Y-105912092D01*
X170046110Y-105919468D01*
X170096117Y-105941733D01*
X170146107Y-105959225D01*
X170172128Y-105975575D01*
X170198835Y-105987466D01*
X170248633Y-106023646D01*
X170297792Y-106054535D01*
X170315444Y-106072187D01*
X170334084Y-106085730D01*
X170380165Y-106136908D01*
X170424465Y-106181208D01*
X170434654Y-106197424D01*
X170445946Y-106209965D01*
X170484573Y-106276870D01*
X170519775Y-106332893D01*
X170524170Y-106345453D01*
X170529535Y-106354746D01*
X170557010Y-106439305D01*
X170578942Y-106501983D01*
X170579773Y-106509363D01*
X170581195Y-106513738D01*
X170594076Y-106636306D01*
X170599000Y-106680000D01*
X170594076Y-106723697D01*
X170581195Y-106846261D01*
X170579773Y-106850635D01*
X170578942Y-106858017D01*
X170557005Y-106920707D01*
X170529535Y-107005253D01*
X170524171Y-107014543D01*
X170519775Y-107027107D01*
X170484566Y-107083140D01*
X170445946Y-107150034D01*
X170434656Y-107162572D01*
X170424465Y-107178792D01*
X170380155Y-107223101D01*
X170334084Y-107274269D01*
X170315448Y-107287808D01*
X170297792Y-107305465D01*
X170248623Y-107336359D01*
X170198835Y-107372533D01*
X170172134Y-107384421D01*
X170146107Y-107400775D01*
X170096107Y-107418270D01*
X170046110Y-107440531D01*
X170011414Y-107447905D01*
X169977017Y-107459942D01*
X169929715Y-107465271D01*
X169882588Y-107475289D01*
X169840811Y-107475289D01*
X169799000Y-107480000D01*
X169757189Y-107475289D01*
X169715412Y-107475289D01*
X169668284Y-107465271D01*
X169620983Y-107459942D01*
X169586586Y-107447906D01*
X169551889Y-107440531D01*
X169501887Y-107418268D01*
X169451893Y-107400775D01*
X169425868Y-107384422D01*
X169399164Y-107372533D01*
X169349369Y-107336355D01*
X169300208Y-107305465D01*
X169282554Y-107287811D01*
X169263915Y-107274269D01*
X169217833Y-107223090D01*
X169173535Y-107178792D01*
X169163345Y-107162575D01*
X169152053Y-107150034D01*
X169113420Y-107083120D01*
X169078225Y-107027107D01*
X169073830Y-107014547D01*
X169068464Y-107005253D01*
X169040980Y-106920667D01*
X169019058Y-106858017D01*
X169018226Y-106850639D01*
X169016804Y-106846261D01*
X169003908Y-106723565D01*
X168999000Y-106680000D01*
X169003908Y-106636438D01*
X169016804Y-106513738D01*
X169018226Y-106509358D01*
X169019058Y-106501983D01*
X169040975Y-106439345D01*
X169068464Y-106354746D01*
X169073831Y-106345449D01*
X169078225Y-106332893D01*
X169113413Y-106276890D01*
X169152053Y-106209965D01*
X169163347Y-106197421D01*
X169173535Y-106181208D01*
X169217826Y-106136916D01*
X169263917Y-106085728D01*
X169282559Y-106072183D01*
X169300208Y-106054535D01*
X169349354Y-106023654D01*
X169399162Y-105987467D01*
X169425873Y-105975574D01*
X169451893Y-105959225D01*
X169501877Y-105941734D01*
X169551889Y-105919468D01*
X169586592Y-105912091D01*
X169620983Y-105900058D01*
X169668281Y-105894728D01*
X169715412Y-105884711D01*
X169757189Y-105884711D01*
X169799000Y-105880000D01*
X169840811Y-105884711D01*
G37*
G36*
X172380811Y-105884711D02*
G01*
X172422588Y-105884711D01*
X172469718Y-105894728D01*
X172517017Y-105900058D01*
X172551408Y-105912092D01*
X172586110Y-105919468D01*
X172636117Y-105941733D01*
X172686107Y-105959225D01*
X172712128Y-105975575D01*
X172738835Y-105987466D01*
X172788633Y-106023646D01*
X172837792Y-106054535D01*
X172855444Y-106072187D01*
X172874084Y-106085730D01*
X172920165Y-106136908D01*
X172964465Y-106181208D01*
X172974654Y-106197424D01*
X172985946Y-106209965D01*
X173024573Y-106276870D01*
X173059775Y-106332893D01*
X173064170Y-106345453D01*
X173069535Y-106354746D01*
X173097010Y-106439305D01*
X173118942Y-106501983D01*
X173119773Y-106509363D01*
X173121195Y-106513738D01*
X173134076Y-106636306D01*
X173139000Y-106680000D01*
X173134076Y-106723697D01*
X173121195Y-106846261D01*
X173119773Y-106850635D01*
X173118942Y-106858017D01*
X173097005Y-106920707D01*
X173069535Y-107005253D01*
X173064171Y-107014543D01*
X173059775Y-107027107D01*
X173024566Y-107083140D01*
X172985946Y-107150034D01*
X172974656Y-107162572D01*
X172964465Y-107178792D01*
X172920155Y-107223101D01*
X172874084Y-107274269D01*
X172855448Y-107287808D01*
X172837792Y-107305465D01*
X172788623Y-107336359D01*
X172738835Y-107372533D01*
X172712134Y-107384421D01*
X172686107Y-107400775D01*
X172636107Y-107418270D01*
X172586110Y-107440531D01*
X172551414Y-107447905D01*
X172517017Y-107459942D01*
X172469715Y-107465271D01*
X172422588Y-107475289D01*
X172380811Y-107475289D01*
X172339000Y-107480000D01*
X172297189Y-107475289D01*
X172255412Y-107475289D01*
X172208284Y-107465271D01*
X172160983Y-107459942D01*
X172126586Y-107447906D01*
X172091889Y-107440531D01*
X172041887Y-107418268D01*
X171991893Y-107400775D01*
X171965868Y-107384422D01*
X171939164Y-107372533D01*
X171889369Y-107336355D01*
X171840208Y-107305465D01*
X171822554Y-107287811D01*
X171803915Y-107274269D01*
X171757833Y-107223090D01*
X171713535Y-107178792D01*
X171703345Y-107162575D01*
X171692053Y-107150034D01*
X171653420Y-107083120D01*
X171618225Y-107027107D01*
X171613830Y-107014547D01*
X171608464Y-107005253D01*
X171580980Y-106920667D01*
X171559058Y-106858017D01*
X171558226Y-106850639D01*
X171556804Y-106846261D01*
X171543908Y-106723565D01*
X171539000Y-106680000D01*
X171543908Y-106636438D01*
X171556804Y-106513738D01*
X171558226Y-106509358D01*
X171559058Y-106501983D01*
X171580975Y-106439345D01*
X171608464Y-106354746D01*
X171613831Y-106345449D01*
X171618225Y-106332893D01*
X171653413Y-106276890D01*
X171692053Y-106209965D01*
X171703347Y-106197421D01*
X171713535Y-106181208D01*
X171757826Y-106136916D01*
X171803917Y-106085728D01*
X171822559Y-106072183D01*
X171840208Y-106054535D01*
X171889354Y-106023654D01*
X171939162Y-105987467D01*
X171965873Y-105975574D01*
X171991893Y-105959225D01*
X172041877Y-105941734D01*
X172091889Y-105919468D01*
X172126592Y-105912091D01*
X172160983Y-105900058D01*
X172208281Y-105894728D01*
X172255412Y-105884711D01*
X172297189Y-105884711D01*
X172339000Y-105880000D01*
X172380811Y-105884711D01*
G37*
G36*
X174920811Y-105884711D02*
G01*
X174962588Y-105884711D01*
X175009718Y-105894728D01*
X175057017Y-105900058D01*
X175091408Y-105912092D01*
X175126110Y-105919468D01*
X175176117Y-105941733D01*
X175226107Y-105959225D01*
X175252128Y-105975575D01*
X175278835Y-105987466D01*
X175328633Y-106023646D01*
X175377792Y-106054535D01*
X175395444Y-106072187D01*
X175414084Y-106085730D01*
X175460165Y-106136908D01*
X175504465Y-106181208D01*
X175514654Y-106197424D01*
X175525946Y-106209965D01*
X175564573Y-106276870D01*
X175599775Y-106332893D01*
X175604170Y-106345453D01*
X175609535Y-106354746D01*
X175637010Y-106439305D01*
X175658942Y-106501983D01*
X175659773Y-106509363D01*
X175661195Y-106513738D01*
X175674076Y-106636306D01*
X175679000Y-106680000D01*
X175674076Y-106723697D01*
X175661195Y-106846261D01*
X175659773Y-106850635D01*
X175658942Y-106858017D01*
X175637005Y-106920707D01*
X175609535Y-107005253D01*
X175604171Y-107014543D01*
X175599775Y-107027107D01*
X175564566Y-107083140D01*
X175525946Y-107150034D01*
X175514656Y-107162572D01*
X175504465Y-107178792D01*
X175460155Y-107223101D01*
X175414084Y-107274269D01*
X175395448Y-107287808D01*
X175377792Y-107305465D01*
X175328623Y-107336359D01*
X175278835Y-107372533D01*
X175252134Y-107384421D01*
X175226107Y-107400775D01*
X175176107Y-107418270D01*
X175126110Y-107440531D01*
X175091414Y-107447905D01*
X175057017Y-107459942D01*
X175009715Y-107465271D01*
X174962588Y-107475289D01*
X174920811Y-107475289D01*
X174879000Y-107480000D01*
X174837189Y-107475289D01*
X174795412Y-107475289D01*
X174748284Y-107465271D01*
X174700983Y-107459942D01*
X174666586Y-107447906D01*
X174631889Y-107440531D01*
X174581887Y-107418268D01*
X174531893Y-107400775D01*
X174505868Y-107384422D01*
X174479164Y-107372533D01*
X174429369Y-107336355D01*
X174380208Y-107305465D01*
X174362554Y-107287811D01*
X174343915Y-107274269D01*
X174297833Y-107223090D01*
X174253535Y-107178792D01*
X174243345Y-107162575D01*
X174232053Y-107150034D01*
X174193420Y-107083120D01*
X174158225Y-107027107D01*
X174153830Y-107014547D01*
X174148464Y-107005253D01*
X174120980Y-106920667D01*
X174099058Y-106858017D01*
X174098226Y-106850639D01*
X174096804Y-106846261D01*
X174083908Y-106723565D01*
X174079000Y-106680000D01*
X174083908Y-106636438D01*
X174096804Y-106513738D01*
X174098226Y-106509358D01*
X174099058Y-106501983D01*
X174120975Y-106439345D01*
X174148464Y-106354746D01*
X174153831Y-106345449D01*
X174158225Y-106332893D01*
X174193413Y-106276890D01*
X174232053Y-106209965D01*
X174243347Y-106197421D01*
X174253535Y-106181208D01*
X174297826Y-106136916D01*
X174343917Y-106085728D01*
X174362559Y-106072183D01*
X174380208Y-106054535D01*
X174429354Y-106023654D01*
X174479162Y-105987467D01*
X174505873Y-105975574D01*
X174531893Y-105959225D01*
X174581877Y-105941734D01*
X174631889Y-105919468D01*
X174666592Y-105912091D01*
X174700983Y-105900058D01*
X174748281Y-105894728D01*
X174795412Y-105884711D01*
X174837189Y-105884711D01*
X174879000Y-105880000D01*
X174920811Y-105884711D01*
G37*
G36*
X178219000Y-107480000D02*
G01*
X176619000Y-107480000D01*
X176619000Y-105880000D01*
X178219000Y-105880000D01*
X178219000Y-107480000D01*
G37*
G36*
X187517100Y-106163464D02*
G01*
X187565860Y-106169121D01*
X187582520Y-106176477D01*
X187605529Y-106181054D01*
X187630161Y-106197513D01*
X187649414Y-106206014D01*
X187662564Y-106219164D01*
X187684607Y-106233893D01*
X187699335Y-106255935D01*
X187712485Y-106269085D01*
X187720985Y-106288336D01*
X187737446Y-106312971D01*
X187742023Y-106335981D01*
X187749378Y-106352639D01*
X187755033Y-106401389D01*
X187756000Y-106406250D01*
X187756000Y-106893750D01*
X187755032Y-106898612D01*
X187749378Y-106947360D01*
X187742023Y-106964016D01*
X187737446Y-106987029D01*
X187720983Y-107011665D01*
X187712485Y-107030914D01*
X187699337Y-107044061D01*
X187684607Y-107066107D01*
X187662561Y-107080837D01*
X187649414Y-107093985D01*
X187630165Y-107102483D01*
X187605529Y-107118946D01*
X187582516Y-107123523D01*
X187565860Y-107130878D01*
X187517111Y-107136532D01*
X187512250Y-107137500D01*
X186599750Y-107137500D01*
X186594888Y-107136532D01*
X186546139Y-107130878D01*
X186529481Y-107123523D01*
X186506471Y-107118946D01*
X186481836Y-107102485D01*
X186462585Y-107093985D01*
X186449435Y-107080835D01*
X186427393Y-107066107D01*
X186412664Y-107044064D01*
X186399514Y-107030914D01*
X186391013Y-107011661D01*
X186374554Y-106987029D01*
X186369977Y-106964020D01*
X186362621Y-106947360D01*
X186356964Y-106898599D01*
X186356000Y-106893750D01*
X186356000Y-106406250D01*
X186356964Y-106401400D01*
X186362621Y-106352639D01*
X186369977Y-106335977D01*
X186374554Y-106312971D01*
X186391011Y-106288340D01*
X186399514Y-106269085D01*
X186412666Y-106255932D01*
X186427393Y-106233893D01*
X186449432Y-106219166D01*
X186462585Y-106206014D01*
X186481840Y-106197511D01*
X186506471Y-106181054D01*
X186529477Y-106176477D01*
X186546139Y-106169121D01*
X186594901Y-106163464D01*
X186599750Y-106162500D01*
X187512250Y-106162500D01*
X187517100Y-106163464D01*
G37*
G36*
X164283903Y-106523418D02*
G01*
X164332566Y-106555934D01*
X164365082Y-106604597D01*
X164376500Y-106662000D01*
X164376500Y-106962000D01*
X164365082Y-107019403D01*
X164332566Y-107068066D01*
X164283903Y-107100582D01*
X164226500Y-107112000D01*
X163201500Y-107112000D01*
X163144097Y-107100582D01*
X163095434Y-107068066D01*
X163062918Y-107019403D01*
X163051500Y-106962000D01*
X163051500Y-106662000D01*
X163062918Y-106604597D01*
X163095434Y-106555934D01*
X163144097Y-106523418D01*
X163201500Y-106512000D01*
X164226500Y-106512000D01*
X164283903Y-106523418D01*
G37*
G36*
X166558903Y-106523418D02*
G01*
X166607566Y-106555934D01*
X166640082Y-106604597D01*
X166651500Y-106662000D01*
X166651500Y-106962000D01*
X166640082Y-107019403D01*
X166607566Y-107068066D01*
X166558903Y-107100582D01*
X166501500Y-107112000D01*
X165476500Y-107112000D01*
X165419097Y-107100582D01*
X165370434Y-107068066D01*
X165337918Y-107019403D01*
X165326500Y-106962000D01*
X165326500Y-106662000D01*
X165337918Y-106604597D01*
X165370434Y-106555934D01*
X165419097Y-106523418D01*
X165476500Y-106512000D01*
X166501500Y-106512000D01*
X166558903Y-106523418D01*
G37*
G36*
X181244000Y-106114000D02*
G01*
X179944000Y-106114000D01*
X179944000Y-105214000D01*
X181244000Y-105214000D01*
X181244000Y-106114000D01*
G37*
G36*
X166468850Y-104590964D02*
G01*
X166519040Y-104596787D01*
X166536189Y-104604359D01*
X166559671Y-104609030D01*
X166584810Y-104625827D01*
X166604696Y-104634608D01*
X166618277Y-104648189D01*
X166640777Y-104663223D01*
X166655810Y-104685722D01*
X166669391Y-104699303D01*
X166678170Y-104719186D01*
X166694970Y-104744329D01*
X166699641Y-104767812D01*
X166707212Y-104784959D01*
X166713033Y-104835139D01*
X166714000Y-104840000D01*
X166714000Y-105340000D01*
X166713032Y-105344863D01*
X166707212Y-105395040D01*
X166699641Y-105412185D01*
X166694970Y-105435671D01*
X166678169Y-105460815D01*
X166669391Y-105480696D01*
X166655812Y-105494274D01*
X166640777Y-105516777D01*
X166618274Y-105531812D01*
X166604696Y-105545391D01*
X166584815Y-105554169D01*
X166559671Y-105570970D01*
X166536185Y-105575641D01*
X166519040Y-105583212D01*
X166468861Y-105589032D01*
X166464000Y-105590000D01*
X165514000Y-105590000D01*
X165509138Y-105589032D01*
X165458959Y-105583212D01*
X165441812Y-105575641D01*
X165418329Y-105570970D01*
X165393186Y-105554170D01*
X165373303Y-105545391D01*
X165359722Y-105531810D01*
X165337223Y-105516777D01*
X165322189Y-105494277D01*
X165308608Y-105480696D01*
X165299827Y-105460810D01*
X165283030Y-105435671D01*
X165278359Y-105412189D01*
X165270787Y-105395040D01*
X165264964Y-105344849D01*
X165264000Y-105340000D01*
X165264000Y-104840000D01*
X165264964Y-104835150D01*
X165270787Y-104784959D01*
X165278359Y-104767808D01*
X165283030Y-104744329D01*
X165299826Y-104719191D01*
X165308608Y-104699303D01*
X165322191Y-104685719D01*
X165337223Y-104663223D01*
X165359719Y-104648191D01*
X165373303Y-104634608D01*
X165393191Y-104625826D01*
X165418329Y-104609030D01*
X165441808Y-104604359D01*
X165458959Y-104596787D01*
X165509151Y-104590964D01*
X165514000Y-104590000D01*
X166464000Y-104590000D01*
X166468850Y-104590964D01*
G37*
G36*
X187517100Y-104288464D02*
G01*
X187565860Y-104294121D01*
X187582520Y-104301477D01*
X187605529Y-104306054D01*
X187630161Y-104322513D01*
X187649414Y-104331014D01*
X187662564Y-104344164D01*
X187684607Y-104358893D01*
X187699335Y-104380935D01*
X187712485Y-104394085D01*
X187720985Y-104413336D01*
X187737446Y-104437971D01*
X187742023Y-104460981D01*
X187749378Y-104477639D01*
X187755033Y-104526389D01*
X187756000Y-104531250D01*
X187756000Y-105018750D01*
X187755032Y-105023612D01*
X187749378Y-105072360D01*
X187742023Y-105089016D01*
X187737446Y-105112029D01*
X187720983Y-105136665D01*
X187712485Y-105155914D01*
X187699337Y-105169061D01*
X187684607Y-105191107D01*
X187662561Y-105205837D01*
X187649414Y-105218985D01*
X187630165Y-105227483D01*
X187605529Y-105243946D01*
X187582516Y-105248523D01*
X187565860Y-105255878D01*
X187517111Y-105261532D01*
X187512250Y-105262500D01*
X186599750Y-105262500D01*
X186594888Y-105261532D01*
X186546139Y-105255878D01*
X186529481Y-105248523D01*
X186506471Y-105243946D01*
X186481836Y-105227485D01*
X186462585Y-105218985D01*
X186449435Y-105205835D01*
X186427393Y-105191107D01*
X186412664Y-105169064D01*
X186399514Y-105155914D01*
X186391013Y-105136661D01*
X186374554Y-105112029D01*
X186369977Y-105089020D01*
X186362621Y-105072360D01*
X186356964Y-105023599D01*
X186356000Y-105018750D01*
X186356000Y-104531250D01*
X186356964Y-104526400D01*
X186362621Y-104477639D01*
X186369977Y-104460977D01*
X186374554Y-104437971D01*
X186391011Y-104413340D01*
X186399514Y-104394085D01*
X186412666Y-104380932D01*
X186427393Y-104358893D01*
X186449432Y-104344166D01*
X186462585Y-104331014D01*
X186481840Y-104322511D01*
X186506471Y-104306054D01*
X186529477Y-104301477D01*
X186546139Y-104294121D01*
X186594901Y-104288464D01*
X186599750Y-104287500D01*
X187512250Y-104287500D01*
X187517100Y-104288464D01*
G37*
G36*
X172352350Y-103313964D02*
G01*
X172402540Y-103319787D01*
X172419689Y-103327359D01*
X172443171Y-103332030D01*
X172468310Y-103348827D01*
X172488196Y-103357608D01*
X172501777Y-103371189D01*
X172524277Y-103386223D01*
X172539310Y-103408722D01*
X172552891Y-103422303D01*
X172561670Y-103442186D01*
X172578470Y-103467329D01*
X172583141Y-103490812D01*
X172590712Y-103507959D01*
X172596533Y-103558139D01*
X172597500Y-103563000D01*
X172597500Y-104463000D01*
X172596532Y-104467863D01*
X172590712Y-104518040D01*
X172583141Y-104535185D01*
X172578470Y-104558671D01*
X172561669Y-104583815D01*
X172552891Y-104603696D01*
X172539312Y-104617274D01*
X172524277Y-104639777D01*
X172501774Y-104654812D01*
X172488196Y-104668391D01*
X172468315Y-104677169D01*
X172443171Y-104693970D01*
X172419685Y-104698641D01*
X172402540Y-104706212D01*
X172352361Y-104712032D01*
X172347500Y-104713000D01*
X171822500Y-104713000D01*
X171817638Y-104712032D01*
X171767459Y-104706212D01*
X171750312Y-104698641D01*
X171726829Y-104693970D01*
X171701686Y-104677170D01*
X171681803Y-104668391D01*
X171668222Y-104654810D01*
X171645723Y-104639777D01*
X171630689Y-104617277D01*
X171617108Y-104603696D01*
X171608327Y-104583810D01*
X171591530Y-104558671D01*
X171586859Y-104535189D01*
X171579287Y-104518040D01*
X171573464Y-104467849D01*
X171572500Y-104463000D01*
X171572500Y-103563000D01*
X171573464Y-103558150D01*
X171579287Y-103507959D01*
X171586859Y-103490808D01*
X171591530Y-103467329D01*
X171608326Y-103442191D01*
X171617108Y-103422303D01*
X171630691Y-103408719D01*
X171645723Y-103386223D01*
X171668219Y-103371191D01*
X171681803Y-103357608D01*
X171701691Y-103348826D01*
X171726829Y-103332030D01*
X171750308Y-103327359D01*
X171767459Y-103319787D01*
X171817651Y-103313964D01*
X171822500Y-103313000D01*
X172347500Y-103313000D01*
X172352350Y-103313964D01*
G37*
G36*
X174177350Y-103313964D02*
G01*
X174227540Y-103319787D01*
X174244689Y-103327359D01*
X174268171Y-103332030D01*
X174293310Y-103348827D01*
X174313196Y-103357608D01*
X174326777Y-103371189D01*
X174349277Y-103386223D01*
X174364310Y-103408722D01*
X174377891Y-103422303D01*
X174386670Y-103442186D01*
X174403470Y-103467329D01*
X174408141Y-103490812D01*
X174415712Y-103507959D01*
X174421533Y-103558139D01*
X174422500Y-103563000D01*
X174422500Y-104463000D01*
X174421532Y-104467863D01*
X174415712Y-104518040D01*
X174408141Y-104535185D01*
X174403470Y-104558671D01*
X174386669Y-104583815D01*
X174377891Y-104603696D01*
X174364312Y-104617274D01*
X174349277Y-104639777D01*
X174326774Y-104654812D01*
X174313196Y-104668391D01*
X174293315Y-104677169D01*
X174268171Y-104693970D01*
X174244685Y-104698641D01*
X174227540Y-104706212D01*
X174177361Y-104712032D01*
X174172500Y-104713000D01*
X173647500Y-104713000D01*
X173642638Y-104712032D01*
X173592459Y-104706212D01*
X173575312Y-104698641D01*
X173551829Y-104693970D01*
X173526686Y-104677170D01*
X173506803Y-104668391D01*
X173493222Y-104654810D01*
X173470723Y-104639777D01*
X173455689Y-104617277D01*
X173442108Y-104603696D01*
X173433327Y-104583810D01*
X173416530Y-104558671D01*
X173411859Y-104535189D01*
X173404287Y-104518040D01*
X173398464Y-104467849D01*
X173397500Y-104463000D01*
X173397500Y-103563000D01*
X173398464Y-103558150D01*
X173404287Y-103507959D01*
X173411859Y-103490808D01*
X173416530Y-103467329D01*
X173433326Y-103442191D01*
X173442108Y-103422303D01*
X173455691Y-103408719D01*
X173470723Y-103386223D01*
X173493219Y-103371191D01*
X173506803Y-103357608D01*
X173526691Y-103348826D01*
X173551829Y-103332030D01*
X173575308Y-103327359D01*
X173592459Y-103319787D01*
X173642651Y-103313964D01*
X173647500Y-103313000D01*
X174172500Y-103313000D01*
X174177350Y-103313964D01*
G37*
G36*
X176265850Y-103313964D02*
G01*
X176316040Y-103319787D01*
X176333189Y-103327359D01*
X176356671Y-103332030D01*
X176381810Y-103348827D01*
X176401696Y-103357608D01*
X176415277Y-103371189D01*
X176437777Y-103386223D01*
X176452810Y-103408722D01*
X176466391Y-103422303D01*
X176475170Y-103442186D01*
X176491970Y-103467329D01*
X176496641Y-103490812D01*
X176504212Y-103507959D01*
X176510033Y-103558139D01*
X176511000Y-103563000D01*
X176511000Y-104463000D01*
X176510032Y-104467863D01*
X176504212Y-104518040D01*
X176496641Y-104535185D01*
X176491970Y-104558671D01*
X176475169Y-104583815D01*
X176466391Y-104603696D01*
X176452812Y-104617274D01*
X176437777Y-104639777D01*
X176415274Y-104654812D01*
X176401696Y-104668391D01*
X176381815Y-104677169D01*
X176356671Y-104693970D01*
X176333185Y-104698641D01*
X176316040Y-104706212D01*
X176265861Y-104712032D01*
X176261000Y-104713000D01*
X175736000Y-104713000D01*
X175731138Y-104712032D01*
X175680959Y-104706212D01*
X175663812Y-104698641D01*
X175640329Y-104693970D01*
X175615186Y-104677170D01*
X175595303Y-104668391D01*
X175581722Y-104654810D01*
X175559223Y-104639777D01*
X175544189Y-104617277D01*
X175530608Y-104603696D01*
X175521827Y-104583810D01*
X175505030Y-104558671D01*
X175500359Y-104535189D01*
X175492787Y-104518040D01*
X175486964Y-104467849D01*
X175486000Y-104463000D01*
X175486000Y-103563000D01*
X175486964Y-103558150D01*
X175492787Y-103507959D01*
X175500359Y-103490808D01*
X175505030Y-103467329D01*
X175521826Y-103442191D01*
X175530608Y-103422303D01*
X175544191Y-103408719D01*
X175559223Y-103386223D01*
X175581719Y-103371191D01*
X175595303Y-103357608D01*
X175615191Y-103348826D01*
X175640329Y-103332030D01*
X175663808Y-103327359D01*
X175680959Y-103319787D01*
X175731151Y-103313964D01*
X175736000Y-103313000D01*
X176261000Y-103313000D01*
X176265850Y-103313964D01*
G37*
G36*
X178090850Y-103313964D02*
G01*
X178141040Y-103319787D01*
X178158189Y-103327359D01*
X178181671Y-103332030D01*
X178206810Y-103348827D01*
X178226696Y-103357608D01*
X178240277Y-103371189D01*
X178262777Y-103386223D01*
X178277810Y-103408722D01*
X178291391Y-103422303D01*
X178300170Y-103442186D01*
X178316970Y-103467329D01*
X178321641Y-103490812D01*
X178329212Y-103507959D01*
X178335033Y-103558139D01*
X178336000Y-103563000D01*
X178336000Y-104463000D01*
X178335032Y-104467863D01*
X178329212Y-104518040D01*
X178321641Y-104535185D01*
X178316970Y-104558671D01*
X178300169Y-104583815D01*
X178291391Y-104603696D01*
X178277812Y-104617274D01*
X178262777Y-104639777D01*
X178240274Y-104654812D01*
X178226696Y-104668391D01*
X178206815Y-104677169D01*
X178181671Y-104693970D01*
X178158185Y-104698641D01*
X178141040Y-104706212D01*
X178090861Y-104712032D01*
X178086000Y-104713000D01*
X177561000Y-104713000D01*
X177556138Y-104712032D01*
X177505959Y-104706212D01*
X177488812Y-104698641D01*
X177465329Y-104693970D01*
X177440186Y-104677170D01*
X177420303Y-104668391D01*
X177406722Y-104654810D01*
X177384223Y-104639777D01*
X177369189Y-104617277D01*
X177355608Y-104603696D01*
X177346827Y-104583810D01*
X177330030Y-104558671D01*
X177325359Y-104535189D01*
X177317787Y-104518040D01*
X177311964Y-104467849D01*
X177311000Y-104463000D01*
X177311000Y-103563000D01*
X177311964Y-103558150D01*
X177317787Y-103507959D01*
X177325359Y-103490808D01*
X177330030Y-103467329D01*
X177346826Y-103442191D01*
X177355608Y-103422303D01*
X177369191Y-103408719D01*
X177384223Y-103386223D01*
X177406719Y-103371191D01*
X177420303Y-103357608D01*
X177440191Y-103348826D01*
X177465329Y-103332030D01*
X177488808Y-103327359D01*
X177505959Y-103319787D01*
X177556151Y-103313964D01*
X177561000Y-103313000D01*
X178086000Y-103313000D01*
X178090850Y-103313964D01*
G37*
G36*
X162293467Y-102173128D02*
G01*
X162458400Y-102246560D01*
X162604461Y-102352680D01*
X162725267Y-102486849D01*
X162815538Y-102643202D01*
X162871328Y-102814907D01*
X162890200Y-102994460D01*
X162871328Y-103174013D01*
X162815538Y-103345718D01*
X162725267Y-103502071D01*
X162604461Y-103636240D01*
X162458400Y-103742360D01*
X162293467Y-103815792D01*
X162116871Y-103853329D01*
X161936329Y-103853329D01*
X161759733Y-103815792D01*
X161594800Y-103742360D01*
X161448739Y-103636240D01*
X161327933Y-103502071D01*
X161237662Y-103345718D01*
X161181872Y-103174013D01*
X161163000Y-102994460D01*
X161181872Y-102814907D01*
X161237662Y-102643202D01*
X161327933Y-102486849D01*
X161448739Y-102352680D01*
X161594800Y-102246560D01*
X161759733Y-102173128D01*
X161936329Y-102135591D01*
X162116871Y-102135591D01*
X162293467Y-102173128D01*
G37*
G36*
X184289867Y-102173128D02*
G01*
X184454800Y-102246560D01*
X184600861Y-102352680D01*
X184721667Y-102486849D01*
X184811938Y-102643202D01*
X184867728Y-102814907D01*
X184886600Y-102994460D01*
X184867728Y-103174013D01*
X184811938Y-103345718D01*
X184721667Y-103502071D01*
X184600861Y-103636240D01*
X184454800Y-103742360D01*
X184289867Y-103815792D01*
X184113271Y-103853329D01*
X183932729Y-103853329D01*
X183756133Y-103815792D01*
X183591200Y-103742360D01*
X183445139Y-103636240D01*
X183324333Y-103502071D01*
X183234062Y-103345718D01*
X183178272Y-103174013D01*
X183159400Y-102994460D01*
X183178272Y-102814907D01*
X183234062Y-102643202D01*
X183324333Y-102486849D01*
X183445139Y-102352680D01*
X183591200Y-102246560D01*
X183756133Y-102173128D01*
X183932729Y-102135591D01*
X184113271Y-102135591D01*
X184289867Y-102173128D01*
G37*
G36*
X166468850Y-102690964D02*
G01*
X166519040Y-102696787D01*
X166536189Y-102704359D01*
X166559671Y-102709030D01*
X166584810Y-102725827D01*
X166604696Y-102734608D01*
X166618277Y-102748189D01*
X166640777Y-102763223D01*
X166655810Y-102785722D01*
X166669391Y-102799303D01*
X166678170Y-102819186D01*
X166694970Y-102844329D01*
X166699641Y-102867812D01*
X166707212Y-102884959D01*
X166713033Y-102935139D01*
X166714000Y-102940000D01*
X166714000Y-103440000D01*
X166713032Y-103444863D01*
X166707212Y-103495040D01*
X166699641Y-103512185D01*
X166694970Y-103535671D01*
X166678169Y-103560815D01*
X166669391Y-103580696D01*
X166655812Y-103594274D01*
X166640777Y-103616777D01*
X166618274Y-103631812D01*
X166604696Y-103645391D01*
X166584815Y-103654169D01*
X166559671Y-103670970D01*
X166536185Y-103675641D01*
X166519040Y-103683212D01*
X166468861Y-103689032D01*
X166464000Y-103690000D01*
X165514000Y-103690000D01*
X165509138Y-103689032D01*
X165458959Y-103683212D01*
X165441812Y-103675641D01*
X165418329Y-103670970D01*
X165393186Y-103654170D01*
X165373303Y-103645391D01*
X165359722Y-103631810D01*
X165337223Y-103616777D01*
X165322189Y-103594277D01*
X165308608Y-103580696D01*
X165299827Y-103560810D01*
X165283030Y-103535671D01*
X165278359Y-103512189D01*
X165270787Y-103495040D01*
X165264964Y-103444849D01*
X165264000Y-103440000D01*
X165264000Y-102940000D01*
X165264964Y-102935150D01*
X165270787Y-102884959D01*
X165278359Y-102867808D01*
X165283030Y-102844329D01*
X165299826Y-102819191D01*
X165308608Y-102799303D01*
X165322191Y-102785719D01*
X165337223Y-102763223D01*
X165359719Y-102748191D01*
X165373303Y-102734608D01*
X165393191Y-102725826D01*
X165418329Y-102709030D01*
X165441808Y-102704359D01*
X165458959Y-102696787D01*
X165509151Y-102690964D01*
X165514000Y-102690000D01*
X166464000Y-102690000D01*
X166468850Y-102690964D01*
G37*
G36*
X178769403Y-100492918D02*
G01*
X178818066Y-100525434D01*
X178850582Y-100574097D01*
X178862000Y-100631500D01*
X178862000Y-101806500D01*
X178850582Y-101863903D01*
X178818066Y-101912566D01*
X178769403Y-101945082D01*
X178712000Y-101956500D01*
X178412000Y-101956500D01*
X178354597Y-101945082D01*
X178305934Y-101912566D01*
X178273418Y-101863903D01*
X178262000Y-101806500D01*
X178262000Y-100631500D01*
X178273418Y-100574097D01*
X178305934Y-100525434D01*
X178354597Y-100492918D01*
X178412000Y-100481500D01*
X178712000Y-100481500D01*
X178769403Y-100492918D01*
G37*
G36*
X162293467Y-100174148D02*
G01*
X162458400Y-100247580D01*
X162604461Y-100353700D01*
X162725267Y-100487869D01*
X162815538Y-100644222D01*
X162871328Y-100815927D01*
X162890200Y-100995480D01*
X162871328Y-101175033D01*
X162815538Y-101346738D01*
X162725267Y-101503091D01*
X162604461Y-101637260D01*
X162458400Y-101743380D01*
X162293467Y-101816812D01*
X162116871Y-101854349D01*
X161936329Y-101854349D01*
X161759733Y-101816812D01*
X161594800Y-101743380D01*
X161448739Y-101637260D01*
X161327933Y-101503091D01*
X161237662Y-101346738D01*
X161181872Y-101175033D01*
X161163000Y-100995480D01*
X161181872Y-100815927D01*
X161237662Y-100644222D01*
X161327933Y-100487869D01*
X161448739Y-100353700D01*
X161594800Y-100247580D01*
X161759733Y-100174148D01*
X161936329Y-100136611D01*
X162116871Y-100136611D01*
X162293467Y-100174148D01*
G37*
G36*
X184289867Y-100174148D02*
G01*
X184454800Y-100247580D01*
X184600861Y-100353700D01*
X184721667Y-100487869D01*
X184811938Y-100644222D01*
X184867728Y-100815927D01*
X184886600Y-100995480D01*
X184867728Y-101175033D01*
X184811938Y-101346738D01*
X184721667Y-101503091D01*
X184600861Y-101637260D01*
X184454800Y-101743380D01*
X184289867Y-101816812D01*
X184113271Y-101854349D01*
X183932729Y-101854349D01*
X183756133Y-101816812D01*
X183591200Y-101743380D01*
X183445139Y-101637260D01*
X183324333Y-101503091D01*
X183234062Y-101346738D01*
X183178272Y-101175033D01*
X183159400Y-100995480D01*
X183178272Y-100815927D01*
X183234062Y-100644222D01*
X183324333Y-100487869D01*
X183445139Y-100353700D01*
X183591200Y-100247580D01*
X183756133Y-100174148D01*
X183932729Y-100136611D01*
X184113271Y-100136611D01*
X184289867Y-100174148D01*
G37*
G36*
X177819403Y-98617918D02*
G01*
X177868066Y-98650434D01*
X177900582Y-98699097D01*
X177912000Y-98756500D01*
X177912000Y-99931500D01*
X177900582Y-99988903D01*
X177868066Y-100037566D01*
X177819403Y-100070082D01*
X177762000Y-100081500D01*
X177462000Y-100081500D01*
X177404597Y-100070082D01*
X177355934Y-100037566D01*
X177323418Y-99988903D01*
X177312000Y-99931500D01*
X177312000Y-98756500D01*
X177323418Y-98699097D01*
X177355934Y-98650434D01*
X177404597Y-98617918D01*
X177462000Y-98606500D01*
X177762000Y-98606500D01*
X177819403Y-98617918D01*
G37*
G36*
X179719403Y-98617918D02*
G01*
X179768066Y-98650434D01*
X179800582Y-98699097D01*
X179812000Y-98756500D01*
X179812000Y-99931500D01*
X179800582Y-99988903D01*
X179768066Y-100037566D01*
X179719403Y-100070082D01*
X179662000Y-100081500D01*
X179362000Y-100081500D01*
X179304597Y-100070082D01*
X179255934Y-100037566D01*
X179223418Y-99988903D01*
X179212000Y-99931500D01*
X179212000Y-98756500D01*
X179223418Y-98699097D01*
X179255934Y-98650434D01*
X179304597Y-98617918D01*
X179362000Y-98606500D01*
X179662000Y-98606500D01*
X179719403Y-98617918D01*
G37*
G36*
X162293467Y-98172628D02*
G01*
X162458400Y-98246060D01*
X162604461Y-98352180D01*
X162725267Y-98486349D01*
X162815538Y-98642702D01*
X162871328Y-98814407D01*
X162890200Y-98993960D01*
X162871328Y-99173513D01*
X162815538Y-99345218D01*
X162725267Y-99501571D01*
X162604461Y-99635740D01*
X162458400Y-99741860D01*
X162293467Y-99815292D01*
X162116871Y-99852829D01*
X161936329Y-99852829D01*
X161759733Y-99815292D01*
X161594800Y-99741860D01*
X161448739Y-99635740D01*
X161327933Y-99501571D01*
X161237662Y-99345218D01*
X161181872Y-99173513D01*
X161163000Y-98993960D01*
X161181872Y-98814407D01*
X161237662Y-98642702D01*
X161327933Y-98486349D01*
X161448739Y-98352180D01*
X161594800Y-98246060D01*
X161759733Y-98172628D01*
X161936329Y-98135091D01*
X162116871Y-98135091D01*
X162293467Y-98172628D01*
G37*
G36*
X184289867Y-98172628D02*
G01*
X184454800Y-98246060D01*
X184600861Y-98352180D01*
X184721667Y-98486349D01*
X184811938Y-98642702D01*
X184867728Y-98814407D01*
X184886600Y-98993960D01*
X184867728Y-99173513D01*
X184811938Y-99345218D01*
X184721667Y-99501571D01*
X184600861Y-99635740D01*
X184454800Y-99741860D01*
X184289867Y-99815292D01*
X184113271Y-99852829D01*
X183932729Y-99852829D01*
X183756133Y-99815292D01*
X183591200Y-99741860D01*
X183445139Y-99635740D01*
X183324333Y-99501571D01*
X183234062Y-99345218D01*
X183178272Y-99173513D01*
X183159400Y-98993960D01*
X183178272Y-98814407D01*
X183234062Y-98642702D01*
X183324333Y-98486349D01*
X183445139Y-98352180D01*
X183591200Y-98246060D01*
X183756133Y-98172628D01*
X183932729Y-98135091D01*
X184113271Y-98135091D01*
X184289867Y-98172628D01*
G37*
G36*
X177916850Y-96455964D02*
G01*
X177967040Y-96461787D01*
X177984189Y-96469359D01*
X178007671Y-96474030D01*
X178032810Y-96490827D01*
X178052696Y-96499608D01*
X178066277Y-96513189D01*
X178088777Y-96528223D01*
X178103810Y-96550722D01*
X178117391Y-96564303D01*
X178126170Y-96584186D01*
X178142970Y-96609329D01*
X178147641Y-96632812D01*
X178155212Y-96649959D01*
X178161033Y-96700139D01*
X178162000Y-96705000D01*
X178162000Y-97605000D01*
X178161032Y-97609863D01*
X178155212Y-97660040D01*
X178147641Y-97677185D01*
X178142970Y-97700671D01*
X178126169Y-97725815D01*
X178117391Y-97745696D01*
X178103812Y-97759274D01*
X178088777Y-97781777D01*
X178066274Y-97796812D01*
X178052696Y-97810391D01*
X178032815Y-97819169D01*
X178007671Y-97835970D01*
X177984185Y-97840641D01*
X177967040Y-97848212D01*
X177916861Y-97854032D01*
X177912000Y-97855000D01*
X177387000Y-97855000D01*
X177382138Y-97854032D01*
X177331959Y-97848212D01*
X177314812Y-97840641D01*
X177291329Y-97835970D01*
X177266186Y-97819170D01*
X177246303Y-97810391D01*
X177232722Y-97796810D01*
X177210223Y-97781777D01*
X177195189Y-97759277D01*
X177181608Y-97745696D01*
X177172827Y-97725810D01*
X177156030Y-97700671D01*
X177151359Y-97677189D01*
X177143787Y-97660040D01*
X177137964Y-97609849D01*
X177137000Y-97605000D01*
X177137000Y-96705000D01*
X177137964Y-96700150D01*
X177143787Y-96649959D01*
X177151359Y-96632808D01*
X177156030Y-96609329D01*
X177172826Y-96584191D01*
X177181608Y-96564303D01*
X177195191Y-96550719D01*
X177210223Y-96528223D01*
X177232719Y-96513191D01*
X177246303Y-96499608D01*
X177266191Y-96490826D01*
X177291329Y-96474030D01*
X177314808Y-96469359D01*
X177331959Y-96461787D01*
X177382151Y-96455964D01*
X177387000Y-96455000D01*
X177912000Y-96455000D01*
X177916850Y-96455964D01*
G37*
G36*
X179741850Y-96455964D02*
G01*
X179792040Y-96461787D01*
X179809189Y-96469359D01*
X179832671Y-96474030D01*
X179857810Y-96490827D01*
X179877696Y-96499608D01*
X179891277Y-96513189D01*
X179913777Y-96528223D01*
X179928810Y-96550722D01*
X179942391Y-96564303D01*
X179951170Y-96584186D01*
X179967970Y-96609329D01*
X179972641Y-96632812D01*
X179980212Y-96649959D01*
X179986033Y-96700139D01*
X179987000Y-96705000D01*
X179987000Y-97605000D01*
X179986032Y-97609863D01*
X179980212Y-97660040D01*
X179972641Y-97677185D01*
X179967970Y-97700671D01*
X179951169Y-97725815D01*
X179942391Y-97745696D01*
X179928812Y-97759274D01*
X179913777Y-97781777D01*
X179891274Y-97796812D01*
X179877696Y-97810391D01*
X179857815Y-97819169D01*
X179832671Y-97835970D01*
X179809185Y-97840641D01*
X179792040Y-97848212D01*
X179741861Y-97854032D01*
X179737000Y-97855000D01*
X179212000Y-97855000D01*
X179207138Y-97854032D01*
X179156959Y-97848212D01*
X179139812Y-97840641D01*
X179116329Y-97835970D01*
X179091186Y-97819170D01*
X179071303Y-97810391D01*
X179057722Y-97796810D01*
X179035223Y-97781777D01*
X179020189Y-97759277D01*
X179006608Y-97745696D01*
X178997827Y-97725810D01*
X178981030Y-97700671D01*
X178976359Y-97677189D01*
X178968787Y-97660040D01*
X178962964Y-97609849D01*
X178962000Y-97605000D01*
X178962000Y-96705000D01*
X178962964Y-96700150D01*
X178968787Y-96649959D01*
X178976359Y-96632808D01*
X178981030Y-96609329D01*
X178997826Y-96584191D01*
X179006608Y-96564303D01*
X179020191Y-96550719D01*
X179035223Y-96528223D01*
X179057719Y-96513191D01*
X179071303Y-96499608D01*
X179091191Y-96490826D01*
X179116329Y-96474030D01*
X179139808Y-96469359D01*
X179156959Y-96461787D01*
X179207151Y-96455964D01*
X179212000Y-96455000D01*
X179737000Y-96455000D01*
X179741850Y-96455964D01*
G37*
G36*
X162293467Y-96173648D02*
G01*
X162458400Y-96247080D01*
X162604461Y-96353200D01*
X162725267Y-96487369D01*
X162815538Y-96643722D01*
X162871328Y-96815427D01*
X162890200Y-96994980D01*
X162871328Y-97174533D01*
X162815538Y-97346238D01*
X162725267Y-97502591D01*
X162604461Y-97636760D01*
X162458400Y-97742880D01*
X162293467Y-97816312D01*
X162116871Y-97853849D01*
X161936329Y-97853849D01*
X161759733Y-97816312D01*
X161594800Y-97742880D01*
X161448739Y-97636760D01*
X161327933Y-97502591D01*
X161237662Y-97346238D01*
X161181872Y-97174533D01*
X161163000Y-96994980D01*
X161181872Y-96815427D01*
X161237662Y-96643722D01*
X161327933Y-96487369D01*
X161448739Y-96353200D01*
X161594800Y-96247080D01*
X161759733Y-96173648D01*
X161936329Y-96136111D01*
X162116871Y-96136111D01*
X162293467Y-96173648D01*
G37*
G36*
X184289867Y-96173648D02*
G01*
X184454800Y-96247080D01*
X184600861Y-96353200D01*
X184721667Y-96487369D01*
X184811938Y-96643722D01*
X184867728Y-96815427D01*
X184886600Y-96994980D01*
X184867728Y-97174533D01*
X184811938Y-97346238D01*
X184721667Y-97502591D01*
X184600861Y-97636760D01*
X184454800Y-97742880D01*
X184289867Y-97816312D01*
X184113271Y-97853849D01*
X183932729Y-97853849D01*
X183756133Y-97816312D01*
X183591200Y-97742880D01*
X183445139Y-97636760D01*
X183324333Y-97502591D01*
X183234062Y-97346238D01*
X183178272Y-97174533D01*
X183159400Y-96994980D01*
X183178272Y-96815427D01*
X183234062Y-96643722D01*
X183324333Y-96487369D01*
X183445139Y-96353200D01*
X183591200Y-96247080D01*
X183756133Y-96173648D01*
X183932729Y-96136111D01*
X184113271Y-96136111D01*
X184289867Y-96173648D01*
G37*
G36*
X162293467Y-94172128D02*
G01*
X162458400Y-94245560D01*
X162604461Y-94351680D01*
X162725267Y-94485849D01*
X162815538Y-94642202D01*
X162871328Y-94813907D01*
X162890200Y-94993460D01*
X162871328Y-95173013D01*
X162815538Y-95344718D01*
X162725267Y-95501071D01*
X162604461Y-95635240D01*
X162458400Y-95741360D01*
X162293467Y-95814792D01*
X162116871Y-95852329D01*
X161936329Y-95852329D01*
X161759733Y-95814792D01*
X161594800Y-95741360D01*
X161448739Y-95635240D01*
X161327933Y-95501071D01*
X161237662Y-95344718D01*
X161181872Y-95173013D01*
X161163000Y-94993460D01*
X161181872Y-94813907D01*
X161237662Y-94642202D01*
X161327933Y-94485849D01*
X161448739Y-94351680D01*
X161594800Y-94245560D01*
X161759733Y-94172128D01*
X161936329Y-94134591D01*
X162116871Y-94134591D01*
X162293467Y-94172128D01*
G37*
G36*
X184289867Y-94172128D02*
G01*
X184454800Y-94245560D01*
X184600861Y-94351680D01*
X184721667Y-94485849D01*
X184811938Y-94642202D01*
X184867728Y-94813907D01*
X184886600Y-94993460D01*
X184867728Y-95173013D01*
X184811938Y-95344718D01*
X184721667Y-95501071D01*
X184600861Y-95635240D01*
X184454800Y-95741360D01*
X184289867Y-95814792D01*
X184113271Y-95852329D01*
X183932729Y-95852329D01*
X183756133Y-95814792D01*
X183591200Y-95741360D01*
X183445139Y-95635240D01*
X183324333Y-95501071D01*
X183234062Y-95344718D01*
X183178272Y-95173013D01*
X183159400Y-94993460D01*
X183178272Y-94813907D01*
X183234062Y-94642202D01*
X183324333Y-94485849D01*
X183445139Y-94351680D01*
X183591200Y-94245560D01*
X183756133Y-94172128D01*
X183932729Y-94134591D01*
X184113271Y-94134591D01*
X184289867Y-94172128D01*
G37*
G36*
X162293467Y-92173148D02*
G01*
X162458400Y-92246580D01*
X162604461Y-92352700D01*
X162725267Y-92486869D01*
X162815538Y-92643222D01*
X162871328Y-92814927D01*
X162890200Y-92994480D01*
X162871328Y-93174033D01*
X162815538Y-93345738D01*
X162725267Y-93502091D01*
X162604461Y-93636260D01*
X162458400Y-93742380D01*
X162293467Y-93815812D01*
X162116871Y-93853349D01*
X161936329Y-93853349D01*
X161759733Y-93815812D01*
X161594800Y-93742380D01*
X161448739Y-93636260D01*
X161327933Y-93502091D01*
X161237662Y-93345738D01*
X161181872Y-93174033D01*
X161163000Y-92994480D01*
X161181872Y-92814927D01*
X161237662Y-92643222D01*
X161327933Y-92486869D01*
X161448739Y-92352700D01*
X161594800Y-92246580D01*
X161759733Y-92173148D01*
X161936329Y-92135611D01*
X162116871Y-92135611D01*
X162293467Y-92173148D01*
G37*
G36*
X184289867Y-92173148D02*
G01*
X184454800Y-92246580D01*
X184600861Y-92352700D01*
X184721667Y-92486869D01*
X184811938Y-92643222D01*
X184867728Y-92814927D01*
X184886600Y-92994480D01*
X184867728Y-93174033D01*
X184811938Y-93345738D01*
X184721667Y-93502091D01*
X184600861Y-93636260D01*
X184454800Y-93742380D01*
X184289867Y-93815812D01*
X184113271Y-93853349D01*
X183932729Y-93853349D01*
X183756133Y-93815812D01*
X183591200Y-93742380D01*
X183445139Y-93636260D01*
X183324333Y-93502091D01*
X183234062Y-93345738D01*
X183178272Y-93174033D01*
X183159400Y-92994480D01*
X183178272Y-92814927D01*
X183234062Y-92643222D01*
X183324333Y-92486869D01*
X183445139Y-92352700D01*
X183591200Y-92246580D01*
X183756133Y-92173148D01*
X183932729Y-92135611D01*
X184113271Y-92135611D01*
X184289867Y-92173148D01*
G37*
G36*
X162293467Y-90174168D02*
G01*
X162458400Y-90247600D01*
X162604461Y-90353720D01*
X162725267Y-90487889D01*
X162815538Y-90644242D01*
X162871328Y-90815947D01*
X162890200Y-90995500D01*
X162871328Y-91175053D01*
X162815538Y-91346758D01*
X162725267Y-91503111D01*
X162604461Y-91637280D01*
X162458400Y-91743400D01*
X162293467Y-91816832D01*
X162116871Y-91854369D01*
X161936329Y-91854369D01*
X161759733Y-91816832D01*
X161594800Y-91743400D01*
X161448739Y-91637280D01*
X161327933Y-91503111D01*
X161237662Y-91346758D01*
X161181872Y-91175053D01*
X161163000Y-90995500D01*
X161181872Y-90815947D01*
X161237662Y-90644242D01*
X161327933Y-90487889D01*
X161448739Y-90353720D01*
X161594800Y-90247600D01*
X161759733Y-90174168D01*
X161936329Y-90136631D01*
X162116871Y-90136631D01*
X162293467Y-90174168D01*
G37*
G36*
X184289867Y-90174168D02*
G01*
X184454800Y-90247600D01*
X184600861Y-90353720D01*
X184721667Y-90487889D01*
X184811938Y-90644242D01*
X184867728Y-90815947D01*
X184886600Y-90995500D01*
X184867728Y-91175053D01*
X184811938Y-91346758D01*
X184721667Y-91503111D01*
X184600861Y-91637280D01*
X184454800Y-91743400D01*
X184289867Y-91816832D01*
X184113271Y-91854369D01*
X183932729Y-91854369D01*
X183756133Y-91816832D01*
X183591200Y-91743400D01*
X183445139Y-91637280D01*
X183324333Y-91503111D01*
X183234062Y-91346758D01*
X183178272Y-91175053D01*
X183159400Y-90995500D01*
X183178272Y-90815947D01*
X183234062Y-90644242D01*
X183324333Y-90487889D01*
X183445139Y-90353720D01*
X183591200Y-90247600D01*
X183756133Y-90174168D01*
X183932729Y-90136631D01*
X184113271Y-90136631D01*
X184289867Y-90174168D01*
G37*
G36*
X162293467Y-88172648D02*
G01*
X162458400Y-88246080D01*
X162604461Y-88352200D01*
X162725267Y-88486369D01*
X162815538Y-88642722D01*
X162871328Y-88814427D01*
X162890200Y-88993980D01*
X162871328Y-89173533D01*
X162815538Y-89345238D01*
X162725267Y-89501591D01*
X162604461Y-89635760D01*
X162458400Y-89741880D01*
X162293467Y-89815312D01*
X162116871Y-89852849D01*
X161936329Y-89852849D01*
X161759733Y-89815312D01*
X161594800Y-89741880D01*
X161448739Y-89635760D01*
X161327933Y-89501591D01*
X161237662Y-89345238D01*
X161181872Y-89173533D01*
X161163000Y-88993980D01*
X161181872Y-88814427D01*
X161237662Y-88642722D01*
X161327933Y-88486369D01*
X161448739Y-88352200D01*
X161594800Y-88246080D01*
X161759733Y-88172648D01*
X161936329Y-88135111D01*
X162116871Y-88135111D01*
X162293467Y-88172648D01*
G37*
G36*
X184289867Y-88172648D02*
G01*
X184454800Y-88246080D01*
X184600861Y-88352200D01*
X184721667Y-88486369D01*
X184811938Y-88642722D01*
X184867728Y-88814427D01*
X184886600Y-88993980D01*
X184867728Y-89173533D01*
X184811938Y-89345238D01*
X184721667Y-89501591D01*
X184600861Y-89635760D01*
X184454800Y-89741880D01*
X184289867Y-89815312D01*
X184113271Y-89852849D01*
X183932729Y-89852849D01*
X183756133Y-89815312D01*
X183591200Y-89741880D01*
X183445139Y-89635760D01*
X183324333Y-89501591D01*
X183234062Y-89345238D01*
X183178272Y-89173533D01*
X183159400Y-88993980D01*
X183178272Y-88814427D01*
X183234062Y-88642722D01*
X183324333Y-88486369D01*
X183445139Y-88352200D01*
X183591200Y-88246080D01*
X183756133Y-88172648D01*
X183932729Y-88135111D01*
X184113271Y-88135111D01*
X184289867Y-88172648D01*
G37*
G36*
X162293467Y-86173668D02*
G01*
X162458400Y-86247100D01*
X162604461Y-86353220D01*
X162725267Y-86487389D01*
X162815538Y-86643742D01*
X162871328Y-86815447D01*
X162890200Y-86995000D01*
X162871328Y-87174553D01*
X162815538Y-87346258D01*
X162725267Y-87502611D01*
X162604461Y-87636780D01*
X162458400Y-87742900D01*
X162293467Y-87816332D01*
X162116871Y-87853869D01*
X161936329Y-87853869D01*
X161759733Y-87816332D01*
X161594800Y-87742900D01*
X161448739Y-87636780D01*
X161327933Y-87502611D01*
X161237662Y-87346258D01*
X161181872Y-87174553D01*
X161163000Y-86995000D01*
X161181872Y-86815447D01*
X161237662Y-86643742D01*
X161327933Y-86487389D01*
X161448739Y-86353220D01*
X161594800Y-86247100D01*
X161759733Y-86173668D01*
X161936329Y-86136131D01*
X162116871Y-86136131D01*
X162293467Y-86173668D01*
G37*
G36*
X184289867Y-86173668D02*
G01*
X184454800Y-86247100D01*
X184600861Y-86353220D01*
X184721667Y-86487389D01*
X184811938Y-86643742D01*
X184867728Y-86815447D01*
X184886600Y-86995000D01*
X184867728Y-87174553D01*
X184811938Y-87346258D01*
X184721667Y-87502611D01*
X184600861Y-87636780D01*
X184454800Y-87742900D01*
X184289867Y-87816332D01*
X184113271Y-87853869D01*
X183932729Y-87853869D01*
X183756133Y-87816332D01*
X183591200Y-87742900D01*
X183445139Y-87636780D01*
X183324333Y-87502611D01*
X183234062Y-87346258D01*
X183178272Y-87174553D01*
X183159400Y-86995000D01*
X183178272Y-86815447D01*
X183234062Y-86643742D01*
X183324333Y-86487389D01*
X183445139Y-86353220D01*
X183591200Y-86247100D01*
X183756133Y-86173668D01*
X183932729Y-86136131D01*
X184113271Y-86136131D01*
X184289867Y-86173668D01*
G37*
G36*
X162293467Y-84172148D02*
G01*
X162458400Y-84245580D01*
X162604461Y-84351700D01*
X162725267Y-84485869D01*
X162815538Y-84642222D01*
X162871328Y-84813927D01*
X162890200Y-84993480D01*
X162871328Y-85173033D01*
X162815538Y-85344738D01*
X162725267Y-85501091D01*
X162604461Y-85635260D01*
X162458400Y-85741380D01*
X162293467Y-85814812D01*
X162116871Y-85852349D01*
X161936329Y-85852349D01*
X161759733Y-85814812D01*
X161594800Y-85741380D01*
X161448739Y-85635260D01*
X161327933Y-85501091D01*
X161237662Y-85344738D01*
X161181872Y-85173033D01*
X161163000Y-84993480D01*
X161181872Y-84813927D01*
X161237662Y-84642222D01*
X161327933Y-84485869D01*
X161448739Y-84351700D01*
X161594800Y-84245580D01*
X161759733Y-84172148D01*
X161936329Y-84134611D01*
X162116871Y-84134611D01*
X162293467Y-84172148D01*
G37*
G36*
X184289867Y-84172148D02*
G01*
X184454800Y-84245580D01*
X184600861Y-84351700D01*
X184721667Y-84485869D01*
X184811938Y-84642222D01*
X184867728Y-84813927D01*
X184886600Y-84993480D01*
X184867728Y-85173033D01*
X184811938Y-85344738D01*
X184721667Y-85501091D01*
X184600861Y-85635260D01*
X184454800Y-85741380D01*
X184289867Y-85814812D01*
X184113271Y-85852349D01*
X183932729Y-85852349D01*
X183756133Y-85814812D01*
X183591200Y-85741380D01*
X183445139Y-85635260D01*
X183324333Y-85501091D01*
X183234062Y-85344738D01*
X183178272Y-85173033D01*
X183159400Y-84993480D01*
X183178272Y-84813927D01*
X183234062Y-84642222D01*
X183324333Y-84485869D01*
X183445139Y-84351700D01*
X183591200Y-84245580D01*
X183756133Y-84172148D01*
X183932729Y-84134611D01*
X184113271Y-84134611D01*
X184289867Y-84172148D01*
G37*
G36*
X171426000Y-76263000D02*
G01*
X171425996Y-76263000D01*
X169726004Y-76263000D01*
X169726000Y-76263000D01*
X169726000Y-74563000D01*
X171426000Y-74563000D01*
X171426000Y-76263000D01*
G37*
G36*
X173380110Y-74600148D02*
G01*
X173543341Y-74672823D01*
X173687895Y-74777848D01*
X173807452Y-74910629D01*
X173896792Y-75065370D01*
X173952006Y-75235300D01*
X173970682Y-75413000D01*
X173952006Y-75590699D01*
X173896792Y-75760629D01*
X173807452Y-75915370D01*
X173744173Y-75985647D01*
X173687894Y-76048153D01*
X173543341Y-76153176D01*
X173380111Y-76225851D01*
X173205339Y-76263000D01*
X173026661Y-76263000D01*
X172851889Y-76225851D01*
X172688658Y-76153176D01*
X172606187Y-76093257D01*
X172544106Y-76048153D01*
X172544104Y-76048151D01*
X172424547Y-75915370D01*
X172335207Y-75760629D01*
X172279993Y-75590699D01*
X172261317Y-75413000D01*
X172279993Y-75235300D01*
X172335207Y-75065370D01*
X172424547Y-74910629D01*
X172544104Y-74777848D01*
X172688658Y-74672823D01*
X172851889Y-74600148D01*
X173026661Y-74563000D01*
X173205339Y-74563000D01*
X173380110Y-74600148D01*
G37*
G36*
X175920110Y-74600148D02*
G01*
X176083341Y-74672823D01*
X176227895Y-74777848D01*
X176347452Y-74910629D01*
X176436792Y-75065370D01*
X176492006Y-75235300D01*
X176510682Y-75413000D01*
X176492006Y-75590699D01*
X176436792Y-75760629D01*
X176347452Y-75915370D01*
X176284173Y-75985647D01*
X176227894Y-76048153D01*
X176083341Y-76153176D01*
X175920111Y-76225851D01*
X175745339Y-76263000D01*
X175566661Y-76263000D01*
X175391889Y-76225851D01*
X175228658Y-76153176D01*
X175146187Y-76093257D01*
X175084106Y-76048153D01*
X175084104Y-76048151D01*
X174964547Y-75915370D01*
X174875207Y-75760629D01*
X174819993Y-75590699D01*
X174801317Y-75413000D01*
X174819993Y-75235300D01*
X174875207Y-75065370D01*
X174964547Y-74910629D01*
X175084104Y-74777848D01*
X175228658Y-74672823D01*
X175391889Y-74600148D01*
X175566661Y-74563000D01*
X175745339Y-74563000D01*
X175920110Y-74600148D01*
G37*
G36*
X171426000Y-72580000D02*
G01*
X171425996Y-72580000D01*
X169726004Y-72580000D01*
X169726000Y-72580000D01*
X169726000Y-70880000D01*
X171426000Y-70880000D01*
X171426000Y-72580000D01*
G37*
G36*
X173380110Y-70917148D02*
G01*
X173543341Y-70989823D01*
X173687895Y-71094848D01*
X173807452Y-71227629D01*
X173896792Y-71382370D01*
X173952006Y-71552300D01*
X173970682Y-71730000D01*
X173952006Y-71907699D01*
X173896792Y-72077629D01*
X173807452Y-72232370D01*
X173744173Y-72302647D01*
X173687894Y-72365153D01*
X173543341Y-72470176D01*
X173380111Y-72542851D01*
X173205339Y-72580000D01*
X173026661Y-72580000D01*
X172851889Y-72542851D01*
X172688658Y-72470176D01*
X172606187Y-72410257D01*
X172544106Y-72365153D01*
X172544104Y-72365151D01*
X172424547Y-72232370D01*
X172335207Y-72077629D01*
X172279993Y-71907699D01*
X172261317Y-71730000D01*
X172279993Y-71552300D01*
X172335207Y-71382370D01*
X172424547Y-71227629D01*
X172544104Y-71094848D01*
X172688658Y-70989823D01*
X172851889Y-70917148D01*
X173026661Y-70880000D01*
X173205339Y-70880000D01*
X173380110Y-70917148D01*
G37*
G36*
X175920110Y-70917148D02*
G01*
X176083341Y-70989823D01*
X176227895Y-71094848D01*
X176347452Y-71227629D01*
X176436792Y-71382370D01*
X176492006Y-71552300D01*
X176510682Y-71730000D01*
X176492006Y-71907699D01*
X176436792Y-72077629D01*
X176347452Y-72232370D01*
X176284173Y-72302647D01*
X176227894Y-72365153D01*
X176083341Y-72470176D01*
X175920111Y-72542851D01*
X175745339Y-72580000D01*
X175566661Y-72580000D01*
X175391889Y-72542851D01*
X175228658Y-72470176D01*
X175146187Y-72410257D01*
X175084106Y-72365153D01*
X175084104Y-72365151D01*
X174964547Y-72232370D01*
X174875207Y-72077629D01*
X174819993Y-71907699D01*
X174801317Y-71730000D01*
X174819993Y-71552300D01*
X174875207Y-71382370D01*
X174964547Y-71227629D01*
X175084104Y-71094848D01*
X175228658Y-70989823D01*
X175391889Y-70917148D01*
X175566661Y-70880000D01*
X175745339Y-70880000D01*
X175920110Y-70917148D01*
G37*
G36*
X171426000Y-68897000D02*
G01*
X171425996Y-68897000D01*
X169726004Y-68897000D01*
X169726000Y-68897000D01*
X169726000Y-67197000D01*
X171426000Y-67197000D01*
X171426000Y-68897000D01*
G37*
G36*
X173380110Y-67234148D02*
G01*
X173543341Y-67306823D01*
X173687895Y-67411848D01*
X173807452Y-67544629D01*
X173896792Y-67699370D01*
X173952006Y-67869300D01*
X173970682Y-68047000D01*
X173952006Y-68224699D01*
X173896792Y-68394629D01*
X173807452Y-68549370D01*
X173744173Y-68619647D01*
X173687894Y-68682153D01*
X173543341Y-68787176D01*
X173380111Y-68859851D01*
X173205339Y-68897000D01*
X173026661Y-68897000D01*
X172851889Y-68859851D01*
X172688658Y-68787176D01*
X172606187Y-68727257D01*
X172544106Y-68682153D01*
X172544104Y-68682151D01*
X172424547Y-68549370D01*
X172335207Y-68394629D01*
X172279993Y-68224699D01*
X172261317Y-68047000D01*
X172279993Y-67869300D01*
X172335207Y-67699370D01*
X172424547Y-67544629D01*
X172544104Y-67411848D01*
X172688658Y-67306823D01*
X172851889Y-67234148D01*
X173026661Y-67197000D01*
X173205339Y-67197000D01*
X173380110Y-67234148D01*
G37*
G36*
X175920110Y-67234148D02*
G01*
X176083341Y-67306823D01*
X176227895Y-67411848D01*
X176347452Y-67544629D01*
X176436792Y-67699370D01*
X176492006Y-67869300D01*
X176510682Y-68047000D01*
X176492006Y-68224699D01*
X176436792Y-68394629D01*
X176347452Y-68549370D01*
X176284173Y-68619647D01*
X176227894Y-68682153D01*
X176083341Y-68787176D01*
X175920111Y-68859851D01*
X175745339Y-68897000D01*
X175566661Y-68897000D01*
X175391889Y-68859851D01*
X175228658Y-68787176D01*
X175146187Y-68727257D01*
X175084106Y-68682153D01*
X175084104Y-68682151D01*
X174964547Y-68549370D01*
X174875207Y-68394629D01*
X174819993Y-68224699D01*
X174801317Y-68047000D01*
X174819993Y-67869300D01*
X174875207Y-67699370D01*
X174964547Y-67544629D01*
X175084104Y-67411848D01*
X175228658Y-67306823D01*
X175391889Y-67234148D01*
X175566661Y-67197000D01*
X175745339Y-67197000D01*
X175920110Y-67234148D01*
G37*
G36*
X159926158Y-60683821D02*
G01*
X160208402Y-60739963D01*
X160480904Y-60832465D01*
X160739000Y-60959744D01*
X160978275Y-61119623D01*
X161194635Y-61309365D01*
X161384377Y-61525725D01*
X161544256Y-61765000D01*
X161671535Y-62023096D01*
X161764037Y-62295598D01*
X161820179Y-62577842D01*
X161839000Y-62865000D01*
X161820179Y-63152158D01*
X161764037Y-63434402D01*
X161671535Y-63706904D01*
X161544256Y-63965000D01*
X161384377Y-64204275D01*
X161194635Y-64420635D01*
X160978275Y-64610377D01*
X160739000Y-64770256D01*
X160480904Y-64897535D01*
X160208402Y-64990037D01*
X159926158Y-65046179D01*
X159639000Y-65065000D01*
X159351842Y-65046179D01*
X159069598Y-64990037D01*
X158797096Y-64897535D01*
X158539000Y-64770256D01*
X158299725Y-64610377D01*
X158083365Y-64420635D01*
X157893623Y-64204275D01*
X157733744Y-63965000D01*
X157606465Y-63706904D01*
X157513963Y-63434402D01*
X157457821Y-63152158D01*
X157439000Y-62865000D01*
X157457821Y-62577842D01*
X157513963Y-62295598D01*
X157606465Y-62023096D01*
X157733744Y-61765000D01*
X157893623Y-61525725D01*
X158083365Y-61309365D01*
X158299725Y-61119623D01*
X158539000Y-60959744D01*
X158797096Y-60832465D01*
X159069598Y-60739963D01*
X159351842Y-60683821D01*
X159639000Y-60665000D01*
X159926158Y-60683821D01*
G37*
G36*
X187231158Y-60683821D02*
G01*
X187513402Y-60739963D01*
X187785904Y-60832465D01*
X188044000Y-60959744D01*
X188283275Y-61119623D01*
X188499635Y-61309365D01*
X188689377Y-61525725D01*
X188849256Y-61765000D01*
X188976535Y-62023096D01*
X189069037Y-62295598D01*
X189125179Y-62577842D01*
X189144000Y-62865000D01*
X189125179Y-63152158D01*
X189069037Y-63434402D01*
X188976535Y-63706904D01*
X188849256Y-63965000D01*
X188689377Y-64204275D01*
X188499635Y-64420635D01*
X188283275Y-64610377D01*
X188044000Y-64770256D01*
X187785904Y-64897535D01*
X187513402Y-64990037D01*
X187231158Y-65046179D01*
X186944000Y-65065000D01*
X186656842Y-65046179D01*
X186374598Y-64990037D01*
X186102096Y-64897535D01*
X185844000Y-64770256D01*
X185604725Y-64610377D01*
X185388365Y-64420635D01*
X185198623Y-64204275D01*
X185038744Y-63965000D01*
X184911465Y-63706904D01*
X184818963Y-63434402D01*
X184762821Y-63152158D01*
X184744000Y-62865000D01*
X184762821Y-62577842D01*
X184818963Y-62295598D01*
X184911465Y-62023096D01*
X185038744Y-61765000D01*
X185198623Y-61525725D01*
X185388365Y-61309365D01*
X185604725Y-61119623D01*
X185844000Y-60959744D01*
X186102096Y-60832465D01*
X186374598Y-60739963D01*
X186656842Y-60683821D01*
X186944000Y-60665000D01*
X187231158Y-60683821D01*
G37*
M02*
