%TF.GenerationSoftware,KiCad,Pcbnew,7.0.9*%
%TF.CreationDate,2023-12-30T17:24:47+01:00*%
%TF.ProjectId,rainguage,7261696e-6775-4616-9765-2e6b69636164,rev?*%
%TF.SameCoordinates,Original*%
%TF.FileFunction,Copper,L2,Bot*%
%TF.FilePolarity,Positive*%
%FSLAX46Y46*%
G04 Gerber Fmt 4.6, Leading zero omitted, Abs format (unit mm)*
G04 Created by KiCad (PCBNEW 7.0.9) date 2023-12-30 17:24:47*
%MOMM*%
%LPD*%
G01*
G04 APERTURE LIST*
G04 Aperture macros list*
%AMRoundRect*
0 Rectangle with rounded corners*
0 $1 Rounding radius*
0 $2 $3 $4 $5 $6 $7 $8 $9 X,Y pos of 4 corners*
0 Add a 4 corners polygon primitive as box body*
4,1,4,$2,$3,$4,$5,$6,$7,$8,$9,$2,$3,0*
0 Add four circle primitives for the rounded corners*
1,1,$1+$1,$2,$3*
1,1,$1+$1,$4,$5*
1,1,$1+$1,$6,$7*
1,1,$1+$1,$8,$9*
0 Add four rect primitives between the rounded corners*
20,1,$1+$1,$2,$3,$4,$5,0*
20,1,$1+$1,$4,$5,$6,$7,0*
20,1,$1+$1,$6,$7,$8,$9,0*
20,1,$1+$1,$8,$9,$2,$3,0*%
G04 Aperture macros list end*
%ADD10C,0.304800*%
%TA.AperFunction,NonConductor*%
%ADD11C,0.304800*%
%TD*%
%TA.AperFunction,NonConductor*%
%ADD12C,0.254000*%
%TD*%
%TA.AperFunction,ComponentPad*%
%ADD13R,1.700000X1.700000*%
%TD*%
%TA.AperFunction,ComponentPad*%
%ADD14O,1.700000X1.700000*%
%TD*%
%TA.AperFunction,ComponentPad*%
%ADD15RoundRect,0.250000X0.750000X-0.600000X0.750000X0.600000X-0.750000X0.600000X-0.750000X-0.600000X0*%
%TD*%
%TA.AperFunction,ComponentPad*%
%ADD16O,2.000000X1.700000*%
%TD*%
%TA.AperFunction,ComponentPad*%
%ADD17RoundRect,0.250000X-0.600000X-0.725000X0.600000X-0.725000X0.600000X0.725000X-0.600000X0.725000X0*%
%TD*%
%TA.AperFunction,ComponentPad*%
%ADD18O,1.700000X1.950000*%
%TD*%
%TA.AperFunction,ComponentPad*%
%ADD19RoundRect,0.250000X-0.750000X0.600000X-0.750000X-0.600000X0.750000X-0.600000X0.750000X0.600000X0*%
%TD*%
%TA.AperFunction,ComponentPad*%
%ADD20C,4.400000*%
%TD*%
%TA.AperFunction,ComponentPad*%
%ADD21C,1.524000*%
%TD*%
%TA.AperFunction,ComponentPad*%
%ADD22R,1.600000X1.600000*%
%TD*%
%TA.AperFunction,ComponentPad*%
%ADD23O,1.600000X1.600000*%
%TD*%
%TA.AperFunction,ViaPad*%
%ADD24C,1.600000*%
%TD*%
%TA.AperFunction,ViaPad*%
%ADD25C,0.600000*%
%TD*%
%TA.AperFunction,Conductor*%
%ADD26C,0.800000*%
%TD*%
%TA.AperFunction,Conductor*%
%ADD27C,0.400000*%
%TD*%
G04 APERTURE END LIST*
D10*
D11*
X195202381Y-79982786D02*
X195202381Y-79039358D01*
X195202381Y-79039358D02*
X195782952Y-79547358D01*
X195782952Y-79547358D02*
X195782952Y-79329643D01*
X195782952Y-79329643D02*
X195855524Y-79184501D01*
X195855524Y-79184501D02*
X195928095Y-79111929D01*
X195928095Y-79111929D02*
X196073238Y-79039358D01*
X196073238Y-79039358D02*
X196436095Y-79039358D01*
X196436095Y-79039358D02*
X196581238Y-79111929D01*
X196581238Y-79111929D02*
X196653810Y-79184501D01*
X196653810Y-79184501D02*
X196726381Y-79329643D01*
X196726381Y-79329643D02*
X196726381Y-79765072D01*
X196726381Y-79765072D02*
X196653810Y-79910215D01*
X196653810Y-79910215D02*
X196581238Y-79982786D01*
X196653810Y-78313643D02*
X196726381Y-78313643D01*
X196726381Y-78313643D02*
X196871524Y-78386214D01*
X196871524Y-78386214D02*
X196944095Y-78458786D01*
X195202381Y-77007358D02*
X195202381Y-77297643D01*
X195202381Y-77297643D02*
X195274952Y-77442786D01*
X195274952Y-77442786D02*
X195347524Y-77515358D01*
X195347524Y-77515358D02*
X195565238Y-77660500D01*
X195565238Y-77660500D02*
X195855524Y-77733072D01*
X195855524Y-77733072D02*
X196436095Y-77733072D01*
X196436095Y-77733072D02*
X196581238Y-77660500D01*
X196581238Y-77660500D02*
X196653810Y-77587929D01*
X196653810Y-77587929D02*
X196726381Y-77442786D01*
X196726381Y-77442786D02*
X196726381Y-77152500D01*
X196726381Y-77152500D02*
X196653810Y-77007358D01*
X196653810Y-77007358D02*
X196581238Y-76934786D01*
X196581238Y-76934786D02*
X196436095Y-76862215D01*
X196436095Y-76862215D02*
X196073238Y-76862215D01*
X196073238Y-76862215D02*
X195928095Y-76934786D01*
X195928095Y-76934786D02*
X195855524Y-77007358D01*
X195855524Y-77007358D02*
X195782952Y-77152500D01*
X195782952Y-77152500D02*
X195782952Y-77442786D01*
X195782952Y-77442786D02*
X195855524Y-77587929D01*
X195855524Y-77587929D02*
X195928095Y-77660500D01*
X195928095Y-77660500D02*
X196073238Y-77733072D01*
X195855524Y-75991357D02*
X195782952Y-76136500D01*
X195782952Y-76136500D02*
X195710381Y-76209071D01*
X195710381Y-76209071D02*
X195565238Y-76281643D01*
X195565238Y-76281643D02*
X195492667Y-76281643D01*
X195492667Y-76281643D02*
X195347524Y-76209071D01*
X195347524Y-76209071D02*
X195274952Y-76136500D01*
X195274952Y-76136500D02*
X195202381Y-75991357D01*
X195202381Y-75991357D02*
X195202381Y-75701071D01*
X195202381Y-75701071D02*
X195274952Y-75555929D01*
X195274952Y-75555929D02*
X195347524Y-75483357D01*
X195347524Y-75483357D02*
X195492667Y-75410786D01*
X195492667Y-75410786D02*
X195565238Y-75410786D01*
X195565238Y-75410786D02*
X195710381Y-75483357D01*
X195710381Y-75483357D02*
X195782952Y-75555929D01*
X195782952Y-75555929D02*
X195855524Y-75701071D01*
X195855524Y-75701071D02*
X195855524Y-75991357D01*
X195855524Y-75991357D02*
X195928095Y-76136500D01*
X195928095Y-76136500D02*
X196000667Y-76209071D01*
X196000667Y-76209071D02*
X196145810Y-76281643D01*
X196145810Y-76281643D02*
X196436095Y-76281643D01*
X196436095Y-76281643D02*
X196581238Y-76209071D01*
X196581238Y-76209071D02*
X196653810Y-76136500D01*
X196653810Y-76136500D02*
X196726381Y-75991357D01*
X196726381Y-75991357D02*
X196726381Y-75701071D01*
X196726381Y-75701071D02*
X196653810Y-75555929D01*
X196653810Y-75555929D02*
X196581238Y-75483357D01*
X196581238Y-75483357D02*
X196436095Y-75410786D01*
X196436095Y-75410786D02*
X196145810Y-75410786D01*
X196145810Y-75410786D02*
X196000667Y-75483357D01*
X196000667Y-75483357D02*
X195928095Y-75555929D01*
X195928095Y-75555929D02*
X195855524Y-75701071D01*
X195202381Y-74902785D02*
X195202381Y-73959357D01*
X195202381Y-73959357D02*
X195782952Y-74467357D01*
X195782952Y-74467357D02*
X195782952Y-74249642D01*
X195782952Y-74249642D02*
X195855524Y-74104500D01*
X195855524Y-74104500D02*
X195928095Y-74031928D01*
X195928095Y-74031928D02*
X196073238Y-73959357D01*
X196073238Y-73959357D02*
X196436095Y-73959357D01*
X196436095Y-73959357D02*
X196581238Y-74031928D01*
X196581238Y-74031928D02*
X196653810Y-74104500D01*
X196653810Y-74104500D02*
X196726381Y-74249642D01*
X196726381Y-74249642D02*
X196726381Y-74685071D01*
X196726381Y-74685071D02*
X196653810Y-74830214D01*
X196653810Y-74830214D02*
X196581238Y-74902785D01*
X195202381Y-73015928D02*
X195202381Y-72870785D01*
X195202381Y-72870785D02*
X195274952Y-72725642D01*
X195274952Y-72725642D02*
X195347524Y-72653071D01*
X195347524Y-72653071D02*
X195492667Y-72580499D01*
X195492667Y-72580499D02*
X195782952Y-72507928D01*
X195782952Y-72507928D02*
X196145810Y-72507928D01*
X196145810Y-72507928D02*
X196436095Y-72580499D01*
X196436095Y-72580499D02*
X196581238Y-72653071D01*
X196581238Y-72653071D02*
X196653810Y-72725642D01*
X196653810Y-72725642D02*
X196726381Y-72870785D01*
X196726381Y-72870785D02*
X196726381Y-73015928D01*
X196726381Y-73015928D02*
X196653810Y-73161071D01*
X196653810Y-73161071D02*
X196581238Y-73233642D01*
X196581238Y-73233642D02*
X196436095Y-73306213D01*
X196436095Y-73306213D02*
X196145810Y-73378785D01*
X196145810Y-73378785D02*
X195782952Y-73378785D01*
X195782952Y-73378785D02*
X195492667Y-73306213D01*
X195492667Y-73306213D02*
X195347524Y-73233642D01*
X195347524Y-73233642D02*
X195274952Y-73161071D01*
X195274952Y-73161071D02*
X195202381Y-73015928D01*
X196726381Y-70693641D02*
X195710381Y-70693641D01*
X195855524Y-70693641D02*
X195782952Y-70621070D01*
X195782952Y-70621070D02*
X195710381Y-70475927D01*
X195710381Y-70475927D02*
X195710381Y-70258213D01*
X195710381Y-70258213D02*
X195782952Y-70113070D01*
X195782952Y-70113070D02*
X195928095Y-70040499D01*
X195928095Y-70040499D02*
X196726381Y-70040499D01*
X195928095Y-70040499D02*
X195782952Y-69967927D01*
X195782952Y-69967927D02*
X195710381Y-69822784D01*
X195710381Y-69822784D02*
X195710381Y-69605070D01*
X195710381Y-69605070D02*
X195782952Y-69459927D01*
X195782952Y-69459927D02*
X195928095Y-69387356D01*
X195928095Y-69387356D02*
X196726381Y-69387356D01*
X196726381Y-68661641D02*
X195710381Y-68661641D01*
X195855524Y-68661641D02*
X195782952Y-68589070D01*
X195782952Y-68589070D02*
X195710381Y-68443927D01*
X195710381Y-68443927D02*
X195710381Y-68226213D01*
X195710381Y-68226213D02*
X195782952Y-68081070D01*
X195782952Y-68081070D02*
X195928095Y-68008499D01*
X195928095Y-68008499D02*
X196726381Y-68008499D01*
X195928095Y-68008499D02*
X195782952Y-67935927D01*
X195782952Y-67935927D02*
X195710381Y-67790784D01*
X195710381Y-67790784D02*
X195710381Y-67573070D01*
X195710381Y-67573070D02*
X195782952Y-67427927D01*
X195782952Y-67427927D02*
X195928095Y-67355356D01*
X195928095Y-67355356D02*
X196726381Y-67355356D01*
D12*
X190365000Y-71755000D02*
X198452420Y-71755000D01*
X190365000Y-75438000D02*
X198452420Y-75438000D01*
X197866000Y-71755000D02*
X197866000Y-75438000D01*
X197866000Y-71755000D02*
X197866000Y-75438000D01*
X197866000Y-71755000D02*
X198452421Y-72881504D01*
X197866000Y-71755000D02*
X197279579Y-72881504D01*
X197866000Y-75438000D02*
X197279579Y-74311496D01*
X197866000Y-75438000D02*
X198452421Y-74311496D01*
D13*
%TO.P,J6,1,Pin_1*%
%TO.N,+3.3v*%
X170576000Y-68047000D03*
D14*
%TO.P,J6,2,Pin_2*%
%TO.N,PB2*%
X173116000Y-68047000D03*
%TO.P,J6,3,Pin_3*%
%TO.N,GND*%
X175656000Y-68047000D03*
%TD*%
D13*
%TO.P,J5,1,Pin_1*%
%TO.N,+3.3v*%
X170576000Y-71730000D03*
D14*
%TO.P,J5,2,Pin_2*%
%TO.N,PB2*%
X173116000Y-71730000D03*
%TO.P,J5,3,Pin_3*%
%TO.N,GND*%
X175656000Y-71730000D03*
%TD*%
%TO.P,J4,3,Pin_3*%
%TO.N,GND*%
X175656000Y-75413000D03*
%TO.P,J4,2,Pin_2*%
%TO.N,PB2*%
X173116000Y-75413000D03*
D13*
%TO.P,J4,1,Pin_1*%
%TO.N,+3.3v*%
X170576000Y-75413000D03*
%TD*%
D15*
%TO.P,J2,1,Pin_1*%
%TO.N,GND*%
X164973000Y-117435000D03*
D16*
%TO.P,J2,2,Pin_2*%
%TO.N,USB 5V*%
X164973000Y-114935000D03*
%TD*%
D17*
%TO.P,J1,1,Pin_1*%
%TO.N,GND*%
X171109000Y-117738003D03*
D18*
%TO.P,J1,2,Pin_2*%
%TO.N,PB2*%
X173609000Y-117738003D03*
%TO.P,J1,3,Pin_3*%
%TO.N,+3.3v*%
X176109000Y-117738003D03*
%TD*%
D19*
%TO.P,J3,1,Pin_1*%
%TO.N,GND*%
X182372000Y-115062000D03*
D16*
%TO.P,J3,2,Pin_2*%
%TO.N,VBAT*%
X182372000Y-117562000D03*
%TD*%
D20*
%TO.P,H2,1,1*%
%TO.N,GND*%
X186944000Y-62865000D03*
%TD*%
D21*
%TO.P,JP1,20,DIO0*%
%TO.N,unconnected-(JP1-DIO0-Pad20)*%
X184023000Y-84993480D03*
%TO.P,JP1,19,DIO1*%
%TO.N,unconnected-(JP1-DIO1-Pad19)*%
X184023000Y-86995000D03*
%TO.P,JP1,18,DIO2*%
%TO.N,unconnected-(JP1-DIO2-Pad18)*%
X184023000Y-88993980D03*
%TO.P,JP1,17,DIO3*%
%TO.N,unconnected-(JP1-DIO3-Pad17)*%
X184023000Y-90995500D03*
%TO.P,JP1,16,RTS*%
%TO.N,unconnected-(JP1-RTS-Pad16)*%
X184023000Y-92994480D03*
%TO.P,JP1,15,DIO5*%
%TO.N,unconnected-(JP1-DIO5-Pad15)*%
X184023000Y-94993460D03*
%TO.P,JP1,14,RES*%
%TO.N,unconnected-(JP1-RES-Pad14)*%
X184023000Y-96994980D03*
%TO.P,JP1,13,DIO9*%
%TO.N,Net-(D2-A)*%
X184023000Y-98993960D03*
%TO.P,JP1,12,CTS*%
%TO.N,unconnected-(JP1-CTS-Pad12)*%
X184023000Y-100995480D03*
%TO.P,JP1,11,DIO4*%
%TO.N,unconnected-(JP1-DIO4-Pad11)*%
X184023000Y-102994460D03*
%TO.P,JP1,10,GND*%
%TO.N,GND*%
X162026600Y-102994460D03*
%TO.P,JP1,9,DTR*%
%TO.N,PB0*%
X162026600Y-100995480D03*
%TO.P,JP1,8,RES*%
%TO.N,unconnected-(JP1-RES-Pad8)*%
X162026600Y-98993960D03*
%TO.P,JP1,7,DIO11*%
%TO.N,unconnected-(JP1-DIO11-Pad7)*%
X162026600Y-96994980D03*
%TO.P,JP1,6,RSSI*%
%TO.N,unconnected-(JP1-RSSI-Pad6)*%
X162026600Y-94993460D03*
%TO.P,JP1,5,RESET*%
%TO.N,unconnected-(JP1-RESET-Pad5)*%
X162026600Y-92994480D03*
%TO.P,JP1,4,DIO12*%
%TO.N,unconnected-(JP1-DIO12-Pad4)*%
X162026600Y-90995500D03*
%TO.P,JP1,3,DIN*%
%TO.N,PB1*%
X162026600Y-88993980D03*
%TO.P,JP1,2,DOUT*%
%TO.N,unconnected-(JP1-DOUT-Pad2)*%
X162026600Y-86995000D03*
%TO.P,JP1,1,VDD*%
%TO.N,+3.3v*%
X162026600Y-84993480D03*
%TD*%
D20*
%TO.P,H3,1,1*%
%TO.N,GND*%
X159639000Y-118237000D03*
%TD*%
D22*
%TO.P,U2,1,~{RESET}/PB5*%
%TO.N,unconnected-(U2-~{RESET}{slash}PB5-Pad1)*%
X177419000Y-106680000D03*
D23*
%TO.P,U2,2,XTAL1/PB3*%
%TO.N,Net-(U2-XTAL1{slash}PB3)*%
X174879000Y-106680000D03*
%TO.P,U2,3,XTAL2/PB4*%
%TO.N,unconnected-(U2-XTAL2{slash}PB4-Pad3)*%
X172339000Y-106680000D03*
%TO.P,U2,4,GND*%
%TO.N,GND*%
X169799000Y-106680000D03*
%TO.P,U2,5,AREF/PB0*%
%TO.N,PB0*%
X169799000Y-114300000D03*
%TO.P,U2,6,PB1*%
%TO.N,PB1*%
X172339000Y-114300000D03*
%TO.P,U2,7,PB2*%
%TO.N,PB2*%
X174879000Y-114300000D03*
%TO.P,U2,8,VCC*%
%TO.N,+3.3v*%
X177419000Y-114300000D03*
%TD*%
D20*
%TO.P,H1,1,1*%
%TO.N,GND*%
X159639000Y-62865000D03*
%TD*%
%TO.P,H4,1,1*%
%TO.N,GND*%
X186944000Y-118512000D03*
%TD*%
D24*
%TO.N,VBAT*%
X173228000Y-88900000D03*
D25*
%TO.N,PB2*%
X175006000Y-99060000D03*
%TO.N,Net-(U1-STAT)*%
X159131000Y-105156000D03*
X167513000Y-108839000D03*
%TD*%
D26*
%TO.N,+3.3v*%
X170576000Y-71730000D02*
X170576000Y-68047000D01*
X170576000Y-75413000D02*
X170576000Y-71730000D01*
X170576000Y-82027000D02*
X170576000Y-75413000D01*
X170505120Y-93472000D02*
X162026600Y-84993480D01*
X174818913Y-93472000D02*
X170505120Y-93472000D01*
X178746000Y-97399087D02*
X174818913Y-93472000D01*
X178746000Y-112973000D02*
X178746000Y-97399087D01*
X177419000Y-114300000D02*
X178746000Y-112973000D01*
%TO.N,VBAT*%
X180845000Y-92840000D02*
X180845000Y-116035000D01*
X176911000Y-88900000D02*
X180848000Y-92837000D01*
X180848000Y-92837000D02*
X180845000Y-92840000D01*
X180845000Y-116035000D02*
X182372000Y-117562000D01*
X173228000Y-88900000D02*
X176911000Y-88900000D01*
D27*
%TO.N,PB1*%
X173466000Y-105902000D02*
X171069000Y-103505000D01*
X171069000Y-103505000D02*
X171069000Y-98036380D01*
X173466000Y-113173000D02*
X173466000Y-105902000D01*
X172339000Y-114300000D02*
X173466000Y-113173000D01*
X171069000Y-98036380D02*
X162026600Y-88993980D01*
D26*
%TO.N,+3.3v*%
X162026600Y-84993480D02*
X167609520Y-84993480D01*
X167609520Y-84993480D02*
X170576000Y-82027000D01*
D27*
%TO.N,Net-(U1-STAT)*%
X162814000Y-108839000D02*
X167513000Y-108839000D01*
X159131000Y-105156000D02*
X162814000Y-108839000D01*
%TO.N,PB2*%
X176292000Y-100346000D02*
X175006000Y-99060000D01*
X176292000Y-112887000D02*
X176292000Y-100346000D01*
X174879000Y-114300000D02*
X176292000Y-112887000D01*
%TO.N,PB0*%
X168275000Y-112776000D02*
X169799000Y-114300000D01*
X166273480Y-100995480D02*
X168275000Y-102997000D01*
X162026600Y-100995480D02*
X166273480Y-100995480D01*
X168275000Y-102997000D02*
X168275000Y-112776000D01*
%TD*%
%TA.AperFunction,Conductor*%
%TO.N,GND*%
G36*
X158803894Y-118960624D02*
G01*
X158955932Y-119105592D01*
X159058222Y-119171330D01*
X157914030Y-120315521D01*
X157914030Y-120315522D01*
X158102414Y-120463112D01*
X158102423Y-120463118D01*
X158155470Y-120495186D01*
X158202658Y-120546714D01*
X158214496Y-120615574D01*
X158187227Y-120679902D01*
X158129508Y-120719276D01*
X158091320Y-120725303D01*
X157302776Y-120725303D01*
X157235737Y-120705618D01*
X157189982Y-120652814D01*
X157178776Y-120601303D01*
X157178776Y-119831127D01*
X157198461Y-119764088D01*
X157251265Y-119718333D01*
X157320423Y-119708389D01*
X157383979Y-119737414D01*
X157408895Y-119766981D01*
X157412886Y-119773585D01*
X157560477Y-119961968D01*
X158703211Y-118819235D01*
X158803894Y-118960624D01*
G37*
%TD.AperFunction*%
%TA.AperFunction,Conductor*%
G36*
X170049000Y-107958872D02*
G01*
X170245317Y-107906269D01*
X170245326Y-107906265D01*
X170451482Y-107810134D01*
X170637820Y-107679657D01*
X170798657Y-107518820D01*
X170929132Y-107332484D01*
X170956341Y-107274134D01*
X171002513Y-107221695D01*
X171069707Y-107202542D01*
X171136588Y-107222757D01*
X171181106Y-107274133D01*
X171208431Y-107332732D01*
X171208432Y-107332734D01*
X171338954Y-107519141D01*
X171499858Y-107680045D01*
X171499861Y-107680047D01*
X171686266Y-107810568D01*
X171892504Y-107906739D01*
X171892509Y-107906740D01*
X171892511Y-107906741D01*
X171925917Y-107915692D01*
X172112308Y-107965635D01*
X172274230Y-107979801D01*
X172338998Y-107985468D01*
X172339000Y-107985468D01*
X172339002Y-107985468D01*
X172395796Y-107980499D01*
X172565692Y-107965635D01*
X172609405Y-107953922D01*
X172679255Y-107955584D01*
X172737118Y-107994746D01*
X172764623Y-108058974D01*
X172765500Y-108073696D01*
X172765500Y-112831479D01*
X172745815Y-112898518D01*
X172729181Y-112919160D01*
X172669369Y-112978972D01*
X172608046Y-113012457D01*
X172570881Y-113014819D01*
X172565680Y-113014364D01*
X172546171Y-113012657D01*
X172339002Y-112994532D01*
X172338998Y-112994532D01*
X172112313Y-113014364D01*
X172112302Y-113014366D01*
X171892511Y-113073258D01*
X171892502Y-113073261D01*
X171686267Y-113169431D01*
X171686265Y-113169432D01*
X171499858Y-113299954D01*
X171338954Y-113460858D01*
X171208432Y-113647265D01*
X171208431Y-113647267D01*
X171181382Y-113705275D01*
X171135209Y-113757714D01*
X171068016Y-113776866D01*
X171001135Y-113756650D01*
X170956618Y-113705275D01*
X170936018Y-113661098D01*
X170929568Y-113647266D01*
X170799047Y-113460861D01*
X170799045Y-113460858D01*
X170638141Y-113299954D01*
X170451734Y-113169432D01*
X170451732Y-113169431D01*
X170245497Y-113073261D01*
X170245488Y-113073258D01*
X170025697Y-113014366D01*
X170025693Y-113014365D01*
X170025692Y-113014365D01*
X170025691Y-113014364D01*
X170025686Y-113014364D01*
X169799002Y-112994532D01*
X169798998Y-112994532D01*
X169567117Y-113014819D01*
X169498617Y-113001052D01*
X169468629Y-112978972D01*
X169011819Y-112522162D01*
X168978334Y-112460839D01*
X168975500Y-112434481D01*
X168975500Y-107925028D01*
X168995185Y-107857989D01*
X169047989Y-107812234D01*
X169117147Y-107802290D01*
X169151905Y-107812646D01*
X169352673Y-107906265D01*
X169352682Y-107906269D01*
X169548999Y-107958872D01*
X169549000Y-107958871D01*
X169549000Y-106995686D01*
X169560955Y-107007641D01*
X169673852Y-107065165D01*
X169767519Y-107080000D01*
X169830481Y-107080000D01*
X169924148Y-107065165D01*
X170037045Y-107007641D01*
X170049000Y-106995686D01*
X170049000Y-107958872D01*
G37*
%TD.AperFunction*%
%TA.AperFunction,Conductor*%
G36*
X163393619Y-91359161D02*
G01*
X163422749Y-91380786D01*
X170332181Y-98290218D01*
X170365666Y-98351541D01*
X170368500Y-98377899D01*
X170368500Y-103481951D01*
X170368387Y-103485696D01*
X170364642Y-103547603D01*
X170364642Y-103547605D01*
X170375821Y-103608612D01*
X170376384Y-103612313D01*
X170383859Y-103673870D01*
X170383860Y-103673874D01*
X170387451Y-103683343D01*
X170393474Y-103704946D01*
X170395304Y-103714930D01*
X170420759Y-103771490D01*
X170422189Y-103774941D01*
X170444182Y-103832930D01*
X170444183Y-103832931D01*
X170449936Y-103841266D01*
X170460961Y-103860813D01*
X170465120Y-103870055D01*
X170465124Y-103870060D01*
X170503371Y-103918878D01*
X170505591Y-103921896D01*
X170540812Y-103972924D01*
X170540816Y-103972928D01*
X170540817Y-103972929D01*
X170587250Y-104014064D01*
X170589941Y-104016598D01*
X171227080Y-104653737D01*
X171858736Y-105285393D01*
X171892221Y-105346716D01*
X171887237Y-105416408D01*
X171845365Y-105472341D01*
X171823461Y-105485456D01*
X171702722Y-105541758D01*
X171690725Y-105547353D01*
X171686264Y-105549433D01*
X171499858Y-105679954D01*
X171338954Y-105840858D01*
X171278390Y-105927354D01*
X171208432Y-106027266D01*
X171208315Y-106027518D01*
X171181106Y-106085867D01*
X171134933Y-106138306D01*
X171067739Y-106157457D01*
X171000858Y-106137241D01*
X170956342Y-106085865D01*
X170929135Y-106027520D01*
X170929134Y-106027518D01*
X170798657Y-105841179D01*
X170637820Y-105680342D01*
X170451482Y-105549865D01*
X170245328Y-105453734D01*
X170049000Y-105401127D01*
X170049000Y-106364314D01*
X170037045Y-106352359D01*
X169924148Y-106294835D01*
X169830481Y-106280000D01*
X169767519Y-106280000D01*
X169673852Y-106294835D01*
X169560955Y-106352359D01*
X169549000Y-106364314D01*
X169549000Y-105401127D01*
X169352669Y-105453735D01*
X169151904Y-105547353D01*
X169082827Y-105557845D01*
X169019043Y-105529325D01*
X168980804Y-105470848D01*
X168975500Y-105434971D01*
X168975500Y-103020047D01*
X168975613Y-103016302D01*
X168979358Y-102954394D01*
X168968175Y-102893371D01*
X168967613Y-102889674D01*
X168965187Y-102869694D01*
X168960140Y-102828128D01*
X168956548Y-102818656D01*
X168950521Y-102797034D01*
X168948695Y-102787071D01*
X168948695Y-102787069D01*
X168923224Y-102730476D01*
X168921817Y-102727079D01*
X168899818Y-102669070D01*
X168899816Y-102669068D01*
X168899816Y-102669066D01*
X168894062Y-102660731D01*
X168883034Y-102641177D01*
X168878880Y-102631947D01*
X168850467Y-102595680D01*
X168840621Y-102583112D01*
X168838427Y-102580130D01*
X168803183Y-102529071D01*
X168756750Y-102487935D01*
X168754056Y-102485399D01*
X166785078Y-100516421D01*
X166782544Y-100513730D01*
X166741409Y-100467297D01*
X166741408Y-100467296D01*
X166741404Y-100467292D01*
X166690376Y-100432071D01*
X166687367Y-100429857D01*
X166638540Y-100391604D01*
X166638535Y-100391600D01*
X166629293Y-100387441D01*
X166609746Y-100376416D01*
X166601411Y-100370663D01*
X166601412Y-100370663D01*
X166601410Y-100370662D01*
X166543421Y-100348669D01*
X166539970Y-100347239D01*
X166483410Y-100321784D01*
X166473426Y-100319954D01*
X166451823Y-100313931D01*
X166442354Y-100310340D01*
X166442350Y-100310339D01*
X166380793Y-100302864D01*
X166377092Y-100302301D01*
X166316088Y-100291122D01*
X166316083Y-100291122D01*
X166254177Y-100294867D01*
X166250432Y-100294980D01*
X163141884Y-100294980D01*
X163074845Y-100275295D01*
X163040309Y-100242103D01*
X162997425Y-100180858D01*
X162898967Y-100082400D01*
X162865482Y-100021077D01*
X162870466Y-99951385D01*
X162898963Y-99907042D01*
X162997426Y-99808580D01*
X163124134Y-99627622D01*
X163217494Y-99427410D01*
X163274670Y-99214028D01*
X163293923Y-98993960D01*
X163274670Y-98773892D01*
X163217494Y-98560510D01*
X163124134Y-98360299D01*
X162997426Y-98179340D01*
X162997424Y-98179337D01*
X162900237Y-98082150D01*
X162866752Y-98020827D01*
X162871736Y-97951135D01*
X162900233Y-97906792D01*
X162997426Y-97809600D01*
X163124134Y-97628642D01*
X163217494Y-97428430D01*
X163274670Y-97215048D01*
X163293923Y-96994980D01*
X163274670Y-96774912D01*
X163217494Y-96561530D01*
X163124134Y-96361319D01*
X162997426Y-96180360D01*
X162997424Y-96180357D01*
X162898967Y-96081900D01*
X162865482Y-96020577D01*
X162870466Y-95950885D01*
X162898963Y-95906542D01*
X162997426Y-95808080D01*
X163124134Y-95627122D01*
X163217494Y-95426910D01*
X163274670Y-95213528D01*
X163293923Y-94993460D01*
X163274670Y-94773392D01*
X163217494Y-94560010D01*
X163124134Y-94359799D01*
X162997426Y-94178840D01*
X162997424Y-94178837D01*
X162900237Y-94081650D01*
X162866752Y-94020327D01*
X162871736Y-93950635D01*
X162900233Y-93906292D01*
X162997426Y-93809100D01*
X163124134Y-93628142D01*
X163217494Y-93427930D01*
X163274670Y-93214548D01*
X163293923Y-92994480D01*
X163274670Y-92774412D01*
X163217494Y-92561030D01*
X163124134Y-92360819D01*
X162997426Y-92179860D01*
X162997424Y-92179857D01*
X162900237Y-92082670D01*
X162866752Y-92021347D01*
X162871736Y-91951655D01*
X162900233Y-91907312D01*
X162997426Y-91810120D01*
X163124134Y-91629162D01*
X163217494Y-91428950D01*
X163217499Y-91428928D01*
X163218542Y-91426067D01*
X163219350Y-91424969D01*
X163219782Y-91424043D01*
X163219968Y-91424129D01*
X163259963Y-91369800D01*
X163325229Y-91344858D01*
X163393619Y-91359161D01*
G37*
%TD.AperFunction*%
%TA.AperFunction,Conductor*%
G36*
X185551379Y-60343172D02*
G01*
X185597134Y-60395976D01*
X185607078Y-60465134D01*
X185578053Y-60528690D01*
X185548490Y-60553604D01*
X185407423Y-60638881D01*
X185219030Y-60786476D01*
X185219030Y-60786477D01*
X186360693Y-61928140D01*
X186346590Y-61935411D01*
X186181460Y-62065271D01*
X186043890Y-62224035D01*
X186009334Y-62283887D01*
X184865477Y-61140030D01*
X184865476Y-61140030D01*
X184717881Y-61328423D01*
X184548898Y-61607956D01*
X184548897Y-61607958D01*
X184414839Y-61905824D01*
X184414835Y-61905835D01*
X184317667Y-62217658D01*
X184258786Y-62538961D01*
X184239065Y-62865000D01*
X184258786Y-63191038D01*
X184317667Y-63512341D01*
X184414835Y-63824164D01*
X184414839Y-63824175D01*
X184548897Y-64122041D01*
X184548898Y-64122043D01*
X184717887Y-64401586D01*
X184865477Y-64589968D01*
X186008210Y-63447234D01*
X186108894Y-63588624D01*
X186260932Y-63733592D01*
X186363222Y-63799330D01*
X185219030Y-64943521D01*
X185219030Y-64943522D01*
X185407414Y-65091112D01*
X185407423Y-65091118D01*
X185686956Y-65260101D01*
X185686958Y-65260102D01*
X185984824Y-65394160D01*
X185984835Y-65394164D01*
X186296658Y-65491332D01*
X186617961Y-65550213D01*
X186944000Y-65569934D01*
X187270038Y-65550213D01*
X187591341Y-65491332D01*
X187903164Y-65394164D01*
X187903175Y-65394160D01*
X188201041Y-65260102D01*
X188201043Y-65260101D01*
X188480576Y-65091118D01*
X188480584Y-65091112D01*
X188668968Y-64943522D01*
X188668968Y-64943521D01*
X187527306Y-63801859D01*
X187541410Y-63794589D01*
X187706540Y-63664729D01*
X187844110Y-63505965D01*
X187878665Y-63446112D01*
X189022521Y-64589968D01*
X189022522Y-64589968D01*
X189068586Y-64531172D01*
X189125426Y-64490539D01*
X189195210Y-64487087D01*
X189255783Y-64521911D01*
X189287913Y-64583955D01*
X189290197Y-64607645D01*
X189290197Y-116769353D01*
X189270512Y-116836392D01*
X189217708Y-116882147D01*
X189148550Y-116892091D01*
X189084994Y-116863066D01*
X189068586Y-116845826D01*
X189022521Y-116787030D01*
X187879788Y-117929763D01*
X187779106Y-117788376D01*
X187627068Y-117643408D01*
X187524777Y-117577669D01*
X188668968Y-116433477D01*
X188668968Y-116433476D01*
X188480586Y-116285887D01*
X188201043Y-116116898D01*
X188201041Y-116116897D01*
X187903175Y-115982839D01*
X187903164Y-115982835D01*
X187591341Y-115885667D01*
X187270038Y-115826786D01*
X186944000Y-115807065D01*
X186617961Y-115826786D01*
X186296658Y-115885667D01*
X185984835Y-115982835D01*
X185984824Y-115982839D01*
X185686958Y-116116897D01*
X185686956Y-116116898D01*
X185407423Y-116285881D01*
X185219030Y-116433476D01*
X185219030Y-116433477D01*
X186360693Y-117575140D01*
X186346590Y-117582411D01*
X186181460Y-117712271D01*
X186043890Y-117871035D01*
X186009334Y-117930887D01*
X184865477Y-116787030D01*
X184865476Y-116787030D01*
X184717881Y-116975423D01*
X184548898Y-117254956D01*
X184548897Y-117254958D01*
X184414839Y-117552824D01*
X184414835Y-117552835D01*
X184317667Y-117864658D01*
X184258786Y-118185961D01*
X184239065Y-118512000D01*
X184258786Y-118838038D01*
X184317667Y-119159341D01*
X184414835Y-119471164D01*
X184414839Y-119471175D01*
X184548897Y-119769041D01*
X184548898Y-119769043D01*
X184717887Y-120048586D01*
X184865477Y-120236968D01*
X186008210Y-119094234D01*
X186108894Y-119235624D01*
X186260932Y-119380592D01*
X186363222Y-119446330D01*
X185219030Y-120590521D01*
X185219230Y-120593816D01*
X185203629Y-120661921D01*
X185153684Y-120710781D01*
X185095456Y-120725303D01*
X161186680Y-120725303D01*
X161119641Y-120705618D01*
X161073886Y-120652814D01*
X161063942Y-120583656D01*
X161092967Y-120520100D01*
X161122530Y-120495186D01*
X161175576Y-120463118D01*
X161175584Y-120463112D01*
X161363968Y-120315522D01*
X161363968Y-120315521D01*
X160222306Y-119173859D01*
X160236410Y-119166589D01*
X160401540Y-119036729D01*
X160539110Y-118877965D01*
X160573665Y-118818112D01*
X161717521Y-119961968D01*
X161717522Y-119961968D01*
X161865112Y-119773584D01*
X161865118Y-119773576D01*
X162034101Y-119494043D01*
X162034102Y-119494041D01*
X162168160Y-119196175D01*
X162168164Y-119196164D01*
X162265332Y-118884341D01*
X162324213Y-118563038D01*
X162343934Y-118237000D01*
X162324213Y-117910961D01*
X162265332Y-117589658D01*
X162168164Y-117277835D01*
X162168160Y-117277824D01*
X162034102Y-116979958D01*
X162034101Y-116979956D01*
X161865118Y-116700423D01*
X161865112Y-116700414D01*
X161717521Y-116512030D01*
X160574788Y-117654763D01*
X160474106Y-117513376D01*
X160322068Y-117368408D01*
X160219777Y-117302669D01*
X161363968Y-116158477D01*
X161363968Y-116158476D01*
X161175586Y-116010887D01*
X160896043Y-115841898D01*
X160896041Y-115841897D01*
X160598175Y-115707839D01*
X160598164Y-115707835D01*
X160286341Y-115610667D01*
X159965038Y-115551786D01*
X159639000Y-115532065D01*
X159312961Y-115551786D01*
X158991658Y-115610667D01*
X158679835Y-115707835D01*
X158679824Y-115707839D01*
X158381958Y-115841897D01*
X158381956Y-115841898D01*
X158102423Y-116010881D01*
X157914030Y-116158476D01*
X157914030Y-116158477D01*
X159055693Y-117300140D01*
X159041590Y-117307411D01*
X158876460Y-117437271D01*
X158738890Y-117596035D01*
X158704334Y-117655887D01*
X157560477Y-116512030D01*
X157560476Y-116512030D01*
X157412881Y-116700422D01*
X157408892Y-116707022D01*
X157357363Y-116754209D01*
X157288503Y-116766046D01*
X157224175Y-116738776D01*
X157184802Y-116681056D01*
X157178776Y-116642870D01*
X157178776Y-114935000D01*
X163467341Y-114935000D01*
X163487936Y-115170403D01*
X163487938Y-115170413D01*
X163549094Y-115398655D01*
X163549096Y-115398659D01*
X163549097Y-115398663D01*
X163563975Y-115430568D01*
X163648964Y-115612828D01*
X163648965Y-115612830D01*
X163784505Y-115806402D01*
X163932067Y-115953964D01*
X163965552Y-116015287D01*
X163960568Y-116084979D01*
X163918696Y-116140912D01*
X163909483Y-116147183D01*
X163754659Y-116242680D01*
X163754655Y-116242683D01*
X163630684Y-116366654D01*
X163538643Y-116515875D01*
X163538641Y-116515880D01*
X163483494Y-116682302D01*
X163483493Y-116682309D01*
X163473000Y-116785013D01*
X163473000Y-117185000D01*
X164539314Y-117185000D01*
X164513507Y-117225156D01*
X164473000Y-117363111D01*
X164473000Y-117506889D01*
X164513507Y-117644844D01*
X164539314Y-117685000D01*
X163473001Y-117685000D01*
X163473001Y-118084986D01*
X163483494Y-118187697D01*
X163538641Y-118354119D01*
X163538643Y-118354124D01*
X163630684Y-118503345D01*
X163754654Y-118627315D01*
X163903875Y-118719356D01*
X163903880Y-118719358D01*
X164070302Y-118774505D01*
X164070309Y-118774506D01*
X164173019Y-118784999D01*
X164722999Y-118784999D01*
X164723000Y-118784998D01*
X164723000Y-117870501D01*
X164830685Y-117919680D01*
X164937237Y-117935000D01*
X165008763Y-117935000D01*
X165115315Y-117919680D01*
X165223000Y-117870501D01*
X165223000Y-118784999D01*
X165772972Y-118784999D01*
X165772986Y-118784998D01*
X165875697Y-118774505D01*
X166042119Y-118719358D01*
X166042124Y-118719356D01*
X166191345Y-118627315D01*
X166315315Y-118503345D01*
X166407356Y-118354124D01*
X166407358Y-118354119D01*
X166462505Y-118187697D01*
X166462506Y-118187690D01*
X166472999Y-118084986D01*
X166473000Y-118084973D01*
X166473000Y-117685000D01*
X165406686Y-117685000D01*
X165432493Y-117644844D01*
X165473000Y-117506889D01*
X165473000Y-117488003D01*
X169759000Y-117488003D01*
X170705031Y-117488003D01*
X170672481Y-117538652D01*
X170634000Y-117669708D01*
X170634000Y-117806298D01*
X170672481Y-117937354D01*
X170705031Y-117988003D01*
X169759001Y-117988003D01*
X169759001Y-118512989D01*
X169769494Y-118615700D01*
X169824641Y-118782122D01*
X169824643Y-118782127D01*
X169916684Y-118931348D01*
X170040654Y-119055318D01*
X170189875Y-119147359D01*
X170189880Y-119147361D01*
X170356302Y-119202508D01*
X170356309Y-119202509D01*
X170459019Y-119213002D01*
X170858999Y-119213002D01*
X170859000Y-119213001D01*
X170859000Y-118146021D01*
X170973801Y-118198449D01*
X171075025Y-118213003D01*
X171142975Y-118213003D01*
X171244199Y-118198449D01*
X171359000Y-118146021D01*
X171359000Y-119213002D01*
X171758972Y-119213002D01*
X171758986Y-119213001D01*
X171861697Y-119202508D01*
X172028119Y-119147361D01*
X172028124Y-119147359D01*
X172177345Y-119055318D01*
X172301315Y-118931348D01*
X172396815Y-118776519D01*
X172448763Y-118729795D01*
X172517726Y-118718572D01*
X172581808Y-118746416D01*
X172590035Y-118753934D01*
X172737599Y-118901498D01*
X172737602Y-118901500D01*
X172737603Y-118901501D01*
X172931165Y-119037035D01*
X172931167Y-119037036D01*
X172931170Y-119037038D01*
X173145337Y-119136906D01*
X173145343Y-119136907D01*
X173145344Y-119136908D01*
X173184356Y-119147361D01*
X173373592Y-119198066D01*
X173561918Y-119214542D01*
X173608999Y-119218662D01*
X173609000Y-119218662D01*
X173609001Y-119218662D01*
X173648234Y-119215229D01*
X173844408Y-119198066D01*
X174072663Y-119136906D01*
X174286829Y-119037038D01*
X174480401Y-118901498D01*
X174647495Y-118734404D01*
X174757426Y-118577404D01*
X174812001Y-118533781D01*
X174881500Y-118526587D01*
X174943855Y-118558109D01*
X174960571Y-118577401D01*
X175031144Y-118678190D01*
X175070506Y-118734406D01*
X175172002Y-118835901D01*
X175237599Y-118901498D01*
X175322040Y-118960624D01*
X175431165Y-119037035D01*
X175431167Y-119037036D01*
X175431170Y-119037038D01*
X175645337Y-119136906D01*
X175645343Y-119136907D01*
X175645344Y-119136908D01*
X175684356Y-119147361D01*
X175873592Y-119198066D01*
X176061918Y-119214542D01*
X176108999Y-119218662D01*
X176109000Y-119218662D01*
X176109001Y-119218662D01*
X176148234Y-119215229D01*
X176344408Y-119198066D01*
X176572663Y-119136906D01*
X176786829Y-119037038D01*
X176980401Y-118901498D01*
X177147495Y-118734404D01*
X177283035Y-118540832D01*
X177382903Y-118326666D01*
X177444063Y-118098411D01*
X177459500Y-117921969D01*
X177459500Y-117554037D01*
X177444063Y-117377595D01*
X177382903Y-117149340D01*
X177283035Y-116935174D01*
X177282914Y-116935000D01*
X177147494Y-116741600D01*
X176980402Y-116574509D01*
X176980395Y-116574504D01*
X176969992Y-116567220D01*
X176896672Y-116515880D01*
X176786834Y-116438970D01*
X176786830Y-116438968D01*
X176786828Y-116438967D01*
X176572663Y-116339100D01*
X176572659Y-116339099D01*
X176572655Y-116339097D01*
X176344413Y-116277941D01*
X176344403Y-116277939D01*
X176109001Y-116257344D01*
X176108999Y-116257344D01*
X175873596Y-116277939D01*
X175873586Y-116277941D01*
X175645344Y-116339097D01*
X175645335Y-116339101D01*
X175431171Y-116438967D01*
X175431169Y-116438968D01*
X175237597Y-116574508D01*
X175070505Y-116741600D01*
X174960575Y-116898598D01*
X174905998Y-116942223D01*
X174836500Y-116949417D01*
X174774145Y-116917894D01*
X174757425Y-116898598D01*
X174647494Y-116741600D01*
X174480402Y-116574509D01*
X174480395Y-116574504D01*
X174469992Y-116567220D01*
X174396672Y-116515880D01*
X174286834Y-116438970D01*
X174286830Y-116438968D01*
X174286828Y-116438967D01*
X174072663Y-116339100D01*
X174072659Y-116339099D01*
X174072655Y-116339097D01*
X173844413Y-116277941D01*
X173844403Y-116277939D01*
X173609001Y-116257344D01*
X173608999Y-116257344D01*
X173373596Y-116277939D01*
X173373586Y-116277941D01*
X173145344Y-116339097D01*
X173145335Y-116339101D01*
X172931171Y-116438967D01*
X172931169Y-116438968D01*
X172737597Y-116574508D01*
X172590035Y-116722071D01*
X172528712Y-116755556D01*
X172459020Y-116750572D01*
X172403087Y-116708700D01*
X172396815Y-116699487D01*
X172301315Y-116544657D01*
X172177345Y-116420687D01*
X172028124Y-116328646D01*
X172028119Y-116328644D01*
X171861697Y-116273497D01*
X171861690Y-116273496D01*
X171758986Y-116263003D01*
X171359000Y-116263003D01*
X171359000Y-117329984D01*
X171244199Y-117277557D01*
X171142975Y-117263003D01*
X171075025Y-117263003D01*
X170973801Y-117277557D01*
X170859000Y-117329984D01*
X170859000Y-116263003D01*
X170459028Y-116263003D01*
X170459012Y-116263004D01*
X170356302Y-116273497D01*
X170189880Y-116328644D01*
X170189875Y-116328646D01*
X170040654Y-116420687D01*
X169916684Y-116544657D01*
X169824643Y-116693878D01*
X169824641Y-116693883D01*
X169769494Y-116860305D01*
X169769493Y-116860312D01*
X169759000Y-116963016D01*
X169759000Y-117488003D01*
X165473000Y-117488003D01*
X165473000Y-117363111D01*
X165432493Y-117225156D01*
X165406686Y-117185000D01*
X166472999Y-117185000D01*
X166472999Y-116785028D01*
X166472998Y-116785013D01*
X166462505Y-116682302D01*
X166407358Y-116515880D01*
X166407356Y-116515875D01*
X166315315Y-116366654D01*
X166191344Y-116242683D01*
X166191340Y-116242680D01*
X166036516Y-116147183D01*
X165989791Y-116095235D01*
X165978570Y-116026273D01*
X166006413Y-115962191D01*
X166013932Y-115953964D01*
X166082229Y-115885667D01*
X166161495Y-115806401D01*
X166297035Y-115612830D01*
X166396903Y-115398663D01*
X166458063Y-115170408D01*
X166478659Y-114935000D01*
X166458063Y-114699592D01*
X166396903Y-114471337D01*
X166297035Y-114257171D01*
X166297034Y-114257169D01*
X166161494Y-114063597D01*
X165994402Y-113896505D01*
X165800830Y-113760965D01*
X165800828Y-113760964D01*
X165681402Y-113705275D01*
X165586663Y-113661097D01*
X165586659Y-113661096D01*
X165586655Y-113661094D01*
X165358413Y-113599938D01*
X165358403Y-113599936D01*
X165181966Y-113584500D01*
X164764034Y-113584500D01*
X164587596Y-113599936D01*
X164587586Y-113599938D01*
X164359344Y-113661094D01*
X164359335Y-113661098D01*
X164145171Y-113760964D01*
X164145169Y-113760965D01*
X163951597Y-113896505D01*
X163784506Y-114063597D01*
X163784501Y-114063604D01*
X163648967Y-114257165D01*
X163648965Y-114257169D01*
X163549098Y-114471335D01*
X163549094Y-114471344D01*
X163487938Y-114699586D01*
X163487936Y-114699596D01*
X163467341Y-114934999D01*
X163467341Y-114935000D01*
X157178776Y-114935000D01*
X157178776Y-105156003D01*
X158325435Y-105156003D01*
X158345630Y-105335249D01*
X158345631Y-105335254D01*
X158405211Y-105505523D01*
X158459096Y-105591280D01*
X158501184Y-105658262D01*
X158628738Y-105785816D01*
X158685504Y-105821484D01*
X158781477Y-105881789D01*
X158845950Y-105904348D01*
X158884983Y-105918006D01*
X158931711Y-105947367D01*
X162302392Y-109318048D01*
X162304928Y-109320742D01*
X162346071Y-109367183D01*
X162393631Y-109400011D01*
X162397115Y-109402416D01*
X162400120Y-109404626D01*
X162448944Y-109442878D01*
X162448946Y-109442879D01*
X162448949Y-109442881D01*
X162458177Y-109447034D01*
X162477731Y-109458062D01*
X162486066Y-109463816D01*
X162486068Y-109463816D01*
X162486070Y-109463818D01*
X162544079Y-109485817D01*
X162547476Y-109487224D01*
X162594770Y-109508509D01*
X162604064Y-109512693D01*
X162604065Y-109512693D01*
X162604069Y-109512695D01*
X162614034Y-109514521D01*
X162635656Y-109520548D01*
X162638777Y-109521731D01*
X162645128Y-109524140D01*
X162690251Y-109529618D01*
X162706674Y-109531613D01*
X162710371Y-109532175D01*
X162771394Y-109543358D01*
X162826752Y-109540009D01*
X162833303Y-109539613D01*
X162837048Y-109539500D01*
X167087506Y-109539500D01*
X167153477Y-109558506D01*
X167163474Y-109564787D01*
X167163475Y-109564787D01*
X167163478Y-109564789D01*
X167333745Y-109624368D01*
X167333749Y-109624369D01*
X167425754Y-109634734D01*
X167464383Y-109639087D01*
X167528797Y-109666153D01*
X167568352Y-109723747D01*
X167574500Y-109762307D01*
X167574500Y-112752951D01*
X167574387Y-112756696D01*
X167570642Y-112818603D01*
X167570642Y-112818605D01*
X167581821Y-112879612D01*
X167582384Y-112883313D01*
X167589859Y-112944870D01*
X167589860Y-112944874D01*
X167593451Y-112954343D01*
X167599474Y-112975946D01*
X167601304Y-112985930D01*
X167626759Y-113042490D01*
X167628189Y-113045941D01*
X167650182Y-113103930D01*
X167650183Y-113103931D01*
X167655936Y-113112266D01*
X167666961Y-113131813D01*
X167671120Y-113141055D01*
X167671122Y-113141057D01*
X167693351Y-113169431D01*
X167709371Y-113189878D01*
X167711591Y-113192896D01*
X167746812Y-113243924D01*
X167746816Y-113243928D01*
X167746817Y-113243929D01*
X167793250Y-113285064D01*
X167795941Y-113287598D01*
X168147854Y-113639511D01*
X168477972Y-113969629D01*
X168511457Y-114030952D01*
X168513819Y-114068117D01*
X168493532Y-114299998D01*
X168493532Y-114300001D01*
X168513364Y-114526686D01*
X168513366Y-114526697D01*
X168572258Y-114746488D01*
X168572261Y-114746497D01*
X168668431Y-114952732D01*
X168668432Y-114952734D01*
X168798954Y-115139141D01*
X168959858Y-115300045D01*
X168959861Y-115300047D01*
X169146266Y-115430568D01*
X169352504Y-115526739D01*
X169572308Y-115585635D01*
X169734230Y-115599801D01*
X169798998Y-115605468D01*
X169799000Y-115605468D01*
X169799002Y-115605468D01*
X169855673Y-115600509D01*
X170025692Y-115585635D01*
X170245496Y-115526739D01*
X170451734Y-115430568D01*
X170638139Y-115300047D01*
X170799047Y-115139139D01*
X170929568Y-114952734D01*
X170956618Y-114894724D01*
X171002790Y-114842285D01*
X171069983Y-114823133D01*
X171136865Y-114843348D01*
X171181382Y-114894725D01*
X171208429Y-114952728D01*
X171208432Y-114952734D01*
X171338954Y-115139141D01*
X171499858Y-115300045D01*
X171499861Y-115300047D01*
X171686266Y-115430568D01*
X171892504Y-115526739D01*
X172112308Y-115585635D01*
X172274230Y-115599801D01*
X172338998Y-115605468D01*
X172339000Y-115605468D01*
X172339002Y-115605468D01*
X172395673Y-115600509D01*
X172565692Y-115585635D01*
X172785496Y-115526739D01*
X172991734Y-115430568D01*
X173178139Y-115300047D01*
X173339047Y-115139139D01*
X173469568Y-114952734D01*
X173496618Y-114894724D01*
X173542790Y-114842285D01*
X173609983Y-114823133D01*
X173676865Y-114843348D01*
X173721382Y-114894725D01*
X173748429Y-114952728D01*
X173748432Y-114952734D01*
X173878954Y-115139141D01*
X174039858Y-115300045D01*
X174039861Y-115300047D01*
X174226266Y-115430568D01*
X174432504Y-115526739D01*
X174652308Y-115585635D01*
X174814230Y-115599801D01*
X174878998Y-115605468D01*
X174879000Y-115605468D01*
X174879002Y-115605468D01*
X174935673Y-115600509D01*
X175105692Y-115585635D01*
X175325496Y-115526739D01*
X175531734Y-115430568D01*
X175718139Y-115300047D01*
X175879047Y-115139139D01*
X176009568Y-114952734D01*
X176036618Y-114894724D01*
X176082790Y-114842285D01*
X176149983Y-114823133D01*
X176216865Y-114843348D01*
X176261382Y-114894725D01*
X176288429Y-114952728D01*
X176288432Y-114952734D01*
X176418954Y-115139141D01*
X176579858Y-115300045D01*
X176579861Y-115300047D01*
X176766266Y-115430568D01*
X176972504Y-115526739D01*
X177192308Y-115585635D01*
X177354230Y-115599801D01*
X177418998Y-115605468D01*
X177419000Y-115605468D01*
X177419002Y-115605468D01*
X177475673Y-115600509D01*
X177645692Y-115585635D01*
X177865496Y-115526739D01*
X178071734Y-115430568D01*
X178258139Y-115300047D01*
X178419047Y-115139139D01*
X178549568Y-114952734D01*
X178645739Y-114746496D01*
X178704635Y-114526692D01*
X178723599Y-114309922D01*
X178749051Y-114244856D01*
X178759438Y-114233059D01*
X179325737Y-113666760D01*
X179340525Y-113654130D01*
X179351871Y-113645888D01*
X179398347Y-113594270D01*
X179400570Y-113591928D01*
X179404498Y-113588000D01*
X179416119Y-113576380D01*
X179429982Y-113559260D01*
X179432049Y-113556841D01*
X179478533Y-113505216D01*
X179485538Y-113493080D01*
X179496570Y-113477031D01*
X179505381Y-113466151D01*
X179505383Y-113466149D01*
X179508079Y-113460858D01*
X179536934Y-113404222D01*
X179538425Y-113401476D01*
X179573179Y-113341284D01*
X179577509Y-113327956D01*
X179584960Y-113309969D01*
X179591319Y-113297490D01*
X179591320Y-113297488D01*
X179594653Y-113285047D01*
X179609297Y-113230390D01*
X179610201Y-113227337D01*
X179631674Y-113161256D01*
X179633139Y-113147307D01*
X179636684Y-113128183D01*
X179640312Y-113114646D01*
X179643947Y-113045284D01*
X179644200Y-113042071D01*
X179646500Y-113020192D01*
X179646500Y-112998196D01*
X179646585Y-112994950D01*
X179646685Y-112993038D01*
X179650219Y-112925612D01*
X179648027Y-112911772D01*
X179646500Y-112892373D01*
X179646500Y-97479713D01*
X179648027Y-97460312D01*
X179650219Y-97446475D01*
X179646584Y-97377127D01*
X179646500Y-97373884D01*
X179646500Y-97351896D01*
X179646499Y-97351887D01*
X179644201Y-97330023D01*
X179643947Y-97326807D01*
X179640313Y-97257442D01*
X179636685Y-97243901D01*
X179633139Y-97224775D01*
X179631674Y-97210831D01*
X179610209Y-97144769D01*
X179609296Y-97141688D01*
X179591320Y-97074599D01*
X179584956Y-97062109D01*
X179577511Y-97044137D01*
X179573179Y-97030803D01*
X179573174Y-97030794D01*
X179538453Y-96970656D01*
X179536903Y-96967801D01*
X179505383Y-96905938D01*
X179496557Y-96895039D01*
X179485540Y-96879007D01*
X179483065Y-96874720D01*
X179478533Y-96866871D01*
X179452514Y-96837974D01*
X179432058Y-96815255D01*
X179429964Y-96812803D01*
X179416120Y-96795707D01*
X179400568Y-96780155D01*
X179398348Y-96777817D01*
X179351871Y-96726199D01*
X179351869Y-96726197D01*
X179340529Y-96717958D01*
X179325736Y-96705323D01*
X175512677Y-92892265D01*
X175500039Y-92877468D01*
X175491800Y-92866128D01*
X175440190Y-92819657D01*
X175437835Y-92817423D01*
X175422295Y-92801882D01*
X175405208Y-92788043D01*
X175402744Y-92785939D01*
X175351133Y-92739470D01*
X175351126Y-92739465D01*
X175338983Y-92732454D01*
X175322956Y-92721438D01*
X175312066Y-92712620D01*
X175312064Y-92712619D01*
X175312062Y-92712617D01*
X175293172Y-92702992D01*
X175250179Y-92681085D01*
X175247327Y-92679537D01*
X175213345Y-92659918D01*
X175187197Y-92644821D01*
X175187196Y-92644820D01*
X175187195Y-92644820D01*
X175173862Y-92640488D01*
X175155891Y-92633043D01*
X175143411Y-92626684D01*
X175143399Y-92626679D01*
X175076322Y-92608705D01*
X175073222Y-92607787D01*
X175007169Y-92586326D01*
X175007164Y-92586325D01*
X175007162Y-92586325D01*
X174993227Y-92584860D01*
X174974102Y-92581315D01*
X174960566Y-92577688D01*
X174960556Y-92577686D01*
X174891203Y-92574051D01*
X174887972Y-92573797D01*
X174873450Y-92572271D01*
X174866105Y-92571500D01*
X174866102Y-92571500D01*
X174844116Y-92571500D01*
X174840872Y-92571415D01*
X174771525Y-92567781D01*
X174771524Y-92567781D01*
X174757685Y-92569973D01*
X174738286Y-92571500D01*
X170929481Y-92571500D01*
X170862442Y-92551815D01*
X170841800Y-92535181D01*
X167206620Y-88900001D01*
X171922532Y-88900001D01*
X171942364Y-89126686D01*
X171942366Y-89126697D01*
X172001258Y-89346488D01*
X172001261Y-89346497D01*
X172097431Y-89552732D01*
X172097432Y-89552734D01*
X172227954Y-89739141D01*
X172388858Y-89900045D01*
X172388861Y-89900047D01*
X172575266Y-90030568D01*
X172781504Y-90126739D01*
X173001308Y-90185635D01*
X173163230Y-90199801D01*
X173227998Y-90205468D01*
X173228000Y-90205468D01*
X173228002Y-90205468D01*
X173284673Y-90200509D01*
X173454692Y-90185635D01*
X173674496Y-90126739D01*
X173880734Y-90030568D01*
X174067139Y-89900047D01*
X174130368Y-89836817D01*
X174191689Y-89803334D01*
X174218048Y-89800500D01*
X176486639Y-89800500D01*
X176553678Y-89820185D01*
X176574320Y-89836819D01*
X179908181Y-93170680D01*
X179941666Y-93232003D01*
X179944500Y-93258361D01*
X179944500Y-115954373D01*
X179942973Y-115973772D01*
X179940781Y-115987611D01*
X179944415Y-116056956D01*
X179944500Y-116060201D01*
X179944500Y-116082189D01*
X179946797Y-116104059D01*
X179947051Y-116107290D01*
X179950686Y-116176643D01*
X179950688Y-116176653D01*
X179954315Y-116190189D01*
X179957860Y-116209314D01*
X179958090Y-116211500D01*
X179959326Y-116223256D01*
X179980393Y-116288097D01*
X179980784Y-116289298D01*
X179981705Y-116292409D01*
X179999679Y-116359486D01*
X179999684Y-116359498D01*
X180006043Y-116371978D01*
X180013488Y-116389949D01*
X180017820Y-116403282D01*
X180052537Y-116463414D01*
X180054085Y-116466266D01*
X180061956Y-116481712D01*
X180085617Y-116528149D01*
X180085619Y-116528151D01*
X180085620Y-116528153D01*
X180094438Y-116539043D01*
X180105454Y-116555070D01*
X180112465Y-116567213D01*
X180112470Y-116567220D01*
X180158939Y-116618831D01*
X180161043Y-116621295D01*
X180174882Y-116638382D01*
X180190423Y-116653922D01*
X180192657Y-116656277D01*
X180239128Y-116707887D01*
X180250468Y-116716126D01*
X180265265Y-116728764D01*
X180844131Y-117307630D01*
X180877616Y-117368953D01*
X180879978Y-117406118D01*
X180866341Y-117561997D01*
X180866341Y-117562000D01*
X180886936Y-117797403D01*
X180886938Y-117797413D01*
X180948094Y-118025655D01*
X180948096Y-118025659D01*
X180948097Y-118025663D01*
X180973315Y-118079742D01*
X181047964Y-118239828D01*
X181047965Y-118239830D01*
X181183505Y-118433402D01*
X181350597Y-118600494D01*
X181544169Y-118736034D01*
X181544171Y-118736035D01*
X181758337Y-118835903D01*
X181986592Y-118897063D01*
X182163034Y-118912500D01*
X182580966Y-118912500D01*
X182757408Y-118897063D01*
X182985663Y-118835903D01*
X183199829Y-118736035D01*
X183393401Y-118600495D01*
X183560495Y-118433401D01*
X183696035Y-118239830D01*
X183795903Y-118025663D01*
X183857063Y-117797408D01*
X183877659Y-117562000D01*
X183857063Y-117326592D01*
X183795903Y-117098337D01*
X183696035Y-116884171D01*
X183681258Y-116863066D01*
X183560494Y-116690597D01*
X183412932Y-116543035D01*
X183379447Y-116481712D01*
X183384431Y-116412020D01*
X183426303Y-116356087D01*
X183435516Y-116349815D01*
X183590345Y-116254315D01*
X183714315Y-116130345D01*
X183806358Y-115981121D01*
X183806358Y-115981119D01*
X183861505Y-115814697D01*
X183861506Y-115814690D01*
X183871999Y-115711986D01*
X183872000Y-115711973D01*
X183872000Y-115312000D01*
X182805686Y-115312000D01*
X182831493Y-115271844D01*
X182872000Y-115133889D01*
X182872000Y-114990111D01*
X182831493Y-114852156D01*
X182805686Y-114812000D01*
X183871999Y-114812000D01*
X183871999Y-114412028D01*
X183871998Y-114412013D01*
X183861505Y-114309302D01*
X183806358Y-114142880D01*
X183806356Y-114142875D01*
X183714315Y-113993654D01*
X183590345Y-113869684D01*
X183441124Y-113777643D01*
X183441119Y-113777641D01*
X183274697Y-113722494D01*
X183274690Y-113722493D01*
X183171986Y-113712000D01*
X182622000Y-113712000D01*
X182622000Y-114626498D01*
X182514315Y-114577320D01*
X182407763Y-114562000D01*
X182336237Y-114562000D01*
X182229685Y-114577320D01*
X182122000Y-114626498D01*
X182122000Y-113712000D01*
X181869500Y-113712000D01*
X181802461Y-113692315D01*
X181756706Y-113639511D01*
X181745500Y-113588000D01*
X181745500Y-102994462D01*
X182755677Y-102994462D01*
X182774929Y-103214522D01*
X182774930Y-103214530D01*
X182832104Y-103427905D01*
X182832105Y-103427907D01*
X182832106Y-103427910D01*
X182887921Y-103547606D01*
X182925466Y-103628122D01*
X182925468Y-103628126D01*
X183052170Y-103809075D01*
X183052175Y-103809081D01*
X183208378Y-103965284D01*
X183208384Y-103965289D01*
X183389333Y-104091991D01*
X183389335Y-104091992D01*
X183389338Y-104091994D01*
X183589550Y-104185354D01*
X183802932Y-104242530D01*
X183960123Y-104256282D01*
X184022998Y-104261783D01*
X184023000Y-104261783D01*
X184023002Y-104261783D01*
X184078017Y-104256969D01*
X184243068Y-104242530D01*
X184456450Y-104185354D01*
X184656662Y-104091994D01*
X184837620Y-103965286D01*
X184993826Y-103809080D01*
X185120534Y-103628122D01*
X185213894Y-103427910D01*
X185271070Y-103214528D01*
X185285509Y-103049477D01*
X185290323Y-102994462D01*
X185290323Y-102994457D01*
X185275771Y-102828127D01*
X185271070Y-102774392D01*
X185213894Y-102561010D01*
X185120534Y-102360799D01*
X184993826Y-102179840D01*
X184993824Y-102179837D01*
X184896637Y-102082650D01*
X184863152Y-102021327D01*
X184868136Y-101951635D01*
X184896633Y-101907292D01*
X184993826Y-101810100D01*
X185120534Y-101629142D01*
X185213894Y-101428930D01*
X185271070Y-101215548D01*
X185290323Y-100995480D01*
X185271070Y-100775412D01*
X185213894Y-100562030D01*
X185120534Y-100361819D01*
X184993826Y-100180860D01*
X184993824Y-100180857D01*
X184895367Y-100082400D01*
X184861882Y-100021077D01*
X184866866Y-99951385D01*
X184895363Y-99907042D01*
X184993826Y-99808580D01*
X185120534Y-99627622D01*
X185213894Y-99427410D01*
X185271070Y-99214028D01*
X185290323Y-98993960D01*
X185271070Y-98773892D01*
X185213894Y-98560510D01*
X185120534Y-98360299D01*
X184993826Y-98179340D01*
X184993824Y-98179337D01*
X184896637Y-98082150D01*
X184863152Y-98020827D01*
X184868136Y-97951135D01*
X184896633Y-97906792D01*
X184993826Y-97809600D01*
X185120534Y-97628642D01*
X185213894Y-97428430D01*
X185271070Y-97215048D01*
X185290323Y-96994980D01*
X185271070Y-96774912D01*
X185213894Y-96561530D01*
X185120534Y-96361319D01*
X184993826Y-96180360D01*
X184993824Y-96180357D01*
X184895367Y-96081900D01*
X184861882Y-96020577D01*
X184866866Y-95950885D01*
X184895363Y-95906542D01*
X184993826Y-95808080D01*
X185120534Y-95627122D01*
X185213894Y-95426910D01*
X185271070Y-95213528D01*
X185290323Y-94993460D01*
X185271070Y-94773392D01*
X185213894Y-94560010D01*
X185120534Y-94359799D01*
X184993826Y-94178840D01*
X184993824Y-94178837D01*
X184896637Y-94081650D01*
X184863152Y-94020327D01*
X184868136Y-93950635D01*
X184896633Y-93906292D01*
X184993826Y-93809100D01*
X185120534Y-93628142D01*
X185213894Y-93427930D01*
X185271070Y-93214548D01*
X185290323Y-92994480D01*
X185271070Y-92774412D01*
X185213894Y-92561030D01*
X185120534Y-92360819D01*
X184993826Y-92179860D01*
X184993824Y-92179857D01*
X184896637Y-92082670D01*
X184863152Y-92021347D01*
X184868136Y-91951655D01*
X184896633Y-91907312D01*
X184993826Y-91810120D01*
X185120534Y-91629162D01*
X185213894Y-91428950D01*
X185271070Y-91215568D01*
X185290323Y-90995500D01*
X185271070Y-90775432D01*
X185213894Y-90562050D01*
X185120534Y-90361839D01*
X185011043Y-90205468D01*
X184993824Y-90180877D01*
X184895367Y-90082420D01*
X184861882Y-90021097D01*
X184866866Y-89951405D01*
X184895363Y-89907062D01*
X184993826Y-89808600D01*
X185120534Y-89627642D01*
X185213894Y-89427430D01*
X185271070Y-89214048D01*
X185290323Y-88993980D01*
X185271070Y-88773912D01*
X185213894Y-88560530D01*
X185120534Y-88360319D01*
X184993826Y-88179360D01*
X184993824Y-88179357D01*
X184896637Y-88082170D01*
X184863152Y-88020847D01*
X184868136Y-87951155D01*
X184896633Y-87906812D01*
X184993826Y-87809620D01*
X185120534Y-87628662D01*
X185213894Y-87428450D01*
X185271070Y-87215068D01*
X185290323Y-86995000D01*
X185271070Y-86774932D01*
X185213894Y-86561550D01*
X185120534Y-86361339D01*
X184993826Y-86180380D01*
X184993824Y-86180377D01*
X184895367Y-86081920D01*
X184861882Y-86020597D01*
X184866866Y-85950905D01*
X184895363Y-85906562D01*
X184993826Y-85808100D01*
X185120534Y-85627142D01*
X185213894Y-85426930D01*
X185271070Y-85213548D01*
X185290323Y-84993480D01*
X185271070Y-84773412D01*
X185213894Y-84560030D01*
X185120534Y-84359819D01*
X184993826Y-84178860D01*
X184837620Y-84022654D01*
X184837616Y-84022651D01*
X184837615Y-84022650D01*
X184656666Y-83895948D01*
X184656662Y-83895946D01*
X184656660Y-83895945D01*
X184456450Y-83802586D01*
X184456447Y-83802585D01*
X184456445Y-83802584D01*
X184243070Y-83745410D01*
X184243062Y-83745409D01*
X184023002Y-83726157D01*
X184022998Y-83726157D01*
X183802937Y-83745409D01*
X183802929Y-83745410D01*
X183589554Y-83802584D01*
X183589548Y-83802587D01*
X183389340Y-83895945D01*
X183389338Y-83895946D01*
X183208377Y-84022655D01*
X183052175Y-84178857D01*
X182925466Y-84359818D01*
X182925465Y-84359820D01*
X182832107Y-84560028D01*
X182832104Y-84560034D01*
X182774930Y-84773409D01*
X182774929Y-84773417D01*
X182755677Y-84993477D01*
X182755677Y-84993482D01*
X182774929Y-85213542D01*
X182774930Y-85213550D01*
X182832104Y-85426925D01*
X182832105Y-85426927D01*
X182832106Y-85426930D01*
X182900318Y-85573211D01*
X182925466Y-85627142D01*
X182925468Y-85627146D01*
X183052170Y-85808095D01*
X183052175Y-85808101D01*
X183150632Y-85906558D01*
X183184117Y-85967881D01*
X183179133Y-86037573D01*
X183150633Y-86081920D01*
X183052172Y-86180381D01*
X182925466Y-86361338D01*
X182925465Y-86361340D01*
X182832107Y-86561548D01*
X182832104Y-86561554D01*
X182774930Y-86774929D01*
X182774929Y-86774937D01*
X182755677Y-86994997D01*
X182755677Y-86995002D01*
X182774929Y-87215062D01*
X182774930Y-87215070D01*
X182832104Y-87428445D01*
X182832105Y-87428447D01*
X182832106Y-87428450D01*
X182892346Y-87557635D01*
X182925466Y-87628662D01*
X182925468Y-87628666D01*
X183052170Y-87809615D01*
X183052175Y-87809621D01*
X183149362Y-87906808D01*
X183182847Y-87968131D01*
X183177863Y-88037823D01*
X183149363Y-88082170D01*
X183052172Y-88179361D01*
X182925466Y-88360318D01*
X182925465Y-88360320D01*
X182832107Y-88560528D01*
X182832104Y-88560534D01*
X182774930Y-88773909D01*
X182774929Y-88773917D01*
X182755677Y-88993977D01*
X182755677Y-88993982D01*
X182774929Y-89214042D01*
X182774930Y-89214050D01*
X182832104Y-89427425D01*
X182832105Y-89427427D01*
X182832106Y-89427430D01*
X182890535Y-89552732D01*
X182925466Y-89627642D01*
X182925468Y-89627646D01*
X183052170Y-89808595D01*
X183052175Y-89808601D01*
X183150632Y-89907058D01*
X183184117Y-89968381D01*
X183179133Y-90038073D01*
X183150633Y-90082420D01*
X183052172Y-90180881D01*
X182925466Y-90361838D01*
X182925465Y-90361840D01*
X182832107Y-90562048D01*
X182832104Y-90562054D01*
X182774930Y-90775429D01*
X182774929Y-90775437D01*
X182755677Y-90995497D01*
X182755677Y-90995502D01*
X182774929Y-91215562D01*
X182774930Y-91215570D01*
X182832104Y-91428945D01*
X182832105Y-91428947D01*
X182832106Y-91428950D01*
X182832110Y-91428958D01*
X182925466Y-91629162D01*
X182925468Y-91629166D01*
X183052170Y-91810115D01*
X183052175Y-91810121D01*
X183149362Y-91907308D01*
X183182847Y-91968631D01*
X183177863Y-92038323D01*
X183149363Y-92082670D01*
X183052172Y-92179861D01*
X182925466Y-92360818D01*
X182925465Y-92360820D01*
X182832107Y-92561028D01*
X182832104Y-92561034D01*
X182774930Y-92774409D01*
X182774929Y-92774417D01*
X182755677Y-92994477D01*
X182755677Y-92994482D01*
X182774929Y-93214542D01*
X182774930Y-93214550D01*
X182832104Y-93427925D01*
X182832105Y-93427927D01*
X182832106Y-93427930D01*
X182925466Y-93628142D01*
X182925468Y-93628146D01*
X183052170Y-93809095D01*
X183052175Y-93809101D01*
X183149362Y-93906288D01*
X183182847Y-93967611D01*
X183177863Y-94037303D01*
X183149363Y-94081650D01*
X183052172Y-94178841D01*
X182925466Y-94359798D01*
X182925465Y-94359800D01*
X182832107Y-94560008D01*
X182832104Y-94560014D01*
X182774930Y-94773389D01*
X182774929Y-94773397D01*
X182755677Y-94993457D01*
X182755677Y-94993462D01*
X182774929Y-95213522D01*
X182774930Y-95213530D01*
X182832104Y-95426905D01*
X182832105Y-95426907D01*
X182832106Y-95426910D01*
X182925466Y-95627122D01*
X182925468Y-95627126D01*
X183052170Y-95808075D01*
X183052175Y-95808081D01*
X183150632Y-95906538D01*
X183184117Y-95967861D01*
X183179133Y-96037553D01*
X183150633Y-96081900D01*
X183052172Y-96180361D01*
X182925466Y-96361318D01*
X182925465Y-96361320D01*
X182832107Y-96561528D01*
X182832104Y-96561534D01*
X182774930Y-96774909D01*
X182774929Y-96774917D01*
X182755677Y-96994977D01*
X182755677Y-96994982D01*
X182774929Y-97215042D01*
X182774930Y-97215050D01*
X182832104Y-97428425D01*
X182832105Y-97428427D01*
X182832106Y-97428430D01*
X182878224Y-97527331D01*
X182925466Y-97628642D01*
X182925468Y-97628646D01*
X183052170Y-97809595D01*
X183052175Y-97809601D01*
X183149362Y-97906788D01*
X183182847Y-97968111D01*
X183177863Y-98037803D01*
X183149363Y-98082150D01*
X183052172Y-98179341D01*
X182925466Y-98360298D01*
X182925465Y-98360300D01*
X182832107Y-98560508D01*
X182832104Y-98560514D01*
X182774930Y-98773889D01*
X182774929Y-98773897D01*
X182755677Y-98993957D01*
X182755677Y-98993962D01*
X182774929Y-99214022D01*
X182774930Y-99214030D01*
X182832104Y-99427405D01*
X182832105Y-99427407D01*
X182832106Y-99427410D01*
X182894988Y-99562262D01*
X182925466Y-99627622D01*
X182925468Y-99627626D01*
X183052170Y-99808575D01*
X183052175Y-99808581D01*
X183150632Y-99907038D01*
X183184117Y-99968361D01*
X183179133Y-100038053D01*
X183150633Y-100082400D01*
X183052172Y-100180861D01*
X182925466Y-100361818D01*
X182925465Y-100361820D01*
X182832107Y-100562028D01*
X182832104Y-100562034D01*
X182774930Y-100775409D01*
X182774929Y-100775417D01*
X182755677Y-100995477D01*
X182755677Y-100995482D01*
X182774929Y-101215542D01*
X182774930Y-101215550D01*
X182832104Y-101428925D01*
X182832105Y-101428927D01*
X182832106Y-101428930D01*
X182925466Y-101629142D01*
X182925468Y-101629146D01*
X183052170Y-101810095D01*
X183052175Y-101810101D01*
X183149362Y-101907288D01*
X183182847Y-101968611D01*
X183177863Y-102038303D01*
X183149363Y-102082650D01*
X183052172Y-102179841D01*
X182925466Y-102360798D01*
X182925465Y-102360800D01*
X182832107Y-102561008D01*
X182832104Y-102561014D01*
X182774930Y-102774389D01*
X182774929Y-102774397D01*
X182755677Y-102994457D01*
X182755677Y-102994462D01*
X181745500Y-102994462D01*
X181745500Y-92936566D01*
X181747027Y-92917167D01*
X181752065Y-92885363D01*
X181752219Y-92884388D01*
X181749905Y-92840243D01*
X181749905Y-92833752D01*
X181750644Y-92819657D01*
X181752219Y-92789612D01*
X181745302Y-92745944D01*
X181744626Y-92739512D01*
X181742313Y-92695355D01*
X181730869Y-92652645D01*
X181729521Y-92646309D01*
X181722607Y-92602650D01*
X181706764Y-92561379D01*
X181704764Y-92555223D01*
X181693320Y-92512512D01*
X181693318Y-92512508D01*
X181693317Y-92512505D01*
X181673255Y-92473131D01*
X181670613Y-92467198D01*
X181654772Y-92425931D01*
X181654772Y-92425930D01*
X181630688Y-92388842D01*
X181627448Y-92383231D01*
X181607383Y-92343851D01*
X181579564Y-92309497D01*
X181575750Y-92304247D01*
X181551680Y-92267182D01*
X181551677Y-92267179D01*
X181551675Y-92267175D01*
X181417825Y-92133325D01*
X181417824Y-92133324D01*
X177604763Y-88320264D01*
X177592126Y-88305468D01*
X177583887Y-88294128D01*
X177532277Y-88247657D01*
X177529922Y-88245423D01*
X177514382Y-88229882D01*
X177497295Y-88216043D01*
X177494831Y-88213939D01*
X177443220Y-88167470D01*
X177443213Y-88167465D01*
X177431070Y-88160454D01*
X177415043Y-88149438D01*
X177404153Y-88140620D01*
X177404151Y-88140619D01*
X177404149Y-88140617D01*
X177385259Y-88130992D01*
X177342266Y-88109085D01*
X177339414Y-88107537D01*
X177279282Y-88072820D01*
X177265949Y-88068488D01*
X177247978Y-88061043D01*
X177235498Y-88054684D01*
X177235486Y-88054679D01*
X177168409Y-88036705D01*
X177165309Y-88035787D01*
X177099256Y-88014326D01*
X177099251Y-88014325D01*
X177099249Y-88014325D01*
X177085314Y-88012860D01*
X177066189Y-88009315D01*
X177052653Y-88005688D01*
X177052643Y-88005686D01*
X176983290Y-88002051D01*
X176980059Y-88001797D01*
X176965537Y-88000271D01*
X176958192Y-87999500D01*
X176958189Y-87999500D01*
X176936203Y-87999500D01*
X176932959Y-87999415D01*
X176863612Y-87995781D01*
X176863611Y-87995781D01*
X176849772Y-87997973D01*
X176830373Y-87999500D01*
X174218048Y-87999500D01*
X174151009Y-87979815D01*
X174130371Y-87963185D01*
X174067139Y-87899953D01*
X174067138Y-87899952D01*
X174067137Y-87899951D01*
X173880734Y-87769432D01*
X173880732Y-87769431D01*
X173674497Y-87673261D01*
X173674488Y-87673258D01*
X173454697Y-87614366D01*
X173454693Y-87614365D01*
X173454692Y-87614365D01*
X173454691Y-87614364D01*
X173454686Y-87614364D01*
X173228002Y-87594532D01*
X173227998Y-87594532D01*
X173001313Y-87614364D01*
X173001302Y-87614366D01*
X172781511Y-87673258D01*
X172781502Y-87673261D01*
X172575267Y-87769431D01*
X172575265Y-87769432D01*
X172388858Y-87899954D01*
X172227954Y-88060858D01*
X172097432Y-88247265D01*
X172097431Y-88247267D01*
X172001261Y-88453502D01*
X172001258Y-88453511D01*
X171942366Y-88673302D01*
X171942364Y-88673313D01*
X171922532Y-88899998D01*
X171922532Y-88900001D01*
X167206620Y-88900001D01*
X164412280Y-86105661D01*
X164378795Y-86044338D01*
X164383779Y-85974646D01*
X164425651Y-85918713D01*
X164491115Y-85894296D01*
X164499961Y-85893980D01*
X167528893Y-85893980D01*
X167548292Y-85895507D01*
X167562132Y-85897699D01*
X167631479Y-85894064D01*
X167634723Y-85893980D01*
X167656711Y-85893980D01*
X167656712Y-85893980D01*
X167673508Y-85892214D01*
X167678584Y-85891681D01*
X167681804Y-85891427D01*
X167751166Y-85887793D01*
X167764707Y-85884163D01*
X167783833Y-85880618D01*
X167797776Y-85879154D01*
X167863826Y-85857692D01*
X167866888Y-85856784D01*
X167934008Y-85838800D01*
X167946496Y-85832436D01*
X167964470Y-85824990D01*
X167977804Y-85820659D01*
X168037996Y-85785905D01*
X168040742Y-85784414D01*
X168102669Y-85752863D01*
X168113551Y-85744049D01*
X168129603Y-85733017D01*
X168141736Y-85726013D01*
X168193367Y-85679523D01*
X168195780Y-85677462D01*
X168212900Y-85663599D01*
X168228449Y-85648048D01*
X168230790Y-85645827D01*
X168282408Y-85599351D01*
X168290650Y-85588005D01*
X168303280Y-85573217D01*
X171155737Y-82720760D01*
X171170525Y-82708130D01*
X171181871Y-82699888D01*
X171228347Y-82648270D01*
X171230570Y-82645928D01*
X171246119Y-82630380D01*
X171259982Y-82613260D01*
X171262049Y-82610841D01*
X171308533Y-82559216D01*
X171315538Y-82547080D01*
X171326570Y-82531031D01*
X171335381Y-82520151D01*
X171335383Y-82520149D01*
X171366934Y-82458222D01*
X171368425Y-82455476D01*
X171403179Y-82395284D01*
X171407509Y-82381956D01*
X171414960Y-82363969D01*
X171421319Y-82351490D01*
X171421320Y-82351488D01*
X171439297Y-82284390D01*
X171440201Y-82281337D01*
X171461674Y-82215256D01*
X171463139Y-82201307D01*
X171466684Y-82182183D01*
X171470312Y-82168646D01*
X171473947Y-82099284D01*
X171474200Y-82096071D01*
X171476500Y-82074192D01*
X171476500Y-82052196D01*
X171476585Y-82048950D01*
X171480219Y-81979612D01*
X171478027Y-81965772D01*
X171476500Y-81946373D01*
X171476500Y-76864439D01*
X171496185Y-76797400D01*
X171548989Y-76751645D01*
X171557168Y-76748257D01*
X171668326Y-76706798D01*
X171668326Y-76706797D01*
X171668331Y-76706796D01*
X171783546Y-76620546D01*
X171869796Y-76505331D01*
X171918810Y-76373916D01*
X171960681Y-76317984D01*
X172026145Y-76293566D01*
X172094418Y-76308417D01*
X172122673Y-76329569D01*
X172244599Y-76451495D01*
X172341384Y-76519265D01*
X172438165Y-76587032D01*
X172438167Y-76587033D01*
X172438170Y-76587035D01*
X172652337Y-76686903D01*
X172880592Y-76748063D01*
X173053788Y-76763216D01*
X173115999Y-76768659D01*
X173116000Y-76768659D01*
X173116001Y-76768659D01*
X173155234Y-76765226D01*
X173351408Y-76748063D01*
X173579663Y-76686903D01*
X173793830Y-76587035D01*
X173987401Y-76451495D01*
X174154495Y-76284401D01*
X174284730Y-76098405D01*
X174339307Y-76054781D01*
X174408805Y-76047587D01*
X174471160Y-76079110D01*
X174487879Y-76098405D01*
X174617890Y-76284078D01*
X174784917Y-76451105D01*
X174978421Y-76586600D01*
X175192507Y-76686429D01*
X175192516Y-76686433D01*
X175406000Y-76743634D01*
X175406000Y-75848501D01*
X175513685Y-75897680D01*
X175620237Y-75913000D01*
X175691763Y-75913000D01*
X175798315Y-75897680D01*
X175906000Y-75848501D01*
X175906000Y-76743633D01*
X176119483Y-76686433D01*
X176119492Y-76686429D01*
X176333578Y-76586600D01*
X176527082Y-76451105D01*
X176694105Y-76284082D01*
X176829600Y-76090578D01*
X176929429Y-75876492D01*
X176929432Y-75876486D01*
X176986636Y-75663000D01*
X176089686Y-75663000D01*
X176115493Y-75622844D01*
X176156000Y-75484889D01*
X176156000Y-75341111D01*
X176115493Y-75203156D01*
X176089686Y-75163000D01*
X176986636Y-75163000D01*
X176986635Y-75162999D01*
X176929432Y-74949513D01*
X176929429Y-74949507D01*
X176829600Y-74735422D01*
X176829599Y-74735420D01*
X176694113Y-74541926D01*
X176694108Y-74541920D01*
X176527082Y-74374894D01*
X176333578Y-74239399D01*
X176119492Y-74139570D01*
X176119486Y-74139567D01*
X175906000Y-74082364D01*
X175906000Y-74977498D01*
X175798315Y-74928320D01*
X175691763Y-74913000D01*
X175620237Y-74913000D01*
X175513685Y-74928320D01*
X175406000Y-74977498D01*
X175406000Y-74082364D01*
X175405999Y-74082364D01*
X175192513Y-74139567D01*
X175192507Y-74139570D01*
X174978422Y-74239399D01*
X174978420Y-74239400D01*
X174784926Y-74374886D01*
X174784920Y-74374891D01*
X174617891Y-74541920D01*
X174617890Y-74541922D01*
X174487880Y-74727595D01*
X174433303Y-74771219D01*
X174363804Y-74778412D01*
X174301450Y-74746890D01*
X174284730Y-74727594D01*
X174154494Y-74541597D01*
X173987402Y-74374506D01*
X173987395Y-74374501D01*
X173793834Y-74238967D01*
X173793830Y-74238965D01*
X173793828Y-74238964D01*
X173579663Y-74139097D01*
X173579659Y-74139096D01*
X173579655Y-74139094D01*
X173351413Y-74077938D01*
X173351403Y-74077936D01*
X173116001Y-74057341D01*
X173115999Y-74057341D01*
X172880596Y-74077936D01*
X172880586Y-74077938D01*
X172652344Y-74139094D01*
X172652335Y-74139098D01*
X172438171Y-74238964D01*
X172438169Y-74238965D01*
X172244600Y-74374503D01*
X172122673Y-74496430D01*
X172061350Y-74529914D01*
X171991658Y-74524930D01*
X171935725Y-74483058D01*
X171918810Y-74452081D01*
X171869797Y-74320671D01*
X171869793Y-74320664D01*
X171783547Y-74205455D01*
X171783544Y-74205452D01*
X171668335Y-74119206D01*
X171668329Y-74119203D01*
X171557166Y-74077741D01*
X171501233Y-74035869D01*
X171476816Y-73970405D01*
X171476500Y-73961559D01*
X171476500Y-73181439D01*
X171496185Y-73114400D01*
X171548989Y-73068645D01*
X171557168Y-73065257D01*
X171668326Y-73023798D01*
X171668326Y-73023797D01*
X171668331Y-73023796D01*
X171783546Y-72937546D01*
X171869796Y-72822331D01*
X171918810Y-72690916D01*
X171960681Y-72634984D01*
X172026145Y-72610566D01*
X172094418Y-72625417D01*
X172122673Y-72646569D01*
X172244599Y-72768495D01*
X172341384Y-72836265D01*
X172438165Y-72904032D01*
X172438167Y-72904033D01*
X172438170Y-72904035D01*
X172652337Y-73003903D01*
X172880592Y-73065063D01*
X173053788Y-73080216D01*
X173115999Y-73085659D01*
X173116000Y-73085659D01*
X173116001Y-73085659D01*
X173155234Y-73082226D01*
X173351408Y-73065063D01*
X173579663Y-73003903D01*
X173793830Y-72904035D01*
X173987401Y-72768495D01*
X174154495Y-72601401D01*
X174284730Y-72415405D01*
X174339307Y-72371781D01*
X174408805Y-72364587D01*
X174471160Y-72396110D01*
X174487879Y-72415405D01*
X174617890Y-72601078D01*
X174784917Y-72768105D01*
X174978421Y-72903600D01*
X175192507Y-73003429D01*
X175192516Y-73003433D01*
X175406000Y-73060634D01*
X175406000Y-72165501D01*
X175513685Y-72214680D01*
X175620237Y-72230000D01*
X175691763Y-72230000D01*
X175798315Y-72214680D01*
X175906000Y-72165501D01*
X175906000Y-73060633D01*
X176119483Y-73003433D01*
X176119492Y-73003429D01*
X176333578Y-72903600D01*
X176527082Y-72768105D01*
X176694105Y-72601082D01*
X176829600Y-72407578D01*
X176929429Y-72193492D01*
X176929432Y-72193486D01*
X176986636Y-71980000D01*
X176089686Y-71980000D01*
X176115493Y-71939844D01*
X176156000Y-71801889D01*
X176156000Y-71658111D01*
X176115493Y-71520156D01*
X176089686Y-71480000D01*
X176986636Y-71480000D01*
X176986635Y-71479999D01*
X176929432Y-71266513D01*
X176929429Y-71266507D01*
X176829600Y-71052422D01*
X176829599Y-71052420D01*
X176694113Y-70858926D01*
X176694108Y-70858920D01*
X176527082Y-70691894D01*
X176333578Y-70556399D01*
X176119492Y-70456570D01*
X176119486Y-70456567D01*
X175906000Y-70399364D01*
X175906000Y-71294498D01*
X175798315Y-71245320D01*
X175691763Y-71230000D01*
X175620237Y-71230000D01*
X175513685Y-71245320D01*
X175406000Y-71294498D01*
X175406000Y-70399364D01*
X175405999Y-70399364D01*
X175192513Y-70456567D01*
X175192507Y-70456570D01*
X174978422Y-70556399D01*
X174978420Y-70556400D01*
X174784926Y-70691886D01*
X174784920Y-70691891D01*
X174617891Y-70858920D01*
X174617890Y-70858922D01*
X174487880Y-71044595D01*
X174433303Y-71088219D01*
X174363804Y-71095412D01*
X174301450Y-71063890D01*
X174284730Y-71044594D01*
X174154494Y-70858597D01*
X173987402Y-70691506D01*
X173987395Y-70691501D01*
X173793834Y-70555967D01*
X173793830Y-70555965D01*
X173793828Y-70555964D01*
X173579663Y-70456097D01*
X173579659Y-70456096D01*
X173579655Y-70456094D01*
X173351413Y-70394938D01*
X173351403Y-70394936D01*
X173116001Y-70374341D01*
X173115999Y-70374341D01*
X172880596Y-70394936D01*
X172880586Y-70394938D01*
X172652344Y-70456094D01*
X172652335Y-70456098D01*
X172438171Y-70555964D01*
X172438169Y-70555965D01*
X172244600Y-70691503D01*
X172122673Y-70813430D01*
X172061350Y-70846914D01*
X171991658Y-70841930D01*
X171935725Y-70800058D01*
X171918810Y-70769081D01*
X171869797Y-70637671D01*
X171869793Y-70637664D01*
X171783547Y-70522455D01*
X171783544Y-70522452D01*
X171668335Y-70436206D01*
X171668329Y-70436203D01*
X171557166Y-70394741D01*
X171501233Y-70352869D01*
X171476816Y-70287405D01*
X171476500Y-70278559D01*
X171476500Y-69498439D01*
X171496185Y-69431400D01*
X171548989Y-69385645D01*
X171557168Y-69382257D01*
X171668326Y-69340798D01*
X171668326Y-69340797D01*
X171668331Y-69340796D01*
X171783546Y-69254546D01*
X171869796Y-69139331D01*
X171918810Y-69007916D01*
X171960681Y-68951984D01*
X172026145Y-68927566D01*
X172094418Y-68942417D01*
X172122673Y-68963569D01*
X172244599Y-69085495D01*
X172341384Y-69153265D01*
X172438165Y-69221032D01*
X172438167Y-69221033D01*
X172438170Y-69221035D01*
X172652337Y-69320903D01*
X172880592Y-69382063D01*
X173053788Y-69397216D01*
X173115999Y-69402659D01*
X173116000Y-69402659D01*
X173116001Y-69402659D01*
X173155234Y-69399226D01*
X173351408Y-69382063D01*
X173579663Y-69320903D01*
X173793830Y-69221035D01*
X173987401Y-69085495D01*
X174154495Y-68918401D01*
X174284730Y-68732405D01*
X174339307Y-68688781D01*
X174408805Y-68681587D01*
X174471160Y-68713110D01*
X174487879Y-68732405D01*
X174617890Y-68918078D01*
X174784917Y-69085105D01*
X174978421Y-69220600D01*
X175192507Y-69320429D01*
X175192516Y-69320433D01*
X175406000Y-69377634D01*
X175406000Y-68482501D01*
X175513685Y-68531680D01*
X175620237Y-68547000D01*
X175691763Y-68547000D01*
X175798315Y-68531680D01*
X175906000Y-68482501D01*
X175906000Y-69377633D01*
X176119483Y-69320433D01*
X176119492Y-69320429D01*
X176333578Y-69220600D01*
X176527082Y-69085105D01*
X176694105Y-68918082D01*
X176829600Y-68724578D01*
X176929429Y-68510492D01*
X176929432Y-68510486D01*
X176986636Y-68297000D01*
X176089686Y-68297000D01*
X176115493Y-68256844D01*
X176156000Y-68118889D01*
X176156000Y-67975111D01*
X176115493Y-67837156D01*
X176089686Y-67797000D01*
X176986636Y-67797000D01*
X176986635Y-67796999D01*
X176929432Y-67583513D01*
X176929429Y-67583507D01*
X176829600Y-67369422D01*
X176829599Y-67369420D01*
X176694113Y-67175926D01*
X176694108Y-67175920D01*
X176527082Y-67008894D01*
X176333578Y-66873399D01*
X176119492Y-66773570D01*
X176119486Y-66773567D01*
X175906000Y-66716364D01*
X175906000Y-67611498D01*
X175798315Y-67562320D01*
X175691763Y-67547000D01*
X175620237Y-67547000D01*
X175513685Y-67562320D01*
X175406000Y-67611498D01*
X175406000Y-66716364D01*
X175405999Y-66716364D01*
X175192513Y-66773567D01*
X175192507Y-66773570D01*
X174978422Y-66873399D01*
X174978420Y-66873400D01*
X174784926Y-67008886D01*
X174784920Y-67008891D01*
X174617891Y-67175920D01*
X174617890Y-67175922D01*
X174487880Y-67361595D01*
X174433303Y-67405219D01*
X174363804Y-67412412D01*
X174301450Y-67380890D01*
X174284730Y-67361594D01*
X174154494Y-67175597D01*
X173987402Y-67008506D01*
X173987395Y-67008501D01*
X173793834Y-66872967D01*
X173793830Y-66872965D01*
X173793828Y-66872964D01*
X173579663Y-66773097D01*
X173579659Y-66773096D01*
X173579655Y-66773094D01*
X173351413Y-66711938D01*
X173351403Y-66711936D01*
X173116001Y-66691341D01*
X173115999Y-66691341D01*
X172880596Y-66711936D01*
X172880586Y-66711938D01*
X172652344Y-66773094D01*
X172652335Y-66773098D01*
X172438171Y-66872964D01*
X172438169Y-66872965D01*
X172244600Y-67008503D01*
X172122673Y-67130430D01*
X172061350Y-67163914D01*
X171991658Y-67158930D01*
X171935725Y-67117058D01*
X171918810Y-67086081D01*
X171869797Y-66954671D01*
X171869793Y-66954664D01*
X171783547Y-66839455D01*
X171783544Y-66839452D01*
X171668335Y-66753206D01*
X171668328Y-66753202D01*
X171533482Y-66702908D01*
X171533483Y-66702908D01*
X171473883Y-66696501D01*
X171473881Y-66696500D01*
X171473873Y-66696500D01*
X171473864Y-66696500D01*
X169678129Y-66696500D01*
X169678123Y-66696501D01*
X169618516Y-66702908D01*
X169483671Y-66753202D01*
X169483664Y-66753206D01*
X169368455Y-66839452D01*
X169368452Y-66839455D01*
X169282206Y-66954664D01*
X169282202Y-66954671D01*
X169231908Y-67089517D01*
X169225501Y-67149116D01*
X169225500Y-67149135D01*
X169225500Y-68944870D01*
X169225501Y-68944876D01*
X169231908Y-69004483D01*
X169282202Y-69139328D01*
X169282206Y-69139335D01*
X169368452Y-69254544D01*
X169368455Y-69254547D01*
X169483664Y-69340793D01*
X169483673Y-69340798D01*
X169594832Y-69382257D01*
X169650766Y-69424127D01*
X169675184Y-69489592D01*
X169675500Y-69498439D01*
X169675500Y-70278560D01*
X169655815Y-70345599D01*
X169603011Y-70391354D01*
X169594833Y-70394742D01*
X169483671Y-70436202D01*
X169483664Y-70436206D01*
X169368455Y-70522452D01*
X169368452Y-70522455D01*
X169282206Y-70637664D01*
X169282202Y-70637671D01*
X169231908Y-70772517D01*
X169225501Y-70832116D01*
X169225500Y-70832135D01*
X169225500Y-72627870D01*
X169225501Y-72627876D01*
X169231908Y-72687483D01*
X169282202Y-72822328D01*
X169282206Y-72822335D01*
X169368452Y-72937544D01*
X169368455Y-72937547D01*
X169483664Y-73023793D01*
X169483673Y-73023798D01*
X169594832Y-73065257D01*
X169650766Y-73107127D01*
X169675184Y-73172592D01*
X169675500Y-73181439D01*
X169675500Y-73961560D01*
X169655815Y-74028599D01*
X169603011Y-74074354D01*
X169594833Y-74077742D01*
X169483671Y-74119202D01*
X169483664Y-74119206D01*
X169368455Y-74205452D01*
X169368452Y-74205455D01*
X169282206Y-74320664D01*
X169282202Y-74320671D01*
X169231908Y-74455517D01*
X169225501Y-74515116D01*
X169225500Y-74515135D01*
X169225500Y-76310870D01*
X169225501Y-76310876D01*
X169231908Y-76370483D01*
X169282202Y-76505328D01*
X169282206Y-76505335D01*
X169368452Y-76620544D01*
X169368455Y-76620547D01*
X169483664Y-76706793D01*
X169483673Y-76706798D01*
X169594832Y-76748257D01*
X169650766Y-76790127D01*
X169675184Y-76855592D01*
X169675500Y-76864439D01*
X169675500Y-81602639D01*
X169655815Y-81669678D01*
X169639181Y-81690320D01*
X167272840Y-84056661D01*
X167211517Y-84090146D01*
X167185159Y-84092980D01*
X162962908Y-84092980D01*
X162895869Y-84073295D01*
X162875227Y-84056661D01*
X162841221Y-84022655D01*
X162841215Y-84022650D01*
X162660266Y-83895948D01*
X162660262Y-83895946D01*
X162660260Y-83895945D01*
X162460050Y-83802586D01*
X162460047Y-83802585D01*
X162460045Y-83802584D01*
X162246670Y-83745410D01*
X162246662Y-83745409D01*
X162026602Y-83726157D01*
X162026598Y-83726157D01*
X161806537Y-83745409D01*
X161806529Y-83745410D01*
X161593154Y-83802584D01*
X161593148Y-83802587D01*
X161392940Y-83895945D01*
X161392938Y-83895946D01*
X161211977Y-84022655D01*
X161055775Y-84178857D01*
X160929066Y-84359818D01*
X160929065Y-84359820D01*
X160835707Y-84560028D01*
X160835704Y-84560034D01*
X160778530Y-84773409D01*
X160778529Y-84773417D01*
X160759277Y-84993477D01*
X160759277Y-84993482D01*
X160778529Y-85213542D01*
X160778530Y-85213550D01*
X160835704Y-85426925D01*
X160835705Y-85426927D01*
X160835706Y-85426930D01*
X160903918Y-85573211D01*
X160929066Y-85627142D01*
X160929068Y-85627146D01*
X161055770Y-85808095D01*
X161055775Y-85808101D01*
X161154232Y-85906558D01*
X161187717Y-85967881D01*
X161182733Y-86037573D01*
X161154233Y-86081920D01*
X161055772Y-86180381D01*
X160929066Y-86361338D01*
X160929065Y-86361340D01*
X160835707Y-86561548D01*
X160835704Y-86561554D01*
X160778530Y-86774929D01*
X160778529Y-86774937D01*
X160759277Y-86994997D01*
X160759277Y-86995002D01*
X160778529Y-87215062D01*
X160778530Y-87215070D01*
X160835704Y-87428445D01*
X160835705Y-87428447D01*
X160835706Y-87428450D01*
X160895946Y-87557635D01*
X160929066Y-87628662D01*
X160929068Y-87628666D01*
X161055770Y-87809615D01*
X161055775Y-87809621D01*
X161152962Y-87906808D01*
X161186447Y-87968131D01*
X161181463Y-88037823D01*
X161152963Y-88082170D01*
X161055772Y-88179361D01*
X160929066Y-88360318D01*
X160929065Y-88360320D01*
X160835707Y-88560528D01*
X160835704Y-88560534D01*
X160778530Y-88773909D01*
X160778529Y-88773917D01*
X160759277Y-88993977D01*
X160759277Y-88993982D01*
X160778529Y-89214042D01*
X160778530Y-89214050D01*
X160835704Y-89427425D01*
X160835705Y-89427427D01*
X160835706Y-89427430D01*
X160894135Y-89552732D01*
X160929066Y-89627642D01*
X160929068Y-89627646D01*
X161055770Y-89808595D01*
X161055775Y-89808601D01*
X161154232Y-89907058D01*
X161187717Y-89968381D01*
X161182733Y-90038073D01*
X161154233Y-90082420D01*
X161055772Y-90180881D01*
X160929066Y-90361838D01*
X160929065Y-90361840D01*
X160835707Y-90562048D01*
X160835704Y-90562054D01*
X160778530Y-90775429D01*
X160778529Y-90775437D01*
X160759277Y-90995497D01*
X160759277Y-90995502D01*
X160778529Y-91215562D01*
X160778530Y-91215570D01*
X160835704Y-91428945D01*
X160835705Y-91428947D01*
X160835706Y-91428950D01*
X160835710Y-91428958D01*
X160929066Y-91629162D01*
X160929068Y-91629166D01*
X161055770Y-91810115D01*
X161055775Y-91810121D01*
X161152962Y-91907308D01*
X161186447Y-91968631D01*
X161181463Y-92038323D01*
X161152963Y-92082670D01*
X161055772Y-92179861D01*
X160929066Y-92360818D01*
X160929065Y-92360820D01*
X160835707Y-92561028D01*
X160835704Y-92561034D01*
X160778530Y-92774409D01*
X160778529Y-92774417D01*
X160759277Y-92994477D01*
X160759277Y-92994482D01*
X160778529Y-93214542D01*
X160778530Y-93214550D01*
X160835704Y-93427925D01*
X160835705Y-93427927D01*
X160835706Y-93427930D01*
X160929066Y-93628142D01*
X160929068Y-93628146D01*
X161055770Y-93809095D01*
X161055775Y-93809101D01*
X161152962Y-93906288D01*
X161186447Y-93967611D01*
X161181463Y-94037303D01*
X161152963Y-94081650D01*
X161055772Y-94178841D01*
X160929066Y-94359798D01*
X160929065Y-94359800D01*
X160835707Y-94560008D01*
X160835704Y-94560014D01*
X160778530Y-94773389D01*
X160778529Y-94773397D01*
X160759277Y-94993457D01*
X160759277Y-94993462D01*
X160778529Y-95213522D01*
X160778530Y-95213530D01*
X160835704Y-95426905D01*
X160835705Y-95426907D01*
X160835706Y-95426910D01*
X160929066Y-95627122D01*
X160929068Y-95627126D01*
X161055770Y-95808075D01*
X161055775Y-95808081D01*
X161154232Y-95906538D01*
X161187717Y-95967861D01*
X161182733Y-96037553D01*
X161154233Y-96081900D01*
X161055772Y-96180361D01*
X160929066Y-96361318D01*
X160929065Y-96361320D01*
X160835707Y-96561528D01*
X160835704Y-96561534D01*
X160778530Y-96774909D01*
X160778529Y-96774917D01*
X160759277Y-96994977D01*
X160759277Y-96994982D01*
X160778529Y-97215042D01*
X160778530Y-97215050D01*
X160835704Y-97428425D01*
X160835705Y-97428427D01*
X160835706Y-97428430D01*
X160881824Y-97527331D01*
X160929066Y-97628642D01*
X160929068Y-97628646D01*
X161055770Y-97809595D01*
X161055775Y-97809601D01*
X161152962Y-97906788D01*
X161186447Y-97968111D01*
X161181463Y-98037803D01*
X161152963Y-98082150D01*
X161055772Y-98179341D01*
X160929066Y-98360298D01*
X160929065Y-98360300D01*
X160835707Y-98560508D01*
X160835704Y-98560514D01*
X160778530Y-98773889D01*
X160778529Y-98773897D01*
X160759277Y-98993957D01*
X160759277Y-98993962D01*
X160778529Y-99214022D01*
X160778530Y-99214030D01*
X160835704Y-99427405D01*
X160835705Y-99427407D01*
X160835706Y-99427410D01*
X160898588Y-99562262D01*
X160929066Y-99627622D01*
X160929068Y-99627626D01*
X161055770Y-99808575D01*
X161055775Y-99808581D01*
X161154232Y-99907038D01*
X161187717Y-99968361D01*
X161182733Y-100038053D01*
X161154233Y-100082400D01*
X161055772Y-100180861D01*
X160929066Y-100361818D01*
X160929065Y-100361820D01*
X160835707Y-100562028D01*
X160835704Y-100562034D01*
X160778530Y-100775409D01*
X160778529Y-100775417D01*
X160759277Y-100995477D01*
X160759277Y-100995482D01*
X160778529Y-101215542D01*
X160778530Y-101215550D01*
X160835704Y-101428925D01*
X160835705Y-101428927D01*
X160835706Y-101428930D01*
X160929066Y-101629142D01*
X160929068Y-101629146D01*
X161055770Y-101810095D01*
X161055774Y-101810100D01*
X161211980Y-101966306D01*
X161392938Y-102093014D01*
X161533837Y-102158716D01*
X161569107Y-102183413D01*
X161983266Y-102597572D01*
X161901834Y-102610470D01*
X161789281Y-102667819D01*
X161699959Y-102757141D01*
X161642610Y-102869694D01*
X161629712Y-102951125D01*
X160974858Y-102296271D01*
X160974857Y-102296272D01*
X160929503Y-102361046D01*
X160836179Y-102561180D01*
X160836175Y-102561189D01*
X160779026Y-102774473D01*
X160779024Y-102774483D01*
X160759779Y-102994459D01*
X160759779Y-102994460D01*
X160779024Y-103214436D01*
X160779026Y-103214446D01*
X160836175Y-103427730D01*
X160836180Y-103427744D01*
X160929499Y-103627867D01*
X160929500Y-103627869D01*
X160974858Y-103692647D01*
X161629712Y-103037793D01*
X161642610Y-103119226D01*
X161699959Y-103231779D01*
X161789281Y-103321101D01*
X161901834Y-103378450D01*
X161983265Y-103391347D01*
X161328411Y-104046201D01*
X161393182Y-104091554D01*
X161393192Y-104091560D01*
X161593315Y-104184879D01*
X161593329Y-104184884D01*
X161806613Y-104242033D01*
X161806623Y-104242035D01*
X162026599Y-104261281D01*
X162026601Y-104261281D01*
X162246576Y-104242035D01*
X162246586Y-104242033D01*
X162459870Y-104184884D01*
X162459884Y-104184879D01*
X162660008Y-104091560D01*
X162660020Y-104091553D01*
X162724786Y-104046202D01*
X162724787Y-104046200D01*
X162069935Y-103391347D01*
X162151366Y-103378450D01*
X162263919Y-103321101D01*
X162353241Y-103231779D01*
X162410590Y-103119226D01*
X162423487Y-103037794D01*
X163078340Y-103692647D01*
X163078342Y-103692646D01*
X163123693Y-103627880D01*
X163123700Y-103627868D01*
X163217019Y-103427744D01*
X163217024Y-103427730D01*
X163274173Y-103214446D01*
X163274175Y-103214436D01*
X163293421Y-102994460D01*
X163293421Y-102994459D01*
X163274175Y-102774483D01*
X163274173Y-102774473D01*
X163217024Y-102561189D01*
X163217020Y-102561180D01*
X163123698Y-102361050D01*
X163078340Y-102296271D01*
X162423487Y-102951124D01*
X162410590Y-102869694D01*
X162353241Y-102757141D01*
X162263919Y-102667819D01*
X162151366Y-102610470D01*
X162069931Y-102597572D01*
X162484088Y-102183415D01*
X162519363Y-102158715D01*
X162660262Y-102093014D01*
X162841220Y-101966306D01*
X162997426Y-101810100D01*
X163040310Y-101748856D01*
X163094887Y-101705231D01*
X163141884Y-101695980D01*
X165931961Y-101695980D01*
X165999000Y-101715665D01*
X166019642Y-101732299D01*
X167538181Y-103250838D01*
X167571666Y-103312161D01*
X167574500Y-103338519D01*
X167574500Y-107915692D01*
X167554815Y-107982731D01*
X167502011Y-108028486D01*
X167464384Y-108038912D01*
X167333749Y-108053630D01*
X167333745Y-108053631D01*
X167163474Y-108113212D01*
X167153477Y-108119494D01*
X167087506Y-108138500D01*
X163155518Y-108138500D01*
X163088479Y-108118815D01*
X163067837Y-108102181D01*
X159922367Y-104956711D01*
X159893006Y-104909983D01*
X159856789Y-104806478D01*
X159856789Y-104806477D01*
X159760815Y-104653737D01*
X159633262Y-104526184D01*
X159480523Y-104430211D01*
X159310254Y-104370631D01*
X159310249Y-104370630D01*
X159131004Y-104350435D01*
X159130996Y-104350435D01*
X158951750Y-104370630D01*
X158951745Y-104370631D01*
X158781476Y-104430211D01*
X158628737Y-104526184D01*
X158501184Y-104653737D01*
X158405211Y-104806476D01*
X158345631Y-104976745D01*
X158345630Y-104976750D01*
X158325435Y-105155996D01*
X158325435Y-105156003D01*
X157178776Y-105156003D01*
X157178776Y-64459127D01*
X157198461Y-64392088D01*
X157251265Y-64346333D01*
X157320423Y-64336389D01*
X157383979Y-64365414D01*
X157408895Y-64394981D01*
X157412886Y-64401585D01*
X157560477Y-64589968D01*
X158703211Y-63447235D01*
X158803894Y-63588624D01*
X158955932Y-63733592D01*
X159058222Y-63799330D01*
X157914030Y-64943521D01*
X157914030Y-64943522D01*
X158102414Y-65091112D01*
X158102423Y-65091118D01*
X158381956Y-65260101D01*
X158381958Y-65260102D01*
X158679824Y-65394160D01*
X158679835Y-65394164D01*
X158991658Y-65491332D01*
X159312961Y-65550213D01*
X159639000Y-65569934D01*
X159965038Y-65550213D01*
X160286341Y-65491332D01*
X160598164Y-65394164D01*
X160598175Y-65394160D01*
X160896041Y-65260102D01*
X160896043Y-65260101D01*
X161175576Y-65091118D01*
X161175584Y-65091112D01*
X161363968Y-64943522D01*
X161363968Y-64943521D01*
X160222306Y-63801859D01*
X160236410Y-63794589D01*
X160401540Y-63664729D01*
X160539110Y-63505965D01*
X160573665Y-63446112D01*
X161717521Y-64589968D01*
X161717522Y-64589968D01*
X161865112Y-64401584D01*
X161865118Y-64401576D01*
X162034101Y-64122043D01*
X162034102Y-64122041D01*
X162168160Y-63824175D01*
X162168164Y-63824164D01*
X162265332Y-63512341D01*
X162324213Y-63191038D01*
X162343934Y-62865000D01*
X162324213Y-62538961D01*
X162265332Y-62217658D01*
X162168164Y-61905835D01*
X162168160Y-61905824D01*
X162034102Y-61607958D01*
X162034101Y-61607956D01*
X161865118Y-61328423D01*
X161865112Y-61328414D01*
X161717521Y-61140030D01*
X160574788Y-62282763D01*
X160474106Y-62141376D01*
X160322068Y-61996408D01*
X160219777Y-61930669D01*
X161363968Y-60786477D01*
X161363968Y-60786476D01*
X161175586Y-60638887D01*
X161034510Y-60553604D01*
X160987322Y-60502076D01*
X160975484Y-60433217D01*
X161002753Y-60368888D01*
X161060472Y-60329514D01*
X161098660Y-60323487D01*
X185484340Y-60323487D01*
X185551379Y-60343172D01*
G37*
%TD.AperFunction*%
%TA.AperFunction,Conductor*%
G36*
X189022521Y-120236968D02*
G01*
X189022522Y-120236968D01*
X189068586Y-120178172D01*
X189125426Y-120137539D01*
X189195210Y-120134087D01*
X189255783Y-120168911D01*
X189287913Y-120230955D01*
X189290197Y-120254645D01*
X189290197Y-120601303D01*
X189270512Y-120668342D01*
X189217708Y-120714097D01*
X189166197Y-120725303D01*
X188792543Y-120725303D01*
X188725504Y-120705618D01*
X188679749Y-120652814D01*
X188668769Y-120593816D01*
X188668968Y-120590521D01*
X187527306Y-119448859D01*
X187541410Y-119441589D01*
X187706540Y-119311729D01*
X187844110Y-119152965D01*
X187878665Y-119093112D01*
X189022521Y-120236968D01*
G37*
%TD.AperFunction*%
%TA.AperFunction,Conductor*%
G36*
X158246379Y-60343172D02*
G01*
X158292134Y-60395976D01*
X158302078Y-60465134D01*
X158273053Y-60528690D01*
X158243490Y-60553604D01*
X158102423Y-60638881D01*
X157914030Y-60786476D01*
X157914030Y-60786477D01*
X159055693Y-61928140D01*
X159041590Y-61935411D01*
X158876460Y-62065271D01*
X158738890Y-62224035D01*
X158704334Y-62283887D01*
X157560477Y-61140030D01*
X157560476Y-61140030D01*
X157412881Y-61328422D01*
X157408892Y-61335022D01*
X157357363Y-61382209D01*
X157288503Y-61394046D01*
X157224175Y-61366776D01*
X157184802Y-61309056D01*
X157178776Y-61270870D01*
X157178776Y-60447487D01*
X157198461Y-60380448D01*
X157251265Y-60334693D01*
X157302776Y-60323487D01*
X158179340Y-60323487D01*
X158246379Y-60343172D01*
G37*
%TD.AperFunction*%
%TA.AperFunction,Conductor*%
G36*
X189233236Y-60343172D02*
G01*
X189278991Y-60395976D01*
X189290197Y-60447487D01*
X189290197Y-61122353D01*
X189270512Y-61189392D01*
X189217708Y-61235147D01*
X189148550Y-61245091D01*
X189084994Y-61216066D01*
X189068586Y-61198826D01*
X189022521Y-61140030D01*
X187879788Y-62282763D01*
X187779106Y-62141376D01*
X187627068Y-61996408D01*
X187524777Y-61930669D01*
X188668968Y-60786477D01*
X188668968Y-60786476D01*
X188480586Y-60638887D01*
X188339510Y-60553604D01*
X188292322Y-60502076D01*
X188280484Y-60433217D01*
X188307753Y-60368888D01*
X188365472Y-60329514D01*
X188403660Y-60323487D01*
X189166197Y-60323487D01*
X189233236Y-60343172D01*
G37*
%TD.AperFunction*%
%TD*%
M02*
