M48
; DRILL file {KiCad 7.0.9} date Sat Dec 30 17:24:43 2023
; FORMAT={-:-/ absolute / inch / decimal}
; #@! TF.CreationDate,2023-12-30T17:24:43+01:00
; #@! TF.GenerationSoftware,Kicad,Pcbnew,7.0.9
; #@! TF.FileFunction,Plated,1,2,PTH
FMAT,2
INCH
; #@! TA.AperFunction,Plated,PTH,ViaDrill
T1C0.0118
; #@! TA.AperFunction,Plated,PTH,ComponentDrill
T2C0.0314
; #@! TA.AperFunction,Plated,PTH,ComponentDrill
T3C0.0315
; #@! TA.AperFunction,Plated,PTH,ComponentDrill
T4C0.0374
; #@! TA.AperFunction,Plated,PTH,ComponentDrill
T5C0.0394
; #@! TA.AperFunction,Plated,PTH,ViaDrill
T6C0.0472
; #@! TA.AperFunction,Plated,PTH,ComponentDrill
T7C0.0866
%
G90
G05
T1
X6.265Y-4.14
X6.595Y-4.285
X6.89Y-3.9
T2
X6.379Y-3.3462
X6.379Y-3.425
X6.379Y-3.5037
X6.379Y-3.5825
X6.379Y-3.6612
X6.379Y-3.7399
X6.379Y-3.8187
X6.379Y-3.8974
X6.379Y-3.9762
X6.379Y-4.0549
X7.245Y-3.3462
X7.245Y-3.425
X7.245Y-3.5037
X7.245Y-3.5825
X7.245Y-3.6612
X7.245Y-3.7399
X7.245Y-3.8187
X7.245Y-3.8974
X7.245Y-3.9762
X7.245Y-4.0549
T3
X6.685Y-4.2
X6.685Y-4.5
X6.785Y-4.2
X6.785Y-4.5
X6.885Y-4.2
X6.885Y-4.5
X6.985Y-4.2
X6.985Y-4.5
T4
X6.7366Y-4.6354
X6.835Y-4.6354
X6.9334Y-4.6354
T5
X6.495Y-4.525
X6.495Y-4.6234
X6.7156Y-2.679
X6.7156Y-2.824
X6.7156Y-2.969
X6.8156Y-2.679
X6.8156Y-2.824
X6.8156Y-2.969
X6.9156Y-2.679
X6.9156Y-2.824
X6.9156Y-2.969
X7.18Y-4.53
X7.18Y-4.6284
T6
X6.82Y-3.5
T7
X6.285Y-2.475
X6.285Y-4.655
X7.36Y-2.475
X7.36Y-4.6658
T0
M30
